<?xml version="1.0" encoding="utf-8" standalone="no"?>
<!DOCTYPE svg PUBLIC "-//W3C//DTD SVG 1.1//EN"
  "http://www.w3.org/Graphics/SVG/1.1/DTD/svg11.dtd">
<!-- Created with matplotlib (http://matplotlib.org/) -->
<svg height="342.72pt" version="1.1" viewBox="0 0 460.8 342.72" width="460.8pt" xmlns="http://www.w3.org/2000/svg" xmlns:xlink="http://www.w3.org/1999/xlink">
 <defs>
  <style type="text/css">
*{stroke-linecap:butt;stroke-linejoin:round;}
  </style>
 </defs>
 <g id="figure_1">
  <g id="patch_1">
   <path d="M 0 342.72 
L 460.8 342.72 
L 460.8 0 
L 0 0 
z
" style="fill:#ffffff;"/>
  </g>
  <g id="axes_1">
   <g id="patch_2">
    <path d="M 57.6 305.0208 
L 414.72 305.0208 
L 414.72 41.1264 
L 57.6 41.1264 
z
" style="fill:#e5e5e5;"/>
   </g>
   <g id="matplotlib.axis_1">
    <g id="xtick_1">
     <g id="line2d_1">
      <path clip-path="url(#pe0498c625a)" d="M 104.075074 305.0208 
L 104.075074 41.1264 
" style="fill:none;stroke:#ffffff;stroke-linecap:square;stroke-width:0.8;"/>
     </g>
     <g id="line2d_2">
      <defs>
       <path d="M 0 0 
L 0 3.5 
" id="m846c6364ce" style="stroke:#555555;stroke-width:0.8;"/>
      </defs>
      <g>
       <use style="fill:#555555;stroke:#555555;stroke-width:0.8;" x="104.075074" xlink:href="#m846c6364ce" y="305.0208"/>
      </g>
     </g>
     <g id="text_1">
      <!-- 2000 -->
      <defs>
       <path d="M 19.1875 8.296875 
L 53.609375 8.296875 
L 53.609375 0 
L 7.328125 0 
L 7.328125 8.296875 
Q 12.9375 14.109375 22.625 23.890625 
Q 32.328125 33.6875 34.8125 36.53125 
Q 39.546875 41.84375 41.421875 45.53125 
Q 43.3125 49.21875 43.3125 52.78125 
Q 43.3125 58.59375 39.234375 62.25 
Q 35.15625 65.921875 28.609375 65.921875 
Q 23.96875 65.921875 18.8125 64.3125 
Q 13.671875 62.703125 7.8125 59.421875 
L 7.8125 69.390625 
Q 13.765625 71.78125 18.9375 73 
Q 24.125 74.21875 28.421875 74.21875 
Q 39.75 74.21875 46.484375 68.546875 
Q 53.21875 62.890625 53.21875 53.421875 
Q 53.21875 48.921875 51.53125 44.890625 
Q 49.859375 40.875 45.40625 35.40625 
Q 44.1875 33.984375 37.640625 27.21875 
Q 31.109375 20.453125 19.1875 8.296875 
z
" id="DejaVuSans-32"/>
       <path d="M 31.78125 66.40625 
Q 24.171875 66.40625 20.328125 58.90625 
Q 16.5 51.421875 16.5 36.375 
Q 16.5 21.390625 20.328125 13.890625 
Q 24.171875 6.390625 31.78125 6.390625 
Q 39.453125 6.390625 43.28125 13.890625 
Q 47.125 21.390625 47.125 36.375 
Q 47.125 51.421875 43.28125 58.90625 
Q 39.453125 66.40625 31.78125 66.40625 
z
M 31.78125 74.21875 
Q 44.046875 74.21875 50.515625 64.515625 
Q 56.984375 54.828125 56.984375 36.375 
Q 56.984375 17.96875 50.515625 8.265625 
Q 44.046875 -1.421875 31.78125 -1.421875 
Q 19.53125 -1.421875 13.0625 8.265625 
Q 6.59375 17.96875 6.59375 36.375 
Q 6.59375 54.828125 13.0625 64.515625 
Q 19.53125 74.21875 31.78125 74.21875 
z
" id="DejaVuSans-30"/>
      </defs>
      <g style="fill:#555555;" transform="translate(91.350074 319.619237)scale(0.1 -0.1)">
       <use xlink:href="#DejaVuSans-32"/>
       <use x="63.623047" xlink:href="#DejaVuSans-30"/>
       <use x="127.246094" xlink:href="#DejaVuSans-30"/>
       <use x="190.869141" xlink:href="#DejaVuSans-30"/>
      </g>
     </g>
    </g>
    <g id="xtick_2">
     <g id="line2d_3">
      <path clip-path="url(#pe0498c625a)" d="M 152.774466 305.0208 
L 152.774466 41.1264 
" style="fill:none;stroke:#ffffff;stroke-linecap:square;stroke-width:0.8;"/>
     </g>
     <g id="line2d_4">
      <g>
       <use style="fill:#555555;stroke:#555555;stroke-width:0.8;" x="152.774466" xlink:href="#m846c6364ce" y="305.0208"/>
      </g>
     </g>
     <g id="text_2">
      <!-- 4000 -->
      <defs>
       <path d="M 37.796875 64.3125 
L 12.890625 25.390625 
L 37.796875 25.390625 
z
M 35.203125 72.90625 
L 47.609375 72.90625 
L 47.609375 25.390625 
L 58.015625 25.390625 
L 58.015625 17.1875 
L 47.609375 17.1875 
L 47.609375 0 
L 37.796875 0 
L 37.796875 17.1875 
L 4.890625 17.1875 
L 4.890625 26.703125 
z
" id="DejaVuSans-34"/>
      </defs>
      <g style="fill:#555555;" transform="translate(140.049466 319.619237)scale(0.1 -0.1)">
       <use xlink:href="#DejaVuSans-34"/>
       <use x="63.623047" xlink:href="#DejaVuSans-30"/>
       <use x="127.246094" xlink:href="#DejaVuSans-30"/>
       <use x="190.869141" xlink:href="#DejaVuSans-30"/>
      </g>
     </g>
    </g>
    <g id="xtick_3">
     <g id="line2d_5">
      <path clip-path="url(#pe0498c625a)" d="M 201.473858 305.0208 
L 201.473858 41.1264 
" style="fill:none;stroke:#ffffff;stroke-linecap:square;stroke-width:0.8;"/>
     </g>
     <g id="line2d_6">
      <g>
       <use style="fill:#555555;stroke:#555555;stroke-width:0.8;" x="201.473858" xlink:href="#m846c6364ce" y="305.0208"/>
      </g>
     </g>
     <g id="text_3">
      <!-- 6000 -->
      <defs>
       <path d="M 33.015625 40.375 
Q 26.375 40.375 22.484375 35.828125 
Q 18.609375 31.296875 18.609375 23.390625 
Q 18.609375 15.53125 22.484375 10.953125 
Q 26.375 6.390625 33.015625 6.390625 
Q 39.65625 6.390625 43.53125 10.953125 
Q 47.40625 15.53125 47.40625 23.390625 
Q 47.40625 31.296875 43.53125 35.828125 
Q 39.65625 40.375 33.015625 40.375 
z
M 52.59375 71.296875 
L 52.59375 62.3125 
Q 48.875 64.0625 45.09375 64.984375 
Q 41.3125 65.921875 37.59375 65.921875 
Q 27.828125 65.921875 22.671875 59.328125 
Q 17.53125 52.734375 16.796875 39.40625 
Q 19.671875 43.65625 24.015625 45.921875 
Q 28.375 48.1875 33.59375 48.1875 
Q 44.578125 48.1875 50.953125 41.515625 
Q 57.328125 34.859375 57.328125 23.390625 
Q 57.328125 12.15625 50.6875 5.359375 
Q 44.046875 -1.421875 33.015625 -1.421875 
Q 20.359375 -1.421875 13.671875 8.265625 
Q 6.984375 17.96875 6.984375 36.375 
Q 6.984375 53.65625 15.1875 63.9375 
Q 23.390625 74.21875 37.203125 74.21875 
Q 40.921875 74.21875 44.703125 73.484375 
Q 48.484375 72.75 52.59375 71.296875 
z
" id="DejaVuSans-36"/>
      </defs>
      <g style="fill:#555555;" transform="translate(188.748858 319.619237)scale(0.1 -0.1)">
       <use xlink:href="#DejaVuSans-36"/>
       <use x="63.623047" xlink:href="#DejaVuSans-30"/>
       <use x="127.246094" xlink:href="#DejaVuSans-30"/>
       <use x="190.869141" xlink:href="#DejaVuSans-30"/>
      </g>
     </g>
    </g>
    <g id="xtick_4">
     <g id="line2d_7">
      <path clip-path="url(#pe0498c625a)" d="M 250.17325 305.0208 
L 250.17325 41.1264 
" style="fill:none;stroke:#ffffff;stroke-linecap:square;stroke-width:0.8;"/>
     </g>
     <g id="line2d_8">
      <g>
       <use style="fill:#555555;stroke:#555555;stroke-width:0.8;" x="250.17325" xlink:href="#m846c6364ce" y="305.0208"/>
      </g>
     </g>
     <g id="text_4">
      <!-- 8000 -->
      <defs>
       <path d="M 31.78125 34.625 
Q 24.75 34.625 20.71875 30.859375 
Q 16.703125 27.09375 16.703125 20.515625 
Q 16.703125 13.921875 20.71875 10.15625 
Q 24.75 6.390625 31.78125 6.390625 
Q 38.8125 6.390625 42.859375 10.171875 
Q 46.921875 13.96875 46.921875 20.515625 
Q 46.921875 27.09375 42.890625 30.859375 
Q 38.875 34.625 31.78125 34.625 
z
M 21.921875 38.8125 
Q 15.578125 40.375 12.03125 44.71875 
Q 8.5 49.078125 8.5 55.328125 
Q 8.5 64.0625 14.71875 69.140625 
Q 20.953125 74.21875 31.78125 74.21875 
Q 42.671875 74.21875 48.875 69.140625 
Q 55.078125 64.0625 55.078125 55.328125 
Q 55.078125 49.078125 51.53125 44.71875 
Q 48 40.375 41.703125 38.8125 
Q 48.828125 37.15625 52.796875 32.3125 
Q 56.78125 27.484375 56.78125 20.515625 
Q 56.78125 9.90625 50.3125 4.234375 
Q 43.84375 -1.421875 31.78125 -1.421875 
Q 19.734375 -1.421875 13.25 4.234375 
Q 6.78125 9.90625 6.78125 20.515625 
Q 6.78125 27.484375 10.78125 32.3125 
Q 14.796875 37.15625 21.921875 38.8125 
z
M 18.3125 54.390625 
Q 18.3125 48.734375 21.84375 45.5625 
Q 25.390625 42.390625 31.78125 42.390625 
Q 38.140625 42.390625 41.71875 45.5625 
Q 45.3125 48.734375 45.3125 54.390625 
Q 45.3125 60.0625 41.71875 63.234375 
Q 38.140625 66.40625 31.78125 66.40625 
Q 25.390625 66.40625 21.84375 63.234375 
Q 18.3125 60.0625 18.3125 54.390625 
z
" id="DejaVuSans-38"/>
      </defs>
      <g style="fill:#555555;" transform="translate(237.44825 319.619237)scale(0.1 -0.1)">
       <use xlink:href="#DejaVuSans-38"/>
       <use x="63.623047" xlink:href="#DejaVuSans-30"/>
       <use x="127.246094" xlink:href="#DejaVuSans-30"/>
       <use x="190.869141" xlink:href="#DejaVuSans-30"/>
      </g>
     </g>
    </g>
    <g id="xtick_5">
     <g id="line2d_9">
      <path clip-path="url(#pe0498c625a)" d="M 298.872642 305.0208 
L 298.872642 41.1264 
" style="fill:none;stroke:#ffffff;stroke-linecap:square;stroke-width:0.8;"/>
     </g>
     <g id="line2d_10">
      <g>
       <use style="fill:#555555;stroke:#555555;stroke-width:0.8;" x="298.872642" xlink:href="#m846c6364ce" y="305.0208"/>
      </g>
     </g>
     <g id="text_5">
      <!-- 10000 -->
      <defs>
       <path d="M 12.40625 8.296875 
L 28.515625 8.296875 
L 28.515625 63.921875 
L 10.984375 60.40625 
L 10.984375 69.390625 
L 28.421875 72.90625 
L 38.28125 72.90625 
L 38.28125 8.296875 
L 54.390625 8.296875 
L 54.390625 0 
L 12.40625 0 
z
" id="DejaVuSans-31"/>
      </defs>
      <g style="fill:#555555;" transform="translate(282.966392 319.619237)scale(0.1 -0.1)">
       <use xlink:href="#DejaVuSans-31"/>
       <use x="63.623047" xlink:href="#DejaVuSans-30"/>
       <use x="127.246094" xlink:href="#DejaVuSans-30"/>
       <use x="190.869141" xlink:href="#DejaVuSans-30"/>
       <use x="254.492188" xlink:href="#DejaVuSans-30"/>
      </g>
     </g>
    </g>
    <g id="xtick_6">
     <g id="line2d_11">
      <path clip-path="url(#pe0498c625a)" d="M 347.572034 305.0208 
L 347.572034 41.1264 
" style="fill:none;stroke:#ffffff;stroke-linecap:square;stroke-width:0.8;"/>
     </g>
     <g id="line2d_12">
      <g>
       <use style="fill:#555555;stroke:#555555;stroke-width:0.8;" x="347.572034" xlink:href="#m846c6364ce" y="305.0208"/>
      </g>
     </g>
     <g id="text_6">
      <!-- 12000 -->
      <g style="fill:#555555;" transform="translate(331.665784 319.619237)scale(0.1 -0.1)">
       <use xlink:href="#DejaVuSans-31"/>
       <use x="63.623047" xlink:href="#DejaVuSans-32"/>
       <use x="127.246094" xlink:href="#DejaVuSans-30"/>
       <use x="190.869141" xlink:href="#DejaVuSans-30"/>
       <use x="254.492188" xlink:href="#DejaVuSans-30"/>
      </g>
     </g>
    </g>
    <g id="xtick_7">
     <g id="line2d_13">
      <path clip-path="url(#pe0498c625a)" d="M 396.271426 305.0208 
L 396.271426 41.1264 
" style="fill:none;stroke:#ffffff;stroke-linecap:square;stroke-width:0.8;"/>
     </g>
     <g id="line2d_14">
      <g>
       <use style="fill:#555555;stroke:#555555;stroke-width:0.8;" x="396.271426" xlink:href="#m846c6364ce" y="305.0208"/>
      </g>
     </g>
     <g id="text_7">
      <!-- 14000 -->
      <g style="fill:#555555;" transform="translate(380.365176 319.619237)scale(0.1 -0.1)">
       <use xlink:href="#DejaVuSans-31"/>
       <use x="63.623047" xlink:href="#DejaVuSans-34"/>
       <use x="127.246094" xlink:href="#DejaVuSans-30"/>
       <use x="190.869141" xlink:href="#DejaVuSans-30"/>
       <use x="254.492188" xlink:href="#DejaVuSans-30"/>
      </g>
     </g>
    </g>
   </g>
   <g id="matplotlib.axis_2">
    <g id="ytick_1">
     <g id="line2d_15">
      <path clip-path="url(#pe0498c625a)" d="M 57.6 271.881008 
L 414.72 271.881008 
" style="fill:none;stroke:#ffffff;stroke-linecap:square;stroke-width:0.8;"/>
     </g>
     <g id="line2d_16">
      <defs>
       <path d="M 0 0 
L -3.5 0 
" id="m2797477271" style="stroke:#555555;stroke-width:0.8;"/>
      </defs>
      <g>
       <use style="fill:#555555;stroke:#555555;stroke-width:0.8;" x="57.6" xlink:href="#m2797477271" y="271.881008"/>
      </g>
     </g>
     <g id="text_8">
      <!-- 2000 -->
      <g style="fill:#555555;" transform="translate(25.15 275.680226)scale(0.1 -0.1)">
       <use xlink:href="#DejaVuSans-32"/>
       <use x="63.623047" xlink:href="#DejaVuSans-30"/>
       <use x="127.246094" xlink:href="#DejaVuSans-30"/>
       <use x="190.869141" xlink:href="#DejaVuSans-30"/>
      </g>
     </g>
    </g>
    <g id="ytick_2">
     <g id="line2d_17">
      <path clip-path="url(#pe0498c625a)" d="M 57.6 235.674556 
L 414.72 235.674556 
" style="fill:none;stroke:#ffffff;stroke-linecap:square;stroke-width:0.8;"/>
     </g>
     <g id="line2d_18">
      <g>
       <use style="fill:#555555;stroke:#555555;stroke-width:0.8;" x="57.6" xlink:href="#m2797477271" y="235.674556"/>
      </g>
     </g>
     <g id="text_9">
      <!-- 4000 -->
      <g style="fill:#555555;" transform="translate(25.15 239.473774)scale(0.1 -0.1)">
       <use xlink:href="#DejaVuSans-34"/>
       <use x="63.623047" xlink:href="#DejaVuSans-30"/>
       <use x="127.246094" xlink:href="#DejaVuSans-30"/>
       <use x="190.869141" xlink:href="#DejaVuSans-30"/>
      </g>
     </g>
    </g>
    <g id="ytick_3">
     <g id="line2d_19">
      <path clip-path="url(#pe0498c625a)" d="M 57.6 199.468104 
L 414.72 199.468104 
" style="fill:none;stroke:#ffffff;stroke-linecap:square;stroke-width:0.8;"/>
     </g>
     <g id="line2d_20">
      <g>
       <use style="fill:#555555;stroke:#555555;stroke-width:0.8;" x="57.6" xlink:href="#m2797477271" y="199.468104"/>
      </g>
     </g>
     <g id="text_10">
      <!-- 6000 -->
      <g style="fill:#555555;" transform="translate(25.15 203.267322)scale(0.1 -0.1)">
       <use xlink:href="#DejaVuSans-36"/>
       <use x="63.623047" xlink:href="#DejaVuSans-30"/>
       <use x="127.246094" xlink:href="#DejaVuSans-30"/>
       <use x="190.869141" xlink:href="#DejaVuSans-30"/>
      </g>
     </g>
    </g>
    <g id="ytick_4">
     <g id="line2d_21">
      <path clip-path="url(#pe0498c625a)" d="M 57.6 163.261652 
L 414.72 163.261652 
" style="fill:none;stroke:#ffffff;stroke-linecap:square;stroke-width:0.8;"/>
     </g>
     <g id="line2d_22">
      <g>
       <use style="fill:#555555;stroke:#555555;stroke-width:0.8;" x="57.6" xlink:href="#m2797477271" y="163.261652"/>
      </g>
     </g>
     <g id="text_11">
      <!-- 8000 -->
      <g style="fill:#555555;" transform="translate(25.15 167.06087)scale(0.1 -0.1)">
       <use xlink:href="#DejaVuSans-38"/>
       <use x="63.623047" xlink:href="#DejaVuSans-30"/>
       <use x="127.246094" xlink:href="#DejaVuSans-30"/>
       <use x="190.869141" xlink:href="#DejaVuSans-30"/>
      </g>
     </g>
    </g>
    <g id="ytick_5">
     <g id="line2d_23">
      <path clip-path="url(#pe0498c625a)" d="M 57.6 127.055199 
L 414.72 127.055199 
" style="fill:none;stroke:#ffffff;stroke-linecap:square;stroke-width:0.8;"/>
     </g>
     <g id="line2d_24">
      <g>
       <use style="fill:#555555;stroke:#555555;stroke-width:0.8;" x="57.6" xlink:href="#m2797477271" y="127.055199"/>
      </g>
     </g>
     <g id="text_12">
      <!-- 10000 -->
      <g style="fill:#555555;" transform="translate(18.7875 130.854418)scale(0.1 -0.1)">
       <use xlink:href="#DejaVuSans-31"/>
       <use x="63.623047" xlink:href="#DejaVuSans-30"/>
       <use x="127.246094" xlink:href="#DejaVuSans-30"/>
       <use x="190.869141" xlink:href="#DejaVuSans-30"/>
       <use x="254.492188" xlink:href="#DejaVuSans-30"/>
      </g>
     </g>
    </g>
    <g id="ytick_6">
     <g id="line2d_25">
      <path clip-path="url(#pe0498c625a)" d="M 57.6 90.848747 
L 414.72 90.848747 
" style="fill:none;stroke:#ffffff;stroke-linecap:square;stroke-width:0.8;"/>
     </g>
     <g id="line2d_26">
      <g>
       <use style="fill:#555555;stroke:#555555;stroke-width:0.8;" x="57.6" xlink:href="#m2797477271" y="90.848747"/>
      </g>
     </g>
     <g id="text_13">
      <!-- 12000 -->
      <g style="fill:#555555;" transform="translate(18.7875 94.647966)scale(0.1 -0.1)">
       <use xlink:href="#DejaVuSans-31"/>
       <use x="63.623047" xlink:href="#DejaVuSans-32"/>
       <use x="127.246094" xlink:href="#DejaVuSans-30"/>
       <use x="190.869141" xlink:href="#DejaVuSans-30"/>
       <use x="254.492188" xlink:href="#DejaVuSans-30"/>
      </g>
     </g>
    </g>
    <g id="ytick_7">
     <g id="line2d_27">
      <path clip-path="url(#pe0498c625a)" d="M 57.6 54.642295 
L 414.72 54.642295 
" style="fill:none;stroke:#ffffff;stroke-linecap:square;stroke-width:0.8;"/>
     </g>
     <g id="line2d_28">
      <g>
       <use style="fill:#555555;stroke:#555555;stroke-width:0.8;" x="57.6" xlink:href="#m2797477271" y="54.642295"/>
      </g>
     </g>
     <g id="text_14">
      <!-- 14000 -->
      <g style="fill:#555555;" transform="translate(18.7875 58.441514)scale(0.1 -0.1)">
       <use xlink:href="#DejaVuSans-31"/>
       <use x="63.623047" xlink:href="#DejaVuSans-34"/>
       <use x="127.246094" xlink:href="#DejaVuSans-30"/>
       <use x="190.869141" xlink:href="#DejaVuSans-30"/>
       <use x="254.492188" xlink:href="#DejaVuSans-30"/>
      </g>
     </g>
    </g>
   </g>
   <g id="PathCollection_1">
    <defs>
     <path d="M 0 0.5 
C 0.132602 0.5 0.25979 0.447317 0.353553 0.353553 
C 0.447317 0.25979 0.5 0.132602 0.5 0 
C 0.5 -0.132602 0.447317 -0.25979 0.353553 -0.353553 
C 0.25979 -0.447317 0.132602 -0.5 0 -0.5 
C -0.132602 -0.5 -0.25979 -0.447317 -0.353553 -0.353553 
C -0.447317 -0.25979 -0.5 -0.132602 -0.5 0 
C -0.5 0.132602 -0.447317 0.25979 -0.353553 0.353553 
C -0.25979 0.447317 -0.132602 0.5 0 0.5 
z
" id="m315d8b5738" style="stroke:#000000;stroke-width:0.5;"/>
    </defs>
    <g clip-path="url(#pe0498c625a)">
     <use style="stroke:#000000;stroke-width:0.5;" x="132.174623" xlink:href="#m315d8b5738" y="68.455057"/>
     <use style="stroke:#000000;stroke-width:0.5;" x="153.310159" xlink:href="#m315d8b5738" y="55.601766"/>
     <use style="stroke:#000000;stroke-width:0.5;" x="152.214423" xlink:href="#m315d8b5738" y="54.606089"/>
     <use style="stroke:#000000;stroke-width:0.5;" x="122.483444" xlink:href="#m315d8b5738" y="72.292941"/>
     <use style="stroke:#000000;stroke-width:0.5;" x="267.80243" xlink:href="#m315d8b5738" y="227.184143"/>
     <use style="stroke:#000000;stroke-width:0.5;" x="302.719894" xlink:href="#m315d8b5738" y="264.368169"/>
     <use style="stroke:#000000;stroke-width:0.5;" x="270.529596" xlink:href="#m315d8b5738" y="268.296569"/>
     <use style="stroke:#000000;stroke-width:0.5;" x="243.063139" xlink:href="#m315d8b5738" y="182.161419"/>
     <use style="stroke:#000000;stroke-width:0.5;" x="258.354748" xlink:href="#m315d8b5738" y="150.0644"/>
     <use style="stroke:#000000;stroke-width:0.5;" x="161.394259" xlink:href="#m315d8b5738" y="228.940155"/>
     <use style="stroke:#000000;stroke-width:0.5;" x="141.646655" xlink:href="#m315d8b5738" y="65.16027"/>
     <use style="stroke:#000000;stroke-width:0.5;" x="232.203174" xlink:href="#m315d8b5738" y="180.839884"/>
     <use style="stroke:#000000;stroke-width:0.5;" x="226.334898" xlink:href="#m315d8b5738" y="186.560503"/>
     <use style="stroke:#000000;stroke-width:0.5;" x="168.893965" xlink:href="#m315d8b5738" y="228.107407"/>
     <use style="stroke:#000000;stroke-width:0.5;" x="162.611743" xlink:href="#m315d8b5738" y="228.74102"/>
     <use style="stroke:#000000;stroke-width:0.5;" x="187.813679" xlink:href="#m315d8b5738" y="171.118452"/>
     <use style="stroke:#000000;stroke-width:0.5;" x="186.279648" xlink:href="#m315d8b5738" y="153.4316"/>
     <use style="stroke:#000000;stroke-width:0.5;" x="308.247275" xlink:href="#m315d8b5738" y="258.267382"/>
     <use style="stroke:#000000;stroke-width:0.5;" x="267.047589" xlink:href="#m315d8b5738" y="53.121624"/>
     <use style="stroke:#000000;stroke-width:0.5;" x="130.153599" xlink:href="#m315d8b5738" y="97.565044"/>
     <use style="stroke:#000000;stroke-width:0.5;" x="316.039178" xlink:href="#m315d8b5738" y="292.391963"/>
     <use style="stroke:#000000;stroke-width:0.5;" x="104.902964" xlink:href="#m315d8b5738" y="66.608528"/>
     <use style="stroke:#000000;stroke-width:0.5;" x="141.865802" xlink:href="#m315d8b5738" y="145.122219"/>
     <use style="stroke:#000000;stroke-width:0.5;" x="315.06519" xlink:href="#m315d8b5738" y="269.726724"/>
     <use style="stroke:#000000;stroke-width:0.5;" x="303.304287" xlink:href="#m315d8b5738" y="264.277653"/>
     <use style="stroke:#000000;stroke-width:0.5;" x="367.587484" xlink:href="#m315d8b5738" y="265.32764"/>
     <use style="stroke:#000000;stroke-width:0.5;" x="269.214712" xlink:href="#m315d8b5738" y="126.620722"/>
     <use style="stroke:#000000;stroke-width:0.5;" x="397.805457" xlink:href="#m315d8b5738" y="217.987704"/>
     <use style="stroke:#000000;stroke-width:0.5;" x="398.487248" xlink:href="#m315d8b5738" y="199.069833"/>
     <use style="stroke:#000000;stroke-width:0.5;" x="397.732408" xlink:href="#m315d8b5738" y="169.19951"/>
     <use style="stroke:#000000;stroke-width:0.5;" x="389.136965" xlink:href="#m315d8b5738" y="155.857432"/>
     <use style="stroke:#000000;stroke-width:0.5;" x="217.812504" xlink:href="#m315d8b5738" y="59.276721"/>
     <use style="stroke:#000000;stroke-width:0.5;" x="195.386434" xlink:href="#m315d8b5738" y="82.521264"/>
     <use style="stroke:#000000;stroke-width:0.5;" x="178.536444" xlink:href="#m315d8b5738" y="98.488309"/>
     <use style="stroke:#000000;stroke-width:0.5;" x="136.898464" xlink:href="#m315d8b5738" y="71.116231"/>
     <use style="stroke:#000000;stroke-width:0.5;" x="219.930928" xlink:href="#m315d8b5738" y="101.620167"/>
     <use style="stroke:#000000;stroke-width:0.5;" x="219.516983" xlink:href="#m315d8b5738" y="81.308347"/>
     <use style="stroke:#000000;stroke-width:0.5;" x="181.214911" xlink:href="#m315d8b5738" y="61.974102"/>
     <use style="stroke:#000000;stroke-width:0.5;" x="181.726255" xlink:href="#m315d8b5738" y="100.787419"/>
     <use style="stroke:#000000;stroke-width:0.5;" x="159.470633" xlink:href="#m315d8b5738" y="99.90036"/>
     <use style="stroke:#000000;stroke-width:0.5;" x="237.048764" xlink:href="#m315d8b5738" y="150.752322"/>
     <use style="stroke:#000000;stroke-width:0.5;" x="242.843992" xlink:href="#m315d8b5738" y="181.564013"/>
     <use style="stroke:#000000;stroke-width:0.5;" x="98.572043" xlink:href="#m315d8b5738" y="117.894967"/>
     <use style="stroke:#000000;stroke-width:0.5;" x="211.554632" xlink:href="#m315d8b5738" y="166.085755"/>
     <use style="stroke:#000000;stroke-width:0.5;" x="214.768792" xlink:href="#m315d8b5738" y="192.009574"/>
     <use style="stroke:#000000;stroke-width:0.5;" x="230.109101" xlink:href="#m315d8b5738" y="172.476194"/>
     <use style="stroke:#000000;stroke-width:0.5;" x="137.093262" xlink:href="#m315d8b5738" y="143.8912"/>
     <use style="stroke:#000000;stroke-width:0.5;" x="145.566956" xlink:href="#m315d8b5738" y="114.473457"/>
     <use style="stroke:#000000;stroke-width:0.5;" x="135.096587" xlink:href="#m315d8b5738" y="111.432115"/>
     <use style="stroke:#000000;stroke-width:0.5;" x="244.57282" xlink:href="#m315d8b5738" y="215.688594"/>
     <use style="stroke:#000000;stroke-width:0.5;" x="301.42936" xlink:href="#m315d8b5738" y="289.151485"/>
     <use style="stroke:#000000;stroke-width:0.5;" x="249.467109" xlink:href="#m315d8b5738" y="292.446272"/>
     <use style="stroke:#000000;stroke-width:0.5;" x="245.571157" xlink:href="#m315d8b5738" y="282.761046"/>
     <use style="stroke:#000000;stroke-width:0.5;" x="174.08045" xlink:href="#m315d8b5738" y="223.545394"/>
     <use style="stroke:#000000;stroke-width:0.5;" x="201.011214" xlink:href="#m315d8b5738" y="214.71102"/>
     <use style="stroke:#000000;stroke-width:0.5;" x="212.065976" xlink:href="#m315d8b5738" y="197.748297"/>
     <use style="stroke:#000000;stroke-width:0.5;" x="146.200048" xlink:href="#m315d8b5738" y="174.105484"/>
     <use style="stroke:#000000;stroke-width:0.5;" x="140.867465" xlink:href="#m315d8b5738" y="141.175716"/>
     <use style="stroke:#000000;stroke-width:0.5;" x="171.377634" xlink:href="#m315d8b5738" y="147.312709"/>
     <use style="stroke:#000000;stroke-width:0.5;" x="252.681269" xlink:href="#m315d8b5738" y="168.276245"/>
     <use style="stroke:#000000;stroke-width:0.5;" x="300.577121" xlink:href="#m315d8b5738" y="135.4732"/>
     <use style="stroke:#000000;stroke-width:0.5;" x="215.158387" xlink:href="#m315d8b5738" y="197.223303"/>
     <use style="stroke:#000000;stroke-width:0.5;" x="104.854264" xlink:href="#m315d8b5738" y="93.238373"/>
     <use style="stroke:#000000;stroke-width:0.5;" x="172.570769" xlink:href="#m315d8b5738" y="53.990579"/>
     <use style="stroke:#000000;stroke-width:0.5;" x="316.112227" xlink:href="#m315d8b5738" y="273.818053"/>
     <use style="stroke:#000000;stroke-width:0.5;" x="321.201313" xlink:href="#m315d8b5738" y="285.186879"/>
     <use style="stroke:#000000;stroke-width:0.5;" x="342.775144" xlink:href="#m315d8b5738" y="279.013679"/>
     <use style="stroke:#000000;stroke-width:0.5;" x="209.265761" xlink:href="#m315d8b5738" y="195.57591"/>
     <use style="stroke:#000000;stroke-width:0.5;" x="201.30341" xlink:href="#m315d8b5738" y="207.469729"/>
     <use style="stroke:#000000;stroke-width:0.5;" x="343.627383" xlink:href="#m315d8b5738" y="277.601627"/>
     <use style="stroke:#000000;stroke-width:0.5;" x="319.813381" xlink:href="#m315d8b5738" y="273.437885"/>
     <use style="stroke:#000000;stroke-width:0.5;" x="335.738082" xlink:href="#m315d8b5738" y="281.149859"/>
     <use style="stroke:#000000;stroke-width:0.5;" x="369.949405" xlink:href="#m315d8b5738" y="250.519201"/>
     <use style="stroke:#000000;stroke-width:0.5;" x="370.655546" xlink:href="#m315d8b5738" y="245.414091"/>
     <use style="stroke:#000000;stroke-width:0.5;" x="95.406582" xlink:href="#m315d8b5738" y="82.485057"/>
     <use style="stroke:#000000;stroke-width:0.5;" x="386.190652" xlink:href="#m315d8b5738" y="251.315743"/>
     <use style="stroke:#000000;stroke-width:0.5;" x="91.681079" xlink:href="#m315d8b5738" y="117.080322"/>
     <use style="stroke:#000000;stroke-width:0.5;" x="74.831089" xlink:href="#m315d8b5738" y="118.691509"/>
     <use style="stroke:#000000;stroke-width:0.5;" x="275.058639" xlink:href="#m315d8b5738" y="149.792851"/>
     <use style="stroke:#000000;stroke-width:0.5;" x="75.415482" xlink:href="#m315d8b5738" y="119.777703"/>
     <use style="stroke:#000000;stroke-width:0.5;" x="121.119861" xlink:href="#m315d8b5738" y="95.157315"/>
     <use style="stroke:#000000;stroke-width:0.5;" x="225.287861" xlink:href="#m315d8b5738" y="170.557252"/>
     <use style="stroke:#000000;stroke-width:0.5;" x="209.704055" xlink:href="#m315d8b5738" y="157.993613"/>
     <use style="stroke:#000000;stroke-width:0.5;" x="208.876166" xlink:href="#m315d8b5738" y="64.309418"/>
     <use style="stroke:#000000;stroke-width:0.5;" x="375.330687" xlink:href="#m315d8b5738" y="269.165524"/>
     <use style="stroke:#000000;stroke-width:0.5;" x="272.501921" xlink:href="#m315d8b5738" y="160.184103"/>
     <use style="stroke:#000000;stroke-width:0.5;" x="107.751878" xlink:href="#m315d8b5738" y="167.171948"/>
     <use style="stroke:#000000;stroke-width:0.5;" x="217.057664" xlink:href="#m315d8b5738" y="158.4824"/>
     <use style="stroke:#000000;stroke-width:0.5;" x="231.180487" xlink:href="#m315d8b5738" y="185.220865"/>
     <use style="stroke:#000000;stroke-width:0.5;" x="111.574781" xlink:href="#m315d8b5738" y="74.990322"/>
     <use style="stroke:#000000;stroke-width:0.5;" x="390.208352" xlink:href="#m315d8b5738" y="248.726981"/>
     <use style="stroke:#000000;stroke-width:0.5;" x="376.109878" xlink:href="#m315d8b5738" y="196.607794"/>
     <use style="stroke:#000000;stroke-width:0.5;" x="245.522458" xlink:href="#m315d8b5738" y="174.395135"/>
     <use style="stroke:#000000;stroke-width:0.5;" x="243.282286" xlink:href="#m315d8b5738" y="175.463226"/>
     <use style="stroke:#000000;stroke-width:0.5;" x="216.108025" xlink:href="#m315d8b5738" y="186.415678"/>
     <use style="stroke:#000000;stroke-width:0.5;" x="279.855529" xlink:href="#m315d8b5738" y="210.366246"/>
     <use style="stroke:#000000;stroke-width:0.5;" x="73.832752" xlink:href="#m315d8b5738" y="129.553445"/>
     <use style="stroke:#000000;stroke-width:0.5;" x="243.257936" xlink:href="#m315d8b5738" y="181.111432"/>
     <use style="stroke:#000000;stroke-width:0.5;" x="249.053164" xlink:href="#m315d8b5738" y="167.280568"/>
     <use style="stroke:#000000;stroke-width:0.5;" x="230.669144" xlink:href="#m315d8b5738" y="74.70067"/>
     <use style="stroke:#000000;stroke-width:0.5;" x="352.782869" xlink:href="#m315d8b5738" y="170.303806"/>
     <use style="stroke:#000000;stroke-width:0.5;" x="185.33001" xlink:href="#m315d8b5738" y="56.398308"/>
     <use style="stroke:#000000;stroke-width:0.5;" x="273.695056" xlink:href="#m315d8b5738" y="168.294348"/>
     <use style="stroke:#000000;stroke-width:0.5;" x="276.276124" xlink:href="#m315d8b5738" y="200.355162"/>
     <use style="stroke:#000000;stroke-width:0.5;" x="232.54407" xlink:href="#m315d8b5738" y="161.668568"/>
     <use style="stroke:#000000;stroke-width:0.5;" x="276.300474" xlink:href="#m315d8b5738" y="130.748258"/>
     <use style="stroke:#000000;stroke-width:0.5;" x="131.346734" xlink:href="#m315d8b5738" y="63.205121"/>
     <use style="stroke:#000000;stroke-width:0.5;" x="208.486571" xlink:href="#m315d8b5738" y="100.914141"/>
     <use style="stroke:#000000;stroke-width:0.5;" x="260.61927" xlink:href="#m315d8b5738" y="131.001703"/>
     <use style="stroke:#000000;stroke-width:0.5;" x="278.053652" xlink:href="#m315d8b5738" y="175.3184"/>
     <use style="stroke:#000000;stroke-width:0.5;" x="256.698969" xlink:href="#m315d8b5738" y="168.511587"/>
     <use style="stroke:#000000;stroke-width:0.5;" x="263.76038" xlink:href="#m315d8b5738" y="219.942852"/>
     <use style="stroke:#000000;stroke-width:0.5;" x="93.531656" xlink:href="#m315d8b5738" y="97.003844"/>
     <use style="stroke:#000000;stroke-width:0.5;" x="202.423496" xlink:href="#m315d8b5738" y="109.585586"/>
     <use style="stroke:#000000;stroke-width:0.5;" x="176.905015" xlink:href="#m315d8b5738" y="59.421547"/>
     <use style="stroke:#000000;stroke-width:0.5;" x="197.602256" xlink:href="#m315d8b5738" y="61.17756"/>
     <use style="stroke:#000000;stroke-width:0.5;" x="388.74737" xlink:href="#m315d8b5738" y="240.164156"/>
     <use style="stroke:#000000;stroke-width:0.5;" x="281.43826" xlink:href="#m315d8b5738" y="176.694245"/>
     <use style="stroke:#000000;stroke-width:0.5;" x="272.672369" xlink:href="#m315d8b5738" y="160.618581"/>
     <use style="stroke:#000000;stroke-width:0.5;" x="308.442072" xlink:href="#m315d8b5738" y="281.276582"/>
     <use style="stroke:#000000;stroke-width:0.5;" x="258.111251" xlink:href="#m315d8b5738" y="293.025576"/>
     <use style="stroke:#000000;stroke-width:0.5;" x="308.174226" xlink:href="#m315d8b5738" y="286.870479"/>
     <use style="stroke:#000000;stroke-width:0.5;" x="340.218426" xlink:href="#m315d8b5738" y="288.409253"/>
     <use style="stroke:#000000;stroke-width:0.5;" x="270.724393" xlink:href="#m315d8b5738" y="174.594271"/>
     <use style="stroke:#000000;stroke-width:0.5;" x="275.594333" xlink:href="#m315d8b5738" y="175.245987"/>
     <use style="stroke:#000000;stroke-width:0.5;" x="263.370785" xlink:href="#m315d8b5738" y="152.689368"/>
     <use style="stroke:#000000;stroke-width:0.5;" x="97.23281" xlink:href="#m315d8b5738" y="132.504271"/>
     <use style="stroke:#000000;stroke-width:0.5;" x="86.251097" xlink:href="#m315d8b5738" y="144.977393"/>
     <use style="stroke:#000000;stroke-width:0.5;" x="80.236722" xlink:href="#m315d8b5738" y="145.973071"/>
     <use style="stroke:#000000;stroke-width:0.5;" x="85.22841" xlink:href="#m315d8b5738" y="162.646142"/>
     <use style="stroke:#000000;stroke-width:0.5;" x="93.020312" xlink:href="#m315d8b5738" y="172.820155"/>
     <use style="stroke:#000000;stroke-width:0.5;" x="90.560993" xlink:href="#m315d8b5738" y="111.703664"/>
     <use style="stroke:#000000;stroke-width:0.5;" x="94.529993" xlink:href="#m315d8b5738" y="179.717484"/>
     <use style="stroke:#000000;stroke-width:0.5;" x="147.587981" xlink:href="#m315d8b5738" y="140.596413"/>
     <use style="stroke:#000000;stroke-width:0.5;" x="268.946866" xlink:href="#m315d8b5738" y="153.576426"/>
     <use style="stroke:#000000;stroke-width:0.5;" x="249.053164" xlink:href="#m315d8b5738" y="159.025497"/>
     <use style="stroke:#000000;stroke-width:0.5;" x="124.821015" xlink:href="#m315d8b5738" y="68.690399"/>
     <use style="stroke:#000000;stroke-width:0.5;" x="246.837342" xlink:href="#m315d8b5738" y="117.044116"/>
     <use style="stroke:#000000;stroke-width:0.5;" x="268.946866" xlink:href="#m315d8b5738" y="130.241367"/>
     <use style="stroke:#000000;stroke-width:0.5;" x="220.929265" xlink:href="#m315d8b5738" y="175.843394"/>
     <use style="stroke:#000000;stroke-width:0.5;" x="190.346047" xlink:href="#m315d8b5738" y="144.615329"/>
     <use style="stroke:#000000;stroke-width:0.5;" x="323.271037" xlink:href="#m315d8b5738" y="274.86804"/>
     <use style="stroke:#000000;stroke-width:0.5;" x="343.968279" xlink:href="#m315d8b5738" y="229.374633"/>
     <use style="stroke:#000000;stroke-width:0.5;" x="177.879003" xlink:href="#m315d8b5738" y="283.756724"/>
     <use style="stroke:#000000;stroke-width:0.5;" x="126.330696" xlink:href="#m315d8b5738" y="95.700412"/>
     <use style="stroke:#000000;stroke-width:0.5;" x="84.741416" xlink:href="#m315d8b5738" y="117.170838"/>
     <use style="stroke:#000000;stroke-width:0.5;" x="88.077324" xlink:href="#m315d8b5738" y="185.510516"/>
     <use style="stroke:#000000;stroke-width:0.5;" x="86.908539" xlink:href="#m315d8b5738" y="166.411613"/>
     <use style="stroke:#000000;stroke-width:0.5;" x="211.627681" xlink:href="#m315d8b5738" y="280.878311"/>
     <use style="stroke:#000000;stroke-width:0.5;" x="239.581132" xlink:href="#m315d8b5738" y="282.77915"/>
     <use style="stroke:#000000;stroke-width:0.5;" x="172.984714" xlink:href="#m315d8b5738" y="288.010982"/>
     <use style="stroke:#000000;stroke-width:0.5;" x="139.284735" xlink:href="#m315d8b5738" y="275.592169"/>
     <use style="stroke:#000000;stroke-width:0.5;" x="292.809568" xlink:href="#m315d8b5738" y="177.400271"/>
     <use style="stroke:#000000;stroke-width:0.5;" x="291.470334" xlink:href="#m315d8b5738" y="131.43618"/>
     <use style="stroke:#000000;stroke-width:0.5;" x="356.995366" xlink:href="#m315d8b5738" y="173.725316"/>
     <use style="stroke:#000000;stroke-width:0.5;" x="352.758519" xlink:href="#m315d8b5738" y="176.042529"/>
     <use style="stroke:#000000;stroke-width:0.5;" x="299.237887" xlink:href="#m315d8b5738" y="140.306761"/>
     <use style="stroke:#000000;stroke-width:0.5;" x="223.924278" xlink:href="#m315d8b5738" y="186.469987"/>
     <use style="stroke:#000000;stroke-width:0.5;" x="246.033802" xlink:href="#m315d8b5738" y="168.330555"/>
     <use style="stroke:#000000;stroke-width:0.5;" x="214.622694" xlink:href="#m315d8b5738" y="167.588323"/>
     <use style="stroke:#000000;stroke-width:0.5;" x="224.435621" xlink:href="#m315d8b5738" y="174.974439"/>
     <use style="stroke:#000000;stroke-width:0.5;" x="94.724791" xlink:href="#m315d8b5738" y="124.70178"/>
     <use style="stroke:#000000;stroke-width:0.5;" x="75.245034" xlink:href="#m315d8b5738" y="114.745006"/>
     <use style="stroke:#000000;stroke-width:0.5;" x="103.076737" xlink:href="#m315d8b5738" y="91.174606"/>
     <use style="stroke:#000000;stroke-width:0.5;" x="303.304287" xlink:href="#m315d8b5738" y="291.360079"/>
     <use style="stroke:#000000;stroke-width:0.5;" x="290.861592" xlink:href="#m315d8b5738" y="278.85075"/>
     <use style="stroke:#000000;stroke-width:0.5;" x="199.550232" xlink:href="#m315d8b5738" y="187.031187"/>
     <use style="stroke:#000000;stroke-width:0.5;" x="74.417145" xlink:href="#m315d8b5738" y="133.373225"/>
     <use style="stroke:#000000;stroke-width:0.5;" x="78.410495" xlink:href="#m315d8b5738" y="129.3"/>
     <use style="stroke:#000000;stroke-width:0.5;" x="119.123186" xlink:href="#m315d8b5738" y="128.775006"/>
     <use style="stroke:#000000;stroke-width:0.5;" x="107.703179" xlink:href="#m315d8b5738" y="132.069793"/>
    </g>
   </g>
   <g id="patch_3">
    <path d="M 57.6 305.0208 
L 57.6 41.1264 
" style="fill:none;stroke:#ffffff;stroke-linecap:square;stroke-linejoin:miter;"/>
   </g>
   <g id="patch_4">
    <path d="M 414.72 305.0208 
L 414.72 41.1264 
" style="fill:none;stroke:#ffffff;stroke-linecap:square;stroke-linejoin:miter;"/>
   </g>
   <g id="patch_5">
    <path d="M 57.6 305.0208 
L 414.72 305.0208 
" style="fill:none;stroke:#ffffff;stroke-linecap:square;stroke-linejoin:miter;"/>
   </g>
   <g id="patch_6">
    <path d="M 57.6 41.1264 
L 414.72 41.1264 
" style="fill:none;stroke:#ffffff;stroke-linecap:square;stroke-linejoin:miter;"/>
   </g>
   <g id="text_15">
    <!-- League-of-Legends-Death-Point OPL2018 before 20 minutes -->
    <defs>
     <path d="M 9.8125 72.90625 
L 19.671875 72.90625 
L 19.671875 8.296875 
L 55.171875 8.296875 
L 55.171875 0 
L 9.8125 0 
z
" id="DejaVuSans-4c"/>
     <path d="M 56.203125 29.59375 
L 56.203125 25.203125 
L 14.890625 25.203125 
Q 15.484375 15.921875 20.484375 11.0625 
Q 25.484375 6.203125 34.421875 6.203125 
Q 39.59375 6.203125 44.453125 7.46875 
Q 49.3125 8.734375 54.109375 11.28125 
L 54.109375 2.78125 
Q 49.265625 0.734375 44.1875 -0.34375 
Q 39.109375 -1.421875 33.890625 -1.421875 
Q 20.796875 -1.421875 13.15625 6.1875 
Q 5.515625 13.8125 5.515625 26.8125 
Q 5.515625 40.234375 12.765625 48.109375 
Q 20.015625 56 32.328125 56 
Q 43.359375 56 49.78125 48.890625 
Q 56.203125 41.796875 56.203125 29.59375 
z
M 47.21875 32.234375 
Q 47.125 39.59375 43.09375 43.984375 
Q 39.0625 48.390625 32.421875 48.390625 
Q 24.90625 48.390625 20.390625 44.140625 
Q 15.875 39.890625 15.1875 32.171875 
z
" id="DejaVuSans-65"/>
     <path d="M 34.28125 27.484375 
Q 23.390625 27.484375 19.1875 25 
Q 14.984375 22.515625 14.984375 16.5 
Q 14.984375 11.71875 18.140625 8.90625 
Q 21.296875 6.109375 26.703125 6.109375 
Q 34.1875 6.109375 38.703125 11.40625 
Q 43.21875 16.703125 43.21875 25.484375 
L 43.21875 27.484375 
z
M 52.203125 31.203125 
L 52.203125 0 
L 43.21875 0 
L 43.21875 8.296875 
Q 40.140625 3.328125 35.546875 0.953125 
Q 30.953125 -1.421875 24.3125 -1.421875 
Q 15.921875 -1.421875 10.953125 3.296875 
Q 6 8.015625 6 15.921875 
Q 6 25.140625 12.171875 29.828125 
Q 18.359375 34.515625 30.609375 34.515625 
L 43.21875 34.515625 
L 43.21875 35.40625 
Q 43.21875 41.609375 39.140625 45 
Q 35.0625 48.390625 27.6875 48.390625 
Q 23 48.390625 18.546875 47.265625 
Q 14.109375 46.140625 10.015625 43.890625 
L 10.015625 52.203125 
Q 14.9375 54.109375 19.578125 55.046875 
Q 24.21875 56 28.609375 56 
Q 40.484375 56 46.34375 49.84375 
Q 52.203125 43.703125 52.203125 31.203125 
z
" id="DejaVuSans-61"/>
     <path d="M 45.40625 27.984375 
Q 45.40625 37.75 41.375 43.109375 
Q 37.359375 48.484375 30.078125 48.484375 
Q 22.859375 48.484375 18.828125 43.109375 
Q 14.796875 37.75 14.796875 27.984375 
Q 14.796875 18.265625 18.828125 12.890625 
Q 22.859375 7.515625 30.078125 7.515625 
Q 37.359375 7.515625 41.375 12.890625 
Q 45.40625 18.265625 45.40625 27.984375 
z
M 54.390625 6.78125 
Q 54.390625 -7.171875 48.1875 -13.984375 
Q 42 -20.796875 29.203125 -20.796875 
Q 24.46875 -20.796875 20.265625 -20.09375 
Q 16.0625 -19.390625 12.109375 -17.921875 
L 12.109375 -9.1875 
Q 16.0625 -11.328125 19.921875 -12.34375 
Q 23.78125 -13.375 27.78125 -13.375 
Q 36.625 -13.375 41.015625 -8.765625 
Q 45.40625 -4.15625 45.40625 5.171875 
L 45.40625 9.625 
Q 42.625 4.78125 38.28125 2.390625 
Q 33.9375 0 27.875 0 
Q 17.828125 0 11.671875 7.65625 
Q 5.515625 15.328125 5.515625 27.984375 
Q 5.515625 40.671875 11.671875 48.328125 
Q 17.828125 56 27.875 56 
Q 33.9375 56 38.28125 53.609375 
Q 42.625 51.21875 45.40625 46.390625 
L 45.40625 54.6875 
L 54.390625 54.6875 
z
" id="DejaVuSans-67"/>
     <path d="M 8.5 21.578125 
L 8.5 54.6875 
L 17.484375 54.6875 
L 17.484375 21.921875 
Q 17.484375 14.15625 20.5 10.265625 
Q 23.53125 6.390625 29.59375 6.390625 
Q 36.859375 6.390625 41.078125 11.03125 
Q 45.3125 15.671875 45.3125 23.6875 
L 45.3125 54.6875 
L 54.296875 54.6875 
L 54.296875 0 
L 45.3125 0 
L 45.3125 8.40625 
Q 42.046875 3.421875 37.71875 1 
Q 33.40625 -1.421875 27.6875 -1.421875 
Q 18.265625 -1.421875 13.375 4.4375 
Q 8.5 10.296875 8.5 21.578125 
z
M 31.109375 56 
z
" id="DejaVuSans-75"/>
     <path d="M 4.890625 31.390625 
L 31.203125 31.390625 
L 31.203125 23.390625 
L 4.890625 23.390625 
z
" id="DejaVuSans-2d"/>
     <path d="M 30.609375 48.390625 
Q 23.390625 48.390625 19.1875 42.75 
Q 14.984375 37.109375 14.984375 27.296875 
Q 14.984375 17.484375 19.15625 11.84375 
Q 23.34375 6.203125 30.609375 6.203125 
Q 37.796875 6.203125 41.984375 11.859375 
Q 46.1875 17.53125 46.1875 27.296875 
Q 46.1875 37.015625 41.984375 42.703125 
Q 37.796875 48.390625 30.609375 48.390625 
z
M 30.609375 56 
Q 42.328125 56 49.015625 48.375 
Q 55.71875 40.765625 55.71875 27.296875 
Q 55.71875 13.875 49.015625 6.21875 
Q 42.328125 -1.421875 30.609375 -1.421875 
Q 18.84375 -1.421875 12.171875 6.21875 
Q 5.515625 13.875 5.515625 27.296875 
Q 5.515625 40.765625 12.171875 48.375 
Q 18.84375 56 30.609375 56 
z
" id="DejaVuSans-6f"/>
     <path d="M 37.109375 75.984375 
L 37.109375 68.5 
L 28.515625 68.5 
Q 23.6875 68.5 21.796875 66.546875 
Q 19.921875 64.59375 19.921875 59.515625 
L 19.921875 54.6875 
L 34.71875 54.6875 
L 34.71875 47.703125 
L 19.921875 47.703125 
L 19.921875 0 
L 10.890625 0 
L 10.890625 47.703125 
L 2.296875 47.703125 
L 2.296875 54.6875 
L 10.890625 54.6875 
L 10.890625 58.5 
Q 10.890625 67.625 15.140625 71.796875 
Q 19.390625 75.984375 28.609375 75.984375 
z
" id="DejaVuSans-66"/>
     <path d="M 54.890625 33.015625 
L 54.890625 0 
L 45.90625 0 
L 45.90625 32.71875 
Q 45.90625 40.484375 42.875 44.328125 
Q 39.84375 48.1875 33.796875 48.1875 
Q 26.515625 48.1875 22.3125 43.546875 
Q 18.109375 38.921875 18.109375 30.90625 
L 18.109375 0 
L 9.078125 0 
L 9.078125 54.6875 
L 18.109375 54.6875 
L 18.109375 46.1875 
Q 21.34375 51.125 25.703125 53.5625 
Q 30.078125 56 35.796875 56 
Q 45.21875 56 50.046875 50.171875 
Q 54.890625 44.34375 54.890625 33.015625 
z
" id="DejaVuSans-6e"/>
     <path d="M 45.40625 46.390625 
L 45.40625 75.984375 
L 54.390625 75.984375 
L 54.390625 0 
L 45.40625 0 
L 45.40625 8.203125 
Q 42.578125 3.328125 38.25 0.953125 
Q 33.9375 -1.421875 27.875 -1.421875 
Q 17.96875 -1.421875 11.734375 6.484375 
Q 5.515625 14.40625 5.515625 27.296875 
Q 5.515625 40.1875 11.734375 48.09375 
Q 17.96875 56 27.875 56 
Q 33.9375 56 38.25 53.625 
Q 42.578125 51.265625 45.40625 46.390625 
z
M 14.796875 27.296875 
Q 14.796875 17.390625 18.875 11.75 
Q 22.953125 6.109375 30.078125 6.109375 
Q 37.203125 6.109375 41.296875 11.75 
Q 45.40625 17.390625 45.40625 27.296875 
Q 45.40625 37.203125 41.296875 42.84375 
Q 37.203125 48.484375 30.078125 48.484375 
Q 22.953125 48.484375 18.875 42.84375 
Q 14.796875 37.203125 14.796875 27.296875 
z
" id="DejaVuSans-64"/>
     <path d="M 44.28125 53.078125 
L 44.28125 44.578125 
Q 40.484375 46.53125 36.375 47.5 
Q 32.28125 48.484375 27.875 48.484375 
Q 21.1875 48.484375 17.84375 46.4375 
Q 14.5 44.390625 14.5 40.28125 
Q 14.5 37.15625 16.890625 35.375 
Q 19.28125 33.59375 26.515625 31.984375 
L 29.59375 31.296875 
Q 39.15625 29.25 43.1875 25.515625 
Q 47.21875 21.78125 47.21875 15.09375 
Q 47.21875 7.46875 41.1875 3.015625 
Q 35.15625 -1.421875 24.609375 -1.421875 
Q 20.21875 -1.421875 15.453125 -0.5625 
Q 10.6875 0.296875 5.421875 2 
L 5.421875 11.28125 
Q 10.40625 8.6875 15.234375 7.390625 
Q 20.0625 6.109375 24.8125 6.109375 
Q 31.15625 6.109375 34.5625 8.28125 
Q 37.984375 10.453125 37.984375 14.40625 
Q 37.984375 18.0625 35.515625 20.015625 
Q 33.0625 21.96875 24.703125 23.78125 
L 21.578125 24.515625 
Q 13.234375 26.265625 9.515625 29.90625 
Q 5.8125 33.546875 5.8125 39.890625 
Q 5.8125 47.609375 11.28125 51.796875 
Q 16.75 56 26.8125 56 
Q 31.78125 56 36.171875 55.265625 
Q 40.578125 54.546875 44.28125 53.078125 
z
" id="DejaVuSans-73"/>
     <path d="M 19.671875 64.796875 
L 19.671875 8.109375 
L 31.59375 8.109375 
Q 46.6875 8.109375 53.6875 14.9375 
Q 60.6875 21.78125 60.6875 36.53125 
Q 60.6875 51.171875 53.6875 57.984375 
Q 46.6875 64.796875 31.59375 64.796875 
z
M 9.8125 72.90625 
L 30.078125 72.90625 
Q 51.265625 72.90625 61.171875 64.09375 
Q 71.09375 55.28125 71.09375 36.53125 
Q 71.09375 17.671875 61.125 8.828125 
Q 51.171875 0 30.078125 0 
L 9.8125 0 
z
" id="DejaVuSans-44"/>
     <path d="M 18.3125 70.21875 
L 18.3125 54.6875 
L 36.8125 54.6875 
L 36.8125 47.703125 
L 18.3125 47.703125 
L 18.3125 18.015625 
Q 18.3125 11.328125 20.140625 9.421875 
Q 21.96875 7.515625 27.59375 7.515625 
L 36.8125 7.515625 
L 36.8125 0 
L 27.59375 0 
Q 17.1875 0 13.234375 3.875 
Q 9.28125 7.765625 9.28125 18.015625 
L 9.28125 47.703125 
L 2.6875 47.703125 
L 2.6875 54.6875 
L 9.28125 54.6875 
L 9.28125 70.21875 
z
" id="DejaVuSans-74"/>
     <path d="M 54.890625 33.015625 
L 54.890625 0 
L 45.90625 0 
L 45.90625 32.71875 
Q 45.90625 40.484375 42.875 44.328125 
Q 39.84375 48.1875 33.796875 48.1875 
Q 26.515625 48.1875 22.3125 43.546875 
Q 18.109375 38.921875 18.109375 30.90625 
L 18.109375 0 
L 9.078125 0 
L 9.078125 75.984375 
L 18.109375 75.984375 
L 18.109375 46.1875 
Q 21.34375 51.125 25.703125 53.5625 
Q 30.078125 56 35.796875 56 
Q 45.21875 56 50.046875 50.171875 
Q 54.890625 44.34375 54.890625 33.015625 
z
" id="DejaVuSans-68"/>
     <path d="M 19.671875 64.796875 
L 19.671875 37.40625 
L 32.078125 37.40625 
Q 38.96875 37.40625 42.71875 40.96875 
Q 46.484375 44.53125 46.484375 51.125 
Q 46.484375 57.671875 42.71875 61.234375 
Q 38.96875 64.796875 32.078125 64.796875 
z
M 9.8125 72.90625 
L 32.078125 72.90625 
Q 44.34375 72.90625 50.609375 67.359375 
Q 56.890625 61.8125 56.890625 51.125 
Q 56.890625 40.328125 50.609375 34.8125 
Q 44.34375 29.296875 32.078125 29.296875 
L 19.671875 29.296875 
L 19.671875 0 
L 9.8125 0 
z
" id="DejaVuSans-50"/>
     <path d="M 9.421875 54.6875 
L 18.40625 54.6875 
L 18.40625 0 
L 9.421875 0 
z
M 9.421875 75.984375 
L 18.40625 75.984375 
L 18.40625 64.59375 
L 9.421875 64.59375 
z
" id="DejaVuSans-69"/>
     <path id="DejaVuSans-20"/>
     <path d="M 39.40625 66.21875 
Q 28.65625 66.21875 22.328125 58.203125 
Q 16.015625 50.203125 16.015625 36.375 
Q 16.015625 22.609375 22.328125 14.59375 
Q 28.65625 6.59375 39.40625 6.59375 
Q 50.140625 6.59375 56.421875 14.59375 
Q 62.703125 22.609375 62.703125 36.375 
Q 62.703125 50.203125 56.421875 58.203125 
Q 50.140625 66.21875 39.40625 66.21875 
z
M 39.40625 74.21875 
Q 54.734375 74.21875 63.90625 63.9375 
Q 73.09375 53.65625 73.09375 36.375 
Q 73.09375 19.140625 63.90625 8.859375 
Q 54.734375 -1.421875 39.40625 -1.421875 
Q 24.03125 -1.421875 14.8125 8.828125 
Q 5.609375 19.09375 5.609375 36.375 
Q 5.609375 53.65625 14.8125 63.9375 
Q 24.03125 74.21875 39.40625 74.21875 
z
" id="DejaVuSans-4f"/>
     <path d="M 48.6875 27.296875 
Q 48.6875 37.203125 44.609375 42.84375 
Q 40.53125 48.484375 33.40625 48.484375 
Q 26.265625 48.484375 22.1875 42.84375 
Q 18.109375 37.203125 18.109375 27.296875 
Q 18.109375 17.390625 22.1875 11.75 
Q 26.265625 6.109375 33.40625 6.109375 
Q 40.53125 6.109375 44.609375 11.75 
Q 48.6875 17.390625 48.6875 27.296875 
z
M 18.109375 46.390625 
Q 20.953125 51.265625 25.265625 53.625 
Q 29.59375 56 35.59375 56 
Q 45.5625 56 51.78125 48.09375 
Q 58.015625 40.1875 58.015625 27.296875 
Q 58.015625 14.40625 51.78125 6.484375 
Q 45.5625 -1.421875 35.59375 -1.421875 
Q 29.59375 -1.421875 25.265625 0.953125 
Q 20.953125 3.328125 18.109375 8.203125 
L 18.109375 0 
L 9.078125 0 
L 9.078125 75.984375 
L 18.109375 75.984375 
z
" id="DejaVuSans-62"/>
     <path d="M 41.109375 46.296875 
Q 39.59375 47.171875 37.8125 47.578125 
Q 36.03125 48 33.890625 48 
Q 26.265625 48 22.1875 43.046875 
Q 18.109375 38.09375 18.109375 28.8125 
L 18.109375 0 
L 9.078125 0 
L 9.078125 54.6875 
L 18.109375 54.6875 
L 18.109375 46.1875 
Q 20.953125 51.171875 25.484375 53.578125 
Q 30.03125 56 36.53125 56 
Q 37.453125 56 38.578125 55.875 
Q 39.703125 55.765625 41.0625 55.515625 
z
" id="DejaVuSans-72"/>
     <path d="M 52 44.1875 
Q 55.375 50.25 60.0625 53.125 
Q 64.75 56 71.09375 56 
Q 79.640625 56 84.28125 50.015625 
Q 88.921875 44.046875 88.921875 33.015625 
L 88.921875 0 
L 79.890625 0 
L 79.890625 32.71875 
Q 79.890625 40.578125 77.09375 44.375 
Q 74.3125 48.1875 68.609375 48.1875 
Q 61.625 48.1875 57.5625 43.546875 
Q 53.515625 38.921875 53.515625 30.90625 
L 53.515625 0 
L 44.484375 0 
L 44.484375 32.71875 
Q 44.484375 40.625 41.703125 44.40625 
Q 38.921875 48.1875 33.109375 48.1875 
Q 26.21875 48.1875 22.15625 43.53125 
Q 18.109375 38.875 18.109375 30.90625 
L 18.109375 0 
L 9.078125 0 
L 9.078125 54.6875 
L 18.109375 54.6875 
L 18.109375 46.1875 
Q 21.1875 51.21875 25.484375 53.609375 
Q 29.78125 56 35.6875 56 
Q 41.65625 56 45.828125 52.96875 
Q 50 49.953125 52 44.1875 
z
" id="DejaVuSans-6d"/>
    </defs>
    <g transform="translate(19.056375 19.00155)scale(0.144 -0.144)">
     <use xlink:href="#DejaVuSans-4c"/>
     <use x="55.697266" xlink:href="#DejaVuSans-65"/>
     <use x="117.220703" xlink:href="#DejaVuSans-61"/>
     <use x="178.5" xlink:href="#DejaVuSans-67"/>
     <use x="241.976562" xlink:href="#DejaVuSans-75"/>
     <use x="305.355469" xlink:href="#DejaVuSans-65"/>
     <use x="366.878906" xlink:href="#DejaVuSans-2d"/>
     <use x="402.978516" xlink:href="#DejaVuSans-6f"/>
     <use x="464.160156" xlink:href="#DejaVuSans-66"/>
     <use x="499.287109" xlink:href="#DejaVuSans-2d"/>
     <use x="535.371094" xlink:href="#DejaVuSans-4c"/>
     <use x="591.068359" xlink:href="#DejaVuSans-65"/>
     <use x="652.591797" xlink:href="#DejaVuSans-67"/>
     <use x="716.068359" xlink:href="#DejaVuSans-65"/>
     <use x="777.591797" xlink:href="#DejaVuSans-6e"/>
     <use x="840.970703" xlink:href="#DejaVuSans-64"/>
     <use x="904.447266" xlink:href="#DejaVuSans-73"/>
     <use x="956.546875" xlink:href="#DejaVuSans-2d"/>
     <use x="992.630859" xlink:href="#DejaVuSans-44"/>
     <use x="1069.632812" xlink:href="#DejaVuSans-65"/>
     <use x="1131.15625" xlink:href="#DejaVuSans-61"/>
     <use x="1192.435547" xlink:href="#DejaVuSans-74"/>
     <use x="1231.644531" xlink:href="#DejaVuSans-68"/>
     <use x="1295.023438" xlink:href="#DejaVuSans-2d"/>
     <use x="1331.107422" xlink:href="#DejaVuSans-50"/>
     <use x="1391.363281" xlink:href="#DejaVuSans-6f"/>
     <use x="1452.544922" xlink:href="#DejaVuSans-69"/>
     <use x="1480.328125" xlink:href="#DejaVuSans-6e"/>
     <use x="1543.707031" xlink:href="#DejaVuSans-74"/>
     <use x="1582.916016" xlink:href="#DejaVuSans-20"/>
     <use x="1614.703125" xlink:href="#DejaVuSans-4f"/>
     <use x="1693.414062" xlink:href="#DejaVuSans-50"/>
     <use x="1753.716797" xlink:href="#DejaVuSans-4c"/>
     <use x="1809.429688" xlink:href="#DejaVuSans-32"/>
     <use x="1873.052734" xlink:href="#DejaVuSans-30"/>
     <use x="1936.675781" xlink:href="#DejaVuSans-31"/>
     <use x="2000.298828" xlink:href="#DejaVuSans-38"/>
     <use x="2063.921875" xlink:href="#DejaVuSans-20"/>
     <use x="2095.708984" xlink:href="#DejaVuSans-62"/>
     <use x="2159.185547" xlink:href="#DejaVuSans-65"/>
     <use x="2220.708984" xlink:href="#DejaVuSans-66"/>
     <use x="2255.914062" xlink:href="#DejaVuSans-6f"/>
     <use x="2317.095703" xlink:href="#DejaVuSans-72"/>
     <use x="2358.177734" xlink:href="#DejaVuSans-65"/>
     <use x="2419.701172" xlink:href="#DejaVuSans-20"/>
     <use x="2451.488281" xlink:href="#DejaVuSans-32"/>
     <use x="2515.111328" xlink:href="#DejaVuSans-30"/>
     <use x="2578.734375" xlink:href="#DejaVuSans-20"/>
     <use x="2610.521484" xlink:href="#DejaVuSans-6d"/>
     <use x="2707.933594" xlink:href="#DejaVuSans-69"/>
     <use x="2735.716797" xlink:href="#DejaVuSans-6e"/>
     <use x="2799.095703" xlink:href="#DejaVuSans-75"/>
     <use x="2862.474609" xlink:href="#DejaVuSans-74"/>
     <use x="2901.683594" xlink:href="#DejaVuSans-65"/>
     <use x="2963.207031" xlink:href="#DejaVuSans-73"/>
    </g>
    <!-- Total Kills = 171 -->
    <defs>
     <path d="M -0.296875 72.90625 
L 61.375 72.90625 
L 61.375 64.59375 
L 35.5 64.59375 
L 35.5 0 
L 25.59375 0 
L 25.59375 64.59375 
L -0.296875 64.59375 
z
" id="DejaVuSans-54"/>
     <path d="M 9.421875 75.984375 
L 18.40625 75.984375 
L 18.40625 0 
L 9.421875 0 
z
" id="DejaVuSans-6c"/>
     <path d="M 9.8125 72.90625 
L 19.671875 72.90625 
L 19.671875 42.09375 
L 52.390625 72.90625 
L 65.09375 72.90625 
L 28.90625 38.921875 
L 67.671875 0 
L 54.6875 0 
L 19.671875 35.109375 
L 19.671875 0 
L 9.8125 0 
z
" id="DejaVuSans-4b"/>
     <path d="M 10.59375 45.40625 
L 73.1875 45.40625 
L 73.1875 37.203125 
L 10.59375 37.203125 
z
M 10.59375 25.484375 
L 73.1875 25.484375 
L 73.1875 17.1875 
L 10.59375 17.1875 
z
" id="DejaVuSans-3d"/>
     <path d="M 8.203125 72.90625 
L 55.078125 72.90625 
L 55.078125 68.703125 
L 28.609375 0 
L 18.3125 0 
L 43.21875 64.59375 
L 8.203125 64.59375 
z
" id="DejaVuSans-37"/>
    </defs>
    <g transform="translate(177.026625 35.1264)scale(0.144 -0.144)">
     <use xlink:href="#DejaVuSans-54"/>
     <use x="60.818359" xlink:href="#DejaVuSans-6f"/>
     <use x="122" xlink:href="#DejaVuSans-74"/>
     <use x="161.208984" xlink:href="#DejaVuSans-61"/>
     <use x="222.488281" xlink:href="#DejaVuSans-6c"/>
     <use x="250.271484" xlink:href="#DejaVuSans-20"/>
     <use x="282.058594" xlink:href="#DejaVuSans-4b"/>
     <use x="347.634766" xlink:href="#DejaVuSans-69"/>
     <use x="375.417969" xlink:href="#DejaVuSans-6c"/>
     <use x="403.201172" xlink:href="#DejaVuSans-6c"/>
     <use x="430.984375" xlink:href="#DejaVuSans-73"/>
     <use x="483.083984" xlink:href="#DejaVuSans-20"/>
     <use x="514.871094" xlink:href="#DejaVuSans-3d"/>
     <use x="598.660156" xlink:href="#DejaVuSans-20"/>
     <use x="630.447266" xlink:href="#DejaVuSans-31"/>
     <use x="694.070312" xlink:href="#DejaVuSans-37"/>
     <use x="757.693359" xlink:href="#DejaVuSans-31"/>
    </g>
   </g>
  </g>
 </g>
 <defs>
  <clipPath id="pe0498c625a">
   <rect height="263.8944" width="357.12" x="57.6" y="41.1264"/>
  </clipPath>
 </defs>
</svg>
