<?xml version="1.0" encoding="utf-8" standalone="no"?>
<!DOCTYPE svg PUBLIC "-//W3C//DTD SVG 1.1//EN"
  "http://www.w3.org/Graphics/SVG/1.1/DTD/svg11.dtd">
<!-- Created with matplotlib (http://matplotlib.org/) -->
<svg height="342.72pt" version="1.1" viewBox="0 0 460.8 342.72" width="460.8pt" xmlns="http://www.w3.org/2000/svg" xmlns:xlink="http://www.w3.org/1999/xlink">
 <defs>
  <style type="text/css">
*{stroke-linecap:butt;stroke-linejoin:round;}
  </style>
 </defs>
 <g id="figure_1">
  <g id="patch_1">
   <path d="M 0 342.72 
L 460.8 342.72 
L 460.8 0 
L 0 0 
z
" style="fill:#ffffff;"/>
  </g>
  <g id="axes_1">
   <g id="patch_2">
    <path d="M 57.6 305.0208 
L 414.72 305.0208 
L 414.72 41.1264 
L 57.6 41.1264 
z
" style="fill:#e5e5e5;"/>
   </g>
   <g id="matplotlib.axis_1">
    <g id="xtick_1">
     <g id="line2d_1">
      <path clip-path="url(#pb5ef93db1a)" d="M 103.260427 305.0208 
L 103.260427 41.1264 
" style="fill:none;stroke:#ffffff;stroke-linecap:square;stroke-width:0.8;"/>
     </g>
     <g id="line2d_2">
      <defs>
       <path d="M 0 0 
L 0 3.5 
" id="m1e71b4a05d" style="stroke:#555555;stroke-width:0.8;"/>
      </defs>
      <g>
       <use style="fill:#555555;stroke:#555555;stroke-width:0.8;" x="103.260427" xlink:href="#m1e71b4a05d" y="305.0208"/>
      </g>
     </g>
     <g id="text_1">
      <!-- 2000 -->
      <defs>
       <path d="M 19.1875 8.296875 
L 53.609375 8.296875 
L 53.609375 0 
L 7.328125 0 
L 7.328125 8.296875 
Q 12.9375 14.109375 22.625 23.890625 
Q 32.328125 33.6875 34.8125 36.53125 
Q 39.546875 41.84375 41.421875 45.53125 
Q 43.3125 49.21875 43.3125 52.78125 
Q 43.3125 58.59375 39.234375 62.25 
Q 35.15625 65.921875 28.609375 65.921875 
Q 23.96875 65.921875 18.8125 64.3125 
Q 13.671875 62.703125 7.8125 59.421875 
L 7.8125 69.390625 
Q 13.765625 71.78125 18.9375 73 
Q 24.125 74.21875 28.421875 74.21875 
Q 39.75 74.21875 46.484375 68.546875 
Q 53.21875 62.890625 53.21875 53.421875 
Q 53.21875 48.921875 51.53125 44.890625 
Q 49.859375 40.875 45.40625 35.40625 
Q 44.1875 33.984375 37.640625 27.21875 
Q 31.109375 20.453125 19.1875 8.296875 
z
" id="DejaVuSans-32"/>
       <path d="M 31.78125 66.40625 
Q 24.171875 66.40625 20.328125 58.90625 
Q 16.5 51.421875 16.5 36.375 
Q 16.5 21.390625 20.328125 13.890625 
Q 24.171875 6.390625 31.78125 6.390625 
Q 39.453125 6.390625 43.28125 13.890625 
Q 47.125 21.390625 47.125 36.375 
Q 47.125 51.421875 43.28125 58.90625 
Q 39.453125 66.40625 31.78125 66.40625 
z
M 31.78125 74.21875 
Q 44.046875 74.21875 50.515625 64.515625 
Q 56.984375 54.828125 56.984375 36.375 
Q 56.984375 17.96875 50.515625 8.265625 
Q 44.046875 -1.421875 31.78125 -1.421875 
Q 19.53125 -1.421875 13.0625 8.265625 
Q 6.59375 17.96875 6.59375 36.375 
Q 6.59375 54.828125 13.0625 64.515625 
Q 19.53125 74.21875 31.78125 74.21875 
z
" id="DejaVuSans-30"/>
      </defs>
      <g style="fill:#555555;" transform="translate(90.535427 319.619237)scale(0.1 -0.1)">
       <use xlink:href="#DejaVuSans-32"/>
       <use x="63.623047" xlink:href="#DejaVuSans-30"/>
       <use x="127.246094" xlink:href="#DejaVuSans-30"/>
       <use x="190.869141" xlink:href="#DejaVuSans-30"/>
      </g>
     </g>
    </g>
    <g id="xtick_2">
     <g id="line2d_3">
      <path clip-path="url(#pb5ef93db1a)" d="M 151.981744 305.0208 
L 151.981744 41.1264 
" style="fill:none;stroke:#ffffff;stroke-linecap:square;stroke-width:0.8;"/>
     </g>
     <g id="line2d_4">
      <g>
       <use style="fill:#555555;stroke:#555555;stroke-width:0.8;" x="151.981744" xlink:href="#m1e71b4a05d" y="305.0208"/>
      </g>
     </g>
     <g id="text_2">
      <!-- 4000 -->
      <defs>
       <path d="M 37.796875 64.3125 
L 12.890625 25.390625 
L 37.796875 25.390625 
z
M 35.203125 72.90625 
L 47.609375 72.90625 
L 47.609375 25.390625 
L 58.015625 25.390625 
L 58.015625 17.1875 
L 47.609375 17.1875 
L 47.609375 0 
L 37.796875 0 
L 37.796875 17.1875 
L 4.890625 17.1875 
L 4.890625 26.703125 
z
" id="DejaVuSans-34"/>
      </defs>
      <g style="fill:#555555;" transform="translate(139.256744 319.619237)scale(0.1 -0.1)">
       <use xlink:href="#DejaVuSans-34"/>
       <use x="63.623047" xlink:href="#DejaVuSans-30"/>
       <use x="127.246094" xlink:href="#DejaVuSans-30"/>
       <use x="190.869141" xlink:href="#DejaVuSans-30"/>
      </g>
     </g>
    </g>
    <g id="xtick_3">
     <g id="line2d_5">
      <path clip-path="url(#pb5ef93db1a)" d="M 200.703061 305.0208 
L 200.703061 41.1264 
" style="fill:none;stroke:#ffffff;stroke-linecap:square;stroke-width:0.8;"/>
     </g>
     <g id="line2d_6">
      <g>
       <use style="fill:#555555;stroke:#555555;stroke-width:0.8;" x="200.703061" xlink:href="#m1e71b4a05d" y="305.0208"/>
      </g>
     </g>
     <g id="text_3">
      <!-- 6000 -->
      <defs>
       <path d="M 33.015625 40.375 
Q 26.375 40.375 22.484375 35.828125 
Q 18.609375 31.296875 18.609375 23.390625 
Q 18.609375 15.53125 22.484375 10.953125 
Q 26.375 6.390625 33.015625 6.390625 
Q 39.65625 6.390625 43.53125 10.953125 
Q 47.40625 15.53125 47.40625 23.390625 
Q 47.40625 31.296875 43.53125 35.828125 
Q 39.65625 40.375 33.015625 40.375 
z
M 52.59375 71.296875 
L 52.59375 62.3125 
Q 48.875 64.0625 45.09375 64.984375 
Q 41.3125 65.921875 37.59375 65.921875 
Q 27.828125 65.921875 22.671875 59.328125 
Q 17.53125 52.734375 16.796875 39.40625 
Q 19.671875 43.65625 24.015625 45.921875 
Q 28.375 48.1875 33.59375 48.1875 
Q 44.578125 48.1875 50.953125 41.515625 
Q 57.328125 34.859375 57.328125 23.390625 
Q 57.328125 12.15625 50.6875 5.359375 
Q 44.046875 -1.421875 33.015625 -1.421875 
Q 20.359375 -1.421875 13.671875 8.265625 
Q 6.984375 17.96875 6.984375 36.375 
Q 6.984375 53.65625 15.1875 63.9375 
Q 23.390625 74.21875 37.203125 74.21875 
Q 40.921875 74.21875 44.703125 73.484375 
Q 48.484375 72.75 52.59375 71.296875 
z
" id="DejaVuSans-36"/>
      </defs>
      <g style="fill:#555555;" transform="translate(187.978061 319.619237)scale(0.1 -0.1)">
       <use xlink:href="#DejaVuSans-36"/>
       <use x="63.623047" xlink:href="#DejaVuSans-30"/>
       <use x="127.246094" xlink:href="#DejaVuSans-30"/>
       <use x="190.869141" xlink:href="#DejaVuSans-30"/>
      </g>
     </g>
    </g>
    <g id="xtick_4">
     <g id="line2d_7">
      <path clip-path="url(#pb5ef93db1a)" d="M 249.424379 305.0208 
L 249.424379 41.1264 
" style="fill:none;stroke:#ffffff;stroke-linecap:square;stroke-width:0.8;"/>
     </g>
     <g id="line2d_8">
      <g>
       <use style="fill:#555555;stroke:#555555;stroke-width:0.8;" x="249.424379" xlink:href="#m1e71b4a05d" y="305.0208"/>
      </g>
     </g>
     <g id="text_4">
      <!-- 8000 -->
      <defs>
       <path d="M 31.78125 34.625 
Q 24.75 34.625 20.71875 30.859375 
Q 16.703125 27.09375 16.703125 20.515625 
Q 16.703125 13.921875 20.71875 10.15625 
Q 24.75 6.390625 31.78125 6.390625 
Q 38.8125 6.390625 42.859375 10.171875 
Q 46.921875 13.96875 46.921875 20.515625 
Q 46.921875 27.09375 42.890625 30.859375 
Q 38.875 34.625 31.78125 34.625 
z
M 21.921875 38.8125 
Q 15.578125 40.375 12.03125 44.71875 
Q 8.5 49.078125 8.5 55.328125 
Q 8.5 64.0625 14.71875 69.140625 
Q 20.953125 74.21875 31.78125 74.21875 
Q 42.671875 74.21875 48.875 69.140625 
Q 55.078125 64.0625 55.078125 55.328125 
Q 55.078125 49.078125 51.53125 44.71875 
Q 48 40.375 41.703125 38.8125 
Q 48.828125 37.15625 52.796875 32.3125 
Q 56.78125 27.484375 56.78125 20.515625 
Q 56.78125 9.90625 50.3125 4.234375 
Q 43.84375 -1.421875 31.78125 -1.421875 
Q 19.734375 -1.421875 13.25 4.234375 
Q 6.78125 9.90625 6.78125 20.515625 
Q 6.78125 27.484375 10.78125 32.3125 
Q 14.796875 37.15625 21.921875 38.8125 
z
M 18.3125 54.390625 
Q 18.3125 48.734375 21.84375 45.5625 
Q 25.390625 42.390625 31.78125 42.390625 
Q 38.140625 42.390625 41.71875 45.5625 
Q 45.3125 48.734375 45.3125 54.390625 
Q 45.3125 60.0625 41.71875 63.234375 
Q 38.140625 66.40625 31.78125 66.40625 
Q 25.390625 66.40625 21.84375 63.234375 
Q 18.3125 60.0625 18.3125 54.390625 
z
" id="DejaVuSans-38"/>
      </defs>
      <g style="fill:#555555;" transform="translate(236.699379 319.619237)scale(0.1 -0.1)">
       <use xlink:href="#DejaVuSans-38"/>
       <use x="63.623047" xlink:href="#DejaVuSans-30"/>
       <use x="127.246094" xlink:href="#DejaVuSans-30"/>
       <use x="190.869141" xlink:href="#DejaVuSans-30"/>
      </g>
     </g>
    </g>
    <g id="xtick_5">
     <g id="line2d_9">
      <path clip-path="url(#pb5ef93db1a)" d="M 298.145696 305.0208 
L 298.145696 41.1264 
" style="fill:none;stroke:#ffffff;stroke-linecap:square;stroke-width:0.8;"/>
     </g>
     <g id="line2d_10">
      <g>
       <use style="fill:#555555;stroke:#555555;stroke-width:0.8;" x="298.145696" xlink:href="#m1e71b4a05d" y="305.0208"/>
      </g>
     </g>
     <g id="text_5">
      <!-- 10000 -->
      <defs>
       <path d="M 12.40625 8.296875 
L 28.515625 8.296875 
L 28.515625 63.921875 
L 10.984375 60.40625 
L 10.984375 69.390625 
L 28.421875 72.90625 
L 38.28125 72.90625 
L 38.28125 8.296875 
L 54.390625 8.296875 
L 54.390625 0 
L 12.40625 0 
z
" id="DejaVuSans-31"/>
      </defs>
      <g style="fill:#555555;" transform="translate(282.239446 319.619237)scale(0.1 -0.1)">
       <use xlink:href="#DejaVuSans-31"/>
       <use x="63.623047" xlink:href="#DejaVuSans-30"/>
       <use x="127.246094" xlink:href="#DejaVuSans-30"/>
       <use x="190.869141" xlink:href="#DejaVuSans-30"/>
       <use x="254.492188" xlink:href="#DejaVuSans-30"/>
      </g>
     </g>
    </g>
    <g id="xtick_6">
     <g id="line2d_11">
      <path clip-path="url(#pb5ef93db1a)" d="M 346.867013 305.0208 
L 346.867013 41.1264 
" style="fill:none;stroke:#ffffff;stroke-linecap:square;stroke-width:0.8;"/>
     </g>
     <g id="line2d_12">
      <g>
       <use style="fill:#555555;stroke:#555555;stroke-width:0.8;" x="346.867013" xlink:href="#m1e71b4a05d" y="305.0208"/>
      </g>
     </g>
     <g id="text_6">
      <!-- 12000 -->
      <g style="fill:#555555;" transform="translate(330.960763 319.619237)scale(0.1 -0.1)">
       <use xlink:href="#DejaVuSans-31"/>
       <use x="63.623047" xlink:href="#DejaVuSans-32"/>
       <use x="127.246094" xlink:href="#DejaVuSans-30"/>
       <use x="190.869141" xlink:href="#DejaVuSans-30"/>
       <use x="254.492188" xlink:href="#DejaVuSans-30"/>
      </g>
     </g>
    </g>
    <g id="xtick_7">
     <g id="line2d_13">
      <path clip-path="url(#pb5ef93db1a)" d="M 395.58833 305.0208 
L 395.58833 41.1264 
" style="fill:none;stroke:#ffffff;stroke-linecap:square;stroke-width:0.8;"/>
     </g>
     <g id="line2d_14">
      <g>
       <use style="fill:#555555;stroke:#555555;stroke-width:0.8;" x="395.58833" xlink:href="#m1e71b4a05d" y="305.0208"/>
      </g>
     </g>
     <g id="text_7">
      <!-- 14000 -->
      <g style="fill:#555555;" transform="translate(379.68208 319.619237)scale(0.1 -0.1)">
       <use xlink:href="#DejaVuSans-31"/>
       <use x="63.623047" xlink:href="#DejaVuSans-34"/>
       <use x="127.246094" xlink:href="#DejaVuSans-30"/>
       <use x="190.869141" xlink:href="#DejaVuSans-30"/>
       <use x="254.492188" xlink:href="#DejaVuSans-30"/>
      </g>
     </g>
    </g>
   </g>
   <g id="matplotlib.axis_2">
    <g id="ytick_1">
     <g id="line2d_15">
      <path clip-path="url(#pb5ef93db1a)" d="M 57.6 272.482223 
L 414.72 272.482223 
" style="fill:none;stroke:#ffffff;stroke-linecap:square;stroke-width:0.8;"/>
     </g>
     <g id="line2d_16">
      <defs>
       <path d="M 0 0 
L -3.5 0 
" id="me401f9c5ff" style="stroke:#555555;stroke-width:0.8;"/>
      </defs>
      <g>
       <use style="fill:#555555;stroke:#555555;stroke-width:0.8;" x="57.6" xlink:href="#me401f9c5ff" y="272.482223"/>
      </g>
     </g>
     <g id="text_8">
      <!-- 2000 -->
      <g style="fill:#555555;" transform="translate(25.15 276.281442)scale(0.1 -0.1)">
       <use xlink:href="#DejaVuSans-32"/>
       <use x="63.623047" xlink:href="#DejaVuSans-30"/>
       <use x="127.246094" xlink:href="#DejaVuSans-30"/>
       <use x="190.869141" xlink:href="#DejaVuSans-30"/>
      </g>
     </g>
    </g>
    <g id="ytick_2">
     <g id="line2d_17">
      <path clip-path="url(#pb5ef93db1a)" d="M 57.6 235.928216 
L 414.72 235.928216 
" style="fill:none;stroke:#ffffff;stroke-linecap:square;stroke-width:0.8;"/>
     </g>
     <g id="line2d_18">
      <g>
       <use style="fill:#555555;stroke:#555555;stroke-width:0.8;" x="57.6" xlink:href="#me401f9c5ff" y="235.928216"/>
      </g>
     </g>
     <g id="text_9">
      <!-- 4000 -->
      <g style="fill:#555555;" transform="translate(25.15 239.727434)scale(0.1 -0.1)">
       <use xlink:href="#DejaVuSans-34"/>
       <use x="63.623047" xlink:href="#DejaVuSans-30"/>
       <use x="127.246094" xlink:href="#DejaVuSans-30"/>
       <use x="190.869141" xlink:href="#DejaVuSans-30"/>
      </g>
     </g>
    </g>
    <g id="ytick_3">
     <g id="line2d_19">
      <path clip-path="url(#pb5ef93db1a)" d="M 57.6 199.374208 
L 414.72 199.374208 
" style="fill:none;stroke:#ffffff;stroke-linecap:square;stroke-width:0.8;"/>
     </g>
     <g id="line2d_20">
      <g>
       <use style="fill:#555555;stroke:#555555;stroke-width:0.8;" x="57.6" xlink:href="#me401f9c5ff" y="199.374208"/>
      </g>
     </g>
     <g id="text_10">
      <!-- 6000 -->
      <g style="fill:#555555;" transform="translate(25.15 203.173427)scale(0.1 -0.1)">
       <use xlink:href="#DejaVuSans-36"/>
       <use x="63.623047" xlink:href="#DejaVuSans-30"/>
       <use x="127.246094" xlink:href="#DejaVuSans-30"/>
       <use x="190.869141" xlink:href="#DejaVuSans-30"/>
      </g>
     </g>
    </g>
    <g id="ytick_4">
     <g id="line2d_21">
      <path clip-path="url(#pb5ef93db1a)" d="M 57.6 162.820201 
L 414.72 162.820201 
" style="fill:none;stroke:#ffffff;stroke-linecap:square;stroke-width:0.8;"/>
     </g>
     <g id="line2d_22">
      <g>
       <use style="fill:#555555;stroke:#555555;stroke-width:0.8;" x="57.6" xlink:href="#me401f9c5ff" y="162.820201"/>
      </g>
     </g>
     <g id="text_11">
      <!-- 8000 -->
      <g style="fill:#555555;" transform="translate(25.15 166.61942)scale(0.1 -0.1)">
       <use xlink:href="#DejaVuSans-38"/>
       <use x="63.623047" xlink:href="#DejaVuSans-30"/>
       <use x="127.246094" xlink:href="#DejaVuSans-30"/>
       <use x="190.869141" xlink:href="#DejaVuSans-30"/>
      </g>
     </g>
    </g>
    <g id="ytick_5">
     <g id="line2d_23">
      <path clip-path="url(#pb5ef93db1a)" d="M 57.6 126.266194 
L 414.72 126.266194 
" style="fill:none;stroke:#ffffff;stroke-linecap:square;stroke-width:0.8;"/>
     </g>
     <g id="line2d_24">
      <g>
       <use style="fill:#555555;stroke:#555555;stroke-width:0.8;" x="57.6" xlink:href="#me401f9c5ff" y="126.266194"/>
      </g>
     </g>
     <g id="text_12">
      <!-- 10000 -->
      <g style="fill:#555555;" transform="translate(18.7875 130.065412)scale(0.1 -0.1)">
       <use xlink:href="#DejaVuSans-31"/>
       <use x="63.623047" xlink:href="#DejaVuSans-30"/>
       <use x="127.246094" xlink:href="#DejaVuSans-30"/>
       <use x="190.869141" xlink:href="#DejaVuSans-30"/>
       <use x="254.492188" xlink:href="#DejaVuSans-30"/>
      </g>
     </g>
    </g>
    <g id="ytick_6">
     <g id="line2d_25">
      <path clip-path="url(#pb5ef93db1a)" d="M 57.6 89.712186 
L 414.72 89.712186 
" style="fill:none;stroke:#ffffff;stroke-linecap:square;stroke-width:0.8;"/>
     </g>
     <g id="line2d_26">
      <g>
       <use style="fill:#555555;stroke:#555555;stroke-width:0.8;" x="57.6" xlink:href="#me401f9c5ff" y="89.712186"/>
      </g>
     </g>
     <g id="text_13">
      <!-- 12000 -->
      <g style="fill:#555555;" transform="translate(18.7875 93.511405)scale(0.1 -0.1)">
       <use xlink:href="#DejaVuSans-31"/>
       <use x="63.623047" xlink:href="#DejaVuSans-32"/>
       <use x="127.246094" xlink:href="#DejaVuSans-30"/>
       <use x="190.869141" xlink:href="#DejaVuSans-30"/>
       <use x="254.492188" xlink:href="#DejaVuSans-30"/>
      </g>
     </g>
    </g>
    <g id="ytick_7">
     <g id="line2d_27">
      <path clip-path="url(#pb5ef93db1a)" d="M 57.6 53.158179 
L 414.72 53.158179 
" style="fill:none;stroke:#ffffff;stroke-linecap:square;stroke-width:0.8;"/>
     </g>
     <g id="line2d_28">
      <g>
       <use style="fill:#555555;stroke:#555555;stroke-width:0.8;" x="57.6" xlink:href="#me401f9c5ff" y="53.158179"/>
      </g>
     </g>
     <g id="text_14">
      <!-- 14000 -->
      <g style="fill:#555555;" transform="translate(18.7875 56.957397)scale(0.1 -0.1)">
       <use xlink:href="#DejaVuSans-31"/>
       <use x="63.623047" xlink:href="#DejaVuSans-34"/>
       <use x="127.246094" xlink:href="#DejaVuSans-30"/>
       <use x="190.869141" xlink:href="#DejaVuSans-30"/>
       <use x="254.492188" xlink:href="#DejaVuSans-30"/>
      </g>
     </g>
    </g>
   </g>
   <g id="PathCollection_1">
    <defs>
     <path d="M 0 0.5 
C 0.132602 0.5 0.25979 0.447317 0.353553 0.353553 
C 0.447317 0.25979 0.5 0.132602 0.5 0 
C 0.5 -0.132602 0.447317 -0.25979 0.353553 -0.353553 
C 0.25979 -0.447317 0.132602 -0.5 0 -0.5 
C -0.132602 -0.5 -0.25979 -0.447317 -0.353553 -0.353553 
C -0.447317 -0.25979 -0.5 -0.132602 -0.5 0 
C -0.5 0.132602 -0.447317 0.25979 -0.353553 0.353553 
C -0.25979 0.447317 -0.132602 0.5 0 0.5 
z
" id="mcd6729368f" style="stroke:#000000;stroke-width:0.5;"/>
    </defs>
    <g clip-path="url(#pb5ef93db1a)">
     <use style="stroke:#000000;stroke-width:0.5;" x="377.658885" xlink:href="#mcd6729368f" y="262.283655"/>
     <use style="stroke:#000000;stroke-width:0.5;" x="374.12659" xlink:href="#mcd6729368f" y="263.28889"/>
     <use style="stroke:#000000;stroke-width:0.5;" x="124.259315" xlink:href="#mcd6729368f" y="137.524828"/>
     <use style="stroke:#000000;stroke-width:0.5;" x="110.276297" xlink:href="#mcd6729368f" y="149.551096"/>
     <use style="stroke:#000000;stroke-width:0.5;" x="315.636648" xlink:href="#mcd6729368f" y="227.886334"/>
     <use style="stroke:#000000;stroke-width:0.5;" x="287.719334" xlink:href="#mcd6729368f" y="219.332696"/>
     <use style="stroke:#000000;stroke-width:0.5;" x="267.378184" xlink:href="#mcd6729368f" y="171.922149"/>
     <use style="stroke:#000000;stroke-width:0.5;" x="178.656666" xlink:href="#mcd6729368f" y="96.438123"/>
     <use style="stroke:#000000;stroke-width:0.5;" x="371.958491" xlink:href="#mcd6729368f" y="260.401124"/>
     <use style="stroke:#000000;stroke-width:0.5;" x="76.999637" xlink:href="#mcd6729368f" y="113.307798"/>
     <use style="stroke:#000000;stroke-width:0.5;" x="125.623512" xlink:href="#mcd6729368f" y="136.135776"/>
     <use style="stroke:#000000;stroke-width:0.5;" x="80.702458" xlink:href="#mcd6729368f" y="98.704472"/>
     <use style="stroke:#000000;stroke-width:0.5;" x="289.81435" xlink:href="#mcd6729368f" y="228.123935"/>
     <use style="stroke:#000000;stroke-width:0.5;" x="395.101117" xlink:href="#mcd6729368f" y="238.304226"/>
     <use style="stroke:#000000;stroke-width:0.5;" x="258.705789" xlink:href="#mcd6729368f" y="155.491122"/>
     <use style="stroke:#000000;stroke-width:0.5;" x="107.742789" xlink:href="#mcd6729368f" y="129.866763"/>
     <use style="stroke:#000000;stroke-width:0.5;" x="107.206854" xlink:href="#mcd6729368f" y="128.989467"/>
     <use style="stroke:#000000;stroke-width:0.5;" x="340.09475" xlink:href="#mcd6729368f" y="274.127153"/>
     <use style="stroke:#000000;stroke-width:0.5;" x="343.748848" xlink:href="#mcd6729368f" y="273.286411"/>
     <use style="stroke:#000000;stroke-width:0.5;" x="392.689411" xlink:href="#mcd6729368f" y="239.346015"/>
     <use style="stroke:#000000;stroke-width:0.5;" x="185.136601" xlink:href="#mcd6729368f" y="83.077634"/>
     <use style="stroke:#000000;stroke-width:0.5;" x="340.11911" xlink:href="#mcd6729368f" y="279.70164"/>
     <use style="stroke:#000000;stroke-width:0.5;" x="210.471686" xlink:href="#mcd6729368f" y="177.898729"/>
     <use style="stroke:#000000;stroke-width:0.5;" x="255.611986" xlink:href="#mcd6729368f" y="122.354915"/>
     <use style="stroke:#000000;stroke-width:0.5;" x="331.324913" xlink:href="#mcd6729368f" y="292.331049"/>
     <use style="stroke:#000000;stroke-width:0.5;" x="334.93029" xlink:href="#mcd6729368f" y="274.931342"/>
     <use style="stroke:#000000;stroke-width:0.5;" x="321.99478" xlink:href="#mcd6729368f" y="226.844545"/>
     <use style="stroke:#000000;stroke-width:0.5;" x="336.879143" xlink:href="#mcd6729368f" y="220.063777"/>
     <use style="stroke:#000000;stroke-width:0.5;" x="345.551537" xlink:href="#mcd6729368f" y="218.126414"/>
     <use style="stroke:#000000;stroke-width:0.5;" x="272.299037" xlink:href="#mcd6729368f" y="263.800646"/>
     <use style="stroke:#000000;stroke-width:0.5;" x="279.607235" xlink:href="#mcd6729368f" y="259.414165"/>
     <use style="stroke:#000000;stroke-width:0.5;" x="324.503928" xlink:href="#mcd6729368f" y="275.589314"/>
     <use style="stroke:#000000;stroke-width:0.5;" x="136.951218" xlink:href="#mcd6729368f" y="168.595734"/>
     <use style="stroke:#000000;stroke-width:0.5;" x="194.953946" xlink:href="#mcd6729368f" y="189.376687"/>
     <use style="stroke:#000000;stroke-width:0.5;" x="138.87571" xlink:href="#mcd6729368f" y="67.779782"/>
     <use style="stroke:#000000;stroke-width:0.5;" x="128.49807" xlink:href="#mcd6729368f" y="99.910754"/>
     <use style="stroke:#000000;stroke-width:0.5;" x="197.146405" xlink:href="#mcd6729368f" y="180.219908"/>
     <use style="stroke:#000000;stroke-width:0.5;" x="198.120832" xlink:href="#mcd6729368f" y="170.313772"/>
     <use style="stroke:#000000;stroke-width:0.5;" x="233.492508" xlink:href="#mcd6729368f" y="104.75416"/>
     <use style="stroke:#000000;stroke-width:0.5;" x="120.702659" xlink:href="#mcd6729368f" y="97.096096"/>
     <use style="stroke:#000000;stroke-width:0.5;" x="199.192701" xlink:href="#mcd6729368f" y="184.29568"/>
     <use style="stroke:#000000;stroke-width:0.5;" x="200.703061" xlink:href="#mcd6729368f" y="186.543752"/>
     <use style="stroke:#000000;stroke-width:0.5;" x="194.125684" xlink:href="#mcd6729368f" y="189.029424"/>
     <use style="stroke:#000000;stroke-width:0.5;" x="124.040069" xlink:href="#mcd6729368f" y="56.831856"/>
     <use style="stroke:#000000;stroke-width:0.5;" x="159.095057" xlink:href="#mcd6729368f" y="58.531618"/>
     <use style="stroke:#000000;stroke-width:0.5;" x="291.6414" xlink:href="#mcd6729368f" y="223.792285"/>
     <use style="stroke:#000000;stroke-width:0.5;" x="313.444189" xlink:href="#mcd6729368f" y="208.366494"/>
     <use style="stroke:#000000;stroke-width:0.5;" x="346.623406" xlink:href="#mcd6729368f" y="209.152405"/>
     <use style="stroke:#000000;stroke-width:0.5;" x="385.503017" xlink:href="#mcd6729368f" y="238.322503"/>
     <use style="stroke:#000000;stroke-width:0.5;" x="92.200688" xlink:href="#mcd6729368f" y="110.950064"/>
     <use style="stroke:#000000;stroke-width:0.5;" x="378.925639" xlink:href="#mcd6729368f" y="246.510601"/>
     <use style="stroke:#000000;stroke-width:0.5;" x="314.19937" xlink:href="#mcd6729368f" y="292.513819"/>
     <use style="stroke:#000000;stroke-width:0.5;" x="366.696589" xlink:href="#mcd6729368f" y="269.448241"/>
     <use style="stroke:#000000;stroke-width:0.5;" x="320.50878" xlink:href="#mcd6729368f" y="277.270798"/>
     <use style="stroke:#000000;stroke-width:0.5;" x="129.61866" xlink:href="#mcd6729368f" y="73.738085"/>
     <use style="stroke:#000000;stroke-width:0.5;" x="114.515052" xlink:href="#mcd6729368f" y="89.894956"/>
     <use style="stroke:#000000;stroke-width:0.5;" x="163.041483" xlink:href="#mcd6729368f" y="130.06781"/>
     <use style="stroke:#000000;stroke-width:0.5;" x="130.666168" xlink:href="#mcd6729368f" y="70.484778"/>
     <use style="stroke:#000000;stroke-width:0.5;" x="191.933224" xlink:href="#mcd6729368f" y="59.335806"/>
     <use style="stroke:#000000;stroke-width:0.5;" x="336.465012" xlink:href="#mcd6729368f" y="287.524197"/>
     <use style="stroke:#000000;stroke-width:0.5;" x="316.489272" xlink:href="#mcd6729368f" y="284.307445"/>
     <use style="stroke:#000000;stroke-width:0.5;" x="87.011868" xlink:href="#mcd6729368f" y="91.612995"/>
     <use style="stroke:#000000;stroke-width:0.5;" x="181.945354" xlink:href="#mcd6729368f" y="117.602894"/>
     <use style="stroke:#000000;stroke-width:0.5;" x="153.370302" xlink:href="#mcd6729368f" y="126.010315"/>
     <use style="stroke:#000000;stroke-width:0.5;" x="84.015507" xlink:href="#mcd6729368f" y="85.088104"/>
     <use style="stroke:#000000;stroke-width:0.5;" x="207.621489" xlink:href="#mcd6729368f" y="135.514357"/>
     <use style="stroke:#000000;stroke-width:0.5;" x="83.284687" xlink:href="#mcd6729368f" y="218.27263"/>
     <use style="stroke:#000000;stroke-width:0.5;" x="373.39577" xlink:href="#mcd6729368f" y="241.776857"/>
     <use style="stroke:#000000;stroke-width:0.5;" x="255.806871" xlink:href="#mcd6729368f" y="180.402678"/>
     <use style="stroke:#000000;stroke-width:0.5;" x="268.425692" xlink:href="#mcd6729368f" y="192.538609"/>
     <use style="stroke:#000000;stroke-width:0.5;" x="275.319759" xlink:href="#mcd6729368f" y="191.021618"/>
     <use style="stroke:#000000;stroke-width:0.5;" x="191.129323" xlink:href="#mcd6729368f" y="144.652859"/>
     <use style="stroke:#000000;stroke-width:0.5;" x="73.832752" xlink:href="#mcd6729368f" y="117.621171"/>
     <use style="stroke:#000000;stroke-width:0.5;" x="308.206648" xlink:href="#mcd6729368f" y="280.359612"/>
     <use style="stroke:#000000;stroke-width:0.5;" x="215.002768" xlink:href="#mcd6729368f" y="184.971929"/>
     <use style="stroke:#000000;stroke-width:0.5;" x="210.885817" xlink:href="#mcd6729368f" y="191.935468"/>
     <use style="stroke:#000000;stroke-width:0.5;" x="214.612998" xlink:href="#mcd6729368f" y="190.418477"/>
     <use style="stroke:#000000;stroke-width:0.5;" x="161.872172" xlink:href="#mcd6729368f" y="65.513433"/>
     <use style="stroke:#000000;stroke-width:0.5;" x="156.512827" xlink:href="#mcd6729368f" y="63.795395"/>
     <use style="stroke:#000000;stroke-width:0.5;" x="330.910781" xlink:href="#mcd6729368f" y="204.18106"/>
     <use style="stroke:#000000;stroke-width:0.5;" x="349.010751" xlink:href="#mcd6729368f" y="278.806066"/>
     <use style="stroke:#000000;stroke-width:0.5;" x="129.496857" xlink:href="#mcd6729368f" y="108.610608"/>
     <use style="stroke:#000000;stroke-width:0.5;" x="150.179056" xlink:href="#mcd6729368f" y="119.649918"/>
     <use style="stroke:#000000;stroke-width:0.5;" x="298.632909" xlink:href="#mcd6729368f" y="293.025575"/>
     <use style="stroke:#000000;stroke-width:0.5;" x="247.646051" xlink:href="#mcd6729368f" y="250.23911"/>
     <use style="stroke:#000000;stroke-width:0.5;" x="160.751581" xlink:href="#mcd6729368f" y="128.203556"/>
     <use style="stroke:#000000;stroke-width:0.5;" x="119.728233" xlink:href="#mcd6729368f" y="199.885964"/>
     <use style="stroke:#000000;stroke-width:0.5;" x="394.85751" xlink:href="#mcd6729368f" y="241.301655"/>
     <use style="stroke:#000000;stroke-width:0.5;" x="233.931" xlink:href="#mcd6729368f" y="100.459064"/>
     <use style="stroke:#000000;stroke-width:0.5;" x="291.178547" xlink:href="#mcd6729368f" y="139.900838"/>
     <use style="stroke:#000000;stroke-width:0.5;" x="294.954449" xlink:href="#mcd6729368f" y="133.979089"/>
     <use style="stroke:#000000;stroke-width:0.5;" x="286.330776" xlink:href="#mcd6729368f" y="180.896158"/>
     <use style="stroke:#000000;stroke-width:0.5;" x="308.498976" xlink:href="#mcd6729368f" y="173.384309"/>
     <use style="stroke:#000000;stroke-width:0.5;" x="312.226156" xlink:href="#mcd6729368f" y="253.876233"/>
     <use style="stroke:#000000;stroke-width:0.5;" x="386.623607" xlink:href="#mcd6729368f" y="223.7009"/>
     <use style="stroke:#000000;stroke-width:0.5;" x="80.653736" xlink:href="#mcd6729368f" y="135.733681"/>
     <use style="stroke:#000000;stroke-width:0.5;" x="153.711351" xlink:href="#mcd6729368f" y="71.215858"/>
     <use style="stroke:#000000;stroke-width:0.5;" x="361.215441" xlink:href="#mcd6729368f" y="283.503256"/>
     <use style="stroke:#000000;stroke-width:0.5;" x="244.942017" xlink:href="#mcd6729368f" y="155.19869"/>
     <use style="stroke:#000000;stroke-width:0.5;" x="215.514342" xlink:href="#mcd6729368f" y="174.828192"/>
     <use style="stroke:#000000;stroke-width:0.5;" x="182.50565" xlink:href="#mcd6729368f" y="53.267841"/>
     <use style="stroke:#000000;stroke-width:0.5;" x="228.03572" xlink:href="#mcd6729368f" y="285.568558"/>
     <use style="stroke:#000000;stroke-width:0.5;" x="83.650097" xlink:href="#mcd6729368f" y="105.48524"/>
     <use style="stroke:#000000;stroke-width:0.5;" x="191.884503" xlink:href="#mcd6729368f" y="53.121625"/>
     <use style="stroke:#000000;stroke-width:0.5;" x="335.173897" xlink:href="#mcd6729368f" y="282.62596"/>
     <use style="stroke:#000000;stroke-width:0.5;" x="195.441159" xlink:href="#mcd6729368f" y="73.080113"/>
     <use style="stroke:#000000;stroke-width:0.5;" x="385.381214" xlink:href="#mcd6729368f" y="220.666918"/>
     <use style="stroke:#000000;stroke-width:0.5;" x="394.784428" xlink:href="#mcd6729368f" y="221.270059"/>
     <use style="stroke:#000000;stroke-width:0.5;" x="391.008526" xlink:href="#mcd6729368f" y="205.076633"/>
     <use style="stroke:#000000;stroke-width:0.5;" x="396.952527" xlink:href="#mcd6729368f" y="203.102717"/>
     <use style="stroke:#000000;stroke-width:0.5;" x="377.878131" xlink:href="#mcd6729368f" y="224.779243"/>
     <use style="stroke:#000000;stroke-width:0.5;" x="398.487248" xlink:href="#mcd6729368f" y="206.081869"/>
     <use style="stroke:#000000;stroke-width:0.5;" x="391.568821" xlink:href="#mcd6729368f" y="206.831226"/>
     <use style="stroke:#000000;stroke-width:0.5;" x="395.758854" xlink:href="#mcd6729368f" y="199.922518"/>
     <use style="stroke:#000000;stroke-width:0.5;" x="239.290345" xlink:href="#mcd6729368f" y="180.475786"/>
     <use style="stroke:#000000;stroke-width:0.5;" x="241.068673" xlink:href="#mcd6729368f" y="202.7189"/>
     <use style="stroke:#000000;stroke-width:0.5;" x="395.758854" xlink:href="#mcd6729368f" y="233.844637"/>
     <use style="stroke:#000000;stroke-width:0.5;" x="305.6975" xlink:href="#mcd6729368f" y="285.257849"/>
     <use style="stroke:#000000;stroke-width:0.5;" x="106.938887" xlink:href="#mcd6729368f" y="92.124751"/>
     <use style="stroke:#000000;stroke-width:0.5;" x="325.648879" xlink:href="#mcd6729368f" y="211.93051"/>
     <use style="stroke:#000000;stroke-width:0.5;" x="320.825469" xlink:href="#mcd6729368f" y="220.758303"/>
     <use style="stroke:#000000;stroke-width:0.5;" x="90.178754" xlink:href="#mcd6729368f" y="111.480098"/>
    </g>
   </g>
   <g id="patch_3">
    <path d="M 57.6 305.0208 
L 57.6 41.1264 
" style="fill:none;stroke:#ffffff;stroke-linecap:square;stroke-linejoin:miter;"/>
   </g>
   <g id="patch_4">
    <path d="M 414.72 305.0208 
L 414.72 41.1264 
" style="fill:none;stroke:#ffffff;stroke-linecap:square;stroke-linejoin:miter;"/>
   </g>
   <g id="patch_5">
    <path d="M 57.6 305.0208 
L 414.72 305.0208 
" style="fill:none;stroke:#ffffff;stroke-linecap:square;stroke-linejoin:miter;"/>
   </g>
   <g id="patch_6">
    <path d="M 57.6 41.1264 
L 414.72 41.1264 
" style="fill:none;stroke:#ffffff;stroke-linecap:square;stroke-linejoin:miter;"/>
   </g>
   <g id="text_15">
    <!-- League-of-Legends-Death-Point TCL2018 before 20 minutes -->
    <defs>
     <path d="M 9.8125 72.90625 
L 19.671875 72.90625 
L 19.671875 8.296875 
L 55.171875 8.296875 
L 55.171875 0 
L 9.8125 0 
z
" id="DejaVuSans-4c"/>
     <path d="M 56.203125 29.59375 
L 56.203125 25.203125 
L 14.890625 25.203125 
Q 15.484375 15.921875 20.484375 11.0625 
Q 25.484375 6.203125 34.421875 6.203125 
Q 39.59375 6.203125 44.453125 7.46875 
Q 49.3125 8.734375 54.109375 11.28125 
L 54.109375 2.78125 
Q 49.265625 0.734375 44.1875 -0.34375 
Q 39.109375 -1.421875 33.890625 -1.421875 
Q 20.796875 -1.421875 13.15625 6.1875 
Q 5.515625 13.8125 5.515625 26.8125 
Q 5.515625 40.234375 12.765625 48.109375 
Q 20.015625 56 32.328125 56 
Q 43.359375 56 49.78125 48.890625 
Q 56.203125 41.796875 56.203125 29.59375 
z
M 47.21875 32.234375 
Q 47.125 39.59375 43.09375 43.984375 
Q 39.0625 48.390625 32.421875 48.390625 
Q 24.90625 48.390625 20.390625 44.140625 
Q 15.875 39.890625 15.1875 32.171875 
z
" id="DejaVuSans-65"/>
     <path d="M 34.28125 27.484375 
Q 23.390625 27.484375 19.1875 25 
Q 14.984375 22.515625 14.984375 16.5 
Q 14.984375 11.71875 18.140625 8.90625 
Q 21.296875 6.109375 26.703125 6.109375 
Q 34.1875 6.109375 38.703125 11.40625 
Q 43.21875 16.703125 43.21875 25.484375 
L 43.21875 27.484375 
z
M 52.203125 31.203125 
L 52.203125 0 
L 43.21875 0 
L 43.21875 8.296875 
Q 40.140625 3.328125 35.546875 0.953125 
Q 30.953125 -1.421875 24.3125 -1.421875 
Q 15.921875 -1.421875 10.953125 3.296875 
Q 6 8.015625 6 15.921875 
Q 6 25.140625 12.171875 29.828125 
Q 18.359375 34.515625 30.609375 34.515625 
L 43.21875 34.515625 
L 43.21875 35.40625 
Q 43.21875 41.609375 39.140625 45 
Q 35.0625 48.390625 27.6875 48.390625 
Q 23 48.390625 18.546875 47.265625 
Q 14.109375 46.140625 10.015625 43.890625 
L 10.015625 52.203125 
Q 14.9375 54.109375 19.578125 55.046875 
Q 24.21875 56 28.609375 56 
Q 40.484375 56 46.34375 49.84375 
Q 52.203125 43.703125 52.203125 31.203125 
z
" id="DejaVuSans-61"/>
     <path d="M 45.40625 27.984375 
Q 45.40625 37.75 41.375 43.109375 
Q 37.359375 48.484375 30.078125 48.484375 
Q 22.859375 48.484375 18.828125 43.109375 
Q 14.796875 37.75 14.796875 27.984375 
Q 14.796875 18.265625 18.828125 12.890625 
Q 22.859375 7.515625 30.078125 7.515625 
Q 37.359375 7.515625 41.375 12.890625 
Q 45.40625 18.265625 45.40625 27.984375 
z
M 54.390625 6.78125 
Q 54.390625 -7.171875 48.1875 -13.984375 
Q 42 -20.796875 29.203125 -20.796875 
Q 24.46875 -20.796875 20.265625 -20.09375 
Q 16.0625 -19.390625 12.109375 -17.921875 
L 12.109375 -9.1875 
Q 16.0625 -11.328125 19.921875 -12.34375 
Q 23.78125 -13.375 27.78125 -13.375 
Q 36.625 -13.375 41.015625 -8.765625 
Q 45.40625 -4.15625 45.40625 5.171875 
L 45.40625 9.625 
Q 42.625 4.78125 38.28125 2.390625 
Q 33.9375 0 27.875 0 
Q 17.828125 0 11.671875 7.65625 
Q 5.515625 15.328125 5.515625 27.984375 
Q 5.515625 40.671875 11.671875 48.328125 
Q 17.828125 56 27.875 56 
Q 33.9375 56 38.28125 53.609375 
Q 42.625 51.21875 45.40625 46.390625 
L 45.40625 54.6875 
L 54.390625 54.6875 
z
" id="DejaVuSans-67"/>
     <path d="M 8.5 21.578125 
L 8.5 54.6875 
L 17.484375 54.6875 
L 17.484375 21.921875 
Q 17.484375 14.15625 20.5 10.265625 
Q 23.53125 6.390625 29.59375 6.390625 
Q 36.859375 6.390625 41.078125 11.03125 
Q 45.3125 15.671875 45.3125 23.6875 
L 45.3125 54.6875 
L 54.296875 54.6875 
L 54.296875 0 
L 45.3125 0 
L 45.3125 8.40625 
Q 42.046875 3.421875 37.71875 1 
Q 33.40625 -1.421875 27.6875 -1.421875 
Q 18.265625 -1.421875 13.375 4.4375 
Q 8.5 10.296875 8.5 21.578125 
z
M 31.109375 56 
z
" id="DejaVuSans-75"/>
     <path d="M 4.890625 31.390625 
L 31.203125 31.390625 
L 31.203125 23.390625 
L 4.890625 23.390625 
z
" id="DejaVuSans-2d"/>
     <path d="M 30.609375 48.390625 
Q 23.390625 48.390625 19.1875 42.75 
Q 14.984375 37.109375 14.984375 27.296875 
Q 14.984375 17.484375 19.15625 11.84375 
Q 23.34375 6.203125 30.609375 6.203125 
Q 37.796875 6.203125 41.984375 11.859375 
Q 46.1875 17.53125 46.1875 27.296875 
Q 46.1875 37.015625 41.984375 42.703125 
Q 37.796875 48.390625 30.609375 48.390625 
z
M 30.609375 56 
Q 42.328125 56 49.015625 48.375 
Q 55.71875 40.765625 55.71875 27.296875 
Q 55.71875 13.875 49.015625 6.21875 
Q 42.328125 -1.421875 30.609375 -1.421875 
Q 18.84375 -1.421875 12.171875 6.21875 
Q 5.515625 13.875 5.515625 27.296875 
Q 5.515625 40.765625 12.171875 48.375 
Q 18.84375 56 30.609375 56 
z
" id="DejaVuSans-6f"/>
     <path d="M 37.109375 75.984375 
L 37.109375 68.5 
L 28.515625 68.5 
Q 23.6875 68.5 21.796875 66.546875 
Q 19.921875 64.59375 19.921875 59.515625 
L 19.921875 54.6875 
L 34.71875 54.6875 
L 34.71875 47.703125 
L 19.921875 47.703125 
L 19.921875 0 
L 10.890625 0 
L 10.890625 47.703125 
L 2.296875 47.703125 
L 2.296875 54.6875 
L 10.890625 54.6875 
L 10.890625 58.5 
Q 10.890625 67.625 15.140625 71.796875 
Q 19.390625 75.984375 28.609375 75.984375 
z
" id="DejaVuSans-66"/>
     <path d="M 54.890625 33.015625 
L 54.890625 0 
L 45.90625 0 
L 45.90625 32.71875 
Q 45.90625 40.484375 42.875 44.328125 
Q 39.84375 48.1875 33.796875 48.1875 
Q 26.515625 48.1875 22.3125 43.546875 
Q 18.109375 38.921875 18.109375 30.90625 
L 18.109375 0 
L 9.078125 0 
L 9.078125 54.6875 
L 18.109375 54.6875 
L 18.109375 46.1875 
Q 21.34375 51.125 25.703125 53.5625 
Q 30.078125 56 35.796875 56 
Q 45.21875 56 50.046875 50.171875 
Q 54.890625 44.34375 54.890625 33.015625 
z
" id="DejaVuSans-6e"/>
     <path d="M 45.40625 46.390625 
L 45.40625 75.984375 
L 54.390625 75.984375 
L 54.390625 0 
L 45.40625 0 
L 45.40625 8.203125 
Q 42.578125 3.328125 38.25 0.953125 
Q 33.9375 -1.421875 27.875 -1.421875 
Q 17.96875 -1.421875 11.734375 6.484375 
Q 5.515625 14.40625 5.515625 27.296875 
Q 5.515625 40.1875 11.734375 48.09375 
Q 17.96875 56 27.875 56 
Q 33.9375 56 38.25 53.625 
Q 42.578125 51.265625 45.40625 46.390625 
z
M 14.796875 27.296875 
Q 14.796875 17.390625 18.875 11.75 
Q 22.953125 6.109375 30.078125 6.109375 
Q 37.203125 6.109375 41.296875 11.75 
Q 45.40625 17.390625 45.40625 27.296875 
Q 45.40625 37.203125 41.296875 42.84375 
Q 37.203125 48.484375 30.078125 48.484375 
Q 22.953125 48.484375 18.875 42.84375 
Q 14.796875 37.203125 14.796875 27.296875 
z
" id="DejaVuSans-64"/>
     <path d="M 44.28125 53.078125 
L 44.28125 44.578125 
Q 40.484375 46.53125 36.375 47.5 
Q 32.28125 48.484375 27.875 48.484375 
Q 21.1875 48.484375 17.84375 46.4375 
Q 14.5 44.390625 14.5 40.28125 
Q 14.5 37.15625 16.890625 35.375 
Q 19.28125 33.59375 26.515625 31.984375 
L 29.59375 31.296875 
Q 39.15625 29.25 43.1875 25.515625 
Q 47.21875 21.78125 47.21875 15.09375 
Q 47.21875 7.46875 41.1875 3.015625 
Q 35.15625 -1.421875 24.609375 -1.421875 
Q 20.21875 -1.421875 15.453125 -0.5625 
Q 10.6875 0.296875 5.421875 2 
L 5.421875 11.28125 
Q 10.40625 8.6875 15.234375 7.390625 
Q 20.0625 6.109375 24.8125 6.109375 
Q 31.15625 6.109375 34.5625 8.28125 
Q 37.984375 10.453125 37.984375 14.40625 
Q 37.984375 18.0625 35.515625 20.015625 
Q 33.0625 21.96875 24.703125 23.78125 
L 21.578125 24.515625 
Q 13.234375 26.265625 9.515625 29.90625 
Q 5.8125 33.546875 5.8125 39.890625 
Q 5.8125 47.609375 11.28125 51.796875 
Q 16.75 56 26.8125 56 
Q 31.78125 56 36.171875 55.265625 
Q 40.578125 54.546875 44.28125 53.078125 
z
" id="DejaVuSans-73"/>
     <path d="M 19.671875 64.796875 
L 19.671875 8.109375 
L 31.59375 8.109375 
Q 46.6875 8.109375 53.6875 14.9375 
Q 60.6875 21.78125 60.6875 36.53125 
Q 60.6875 51.171875 53.6875 57.984375 
Q 46.6875 64.796875 31.59375 64.796875 
z
M 9.8125 72.90625 
L 30.078125 72.90625 
Q 51.265625 72.90625 61.171875 64.09375 
Q 71.09375 55.28125 71.09375 36.53125 
Q 71.09375 17.671875 61.125 8.828125 
Q 51.171875 0 30.078125 0 
L 9.8125 0 
z
" id="DejaVuSans-44"/>
     <path d="M 18.3125 70.21875 
L 18.3125 54.6875 
L 36.8125 54.6875 
L 36.8125 47.703125 
L 18.3125 47.703125 
L 18.3125 18.015625 
Q 18.3125 11.328125 20.140625 9.421875 
Q 21.96875 7.515625 27.59375 7.515625 
L 36.8125 7.515625 
L 36.8125 0 
L 27.59375 0 
Q 17.1875 0 13.234375 3.875 
Q 9.28125 7.765625 9.28125 18.015625 
L 9.28125 47.703125 
L 2.6875 47.703125 
L 2.6875 54.6875 
L 9.28125 54.6875 
L 9.28125 70.21875 
z
" id="DejaVuSans-74"/>
     <path d="M 54.890625 33.015625 
L 54.890625 0 
L 45.90625 0 
L 45.90625 32.71875 
Q 45.90625 40.484375 42.875 44.328125 
Q 39.84375 48.1875 33.796875 48.1875 
Q 26.515625 48.1875 22.3125 43.546875 
Q 18.109375 38.921875 18.109375 30.90625 
L 18.109375 0 
L 9.078125 0 
L 9.078125 75.984375 
L 18.109375 75.984375 
L 18.109375 46.1875 
Q 21.34375 51.125 25.703125 53.5625 
Q 30.078125 56 35.796875 56 
Q 45.21875 56 50.046875 50.171875 
Q 54.890625 44.34375 54.890625 33.015625 
z
" id="DejaVuSans-68"/>
     <path d="M 19.671875 64.796875 
L 19.671875 37.40625 
L 32.078125 37.40625 
Q 38.96875 37.40625 42.71875 40.96875 
Q 46.484375 44.53125 46.484375 51.125 
Q 46.484375 57.671875 42.71875 61.234375 
Q 38.96875 64.796875 32.078125 64.796875 
z
M 9.8125 72.90625 
L 32.078125 72.90625 
Q 44.34375 72.90625 50.609375 67.359375 
Q 56.890625 61.8125 56.890625 51.125 
Q 56.890625 40.328125 50.609375 34.8125 
Q 44.34375 29.296875 32.078125 29.296875 
L 19.671875 29.296875 
L 19.671875 0 
L 9.8125 0 
z
" id="DejaVuSans-50"/>
     <path d="M 9.421875 54.6875 
L 18.40625 54.6875 
L 18.40625 0 
L 9.421875 0 
z
M 9.421875 75.984375 
L 18.40625 75.984375 
L 18.40625 64.59375 
L 9.421875 64.59375 
z
" id="DejaVuSans-69"/>
     <path id="DejaVuSans-20"/>
     <path d="M -0.296875 72.90625 
L 61.375 72.90625 
L 61.375 64.59375 
L 35.5 64.59375 
L 35.5 0 
L 25.59375 0 
L 25.59375 64.59375 
L -0.296875 64.59375 
z
" id="DejaVuSans-54"/>
     <path d="M 64.40625 67.28125 
L 64.40625 56.890625 
Q 59.421875 61.53125 53.78125 63.8125 
Q 48.140625 66.109375 41.796875 66.109375 
Q 29.296875 66.109375 22.65625 58.46875 
Q 16.015625 50.828125 16.015625 36.375 
Q 16.015625 21.96875 22.65625 14.328125 
Q 29.296875 6.6875 41.796875 6.6875 
Q 48.140625 6.6875 53.78125 8.984375 
Q 59.421875 11.28125 64.40625 15.921875 
L 64.40625 5.609375 
Q 59.234375 2.09375 53.4375 0.328125 
Q 47.65625 -1.421875 41.21875 -1.421875 
Q 24.65625 -1.421875 15.125 8.703125 
Q 5.609375 18.84375 5.609375 36.375 
Q 5.609375 53.953125 15.125 64.078125 
Q 24.65625 74.21875 41.21875 74.21875 
Q 47.75 74.21875 53.53125 72.484375 
Q 59.328125 70.75 64.40625 67.28125 
z
" id="DejaVuSans-43"/>
     <path d="M 48.6875 27.296875 
Q 48.6875 37.203125 44.609375 42.84375 
Q 40.53125 48.484375 33.40625 48.484375 
Q 26.265625 48.484375 22.1875 42.84375 
Q 18.109375 37.203125 18.109375 27.296875 
Q 18.109375 17.390625 22.1875 11.75 
Q 26.265625 6.109375 33.40625 6.109375 
Q 40.53125 6.109375 44.609375 11.75 
Q 48.6875 17.390625 48.6875 27.296875 
z
M 18.109375 46.390625 
Q 20.953125 51.265625 25.265625 53.625 
Q 29.59375 56 35.59375 56 
Q 45.5625 56 51.78125 48.09375 
Q 58.015625 40.1875 58.015625 27.296875 
Q 58.015625 14.40625 51.78125 6.484375 
Q 45.5625 -1.421875 35.59375 -1.421875 
Q 29.59375 -1.421875 25.265625 0.953125 
Q 20.953125 3.328125 18.109375 8.203125 
L 18.109375 0 
L 9.078125 0 
L 9.078125 75.984375 
L 18.109375 75.984375 
z
" id="DejaVuSans-62"/>
     <path d="M 41.109375 46.296875 
Q 39.59375 47.171875 37.8125 47.578125 
Q 36.03125 48 33.890625 48 
Q 26.265625 48 22.1875 43.046875 
Q 18.109375 38.09375 18.109375 28.8125 
L 18.109375 0 
L 9.078125 0 
L 9.078125 54.6875 
L 18.109375 54.6875 
L 18.109375 46.1875 
Q 20.953125 51.171875 25.484375 53.578125 
Q 30.03125 56 36.53125 56 
Q 37.453125 56 38.578125 55.875 
Q 39.703125 55.765625 41.0625 55.515625 
z
" id="DejaVuSans-72"/>
     <path d="M 52 44.1875 
Q 55.375 50.25 60.0625 53.125 
Q 64.75 56 71.09375 56 
Q 79.640625 56 84.28125 50.015625 
Q 88.921875 44.046875 88.921875 33.015625 
L 88.921875 0 
L 79.890625 0 
L 79.890625 32.71875 
Q 79.890625 40.578125 77.09375 44.375 
Q 74.3125 48.1875 68.609375 48.1875 
Q 61.625 48.1875 57.5625 43.546875 
Q 53.515625 38.921875 53.515625 30.90625 
L 53.515625 0 
L 44.484375 0 
L 44.484375 32.71875 
Q 44.484375 40.625 41.703125 44.40625 
Q 38.921875 48.1875 33.109375 48.1875 
Q 26.21875 48.1875 22.15625 43.53125 
Q 18.109375 38.875 18.109375 30.90625 
L 18.109375 0 
L 9.078125 0 
L 9.078125 54.6875 
L 18.109375 54.6875 
L 18.109375 46.1875 
Q 21.1875 51.21875 25.484375 53.609375 
Q 29.78125 56 35.6875 56 
Q 41.65625 56 45.828125 52.96875 
Q 50 49.953125 52 44.1875 
z
" id="DejaVuSans-6d"/>
    </defs>
    <g transform="translate(19.645875 19.00155)scale(0.144 -0.144)">
     <use xlink:href="#DejaVuSans-4c"/>
     <use x="55.697266" xlink:href="#DejaVuSans-65"/>
     <use x="117.220703" xlink:href="#DejaVuSans-61"/>
     <use x="178.5" xlink:href="#DejaVuSans-67"/>
     <use x="241.976562" xlink:href="#DejaVuSans-75"/>
     <use x="305.355469" xlink:href="#DejaVuSans-65"/>
     <use x="366.878906" xlink:href="#DejaVuSans-2d"/>
     <use x="402.978516" xlink:href="#DejaVuSans-6f"/>
     <use x="464.160156" xlink:href="#DejaVuSans-66"/>
     <use x="499.287109" xlink:href="#DejaVuSans-2d"/>
     <use x="535.371094" xlink:href="#DejaVuSans-4c"/>
     <use x="591.068359" xlink:href="#DejaVuSans-65"/>
     <use x="652.591797" xlink:href="#DejaVuSans-67"/>
     <use x="716.068359" xlink:href="#DejaVuSans-65"/>
     <use x="777.591797" xlink:href="#DejaVuSans-6e"/>
     <use x="840.970703" xlink:href="#DejaVuSans-64"/>
     <use x="904.447266" xlink:href="#DejaVuSans-73"/>
     <use x="956.546875" xlink:href="#DejaVuSans-2d"/>
     <use x="992.630859" xlink:href="#DejaVuSans-44"/>
     <use x="1069.632812" xlink:href="#DejaVuSans-65"/>
     <use x="1131.15625" xlink:href="#DejaVuSans-61"/>
     <use x="1192.435547" xlink:href="#DejaVuSans-74"/>
     <use x="1231.644531" xlink:href="#DejaVuSans-68"/>
     <use x="1295.023438" xlink:href="#DejaVuSans-2d"/>
     <use x="1331.107422" xlink:href="#DejaVuSans-50"/>
     <use x="1391.363281" xlink:href="#DejaVuSans-6f"/>
     <use x="1452.544922" xlink:href="#DejaVuSans-69"/>
     <use x="1480.328125" xlink:href="#DejaVuSans-6e"/>
     <use x="1543.707031" xlink:href="#DejaVuSans-74"/>
     <use x="1582.916016" xlink:href="#DejaVuSans-20"/>
     <use x="1614.703125" xlink:href="#DejaVuSans-54"/>
     <use x="1675.708984" xlink:href="#DejaVuSans-43"/>
     <use x="1745.533203" xlink:href="#DejaVuSans-4c"/>
     <use x="1801.246094" xlink:href="#DejaVuSans-32"/>
     <use x="1864.869141" xlink:href="#DejaVuSans-30"/>
     <use x="1928.492188" xlink:href="#DejaVuSans-31"/>
     <use x="1992.115234" xlink:href="#DejaVuSans-38"/>
     <use x="2055.738281" xlink:href="#DejaVuSans-20"/>
     <use x="2087.525391" xlink:href="#DejaVuSans-62"/>
     <use x="2151.001953" xlink:href="#DejaVuSans-65"/>
     <use x="2212.525391" xlink:href="#DejaVuSans-66"/>
     <use x="2247.730469" xlink:href="#DejaVuSans-6f"/>
     <use x="2308.912109" xlink:href="#DejaVuSans-72"/>
     <use x="2349.994141" xlink:href="#DejaVuSans-65"/>
     <use x="2411.517578" xlink:href="#DejaVuSans-20"/>
     <use x="2443.304688" xlink:href="#DejaVuSans-32"/>
     <use x="2506.927734" xlink:href="#DejaVuSans-30"/>
     <use x="2570.550781" xlink:href="#DejaVuSans-20"/>
     <use x="2602.337891" xlink:href="#DejaVuSans-6d"/>
     <use x="2699.75" xlink:href="#DejaVuSans-69"/>
     <use x="2727.533203" xlink:href="#DejaVuSans-6e"/>
     <use x="2790.912109" xlink:href="#DejaVuSans-75"/>
     <use x="2854.291016" xlink:href="#DejaVuSans-74"/>
     <use x="2893.5" xlink:href="#DejaVuSans-65"/>
     <use x="2955.023438" xlink:href="#DejaVuSans-73"/>
    </g>
    <!-- Total Kills = 122 -->
    <defs>
     <path d="M 9.421875 75.984375 
L 18.40625 75.984375 
L 18.40625 0 
L 9.421875 0 
z
" id="DejaVuSans-6c"/>
     <path d="M 9.8125 72.90625 
L 19.671875 72.90625 
L 19.671875 42.09375 
L 52.390625 72.90625 
L 65.09375 72.90625 
L 28.90625 38.921875 
L 67.671875 0 
L 54.6875 0 
L 19.671875 35.109375 
L 19.671875 0 
L 9.8125 0 
z
" id="DejaVuSans-4b"/>
     <path d="M 10.59375 45.40625 
L 73.1875 45.40625 
L 73.1875 37.203125 
L 10.59375 37.203125 
z
M 10.59375 25.484375 
L 73.1875 25.484375 
L 73.1875 17.1875 
L 10.59375 17.1875 
z
" id="DejaVuSans-3d"/>
    </defs>
    <g transform="translate(177.026625 35.1264)scale(0.144 -0.144)">
     <use xlink:href="#DejaVuSans-54"/>
     <use x="60.818359" xlink:href="#DejaVuSans-6f"/>
     <use x="122" xlink:href="#DejaVuSans-74"/>
     <use x="161.208984" xlink:href="#DejaVuSans-61"/>
     <use x="222.488281" xlink:href="#DejaVuSans-6c"/>
     <use x="250.271484" xlink:href="#DejaVuSans-20"/>
     <use x="282.058594" xlink:href="#DejaVuSans-4b"/>
     <use x="347.634766" xlink:href="#DejaVuSans-69"/>
     <use x="375.417969" xlink:href="#DejaVuSans-6c"/>
     <use x="403.201172" xlink:href="#DejaVuSans-6c"/>
     <use x="430.984375" xlink:href="#DejaVuSans-73"/>
     <use x="483.083984" xlink:href="#DejaVuSans-20"/>
     <use x="514.871094" xlink:href="#DejaVuSans-3d"/>
     <use x="598.660156" xlink:href="#DejaVuSans-20"/>
     <use x="630.447266" xlink:href="#DejaVuSans-31"/>
     <use x="694.070312" xlink:href="#DejaVuSans-32"/>
     <use x="757.693359" xlink:href="#DejaVuSans-32"/>
    </g>
   </g>
  </g>
 </g>
 <defs>
  <clipPath id="pb5ef93db1a">
   <rect height="263.8944" width="357.12" x="57.6" y="41.1264"/>
  </clipPath>
 </defs>
</svg>
