<?xml version="1.0" encoding="utf-8" standalone="no"?>
<!DOCTYPE svg PUBLIC "-//W3C//DTD SVG 1.1//EN"
  "http://www.w3.org/Graphics/SVG/1.1/DTD/svg11.dtd">
<!-- Created with matplotlib (http://matplotlib.org/) -->
<svg height="342.72pt" version="1.1" viewBox="0 0 460.8 342.72" width="460.8pt" xmlns="http://www.w3.org/2000/svg" xmlns:xlink="http://www.w3.org/1999/xlink">
 <defs>
  <style type="text/css">
*{stroke-linecap:butt;stroke-linejoin:round;}
  </style>
 </defs>
 <g id="figure_1">
  <g id="patch_1">
   <path d="M 0 342.72 
L 460.8 342.72 
L 460.8 0 
L 0 0 
z
" style="fill:#ffffff;"/>
  </g>
  <g id="axes_1">
   <g id="patch_2">
    <path d="M 57.6 305.0208 
L 414.72 305.0208 
L 414.72 41.1264 
L 57.6 41.1264 
z
" style="fill:#e5e5e5;"/>
   </g>
   <g id="matplotlib.axis_1">
    <g id="xtick_1">
     <g id="line2d_1">
      <path clip-path="url(#pad644e6976)" d="M 103.802356 305.0208 
L 103.802356 41.1264 
" style="fill:none;stroke:#ffffff;stroke-linecap:square;stroke-width:0.8;"/>
     </g>
     <g id="line2d_2">
      <defs>
       <path d="M 0 0 
L 0 3.5 
" id="mb0fba8676a" style="stroke:#555555;stroke-width:0.8;"/>
      </defs>
      <g>
       <use style="fill:#555555;stroke:#555555;stroke-width:0.8;" x="103.802356" xlink:href="#mb0fba8676a" y="305.0208"/>
      </g>
     </g>
     <g id="text_1">
      <!-- 2000 -->
      <defs>
       <path d="M 19.1875 8.296875 
L 53.609375 8.296875 
L 53.609375 0 
L 7.328125 0 
L 7.328125 8.296875 
Q 12.9375 14.109375 22.625 23.890625 
Q 32.328125 33.6875 34.8125 36.53125 
Q 39.546875 41.84375 41.421875 45.53125 
Q 43.3125 49.21875 43.3125 52.78125 
Q 43.3125 58.59375 39.234375 62.25 
Q 35.15625 65.921875 28.609375 65.921875 
Q 23.96875 65.921875 18.8125 64.3125 
Q 13.671875 62.703125 7.8125 59.421875 
L 7.8125 69.390625 
Q 13.765625 71.78125 18.9375 73 
Q 24.125 74.21875 28.421875 74.21875 
Q 39.75 74.21875 46.484375 68.546875 
Q 53.21875 62.890625 53.21875 53.421875 
Q 53.21875 48.921875 51.53125 44.890625 
Q 49.859375 40.875 45.40625 35.40625 
Q 44.1875 33.984375 37.640625 27.21875 
Q 31.109375 20.453125 19.1875 8.296875 
z
" id="DejaVuSans-32"/>
       <path d="M 31.78125 66.40625 
Q 24.171875 66.40625 20.328125 58.90625 
Q 16.5 51.421875 16.5 36.375 
Q 16.5 21.390625 20.328125 13.890625 
Q 24.171875 6.390625 31.78125 6.390625 
Q 39.453125 6.390625 43.28125 13.890625 
Q 47.125 21.390625 47.125 36.375 
Q 47.125 51.421875 43.28125 58.90625 
Q 39.453125 66.40625 31.78125 66.40625 
z
M 31.78125 74.21875 
Q 44.046875 74.21875 50.515625 64.515625 
Q 56.984375 54.828125 56.984375 36.375 
Q 56.984375 17.96875 50.515625 8.265625 
Q 44.046875 -1.421875 31.78125 -1.421875 
Q 19.53125 -1.421875 13.0625 8.265625 
Q 6.59375 17.96875 6.59375 36.375 
Q 6.59375 54.828125 13.0625 64.515625 
Q 19.53125 74.21875 31.78125 74.21875 
z
" id="DejaVuSans-30"/>
      </defs>
      <g style="fill:#555555;" transform="translate(91.077356 319.619237)scale(0.1 -0.1)">
       <use xlink:href="#DejaVuSans-32"/>
       <use x="63.623047" xlink:href="#DejaVuSans-30"/>
       <use x="127.246094" xlink:href="#DejaVuSans-30"/>
       <use x="190.869141" xlink:href="#DejaVuSans-30"/>
      </g>
     </g>
    </g>
    <g id="xtick_2">
     <g id="line2d_3">
      <path clip-path="url(#pad644e6976)" d="M 152.454311 305.0208 
L 152.454311 41.1264 
" style="fill:none;stroke:#ffffff;stroke-linecap:square;stroke-width:0.8;"/>
     </g>
     <g id="line2d_4">
      <g>
       <use style="fill:#555555;stroke:#555555;stroke-width:0.8;" x="152.454311" xlink:href="#mb0fba8676a" y="305.0208"/>
      </g>
     </g>
     <g id="text_2">
      <!-- 4000 -->
      <defs>
       <path d="M 37.796875 64.3125 
L 12.890625 25.390625 
L 37.796875 25.390625 
z
M 35.203125 72.90625 
L 47.609375 72.90625 
L 47.609375 25.390625 
L 58.015625 25.390625 
L 58.015625 17.1875 
L 47.609375 17.1875 
L 47.609375 0 
L 37.796875 0 
L 37.796875 17.1875 
L 4.890625 17.1875 
L 4.890625 26.703125 
z
" id="DejaVuSans-34"/>
      </defs>
      <g style="fill:#555555;" transform="translate(139.729311 319.619237)scale(0.1 -0.1)">
       <use xlink:href="#DejaVuSans-34"/>
       <use x="63.623047" xlink:href="#DejaVuSans-30"/>
       <use x="127.246094" xlink:href="#DejaVuSans-30"/>
       <use x="190.869141" xlink:href="#DejaVuSans-30"/>
      </g>
     </g>
    </g>
    <g id="xtick_3">
     <g id="line2d_5">
      <path clip-path="url(#pad644e6976)" d="M 201.106266 305.0208 
L 201.106266 41.1264 
" style="fill:none;stroke:#ffffff;stroke-linecap:square;stroke-width:0.8;"/>
     </g>
     <g id="line2d_6">
      <g>
       <use style="fill:#555555;stroke:#555555;stroke-width:0.8;" x="201.106266" xlink:href="#mb0fba8676a" y="305.0208"/>
      </g>
     </g>
     <g id="text_3">
      <!-- 6000 -->
      <defs>
       <path d="M 33.015625 40.375 
Q 26.375 40.375 22.484375 35.828125 
Q 18.609375 31.296875 18.609375 23.390625 
Q 18.609375 15.53125 22.484375 10.953125 
Q 26.375 6.390625 33.015625 6.390625 
Q 39.65625 6.390625 43.53125 10.953125 
Q 47.40625 15.53125 47.40625 23.390625 
Q 47.40625 31.296875 43.53125 35.828125 
Q 39.65625 40.375 33.015625 40.375 
z
M 52.59375 71.296875 
L 52.59375 62.3125 
Q 48.875 64.0625 45.09375 64.984375 
Q 41.3125 65.921875 37.59375 65.921875 
Q 27.828125 65.921875 22.671875 59.328125 
Q 17.53125 52.734375 16.796875 39.40625 
Q 19.671875 43.65625 24.015625 45.921875 
Q 28.375 48.1875 33.59375 48.1875 
Q 44.578125 48.1875 50.953125 41.515625 
Q 57.328125 34.859375 57.328125 23.390625 
Q 57.328125 12.15625 50.6875 5.359375 
Q 44.046875 -1.421875 33.015625 -1.421875 
Q 20.359375 -1.421875 13.671875 8.265625 
Q 6.984375 17.96875 6.984375 36.375 
Q 6.984375 53.65625 15.1875 63.9375 
Q 23.390625 74.21875 37.203125 74.21875 
Q 40.921875 74.21875 44.703125 73.484375 
Q 48.484375 72.75 52.59375 71.296875 
z
" id="DejaVuSans-36"/>
      </defs>
      <g style="fill:#555555;" transform="translate(188.381266 319.619237)scale(0.1 -0.1)">
       <use xlink:href="#DejaVuSans-36"/>
       <use x="63.623047" xlink:href="#DejaVuSans-30"/>
       <use x="127.246094" xlink:href="#DejaVuSans-30"/>
       <use x="190.869141" xlink:href="#DejaVuSans-30"/>
      </g>
     </g>
    </g>
    <g id="xtick_4">
     <g id="line2d_7">
      <path clip-path="url(#pad644e6976)" d="M 249.758221 305.0208 
L 249.758221 41.1264 
" style="fill:none;stroke:#ffffff;stroke-linecap:square;stroke-width:0.8;"/>
     </g>
     <g id="line2d_8">
      <g>
       <use style="fill:#555555;stroke:#555555;stroke-width:0.8;" x="249.758221" xlink:href="#mb0fba8676a" y="305.0208"/>
      </g>
     </g>
     <g id="text_4">
      <!-- 8000 -->
      <defs>
       <path d="M 31.78125 34.625 
Q 24.75 34.625 20.71875 30.859375 
Q 16.703125 27.09375 16.703125 20.515625 
Q 16.703125 13.921875 20.71875 10.15625 
Q 24.75 6.390625 31.78125 6.390625 
Q 38.8125 6.390625 42.859375 10.171875 
Q 46.921875 13.96875 46.921875 20.515625 
Q 46.921875 27.09375 42.890625 30.859375 
Q 38.875 34.625 31.78125 34.625 
z
M 21.921875 38.8125 
Q 15.578125 40.375 12.03125 44.71875 
Q 8.5 49.078125 8.5 55.328125 
Q 8.5 64.0625 14.71875 69.140625 
Q 20.953125 74.21875 31.78125 74.21875 
Q 42.671875 74.21875 48.875 69.140625 
Q 55.078125 64.0625 55.078125 55.328125 
Q 55.078125 49.078125 51.53125 44.71875 
Q 48 40.375 41.703125 38.8125 
Q 48.828125 37.15625 52.796875 32.3125 
Q 56.78125 27.484375 56.78125 20.515625 
Q 56.78125 9.90625 50.3125 4.234375 
Q 43.84375 -1.421875 31.78125 -1.421875 
Q 19.734375 -1.421875 13.25 4.234375 
Q 6.78125 9.90625 6.78125 20.515625 
Q 6.78125 27.484375 10.78125 32.3125 
Q 14.796875 37.15625 21.921875 38.8125 
z
M 18.3125 54.390625 
Q 18.3125 48.734375 21.84375 45.5625 
Q 25.390625 42.390625 31.78125 42.390625 
Q 38.140625 42.390625 41.71875 45.5625 
Q 45.3125 48.734375 45.3125 54.390625 
Q 45.3125 60.0625 41.71875 63.234375 
Q 38.140625 66.40625 31.78125 66.40625 
Q 25.390625 66.40625 21.84375 63.234375 
Q 18.3125 60.0625 18.3125 54.390625 
z
" id="DejaVuSans-38"/>
      </defs>
      <g style="fill:#555555;" transform="translate(237.033221 319.619237)scale(0.1 -0.1)">
       <use xlink:href="#DejaVuSans-38"/>
       <use x="63.623047" xlink:href="#DejaVuSans-30"/>
       <use x="127.246094" xlink:href="#DejaVuSans-30"/>
       <use x="190.869141" xlink:href="#DejaVuSans-30"/>
      </g>
     </g>
    </g>
    <g id="xtick_5">
     <g id="line2d_9">
      <path clip-path="url(#pad644e6976)" d="M 298.410177 305.0208 
L 298.410177 41.1264 
" style="fill:none;stroke:#ffffff;stroke-linecap:square;stroke-width:0.8;"/>
     </g>
     <g id="line2d_10">
      <g>
       <use style="fill:#555555;stroke:#555555;stroke-width:0.8;" x="298.410177" xlink:href="#mb0fba8676a" y="305.0208"/>
      </g>
     </g>
     <g id="text_5">
      <!-- 10000 -->
      <defs>
       <path d="M 12.40625 8.296875 
L 28.515625 8.296875 
L 28.515625 63.921875 
L 10.984375 60.40625 
L 10.984375 69.390625 
L 28.421875 72.90625 
L 38.28125 72.90625 
L 38.28125 8.296875 
L 54.390625 8.296875 
L 54.390625 0 
L 12.40625 0 
z
" id="DejaVuSans-31"/>
      </defs>
      <g style="fill:#555555;" transform="translate(282.503927 319.619237)scale(0.1 -0.1)">
       <use xlink:href="#DejaVuSans-31"/>
       <use x="63.623047" xlink:href="#DejaVuSans-30"/>
       <use x="127.246094" xlink:href="#DejaVuSans-30"/>
       <use x="190.869141" xlink:href="#DejaVuSans-30"/>
       <use x="254.492188" xlink:href="#DejaVuSans-30"/>
      </g>
     </g>
    </g>
    <g id="xtick_6">
     <g id="line2d_11">
      <path clip-path="url(#pad644e6976)" d="M 347.062132 305.0208 
L 347.062132 41.1264 
" style="fill:none;stroke:#ffffff;stroke-linecap:square;stroke-width:0.8;"/>
     </g>
     <g id="line2d_12">
      <g>
       <use style="fill:#555555;stroke:#555555;stroke-width:0.8;" x="347.062132" xlink:href="#mb0fba8676a" y="305.0208"/>
      </g>
     </g>
     <g id="text_6">
      <!-- 12000 -->
      <g style="fill:#555555;" transform="translate(331.155882 319.619237)scale(0.1 -0.1)">
       <use xlink:href="#DejaVuSans-31"/>
       <use x="63.623047" xlink:href="#DejaVuSans-32"/>
       <use x="127.246094" xlink:href="#DejaVuSans-30"/>
       <use x="190.869141" xlink:href="#DejaVuSans-30"/>
       <use x="254.492188" xlink:href="#DejaVuSans-30"/>
      </g>
     </g>
    </g>
    <g id="xtick_7">
     <g id="line2d_13">
      <path clip-path="url(#pad644e6976)" d="M 395.714087 305.0208 
L 395.714087 41.1264 
" style="fill:none;stroke:#ffffff;stroke-linecap:square;stroke-width:0.8;"/>
     </g>
     <g id="line2d_14">
      <g>
       <use style="fill:#555555;stroke:#555555;stroke-width:0.8;" x="395.714087" xlink:href="#mb0fba8676a" y="305.0208"/>
      </g>
     </g>
     <g id="text_7">
      <!-- 14000 -->
      <g style="fill:#555555;" transform="translate(379.807837 319.619237)scale(0.1 -0.1)">
       <use xlink:href="#DejaVuSans-31"/>
       <use x="63.623047" xlink:href="#DejaVuSans-34"/>
       <use x="127.246094" xlink:href="#DejaVuSans-30"/>
       <use x="190.869141" xlink:href="#DejaVuSans-30"/>
       <use x="254.492188" xlink:href="#DejaVuSans-30"/>
      </g>
     </g>
    </g>
   </g>
   <g id="matplotlib.axis_2">
    <g id="ytick_1">
     <g id="line2d_15">
      <path clip-path="url(#pad644e6976)" d="M 57.6 271.7985 
L 414.72 271.7985 
" style="fill:none;stroke:#ffffff;stroke-linecap:square;stroke-width:0.8;"/>
     </g>
     <g id="line2d_16">
      <defs>
       <path d="M 0 0 
L -3.5 0 
" id="mf36eae8939" style="stroke:#555555;stroke-width:0.8;"/>
      </defs>
      <g>
       <use style="fill:#555555;stroke:#555555;stroke-width:0.8;" x="57.6" xlink:href="#mf36eae8939" y="271.7985"/>
      </g>
     </g>
     <g id="text_8">
      <!-- 2000 -->
      <g style="fill:#555555;" transform="translate(25.15 275.597719)scale(0.1 -0.1)">
       <use xlink:href="#DejaVuSans-32"/>
       <use x="63.623047" xlink:href="#DejaVuSans-30"/>
       <use x="127.246094" xlink:href="#DejaVuSans-30"/>
       <use x="190.869141" xlink:href="#DejaVuSans-30"/>
      </g>
     </g>
    </g>
    <g id="ytick_2">
     <g id="line2d_17">
      <path clip-path="url(#pad644e6976)" d="M 57.6 235.605704 
L 414.72 235.605704 
" style="fill:none;stroke:#ffffff;stroke-linecap:square;stroke-width:0.8;"/>
     </g>
     <g id="line2d_18">
      <g>
       <use style="fill:#555555;stroke:#555555;stroke-width:0.8;" x="57.6" xlink:href="#mf36eae8939" y="235.605704"/>
      </g>
     </g>
     <g id="text_9">
      <!-- 4000 -->
      <g style="fill:#555555;" transform="translate(25.15 239.404923)scale(0.1 -0.1)">
       <use xlink:href="#DejaVuSans-34"/>
       <use x="63.623047" xlink:href="#DejaVuSans-30"/>
       <use x="127.246094" xlink:href="#DejaVuSans-30"/>
       <use x="190.869141" xlink:href="#DejaVuSans-30"/>
      </g>
     </g>
    </g>
    <g id="ytick_3">
     <g id="line2d_19">
      <path clip-path="url(#pad644e6976)" d="M 57.6 199.412908 
L 414.72 199.412908 
" style="fill:none;stroke:#ffffff;stroke-linecap:square;stroke-width:0.8;"/>
     </g>
     <g id="line2d_20">
      <g>
       <use style="fill:#555555;stroke:#555555;stroke-width:0.8;" x="57.6" xlink:href="#mf36eae8939" y="199.412908"/>
      </g>
     </g>
     <g id="text_10">
      <!-- 6000 -->
      <g style="fill:#555555;" transform="translate(25.15 203.212126)scale(0.1 -0.1)">
       <use xlink:href="#DejaVuSans-36"/>
       <use x="63.623047" xlink:href="#DejaVuSans-30"/>
       <use x="127.246094" xlink:href="#DejaVuSans-30"/>
       <use x="190.869141" xlink:href="#DejaVuSans-30"/>
      </g>
     </g>
    </g>
    <g id="ytick_4">
     <g id="line2d_21">
      <path clip-path="url(#pad644e6976)" d="M 57.6 163.220111 
L 414.72 163.220111 
" style="fill:none;stroke:#ffffff;stroke-linecap:square;stroke-width:0.8;"/>
     </g>
     <g id="line2d_22">
      <g>
       <use style="fill:#555555;stroke:#555555;stroke-width:0.8;" x="57.6" xlink:href="#mf36eae8939" y="163.220111"/>
      </g>
     </g>
     <g id="text_11">
      <!-- 8000 -->
      <g style="fill:#555555;" transform="translate(25.15 167.01933)scale(0.1 -0.1)">
       <use xlink:href="#DejaVuSans-38"/>
       <use x="63.623047" xlink:href="#DejaVuSans-30"/>
       <use x="127.246094" xlink:href="#DejaVuSans-30"/>
       <use x="190.869141" xlink:href="#DejaVuSans-30"/>
      </g>
     </g>
    </g>
    <g id="ytick_5">
     <g id="line2d_23">
      <path clip-path="url(#pad644e6976)" d="M 57.6 127.027315 
L 414.72 127.027315 
" style="fill:none;stroke:#ffffff;stroke-linecap:square;stroke-width:0.8;"/>
     </g>
     <g id="line2d_24">
      <g>
       <use style="fill:#555555;stroke:#555555;stroke-width:0.8;" x="57.6" xlink:href="#mf36eae8939" y="127.027315"/>
      </g>
     </g>
     <g id="text_12">
      <!-- 10000 -->
      <g style="fill:#555555;" transform="translate(18.7875 130.826534)scale(0.1 -0.1)">
       <use xlink:href="#DejaVuSans-31"/>
       <use x="63.623047" xlink:href="#DejaVuSans-30"/>
       <use x="127.246094" xlink:href="#DejaVuSans-30"/>
       <use x="190.869141" xlink:href="#DejaVuSans-30"/>
       <use x="254.492188" xlink:href="#DejaVuSans-30"/>
      </g>
     </g>
    </g>
    <g id="ytick_6">
     <g id="line2d_25">
      <path clip-path="url(#pad644e6976)" d="M 57.6 90.834518 
L 414.72 90.834518 
" style="fill:none;stroke:#ffffff;stroke-linecap:square;stroke-width:0.8;"/>
     </g>
     <g id="line2d_26">
      <g>
       <use style="fill:#555555;stroke:#555555;stroke-width:0.8;" x="57.6" xlink:href="#mf36eae8939" y="90.834518"/>
      </g>
     </g>
     <g id="text_13">
      <!-- 12000 -->
      <g style="fill:#555555;" transform="translate(18.7875 94.633737)scale(0.1 -0.1)">
       <use xlink:href="#DejaVuSans-31"/>
       <use x="63.623047" xlink:href="#DejaVuSans-32"/>
       <use x="127.246094" xlink:href="#DejaVuSans-30"/>
       <use x="190.869141" xlink:href="#DejaVuSans-30"/>
       <use x="254.492188" xlink:href="#DejaVuSans-30"/>
      </g>
     </g>
    </g>
    <g id="ytick_7">
     <g id="line2d_27">
      <path clip-path="url(#pad644e6976)" d="M 57.6 54.641722 
L 414.72 54.641722 
" style="fill:none;stroke:#ffffff;stroke-linecap:square;stroke-width:0.8;"/>
     </g>
     <g id="line2d_28">
      <g>
       <use style="fill:#555555;stroke:#555555;stroke-width:0.8;" x="57.6" xlink:href="#mf36eae8939" y="54.641722"/>
      </g>
     </g>
     <g id="text_14">
      <!-- 14000 -->
      <g style="fill:#555555;" transform="translate(18.7875 58.440941)scale(0.1 -0.1)">
       <use xlink:href="#DejaVuSans-31"/>
       <use x="63.623047" xlink:href="#DejaVuSans-34"/>
       <use x="127.246094" xlink:href="#DejaVuSans-30"/>
       <use x="190.869141" xlink:href="#DejaVuSans-30"/>
       <use x="254.492188" xlink:href="#DejaVuSans-30"/>
      </g>
     </g>
    </g>
   </g>
   <g id="PathCollection_1">
    <defs>
     <path d="M 0 0.5 
C 0.132602 0.5 0.25979 0.447317 0.353553 0.353553 
C 0.447317 0.25979 0.5 0.132602 0.5 0 
C 0.5 -0.132602 0.447317 -0.25979 0.353553 -0.353553 
C 0.25979 -0.447317 0.132602 -0.5 0 -0.5 
C -0.132602 -0.5 -0.25979 -0.447317 -0.353553 -0.353553 
C -0.447317 -0.25979 -0.5 -0.132602 -0.5 0 
C -0.5 0.132602 -0.447317 0.25979 -0.353553 0.353553 
C -0.25979 0.447317 -0.132602 0.5 0 0.5 
z
" id="m8ea0d38e56" style="stroke:#000000;stroke-width:0.5;"/>
    </defs>
    <g clip-path="url(#pad644e6976)">
     <use style="stroke:#000000;stroke-width:0.5;" x="268.586528" xlink:href="#m8ea0d38e56" y="147.367666"/>
     <use style="stroke:#000000;stroke-width:0.5;" x="259.148049" xlink:href="#m8ea0d38e56" y="161.573339"/>
     <use style="stroke:#000000;stroke-width:0.5;" x="272.940878" xlink:href="#m8ea0d38e56" y="135.460236"/>
     <use style="stroke:#000000;stroke-width:0.5;" x="299.042652" xlink:href="#m8ea0d38e56" y="116.024705"/>
     <use style="stroke:#000000;stroke-width:0.5;" x="225.870111" xlink:href="#m8ea0d38e56" y="135.586911"/>
     <use style="stroke:#000000;stroke-width:0.5;" x="155.251799" xlink:href="#m8ea0d38e56" y="53.700709"/>
     <use style="stroke:#000000;stroke-width:0.5;" x="233.313861" xlink:href="#m8ea0d38e56" y="216.966414"/>
     <use style="stroke:#000000;stroke-width:0.5;" x="230.881263" xlink:href="#m8ea0d38e56" y="213.745255"/>
     <use style="stroke:#000000;stroke-width:0.5;" x="227.232366" xlink:href="#m8ea0d38e56" y="183.994776"/>
     <use style="stroke:#000000;stroke-width:0.5;" x="256.666799" xlink:href="#m8ea0d38e56" y="154.660515"/>
     <use style="stroke:#000000;stroke-width:0.5;" x="154.546345" xlink:href="#m8ea0d38e56" y="77.081256"/>
     <use style="stroke:#000000;stroke-width:0.5;" x="165.10382" xlink:href="#m8ea0d38e56" y="95.847221"/>
     <use style="stroke:#000000;stroke-width:0.5;" x="242.314472" xlink:href="#m8ea0d38e56" y="221.924827"/>
     <use style="stroke:#000000;stroke-width:0.5;" x="240.87924" xlink:href="#m8ea0d38e56" y="282.891593"/>
     <use style="stroke:#000000;stroke-width:0.5;" x="154.546345" xlink:href="#m8ea0d38e56" y="82.329211"/>
     <use style="stroke:#000000;stroke-width:0.5;" x="222.148237" xlink:href="#m8ea0d38e56" y="63.689921"/>
     <use style="stroke:#000000;stroke-width:0.5;" x="236.573542" xlink:href="#m8ea0d38e56" y="198.254738"/>
     <use style="stroke:#000000;stroke-width:0.5;" x="224.702465" xlink:href="#m8ea0d38e56" y="212.297543"/>
     <use style="stroke:#000000;stroke-width:0.5;" x="303.421328" xlink:href="#m8ea0d38e56" y="291.632153"/>
     <use style="stroke:#000000;stroke-width:0.5;" x="306.340445" xlink:href="#m8ea0d38e56" y="292.319816"/>
     <use style="stroke:#000000;stroke-width:0.5;" x="223.948359" xlink:href="#m8ea0d38e56" y="233.904643"/>
     <use style="stroke:#000000;stroke-width:0.5;" x="81.008915" xlink:href="#m8ea0d38e56" y="116.042801"/>
     <use style="stroke:#000000;stroke-width:0.5;" x="307.678374" xlink:href="#m8ea0d38e56" y="255.547935"/>
     <use style="stroke:#000000;stroke-width:0.5;" x="377.323648" xlink:href="#m8ea0d38e56" y="268.287799"/>
     <use style="stroke:#000000;stroke-width:0.5;" x="164.568648" xlink:href="#m8ea0d38e56" y="78.746124"/>
     <use style="stroke:#000000;stroke-width:0.5;" x="162.938808" xlink:href="#m8ea0d38e56" y="59.527749"/>
     <use style="stroke:#000000;stroke-width:0.5;" x="260.121088" xlink:href="#m8ea0d38e56" y="98.344524"/>
     <use style="stroke:#000000;stroke-width:0.5;" x="320.011645" xlink:href="#m8ea0d38e56" y="220.567597"/>
     <use style="stroke:#000000;stroke-width:0.5;" x="307.848656" xlink:href="#m8ea0d38e56" y="231.443532"/>
     <use style="stroke:#000000;stroke-width:0.5;" x="315.438361" xlink:href="#m8ea0d38e56" y="266.514352"/>
     <use style="stroke:#000000;stroke-width:0.5;" x="369.466357" xlink:href="#m8ea0d38e56" y="275.87019"/>
     <use style="stroke:#000000;stroke-width:0.5;" x="357.497976" xlink:href="#m8ea0d38e56" y="272.866188"/>
     <use style="stroke:#000000;stroke-width:0.5;" x="222.196889" xlink:href="#m8ea0d38e56" y="193.585867"/>
     <use style="stroke:#000000;stroke-width:0.5;" x="252.190819" xlink:href="#m8ea0d38e56" y="170.531056"/>
     <use style="stroke:#000000;stroke-width:0.5;" x="268.197312" xlink:href="#m8ea0d38e56" y="152.217501"/>
     <use style="stroke:#000000;stroke-width:0.5;" x="126.15793" xlink:href="#m8ea0d38e56" y="82.962585"/>
     <use style="stroke:#000000;stroke-width:0.5;" x="397.124993" xlink:href="#m8ea0d38e56" y="217.056896"/>
     <use style="stroke:#000000;stroke-width:0.5;" x="390.046134" xlink:href="#m8ea0d38e56" y="239.351658"/>
     <use style="stroke:#000000;stroke-width:0.5;" x="287.171575" xlink:href="#m8ea0d38e56" y="125.235771"/>
     <use style="stroke:#000000;stroke-width:0.5;" x="76.703217" xlink:href="#m8ea0d38e56" y="122.231769"/>
     <use style="stroke:#000000;stroke-width:0.5;" x="235.527525" xlink:href="#m8ea0d38e56" y="197.4404"/>
     <use style="stroke:#000000;stroke-width:0.5;" x="249.539288" xlink:href="#m8ea0d38e56" y="135.333562"/>
     <use style="stroke:#000000;stroke-width:0.5;" x="161.600879" xlink:href="#m8ea0d38e56" y="53.84548"/>
     <use style="stroke:#000000;stroke-width:0.5;" x="309.064955" xlink:href="#m8ea0d38e56" y="173.679829"/>
     <use style="stroke:#000000;stroke-width:0.5;" x="377.737189" xlink:href="#m8ea0d38e56" y="146.64381"/>
     <use style="stroke:#000000;stroke-width:0.5;" x="136.472144" xlink:href="#m8ea0d38e56" y="111.934919"/>
     <use style="stroke:#000000;stroke-width:0.5;" x="327.47972" xlink:href="#m8ea0d38e56" y="287.705234"/>
     <use style="stroke:#000000;stroke-width:0.5;" x="301.840139" xlink:href="#m8ea0d38e56" y="190.636154"/>
     <use style="stroke:#000000;stroke-width:0.5;" x="264.791676" xlink:href="#m8ea0d38e56" y="234.06751"/>
     <use style="stroke:#000000;stroke-width:0.5;" x="271.894861" xlink:href="#m8ea0d38e56" y="224.385937"/>
     <use style="stroke:#000000;stroke-width:0.5;" x="328.428433" xlink:href="#m8ea0d38e56" y="288.266223"/>
     <use style="stroke:#000000;stroke-width:0.5;" x="205.655224" xlink:href="#m8ea0d38e56" y="192.463891"/>
     <use style="stroke:#000000;stroke-width:0.5;" x="331.59081" xlink:href="#m8ea0d38e56" y="290.112055"/>
     <use style="stroke:#000000;stroke-width:0.5;" x="344.970098" xlink:href="#m8ea0d38e56" y="286.094655"/>
     <use style="stroke:#000000;stroke-width:0.5;" x="340.834681" xlink:href="#m8ea0d38e56" y="226.738469"/>
     <use style="stroke:#000000;stroke-width:0.5;" x="345.991789" xlink:href="#m8ea0d38e56" y="216.640679"/>
     <use style="stroke:#000000;stroke-width:0.5;" x="340.6644" xlink:href="#m8ea0d38e56" y="268.450667"/>
     <use style="stroke:#000000;stroke-width:0.5;" x="342.975367" xlink:href="#m8ea0d38e56" y="260.633023"/>
     <use style="stroke:#000000;stroke-width:0.5;" x="308.213546" xlink:href="#m8ea0d38e56" y="293.025576"/>
     <use style="stroke:#000000;stroke-width:0.5;" x="108.424292" xlink:href="#m8ea0d38e56" y="76.827906"/>
     <use style="stroke:#000000;stroke-width:0.5;" x="96.042369" xlink:href="#m8ea0d38e56" y="73.769615"/>
     <use style="stroke:#000000;stroke-width:0.5;" x="234.53016" xlink:href="#m8ea0d38e56" y="60.396377"/>
     <use style="stroke:#000000;stroke-width:0.5;" x="346.2837" xlink:href="#m8ea0d38e56" y="254.643115"/>
     <use style="stroke:#000000;stroke-width:0.5;" x="251.898907" xlink:href="#m8ea0d38e56" y="168.323295"/>
     <use style="stroke:#000000;stroke-width:0.5;" x="144.402413" xlink:href="#m8ea0d38e56" y="139.224287"/>
     <use style="stroke:#000000;stroke-width:0.5;" x="78.430362" xlink:href="#m8ea0d38e56" y="108.91282"/>
     <use style="stroke:#000000;stroke-width:0.5;" x="375.523525" xlink:href="#m8ea0d38e56" y="163.491557"/>
     <use style="stroke:#000000;stroke-width:0.5;" x="392.30845" xlink:href="#m8ea0d38e56" y="157.411167"/>
     <use style="stroke:#000000;stroke-width:0.5;" x="317.530395" xlink:href="#m8ea0d38e56" y="209.583083"/>
     <use style="stroke:#000000;stroke-width:0.5;" x="236.841127" xlink:href="#m8ea0d38e56" y="90.617362"/>
     <use style="stroke:#000000;stroke-width:0.5;" x="355.259986" xlink:href="#m8ea0d38e56" y="274.730117"/>
     <use style="stroke:#000000;stroke-width:0.5;" x="193.832799" xlink:href="#m8ea0d38e56" y="66.132935"/>
     <use style="stroke:#000000;stroke-width:0.5;" x="105.042981" xlink:href="#m8ea0d38e56" y="69.878889"/>
     <use style="stroke:#000000;stroke-width:0.5;" x="155.859948" xlink:href="#m8ea0d38e56" y="56.740904"/>
     <use style="stroke:#000000;stroke-width:0.5;" x="162.476614" xlink:href="#m8ea0d38e56" y="181.352702"/>
     <use style="stroke:#000000;stroke-width:0.5;" x="77.141085" xlink:href="#m8ea0d38e56" y="206.832431"/>
     <use style="stroke:#000000;stroke-width:0.5;" x="221.10222" xlink:href="#m8ea0d38e56" y="185.768223"/>
     <use style="stroke:#000000;stroke-width:0.5;" x="369.296075" xlink:href="#m8ea0d38e56" y="247.350266"/>
     <use style="stroke:#000000;stroke-width:0.5;" x="371.704347" xlink:href="#m8ea0d38e56" y="262.696012"/>
     <use style="stroke:#000000;stroke-width:0.5;" x="122.727967" xlink:href="#m8ea0d38e56" y="101.366622"/>
     <use style="stroke:#000000;stroke-width:0.5;" x="129.636544" xlink:href="#m8ea0d38e56" y="190.038973"/>
     <use style="stroke:#000000;stroke-width:0.5;" x="96.699171" xlink:href="#m8ea0d38e56" y="114.866535"/>
     <use style="stroke:#000000;stroke-width:0.5;" x="113.776007" xlink:href="#m8ea0d38e56" y="88.481987"/>
     <use style="stroke:#000000;stroke-width:0.5;" x="167.147202" xlink:href="#m8ea0d38e56" y="66.404381"/>
     <use style="stroke:#000000;stroke-width:0.5;" x="146.348491" xlink:href="#m8ea0d38e56" y="71.000866"/>
     <use style="stroke:#000000;stroke-width:0.5;" x="393.719357" xlink:href="#m8ea0d38e56" y="172.503563"/>
     <use style="stroke:#000000;stroke-width:0.5;" x="134.599044" xlink:href="#m8ea0d38e56" y="59.871581"/>
     <use style="stroke:#000000;stroke-width:0.5;" x="138.564178" xlink:href="#m8ea0d38e56" y="68.394985"/>
     <use style="stroke:#000000;stroke-width:0.5;" x="166.806638" xlink:href="#m8ea0d38e56" y="61.554546"/>
     <use style="stroke:#000000;stroke-width:0.5;" x="280.433279" xlink:href="#m8ea0d38e56" y="200.679655"/>
     <use style="stroke:#000000;stroke-width:0.5;" x="173.763868" xlink:href="#m8ea0d38e56" y="167.744211"/>
     <use style="stroke:#000000;stroke-width:0.5;" x="212.855714" xlink:href="#m8ea0d38e56" y="220.332344"/>
     <use style="stroke:#000000;stroke-width:0.5;" x="98.012773" xlink:href="#m8ea0d38e56" y="100.570381"/>
     <use style="stroke:#000000;stroke-width:0.5;" x="167.633721" xlink:href="#m8ea0d38e56" y="171.309201"/>
     <use style="stroke:#000000;stroke-width:0.5;" x="144.621346" xlink:href="#m8ea0d38e56" y="61.844088"/>
     <use style="stroke:#000000;stroke-width:0.5;" x="97.355972" xlink:href="#m8ea0d38e56" y="117.617188"/>
     <use style="stroke:#000000;stroke-width:0.5;" x="113.897637" xlink:href="#m8ea0d38e56" y="63.907078"/>
     <use style="stroke:#000000;stroke-width:0.5;" x="172.328635" xlink:href="#m8ea0d38e56" y="60.052545"/>
     <use style="stroke:#000000;stroke-width:0.5;" x="161.868465" xlink:href="#m8ea0d38e56" y="59.763003"/>
     <use style="stroke:#000000;stroke-width:0.5;" x="129.952782" xlink:href="#m8ea0d38e56" y="74.692531"/>
     <use style="stroke:#000000;stroke-width:0.5;" x="218.183103" xlink:href="#m8ea0d38e56" y="132.184788"/>
     <use style="stroke:#000000;stroke-width:0.5;" x="145.934949" xlink:href="#m8ea0d38e56" y="60.884979"/>
     <use style="stroke:#000000;stroke-width:0.5;" x="162.087398" xlink:href="#m8ea0d38e56" y="67.580647"/>
     <use style="stroke:#000000;stroke-width:0.5;" x="159.654801" xlink:href="#m8ea0d38e56" y="92.680351"/>
     <use style="stroke:#000000;stroke-width:0.5;" x="393.378793" xlink:href="#m8ea0d38e56" y="192.409601"/>
     <use style="stroke:#000000;stroke-width:0.5;" x="304.370041" xlink:href="#m8ea0d38e56" y="159.799892"/>
     <use style="stroke:#000000;stroke-width:0.5;" x="271.651601" xlink:href="#m8ea0d38e56" y="157.881674"/>
     <use style="stroke:#000000;stroke-width:0.5;" x="139.391261" xlink:href="#m8ea0d38e56" y="63.726114"/>
     <use style="stroke:#000000;stroke-width:0.5;" x="284.106502" xlink:href="#m8ea0d38e56" y="143.422652"/>
     <use style="stroke:#000000;stroke-width:0.5;" x="273.47605" xlink:href="#m8ea0d38e56" y="146.680003"/>
     <use style="stroke:#000000;stroke-width:0.5;" x="278.268267" xlink:href="#m8ea0d38e56" y="144.472243"/>
     <use style="stroke:#000000;stroke-width:0.5;" x="299.48052" xlink:href="#m8ea0d38e56" y="120.657383"/>
     <use style="stroke:#000000;stroke-width:0.5;" x="309.892038" xlink:href="#m8ea0d38e56" y="109.853833"/>
     <use style="stroke:#000000;stroke-width:0.5;" x="245.793087" xlink:href="#m8ea0d38e56" y="133.83156"/>
     <use style="stroke:#000000;stroke-width:0.5;" x="321.544181" xlink:href="#m8ea0d38e56" y="122.702276"/>
     <use style="stroke:#000000;stroke-width:0.5;" x="262.018514" xlink:href="#m8ea0d38e56" y="202.109271"/>
     <use style="stroke:#000000;stroke-width:0.5;" x="200.133227" xlink:href="#m8ea0d38e56" y="157.89977"/>
     <use style="stroke:#000000;stroke-width:0.5;" x="134.355784" xlink:href="#m8ea0d38e56" y="57.157121"/>
     <use style="stroke:#000000;stroke-width:0.5;" x="324.779536" xlink:href="#m8ea0d38e56" y="116.676175"/>
     <use style="stroke:#000000;stroke-width:0.5;" x="396.030324" xlink:href="#m8ea0d38e56" y="235.388547"/>
     <use style="stroke:#000000;stroke-width:0.5;" x="122.509033" xlink:href="#m8ea0d38e56" y="88.970589"/>
     <use style="stroke:#000000;stroke-width:0.5;" x="248.566249" xlink:href="#m8ea0d38e56" y="200.733945"/>
     <use style="stroke:#000000;stroke-width:0.5;" x="186.26742" xlink:href="#m8ea0d38e56" y="143.98364"/>
     <use style="stroke:#000000;stroke-width:0.5;" x="186.218768" xlink:href="#m8ea0d38e56" y="146.137111"/>
     <use style="stroke:#000000;stroke-width:0.5;" x="226.794499" xlink:href="#m8ea0d38e56" y="168.232813"/>
     <use style="stroke:#000000;stroke-width:0.5;" x="90.374417" xlink:href="#m8ea0d38e56" y="89.784927"/>
     <use style="stroke:#000000;stroke-width:0.5;" x="252.336775" xlink:href="#m8ea0d38e56" y="168.974766"/>
     <use style="stroke:#000000;stroke-width:0.5;" x="300.161647" xlink:href="#m8ea0d38e56" y="186.745429"/>
     <use style="stroke:#000000;stroke-width:0.5;" x="253.723356" xlink:href="#m8ea0d38e56" y="282.493472"/>
     <use style="stroke:#000000;stroke-width:0.5;" x="191.667787" xlink:href="#m8ea0d38e56" y="166.785102"/>
     <use style="stroke:#000000;stroke-width:0.5;" x="221.904977" xlink:href="#m8ea0d38e56" y="235.406644"/>
     <use style="stroke:#000000;stroke-width:0.5;" x="87.795863" xlink:href="#m8ea0d38e56" y="165.970764"/>
     <use style="stroke:#000000;stroke-width:0.5;" x="104.921351" xlink:href="#m8ea0d38e56" y="88.138155"/>
     <use style="stroke:#000000;stroke-width:0.5;" x="85.825459" xlink:href="#m8ea0d38e56" y="149.15921"/>
     <use style="stroke:#000000;stroke-width:0.5;" x="286.247188" xlink:href="#m8ea0d38e56" y="290.962586"/>
     <use style="stroke:#000000;stroke-width:0.5;" x="140.826494" xlink:href="#m8ea0d38e56" y="142.192096"/>
     <use style="stroke:#000000;stroke-width:0.5;" x="364.163294" xlink:href="#m8ea0d38e56" y="249.612316"/>
     <use style="stroke:#000000;stroke-width:0.5;" x="326.141791" xlink:href="#m8ea0d38e56" y="289.912995"/>
     <use style="stroke:#000000;stroke-width:0.5;" x="313.638239" xlink:href="#m8ea0d38e56" y="286.601354"/>
     <use style="stroke:#000000;stroke-width:0.5;" x="73.832752" xlink:href="#m8ea0d38e56" y="121.52601"/>
     <use style="stroke:#000000;stroke-width:0.5;" x="83.173927" xlink:href="#m8ea0d38e56" y="116.80285"/>
     <use style="stroke:#000000;stroke-width:0.5;" x="140.534582" xlink:href="#m8ea0d38e56" y="61.970763"/>
     <use style="stroke:#000000;stroke-width:0.5;" x="215.604549" xlink:href="#m8ea0d38e56" y="63.219415"/>
     <use style="stroke:#000000;stroke-width:0.5;" x="226.186349" xlink:href="#m8ea0d38e56" y="240.672696"/>
     <use style="stroke:#000000;stroke-width:0.5;" x="118.689854" xlink:href="#m8ea0d38e56" y="70.02366"/>
     <use style="stroke:#000000;stroke-width:0.5;" x="99.520984" xlink:href="#m8ea0d38e56" y="166.495559"/>
     <use style="stroke:#000000;stroke-width:0.5;" x="203.56319" xlink:href="#m8ea0d38e56" y="174.98277"/>
     <use style="stroke:#000000;stroke-width:0.5;" x="301.402272" xlink:href="#m8ea0d38e56" y="289.370103"/>
     <use style="stroke:#000000;stroke-width:0.5;" x="289.579847" xlink:href="#m8ea0d38e56" y="292.862708"/>
     <use style="stroke:#000000;stroke-width:0.5;" x="305.051168" xlink:href="#m8ea0d38e56" y="281.371495"/>
     <use style="stroke:#000000;stroke-width:0.5;" x="289.725803" xlink:href="#m8ea0d38e56" y="283.434484"/>
     <use style="stroke:#000000;stroke-width:0.5;" x="210.958287" xlink:href="#m8ea0d38e56" y="187.016875"/>
     <use style="stroke:#000000;stroke-width:0.5;" x="198.722321" xlink:href="#m8ea0d38e56" y="138.10231"/>
     <use style="stroke:#000000;stroke-width:0.5;" x="156.39512" xlink:href="#m8ea0d38e56" y="123.371842"/>
     <use style="stroke:#000000;stroke-width:0.5;" x="201.495482" xlink:href="#m8ea0d38e56" y="66.65773"/>
     <use style="stroke:#000000;stroke-width:0.5;" x="99.131768" xlink:href="#m8ea0d38e56" y="94.073774"/>
     <use style="stroke:#000000;stroke-width:0.5;" x="174.712581" xlink:href="#m8ea0d38e56" y="55.546542"/>
     <use style="stroke:#000000;stroke-width:0.5;" x="303.615936" xlink:href="#m8ea0d38e56" y="249.214195"/>
     <use style="stroke:#000000;stroke-width:0.5;" x="303.080764" xlink:href="#m8ea0d38e56" y="255.765092"/>
     <use style="stroke:#000000;stroke-width:0.5;" x="93.950335" xlink:href="#m8ea0d38e56" y="125.181482"/>
     <use style="stroke:#000000;stroke-width:0.5;" x="141.385991" xlink:href="#m8ea0d38e56" y="58.279098"/>
     <use style="stroke:#000000;stroke-width:0.5;" x="219.204794" xlink:href="#m8ea0d38e56" y="155.800588"/>
     <use style="stroke:#000000;stroke-width:0.5;" x="142.772572" xlink:href="#m8ea0d38e56" y="111.699665"/>
     <use style="stroke:#000000;stroke-width:0.5;" x="281.065755" xlink:href="#m8ea0d38e56" y="245.32347"/>
     <use style="stroke:#000000;stroke-width:0.5;" x="398.487248" xlink:href="#m8ea0d38e56" y="197.729943"/>
     <use style="stroke:#000000;stroke-width:0.5;" x="271.019126" xlink:href="#m8ea0d38e56" y="188.500779"/>
     <use style="stroke:#000000;stroke-width:0.5;" x="279.679174" xlink:href="#m8ea0d38e56" y="153.574731"/>
     <use style="stroke:#000000;stroke-width:0.5;" x="238.568272" xlink:href="#m8ea0d38e56" y="65.047151"/>
     <use style="stroke:#000000;stroke-width:0.5;" x="202.906389" xlink:href="#m8ea0d38e56" y="201.982596"/>
     <use style="stroke:#000000;stroke-width:0.5;" x="382.237495" xlink:href="#m8ea0d38e56" y="185.116753"/>
     <use style="stroke:#000000;stroke-width:0.5;" x="342.002328" xlink:href="#m8ea0d38e56" y="268.903077"/>
     <use style="stroke:#000000;stroke-width:0.5;" x="242.071213" xlink:href="#m8ea0d38e56" y="53.121624"/>
     <use style="stroke:#000000;stroke-width:0.5;" x="388.805509" xlink:href="#m8ea0d38e56" y="234.212281"/>
     <use style="stroke:#000000;stroke-width:0.5;" x="263.088857" xlink:href="#m8ea0d38e56" y="290.636851"/>
     <use style="stroke:#000000;stroke-width:0.5;" x="237.643885" xlink:href="#m8ea0d38e56" y="293.007479"/>
     <use style="stroke:#000000;stroke-width:0.5;" x="291.404295" xlink:href="#m8ea0d38e56" y="192.06577"/>
     <use style="stroke:#000000;stroke-width:0.5;" x="389.70557" xlink:href="#m8ea0d38e56" y="244.61771"/>
     <use style="stroke:#000000;stroke-width:0.5;" x="150.459581" xlink:href="#m8ea0d38e56" y="69.11884"/>
     <use style="stroke:#000000;stroke-width:0.5;" x="162.354984" xlink:href="#m8ea0d38e56" y="141.938747"/>
     <use style="stroke:#000000;stroke-width:0.5;" x="131.923186" xlink:href="#m8ea0d38e56" y="167.454668"/>
     <use style="stroke:#000000;stroke-width:0.5;" x="392.06519" xlink:href="#m8ea0d38e56" y="171.61684"/>
     <use style="stroke:#000000;stroke-width:0.5;" x="385.156613" xlink:href="#m8ea0d38e56" y="172.051154"/>
     <use style="stroke:#000000;stroke-width:0.5;" x="239.589963" xlink:href="#m8ea0d38e56" y="185.641549"/>
     <use style="stroke:#000000;stroke-width:0.5;" x="186.535006" xlink:href="#m8ea0d38e56" y="150.697404"/>
     <use style="stroke:#000000;stroke-width:0.5;" x="367.860842" xlink:href="#m8ea0d38e56" y="275.490166"/>
     <use style="stroke:#000000;stroke-width:0.5;" x="344.361948" xlink:href="#m8ea0d38e56" y="273.481465"/>
     <use style="stroke:#000000;stroke-width:0.5;" x="281.795534" xlink:href="#m8ea0d38e56" y="101.239947"/>
     <use style="stroke:#000000;stroke-width:0.5;" x="229.762268" xlink:href="#m8ea0d38e56" y="104.605877"/>
     <use style="stroke:#000000;stroke-width:0.5;" x="167.439113" xlink:href="#m8ea0d38e56" y="55.437963"/>
     <use style="stroke:#000000;stroke-width:0.5;" x="200.911659" xlink:href="#m8ea0d38e56" y="189.912299"/>
     <use style="stroke:#000000;stroke-width:0.5;" x="236.014044" xlink:href="#m8ea0d38e56" y="172.394985"/>
     <use style="stroke:#000000;stroke-width:0.5;" x="263.745659" xlink:href="#m8ea0d38e56" y="220.314248"/>
     <use style="stroke:#000000;stroke-width:0.5;" x="165.468709" xlink:href="#m8ea0d38e56" y="160.16182"/>
     <use style="stroke:#000000;stroke-width:0.5;" x="355.551898" xlink:href="#m8ea0d38e56" y="266.532449"/>
     <use style="stroke:#000000;stroke-width:0.5;" x="298.142591" xlink:href="#m8ea0d38e56" y="292.609358"/>
     <use style="stroke:#000000;stroke-width:0.5;" x="102.440101" xlink:href="#m8ea0d38e56" y="79.687137"/>
     <use style="stroke:#000000;stroke-width:0.5;" x="136.155906" xlink:href="#m8ea0d38e56" y="62.604137"/>
     <use style="stroke:#000000;stroke-width:0.5;" x="209.839292" xlink:href="#m8ea0d38e56" y="252.001041"/>
     <use style="stroke:#000000;stroke-width:0.5;" x="243.068578" xlink:href="#m8ea0d38e56" y="263.7637"/>
     <use style="stroke:#000000;stroke-width:0.5;" x="288.898719" xlink:href="#m8ea0d38e56" y="245.305373"/>
    </g>
   </g>
   <g id="patch_3">
    <path d="M 57.6 305.0208 
L 57.6 41.1264 
" style="fill:none;stroke:#ffffff;stroke-linecap:square;stroke-linejoin:miter;"/>
   </g>
   <g id="patch_4">
    <path d="M 414.72 305.0208 
L 414.72 41.1264 
" style="fill:none;stroke:#ffffff;stroke-linecap:square;stroke-linejoin:miter;"/>
   </g>
   <g id="patch_5">
    <path d="M 57.6 305.0208 
L 414.72 305.0208 
" style="fill:none;stroke:#ffffff;stroke-linecap:square;stroke-linejoin:miter;"/>
   </g>
   <g id="patch_6">
    <path d="M 57.6 41.1264 
L 414.72 41.1264 
" style="fill:none;stroke:#ffffff;stroke-linecap:square;stroke-linejoin:miter;"/>
   </g>
   <g id="text_15">
    <!-- League-of-Legends-Death-Point LMS2018 before 20 minutes -->
    <defs>
     <path d="M 9.8125 72.90625 
L 19.671875 72.90625 
L 19.671875 8.296875 
L 55.171875 8.296875 
L 55.171875 0 
L 9.8125 0 
z
" id="DejaVuSans-4c"/>
     <path d="M 56.203125 29.59375 
L 56.203125 25.203125 
L 14.890625 25.203125 
Q 15.484375 15.921875 20.484375 11.0625 
Q 25.484375 6.203125 34.421875 6.203125 
Q 39.59375 6.203125 44.453125 7.46875 
Q 49.3125 8.734375 54.109375 11.28125 
L 54.109375 2.78125 
Q 49.265625 0.734375 44.1875 -0.34375 
Q 39.109375 -1.421875 33.890625 -1.421875 
Q 20.796875 -1.421875 13.15625 6.1875 
Q 5.515625 13.8125 5.515625 26.8125 
Q 5.515625 40.234375 12.765625 48.109375 
Q 20.015625 56 32.328125 56 
Q 43.359375 56 49.78125 48.890625 
Q 56.203125 41.796875 56.203125 29.59375 
z
M 47.21875 32.234375 
Q 47.125 39.59375 43.09375 43.984375 
Q 39.0625 48.390625 32.421875 48.390625 
Q 24.90625 48.390625 20.390625 44.140625 
Q 15.875 39.890625 15.1875 32.171875 
z
" id="DejaVuSans-65"/>
     <path d="M 34.28125 27.484375 
Q 23.390625 27.484375 19.1875 25 
Q 14.984375 22.515625 14.984375 16.5 
Q 14.984375 11.71875 18.140625 8.90625 
Q 21.296875 6.109375 26.703125 6.109375 
Q 34.1875 6.109375 38.703125 11.40625 
Q 43.21875 16.703125 43.21875 25.484375 
L 43.21875 27.484375 
z
M 52.203125 31.203125 
L 52.203125 0 
L 43.21875 0 
L 43.21875 8.296875 
Q 40.140625 3.328125 35.546875 0.953125 
Q 30.953125 -1.421875 24.3125 -1.421875 
Q 15.921875 -1.421875 10.953125 3.296875 
Q 6 8.015625 6 15.921875 
Q 6 25.140625 12.171875 29.828125 
Q 18.359375 34.515625 30.609375 34.515625 
L 43.21875 34.515625 
L 43.21875 35.40625 
Q 43.21875 41.609375 39.140625 45 
Q 35.0625 48.390625 27.6875 48.390625 
Q 23 48.390625 18.546875 47.265625 
Q 14.109375 46.140625 10.015625 43.890625 
L 10.015625 52.203125 
Q 14.9375 54.109375 19.578125 55.046875 
Q 24.21875 56 28.609375 56 
Q 40.484375 56 46.34375 49.84375 
Q 52.203125 43.703125 52.203125 31.203125 
z
" id="DejaVuSans-61"/>
     <path d="M 45.40625 27.984375 
Q 45.40625 37.75 41.375 43.109375 
Q 37.359375 48.484375 30.078125 48.484375 
Q 22.859375 48.484375 18.828125 43.109375 
Q 14.796875 37.75 14.796875 27.984375 
Q 14.796875 18.265625 18.828125 12.890625 
Q 22.859375 7.515625 30.078125 7.515625 
Q 37.359375 7.515625 41.375 12.890625 
Q 45.40625 18.265625 45.40625 27.984375 
z
M 54.390625 6.78125 
Q 54.390625 -7.171875 48.1875 -13.984375 
Q 42 -20.796875 29.203125 -20.796875 
Q 24.46875 -20.796875 20.265625 -20.09375 
Q 16.0625 -19.390625 12.109375 -17.921875 
L 12.109375 -9.1875 
Q 16.0625 -11.328125 19.921875 -12.34375 
Q 23.78125 -13.375 27.78125 -13.375 
Q 36.625 -13.375 41.015625 -8.765625 
Q 45.40625 -4.15625 45.40625 5.171875 
L 45.40625 9.625 
Q 42.625 4.78125 38.28125 2.390625 
Q 33.9375 0 27.875 0 
Q 17.828125 0 11.671875 7.65625 
Q 5.515625 15.328125 5.515625 27.984375 
Q 5.515625 40.671875 11.671875 48.328125 
Q 17.828125 56 27.875 56 
Q 33.9375 56 38.28125 53.609375 
Q 42.625 51.21875 45.40625 46.390625 
L 45.40625 54.6875 
L 54.390625 54.6875 
z
" id="DejaVuSans-67"/>
     <path d="M 8.5 21.578125 
L 8.5 54.6875 
L 17.484375 54.6875 
L 17.484375 21.921875 
Q 17.484375 14.15625 20.5 10.265625 
Q 23.53125 6.390625 29.59375 6.390625 
Q 36.859375 6.390625 41.078125 11.03125 
Q 45.3125 15.671875 45.3125 23.6875 
L 45.3125 54.6875 
L 54.296875 54.6875 
L 54.296875 0 
L 45.3125 0 
L 45.3125 8.40625 
Q 42.046875 3.421875 37.71875 1 
Q 33.40625 -1.421875 27.6875 -1.421875 
Q 18.265625 -1.421875 13.375 4.4375 
Q 8.5 10.296875 8.5 21.578125 
z
M 31.109375 56 
z
" id="DejaVuSans-75"/>
     <path d="M 4.890625 31.390625 
L 31.203125 31.390625 
L 31.203125 23.390625 
L 4.890625 23.390625 
z
" id="DejaVuSans-2d"/>
     <path d="M 30.609375 48.390625 
Q 23.390625 48.390625 19.1875 42.75 
Q 14.984375 37.109375 14.984375 27.296875 
Q 14.984375 17.484375 19.15625 11.84375 
Q 23.34375 6.203125 30.609375 6.203125 
Q 37.796875 6.203125 41.984375 11.859375 
Q 46.1875 17.53125 46.1875 27.296875 
Q 46.1875 37.015625 41.984375 42.703125 
Q 37.796875 48.390625 30.609375 48.390625 
z
M 30.609375 56 
Q 42.328125 56 49.015625 48.375 
Q 55.71875 40.765625 55.71875 27.296875 
Q 55.71875 13.875 49.015625 6.21875 
Q 42.328125 -1.421875 30.609375 -1.421875 
Q 18.84375 -1.421875 12.171875 6.21875 
Q 5.515625 13.875 5.515625 27.296875 
Q 5.515625 40.765625 12.171875 48.375 
Q 18.84375 56 30.609375 56 
z
" id="DejaVuSans-6f"/>
     <path d="M 37.109375 75.984375 
L 37.109375 68.5 
L 28.515625 68.5 
Q 23.6875 68.5 21.796875 66.546875 
Q 19.921875 64.59375 19.921875 59.515625 
L 19.921875 54.6875 
L 34.71875 54.6875 
L 34.71875 47.703125 
L 19.921875 47.703125 
L 19.921875 0 
L 10.890625 0 
L 10.890625 47.703125 
L 2.296875 47.703125 
L 2.296875 54.6875 
L 10.890625 54.6875 
L 10.890625 58.5 
Q 10.890625 67.625 15.140625 71.796875 
Q 19.390625 75.984375 28.609375 75.984375 
z
" id="DejaVuSans-66"/>
     <path d="M 54.890625 33.015625 
L 54.890625 0 
L 45.90625 0 
L 45.90625 32.71875 
Q 45.90625 40.484375 42.875 44.328125 
Q 39.84375 48.1875 33.796875 48.1875 
Q 26.515625 48.1875 22.3125 43.546875 
Q 18.109375 38.921875 18.109375 30.90625 
L 18.109375 0 
L 9.078125 0 
L 9.078125 54.6875 
L 18.109375 54.6875 
L 18.109375 46.1875 
Q 21.34375 51.125 25.703125 53.5625 
Q 30.078125 56 35.796875 56 
Q 45.21875 56 50.046875 50.171875 
Q 54.890625 44.34375 54.890625 33.015625 
z
" id="DejaVuSans-6e"/>
     <path d="M 45.40625 46.390625 
L 45.40625 75.984375 
L 54.390625 75.984375 
L 54.390625 0 
L 45.40625 0 
L 45.40625 8.203125 
Q 42.578125 3.328125 38.25 0.953125 
Q 33.9375 -1.421875 27.875 -1.421875 
Q 17.96875 -1.421875 11.734375 6.484375 
Q 5.515625 14.40625 5.515625 27.296875 
Q 5.515625 40.1875 11.734375 48.09375 
Q 17.96875 56 27.875 56 
Q 33.9375 56 38.25 53.625 
Q 42.578125 51.265625 45.40625 46.390625 
z
M 14.796875 27.296875 
Q 14.796875 17.390625 18.875 11.75 
Q 22.953125 6.109375 30.078125 6.109375 
Q 37.203125 6.109375 41.296875 11.75 
Q 45.40625 17.390625 45.40625 27.296875 
Q 45.40625 37.203125 41.296875 42.84375 
Q 37.203125 48.484375 30.078125 48.484375 
Q 22.953125 48.484375 18.875 42.84375 
Q 14.796875 37.203125 14.796875 27.296875 
z
" id="DejaVuSans-64"/>
     <path d="M 44.28125 53.078125 
L 44.28125 44.578125 
Q 40.484375 46.53125 36.375 47.5 
Q 32.28125 48.484375 27.875 48.484375 
Q 21.1875 48.484375 17.84375 46.4375 
Q 14.5 44.390625 14.5 40.28125 
Q 14.5 37.15625 16.890625 35.375 
Q 19.28125 33.59375 26.515625 31.984375 
L 29.59375 31.296875 
Q 39.15625 29.25 43.1875 25.515625 
Q 47.21875 21.78125 47.21875 15.09375 
Q 47.21875 7.46875 41.1875 3.015625 
Q 35.15625 -1.421875 24.609375 -1.421875 
Q 20.21875 -1.421875 15.453125 -0.5625 
Q 10.6875 0.296875 5.421875 2 
L 5.421875 11.28125 
Q 10.40625 8.6875 15.234375 7.390625 
Q 20.0625 6.109375 24.8125 6.109375 
Q 31.15625 6.109375 34.5625 8.28125 
Q 37.984375 10.453125 37.984375 14.40625 
Q 37.984375 18.0625 35.515625 20.015625 
Q 33.0625 21.96875 24.703125 23.78125 
L 21.578125 24.515625 
Q 13.234375 26.265625 9.515625 29.90625 
Q 5.8125 33.546875 5.8125 39.890625 
Q 5.8125 47.609375 11.28125 51.796875 
Q 16.75 56 26.8125 56 
Q 31.78125 56 36.171875 55.265625 
Q 40.578125 54.546875 44.28125 53.078125 
z
" id="DejaVuSans-73"/>
     <path d="M 19.671875 64.796875 
L 19.671875 8.109375 
L 31.59375 8.109375 
Q 46.6875 8.109375 53.6875 14.9375 
Q 60.6875 21.78125 60.6875 36.53125 
Q 60.6875 51.171875 53.6875 57.984375 
Q 46.6875 64.796875 31.59375 64.796875 
z
M 9.8125 72.90625 
L 30.078125 72.90625 
Q 51.265625 72.90625 61.171875 64.09375 
Q 71.09375 55.28125 71.09375 36.53125 
Q 71.09375 17.671875 61.125 8.828125 
Q 51.171875 0 30.078125 0 
L 9.8125 0 
z
" id="DejaVuSans-44"/>
     <path d="M 18.3125 70.21875 
L 18.3125 54.6875 
L 36.8125 54.6875 
L 36.8125 47.703125 
L 18.3125 47.703125 
L 18.3125 18.015625 
Q 18.3125 11.328125 20.140625 9.421875 
Q 21.96875 7.515625 27.59375 7.515625 
L 36.8125 7.515625 
L 36.8125 0 
L 27.59375 0 
Q 17.1875 0 13.234375 3.875 
Q 9.28125 7.765625 9.28125 18.015625 
L 9.28125 47.703125 
L 2.6875 47.703125 
L 2.6875 54.6875 
L 9.28125 54.6875 
L 9.28125 70.21875 
z
" id="DejaVuSans-74"/>
     <path d="M 54.890625 33.015625 
L 54.890625 0 
L 45.90625 0 
L 45.90625 32.71875 
Q 45.90625 40.484375 42.875 44.328125 
Q 39.84375 48.1875 33.796875 48.1875 
Q 26.515625 48.1875 22.3125 43.546875 
Q 18.109375 38.921875 18.109375 30.90625 
L 18.109375 0 
L 9.078125 0 
L 9.078125 75.984375 
L 18.109375 75.984375 
L 18.109375 46.1875 
Q 21.34375 51.125 25.703125 53.5625 
Q 30.078125 56 35.796875 56 
Q 45.21875 56 50.046875 50.171875 
Q 54.890625 44.34375 54.890625 33.015625 
z
" id="DejaVuSans-68"/>
     <path d="M 19.671875 64.796875 
L 19.671875 37.40625 
L 32.078125 37.40625 
Q 38.96875 37.40625 42.71875 40.96875 
Q 46.484375 44.53125 46.484375 51.125 
Q 46.484375 57.671875 42.71875 61.234375 
Q 38.96875 64.796875 32.078125 64.796875 
z
M 9.8125 72.90625 
L 32.078125 72.90625 
Q 44.34375 72.90625 50.609375 67.359375 
Q 56.890625 61.8125 56.890625 51.125 
Q 56.890625 40.328125 50.609375 34.8125 
Q 44.34375 29.296875 32.078125 29.296875 
L 19.671875 29.296875 
L 19.671875 0 
L 9.8125 0 
z
" id="DejaVuSans-50"/>
     <path d="M 9.421875 54.6875 
L 18.40625 54.6875 
L 18.40625 0 
L 9.421875 0 
z
M 9.421875 75.984375 
L 18.40625 75.984375 
L 18.40625 64.59375 
L 9.421875 64.59375 
z
" id="DejaVuSans-69"/>
     <path id="DejaVuSans-20"/>
     <path d="M 9.8125 72.90625 
L 24.515625 72.90625 
L 43.109375 23.296875 
L 61.8125 72.90625 
L 76.515625 72.90625 
L 76.515625 0 
L 66.890625 0 
L 66.890625 64.015625 
L 48.09375 14.015625 
L 38.1875 14.015625 
L 19.390625 64.015625 
L 19.390625 0 
L 9.8125 0 
z
" id="DejaVuSans-4d"/>
     <path d="M 53.515625 70.515625 
L 53.515625 60.890625 
Q 47.90625 63.578125 42.921875 64.890625 
Q 37.9375 66.21875 33.296875 66.21875 
Q 25.25 66.21875 20.875 63.09375 
Q 16.5 59.96875 16.5 54.203125 
Q 16.5 49.359375 19.40625 46.890625 
Q 22.3125 44.4375 30.421875 42.921875 
L 36.375 41.703125 
Q 47.40625 39.59375 52.65625 34.296875 
Q 57.90625 29 57.90625 20.125 
Q 57.90625 9.515625 50.796875 4.046875 
Q 43.703125 -1.421875 29.984375 -1.421875 
Q 24.8125 -1.421875 18.96875 -0.25 
Q 13.140625 0.921875 6.890625 3.21875 
L 6.890625 13.375 
Q 12.890625 10.015625 18.65625 8.296875 
Q 24.421875 6.59375 29.984375 6.59375 
Q 38.421875 6.59375 43.015625 9.90625 
Q 47.609375 13.234375 47.609375 19.390625 
Q 47.609375 24.75 44.3125 27.78125 
Q 41.015625 30.8125 33.5 32.328125 
L 27.484375 33.5 
Q 16.453125 35.6875 11.515625 40.375 
Q 6.59375 45.0625 6.59375 53.421875 
Q 6.59375 63.09375 13.40625 68.65625 
Q 20.21875 74.21875 32.171875 74.21875 
Q 37.3125 74.21875 42.625 73.28125 
Q 47.953125 72.359375 53.515625 70.515625 
z
" id="DejaVuSans-53"/>
     <path d="M 48.6875 27.296875 
Q 48.6875 37.203125 44.609375 42.84375 
Q 40.53125 48.484375 33.40625 48.484375 
Q 26.265625 48.484375 22.1875 42.84375 
Q 18.109375 37.203125 18.109375 27.296875 
Q 18.109375 17.390625 22.1875 11.75 
Q 26.265625 6.109375 33.40625 6.109375 
Q 40.53125 6.109375 44.609375 11.75 
Q 48.6875 17.390625 48.6875 27.296875 
z
M 18.109375 46.390625 
Q 20.953125 51.265625 25.265625 53.625 
Q 29.59375 56 35.59375 56 
Q 45.5625 56 51.78125 48.09375 
Q 58.015625 40.1875 58.015625 27.296875 
Q 58.015625 14.40625 51.78125 6.484375 
Q 45.5625 -1.421875 35.59375 -1.421875 
Q 29.59375 -1.421875 25.265625 0.953125 
Q 20.953125 3.328125 18.109375 8.203125 
L 18.109375 0 
L 9.078125 0 
L 9.078125 75.984375 
L 18.109375 75.984375 
z
" id="DejaVuSans-62"/>
     <path d="M 41.109375 46.296875 
Q 39.59375 47.171875 37.8125 47.578125 
Q 36.03125 48 33.890625 48 
Q 26.265625 48 22.1875 43.046875 
Q 18.109375 38.09375 18.109375 28.8125 
L 18.109375 0 
L 9.078125 0 
L 9.078125 54.6875 
L 18.109375 54.6875 
L 18.109375 46.1875 
Q 20.953125 51.171875 25.484375 53.578125 
Q 30.03125 56 36.53125 56 
Q 37.453125 56 38.578125 55.875 
Q 39.703125 55.765625 41.0625 55.515625 
z
" id="DejaVuSans-72"/>
     <path d="M 52 44.1875 
Q 55.375 50.25 60.0625 53.125 
Q 64.75 56 71.09375 56 
Q 79.640625 56 84.28125 50.015625 
Q 88.921875 44.046875 88.921875 33.015625 
L 88.921875 0 
L 79.890625 0 
L 79.890625 32.71875 
Q 79.890625 40.578125 77.09375 44.375 
Q 74.3125 48.1875 68.609375 48.1875 
Q 61.625 48.1875 57.5625 43.546875 
Q 53.515625 38.921875 53.515625 30.90625 
L 53.515625 0 
L 44.484375 0 
L 44.484375 32.71875 
Q 44.484375 40.625 41.703125 44.40625 
Q 38.921875 48.1875 33.109375 48.1875 
Q 26.21875 48.1875 22.15625 43.53125 
Q 18.109375 38.875 18.109375 30.90625 
L 18.109375 0 
L 9.078125 0 
L 9.078125 54.6875 
L 18.109375 54.6875 
L 18.109375 46.1875 
Q 21.1875 51.21875 25.484375 53.609375 
Q 29.78125 56 35.6875 56 
Q 41.65625 56 45.828125 52.96875 
Q 50 49.953125 52 44.1875 
z
" id="DejaVuSans-6d"/>
    </defs>
    <g transform="translate(18.282375 19.00155)scale(0.144 -0.144)">
     <use xlink:href="#DejaVuSans-4c"/>
     <use x="55.697266" xlink:href="#DejaVuSans-65"/>
     <use x="117.220703" xlink:href="#DejaVuSans-61"/>
     <use x="178.5" xlink:href="#DejaVuSans-67"/>
     <use x="241.976562" xlink:href="#DejaVuSans-75"/>
     <use x="305.355469" xlink:href="#DejaVuSans-65"/>
     <use x="366.878906" xlink:href="#DejaVuSans-2d"/>
     <use x="402.978516" xlink:href="#DejaVuSans-6f"/>
     <use x="464.160156" xlink:href="#DejaVuSans-66"/>
     <use x="499.287109" xlink:href="#DejaVuSans-2d"/>
     <use x="535.371094" xlink:href="#DejaVuSans-4c"/>
     <use x="591.068359" xlink:href="#DejaVuSans-65"/>
     <use x="652.591797" xlink:href="#DejaVuSans-67"/>
     <use x="716.068359" xlink:href="#DejaVuSans-65"/>
     <use x="777.591797" xlink:href="#DejaVuSans-6e"/>
     <use x="840.970703" xlink:href="#DejaVuSans-64"/>
     <use x="904.447266" xlink:href="#DejaVuSans-73"/>
     <use x="956.546875" xlink:href="#DejaVuSans-2d"/>
     <use x="992.630859" xlink:href="#DejaVuSans-44"/>
     <use x="1069.632812" xlink:href="#DejaVuSans-65"/>
     <use x="1131.15625" xlink:href="#DejaVuSans-61"/>
     <use x="1192.435547" xlink:href="#DejaVuSans-74"/>
     <use x="1231.644531" xlink:href="#DejaVuSans-68"/>
     <use x="1295.023438" xlink:href="#DejaVuSans-2d"/>
     <use x="1331.107422" xlink:href="#DejaVuSans-50"/>
     <use x="1391.363281" xlink:href="#DejaVuSans-6f"/>
     <use x="1452.544922" xlink:href="#DejaVuSans-69"/>
     <use x="1480.328125" xlink:href="#DejaVuSans-6e"/>
     <use x="1543.707031" xlink:href="#DejaVuSans-74"/>
     <use x="1582.916016" xlink:href="#DejaVuSans-20"/>
     <use x="1614.703125" xlink:href="#DejaVuSans-4c"/>
     <use x="1670.416016" xlink:href="#DejaVuSans-4d"/>
     <use x="1756.695312" xlink:href="#DejaVuSans-53"/>
     <use x="1820.171875" xlink:href="#DejaVuSans-32"/>
     <use x="1883.794922" xlink:href="#DejaVuSans-30"/>
     <use x="1947.417969" xlink:href="#DejaVuSans-31"/>
     <use x="2011.041016" xlink:href="#DejaVuSans-38"/>
     <use x="2074.664062" xlink:href="#DejaVuSans-20"/>
     <use x="2106.451172" xlink:href="#DejaVuSans-62"/>
     <use x="2169.927734" xlink:href="#DejaVuSans-65"/>
     <use x="2231.451172" xlink:href="#DejaVuSans-66"/>
     <use x="2266.65625" xlink:href="#DejaVuSans-6f"/>
     <use x="2327.837891" xlink:href="#DejaVuSans-72"/>
     <use x="2368.919922" xlink:href="#DejaVuSans-65"/>
     <use x="2430.443359" xlink:href="#DejaVuSans-20"/>
     <use x="2462.230469" xlink:href="#DejaVuSans-32"/>
     <use x="2525.853516" xlink:href="#DejaVuSans-30"/>
     <use x="2589.476562" xlink:href="#DejaVuSans-20"/>
     <use x="2621.263672" xlink:href="#DejaVuSans-6d"/>
     <use x="2718.675781" xlink:href="#DejaVuSans-69"/>
     <use x="2746.458984" xlink:href="#DejaVuSans-6e"/>
     <use x="2809.837891" xlink:href="#DejaVuSans-75"/>
     <use x="2873.216797" xlink:href="#DejaVuSans-74"/>
     <use x="2912.425781" xlink:href="#DejaVuSans-65"/>
     <use x="2973.949219" xlink:href="#DejaVuSans-73"/>
    </g>
    <!-- Total Kills = 200 -->
    <defs>
     <path d="M -0.296875 72.90625 
L 61.375 72.90625 
L 61.375 64.59375 
L 35.5 64.59375 
L 35.5 0 
L 25.59375 0 
L 25.59375 64.59375 
L -0.296875 64.59375 
z
" id="DejaVuSans-54"/>
     <path d="M 9.421875 75.984375 
L 18.40625 75.984375 
L 18.40625 0 
L 9.421875 0 
z
" id="DejaVuSans-6c"/>
     <path d="M 9.8125 72.90625 
L 19.671875 72.90625 
L 19.671875 42.09375 
L 52.390625 72.90625 
L 65.09375 72.90625 
L 28.90625 38.921875 
L 67.671875 0 
L 54.6875 0 
L 19.671875 35.109375 
L 19.671875 0 
L 9.8125 0 
z
" id="DejaVuSans-4b"/>
     <path d="M 10.59375 45.40625 
L 73.1875 45.40625 
L 73.1875 37.203125 
L 10.59375 37.203125 
z
M 10.59375 25.484375 
L 73.1875 25.484375 
L 73.1875 17.1875 
L 10.59375 17.1875 
z
" id="DejaVuSans-3d"/>
    </defs>
    <g transform="translate(177.026625 35.1264)scale(0.144 -0.144)">
     <use xlink:href="#DejaVuSans-54"/>
     <use x="60.818359" xlink:href="#DejaVuSans-6f"/>
     <use x="122" xlink:href="#DejaVuSans-74"/>
     <use x="161.208984" xlink:href="#DejaVuSans-61"/>
     <use x="222.488281" xlink:href="#DejaVuSans-6c"/>
     <use x="250.271484" xlink:href="#DejaVuSans-20"/>
     <use x="282.058594" xlink:href="#DejaVuSans-4b"/>
     <use x="347.634766" xlink:href="#DejaVuSans-69"/>
     <use x="375.417969" xlink:href="#DejaVuSans-6c"/>
     <use x="403.201172" xlink:href="#DejaVuSans-6c"/>
     <use x="430.984375" xlink:href="#DejaVuSans-73"/>
     <use x="483.083984" xlink:href="#DejaVuSans-20"/>
     <use x="514.871094" xlink:href="#DejaVuSans-3d"/>
     <use x="598.660156" xlink:href="#DejaVuSans-20"/>
     <use x="630.447266" xlink:href="#DejaVuSans-32"/>
     <use x="694.070312" xlink:href="#DejaVuSans-30"/>
     <use x="757.693359" xlink:href="#DejaVuSans-30"/>
    </g>
   </g>
  </g>
 </g>
 <defs>
  <clipPath id="pad644e6976">
   <rect height="263.8944" width="357.12" x="57.6" y="41.1264"/>
  </clipPath>
 </defs>
</svg>
