<?xml version="1.0" encoding="utf-8" standalone="no"?>
<!DOCTYPE svg PUBLIC "-//W3C//DTD SVG 1.1//EN"
  "http://www.w3.org/Graphics/SVG/1.1/DTD/svg11.dtd">
<!-- Created with matplotlib (http://matplotlib.org/) -->
<svg height="342.72pt" version="1.1" viewBox="0 0 460.8 342.72" width="460.8pt" xmlns="http://www.w3.org/2000/svg" xmlns:xlink="http://www.w3.org/1999/xlink">
 <defs>
  <style type="text/css">
*{stroke-linecap:butt;stroke-linejoin:round;}
  </style>
 </defs>
 <g id="figure_1">
  <g id="patch_1">
   <path d="M 0 342.72 
L 460.8 342.72 
L 460.8 0 
L 0 0 
z
" style="fill:#ffffff;"/>
  </g>
  <g id="axes_1">
   <g id="patch_2">
    <path d="M 57.6 305.0208 
L 414.72 305.0208 
L 414.72 41.1264 
L 57.6 41.1264 
z
" style="fill:#e5e5e5;"/>
   </g>
   <g id="matplotlib.axis_1">
    <g id="xtick_1">
     <g id="line2d_1">
      <path clip-path="url(#pba02287036)" d="M 103.928832 305.0208 
L 103.928832 41.1264 
" style="fill:none;stroke:#ffffff;stroke-linecap:square;stroke-width:0.8;"/>
     </g>
     <g id="line2d_2">
      <defs>
       <path d="M 0 0 
L 0 3.5 
" id="mf42147699b" style="stroke:#555555;stroke-width:0.8;"/>
      </defs>
      <g>
       <use style="fill:#555555;stroke:#555555;stroke-width:0.8;" x="103.928832" xlink:href="#mf42147699b" y="305.0208"/>
      </g>
     </g>
     <g id="text_1">
      <!-- 2000 -->
      <defs>
       <path d="M 19.1875 8.296875 
L 53.609375 8.296875 
L 53.609375 0 
L 7.328125 0 
L 7.328125 8.296875 
Q 12.9375 14.109375 22.625 23.890625 
Q 32.328125 33.6875 34.8125 36.53125 
Q 39.546875 41.84375 41.421875 45.53125 
Q 43.3125 49.21875 43.3125 52.78125 
Q 43.3125 58.59375 39.234375 62.25 
Q 35.15625 65.921875 28.609375 65.921875 
Q 23.96875 65.921875 18.8125 64.3125 
Q 13.671875 62.703125 7.8125 59.421875 
L 7.8125 69.390625 
Q 13.765625 71.78125 18.9375 73 
Q 24.125 74.21875 28.421875 74.21875 
Q 39.75 74.21875 46.484375 68.546875 
Q 53.21875 62.890625 53.21875 53.421875 
Q 53.21875 48.921875 51.53125 44.890625 
Q 49.859375 40.875 45.40625 35.40625 
Q 44.1875 33.984375 37.640625 27.21875 
Q 31.109375 20.453125 19.1875 8.296875 
z
" id="DejaVuSans-32"/>
       <path d="M 31.78125 66.40625 
Q 24.171875 66.40625 20.328125 58.90625 
Q 16.5 51.421875 16.5 36.375 
Q 16.5 21.390625 20.328125 13.890625 
Q 24.171875 6.390625 31.78125 6.390625 
Q 39.453125 6.390625 43.28125 13.890625 
Q 47.125 21.390625 47.125 36.375 
Q 47.125 51.421875 43.28125 58.90625 
Q 39.453125 66.40625 31.78125 66.40625 
z
M 31.78125 74.21875 
Q 44.046875 74.21875 50.515625 64.515625 
Q 56.984375 54.828125 56.984375 36.375 
Q 56.984375 17.96875 50.515625 8.265625 
Q 44.046875 -1.421875 31.78125 -1.421875 
Q 19.53125 -1.421875 13.0625 8.265625 
Q 6.59375 17.96875 6.59375 36.375 
Q 6.59375 54.828125 13.0625 64.515625 
Q 19.53125 74.21875 31.78125 74.21875 
z
" id="DejaVuSans-30"/>
      </defs>
      <g style="fill:#555555;" transform="translate(91.203832 319.619237)scale(0.1 -0.1)">
       <use xlink:href="#DejaVuSans-32"/>
       <use x="63.623047" xlink:href="#DejaVuSans-30"/>
       <use x="127.246094" xlink:href="#DejaVuSans-30"/>
       <use x="190.869141" xlink:href="#DejaVuSans-30"/>
      </g>
     </g>
    </g>
    <g id="xtick_2">
     <g id="line2d_3">
      <path clip-path="url(#pba02287036)" d="M 152.431782 305.0208 
L 152.431782 41.1264 
" style="fill:none;stroke:#ffffff;stroke-linecap:square;stroke-width:0.8;"/>
     </g>
     <g id="line2d_4">
      <g>
       <use style="fill:#555555;stroke:#555555;stroke-width:0.8;" x="152.431782" xlink:href="#mf42147699b" y="305.0208"/>
      </g>
     </g>
     <g id="text_2">
      <!-- 4000 -->
      <defs>
       <path d="M 37.796875 64.3125 
L 12.890625 25.390625 
L 37.796875 25.390625 
z
M 35.203125 72.90625 
L 47.609375 72.90625 
L 47.609375 25.390625 
L 58.015625 25.390625 
L 58.015625 17.1875 
L 47.609375 17.1875 
L 47.609375 0 
L 37.796875 0 
L 37.796875 17.1875 
L 4.890625 17.1875 
L 4.890625 26.703125 
z
" id="DejaVuSans-34"/>
      </defs>
      <g style="fill:#555555;" transform="translate(139.706782 319.619237)scale(0.1 -0.1)">
       <use xlink:href="#DejaVuSans-34"/>
       <use x="63.623047" xlink:href="#DejaVuSans-30"/>
       <use x="127.246094" xlink:href="#DejaVuSans-30"/>
       <use x="190.869141" xlink:href="#DejaVuSans-30"/>
      </g>
     </g>
    </g>
    <g id="xtick_3">
     <g id="line2d_5">
      <path clip-path="url(#pba02287036)" d="M 200.934732 305.0208 
L 200.934732 41.1264 
" style="fill:none;stroke:#ffffff;stroke-linecap:square;stroke-width:0.8;"/>
     </g>
     <g id="line2d_6">
      <g>
       <use style="fill:#555555;stroke:#555555;stroke-width:0.8;" x="200.934732" xlink:href="#mf42147699b" y="305.0208"/>
      </g>
     </g>
     <g id="text_3">
      <!-- 6000 -->
      <defs>
       <path d="M 33.015625 40.375 
Q 26.375 40.375 22.484375 35.828125 
Q 18.609375 31.296875 18.609375 23.390625 
Q 18.609375 15.53125 22.484375 10.953125 
Q 26.375 6.390625 33.015625 6.390625 
Q 39.65625 6.390625 43.53125 10.953125 
Q 47.40625 15.53125 47.40625 23.390625 
Q 47.40625 31.296875 43.53125 35.828125 
Q 39.65625 40.375 33.015625 40.375 
z
M 52.59375 71.296875 
L 52.59375 62.3125 
Q 48.875 64.0625 45.09375 64.984375 
Q 41.3125 65.921875 37.59375 65.921875 
Q 27.828125 65.921875 22.671875 59.328125 
Q 17.53125 52.734375 16.796875 39.40625 
Q 19.671875 43.65625 24.015625 45.921875 
Q 28.375 48.1875 33.59375 48.1875 
Q 44.578125 48.1875 50.953125 41.515625 
Q 57.328125 34.859375 57.328125 23.390625 
Q 57.328125 12.15625 50.6875 5.359375 
Q 44.046875 -1.421875 33.015625 -1.421875 
Q 20.359375 -1.421875 13.671875 8.265625 
Q 6.984375 17.96875 6.984375 36.375 
Q 6.984375 53.65625 15.1875 63.9375 
Q 23.390625 74.21875 37.203125 74.21875 
Q 40.921875 74.21875 44.703125 73.484375 
Q 48.484375 72.75 52.59375 71.296875 
z
" id="DejaVuSans-36"/>
      </defs>
      <g style="fill:#555555;" transform="translate(188.209732 319.619237)scale(0.1 -0.1)">
       <use xlink:href="#DejaVuSans-36"/>
       <use x="63.623047" xlink:href="#DejaVuSans-30"/>
       <use x="127.246094" xlink:href="#DejaVuSans-30"/>
       <use x="190.869141" xlink:href="#DejaVuSans-30"/>
      </g>
     </g>
    </g>
    <g id="xtick_4">
     <g id="line2d_7">
      <path clip-path="url(#pba02287036)" d="M 249.437683 305.0208 
L 249.437683 41.1264 
" style="fill:none;stroke:#ffffff;stroke-linecap:square;stroke-width:0.8;"/>
     </g>
     <g id="line2d_8">
      <g>
       <use style="fill:#555555;stroke:#555555;stroke-width:0.8;" x="249.437683" xlink:href="#mf42147699b" y="305.0208"/>
      </g>
     </g>
     <g id="text_4">
      <!-- 8000 -->
      <defs>
       <path d="M 31.78125 34.625 
Q 24.75 34.625 20.71875 30.859375 
Q 16.703125 27.09375 16.703125 20.515625 
Q 16.703125 13.921875 20.71875 10.15625 
Q 24.75 6.390625 31.78125 6.390625 
Q 38.8125 6.390625 42.859375 10.171875 
Q 46.921875 13.96875 46.921875 20.515625 
Q 46.921875 27.09375 42.890625 30.859375 
Q 38.875 34.625 31.78125 34.625 
z
M 21.921875 38.8125 
Q 15.578125 40.375 12.03125 44.71875 
Q 8.5 49.078125 8.5 55.328125 
Q 8.5 64.0625 14.71875 69.140625 
Q 20.953125 74.21875 31.78125 74.21875 
Q 42.671875 74.21875 48.875 69.140625 
Q 55.078125 64.0625 55.078125 55.328125 
Q 55.078125 49.078125 51.53125 44.71875 
Q 48 40.375 41.703125 38.8125 
Q 48.828125 37.15625 52.796875 32.3125 
Q 56.78125 27.484375 56.78125 20.515625 
Q 56.78125 9.90625 50.3125 4.234375 
Q 43.84375 -1.421875 31.78125 -1.421875 
Q 19.734375 -1.421875 13.25 4.234375 
Q 6.78125 9.90625 6.78125 20.515625 
Q 6.78125 27.484375 10.78125 32.3125 
Q 14.796875 37.15625 21.921875 38.8125 
z
M 18.3125 54.390625 
Q 18.3125 48.734375 21.84375 45.5625 
Q 25.390625 42.390625 31.78125 42.390625 
Q 38.140625 42.390625 41.71875 45.5625 
Q 45.3125 48.734375 45.3125 54.390625 
Q 45.3125 60.0625 41.71875 63.234375 
Q 38.140625 66.40625 31.78125 66.40625 
Q 25.390625 66.40625 21.84375 63.234375 
Q 18.3125 60.0625 18.3125 54.390625 
z
" id="DejaVuSans-38"/>
      </defs>
      <g style="fill:#555555;" transform="translate(236.712683 319.619237)scale(0.1 -0.1)">
       <use xlink:href="#DejaVuSans-38"/>
       <use x="63.623047" xlink:href="#DejaVuSans-30"/>
       <use x="127.246094" xlink:href="#DejaVuSans-30"/>
       <use x="190.869141" xlink:href="#DejaVuSans-30"/>
      </g>
     </g>
    </g>
    <g id="xtick_5">
     <g id="line2d_9">
      <path clip-path="url(#pba02287036)" d="M 297.940633 305.0208 
L 297.940633 41.1264 
" style="fill:none;stroke:#ffffff;stroke-linecap:square;stroke-width:0.8;"/>
     </g>
     <g id="line2d_10">
      <g>
       <use style="fill:#555555;stroke:#555555;stroke-width:0.8;" x="297.940633" xlink:href="#mf42147699b" y="305.0208"/>
      </g>
     </g>
     <g id="text_5">
      <!-- 10000 -->
      <defs>
       <path d="M 12.40625 8.296875 
L 28.515625 8.296875 
L 28.515625 63.921875 
L 10.984375 60.40625 
L 10.984375 69.390625 
L 28.421875 72.90625 
L 38.28125 72.90625 
L 38.28125 8.296875 
L 54.390625 8.296875 
L 54.390625 0 
L 12.40625 0 
z
" id="DejaVuSans-31"/>
      </defs>
      <g style="fill:#555555;" transform="translate(282.034383 319.619237)scale(0.1 -0.1)">
       <use xlink:href="#DejaVuSans-31"/>
       <use x="63.623047" xlink:href="#DejaVuSans-30"/>
       <use x="127.246094" xlink:href="#DejaVuSans-30"/>
       <use x="190.869141" xlink:href="#DejaVuSans-30"/>
       <use x="254.492188" xlink:href="#DejaVuSans-30"/>
      </g>
     </g>
    </g>
    <g id="xtick_6">
     <g id="line2d_11">
      <path clip-path="url(#pba02287036)" d="M 346.443583 305.0208 
L 346.443583 41.1264 
" style="fill:none;stroke:#ffffff;stroke-linecap:square;stroke-width:0.8;"/>
     </g>
     <g id="line2d_12">
      <g>
       <use style="fill:#555555;stroke:#555555;stroke-width:0.8;" x="346.443583" xlink:href="#mf42147699b" y="305.0208"/>
      </g>
     </g>
     <g id="text_6">
      <!-- 12000 -->
      <g style="fill:#555555;" transform="translate(330.537333 319.619237)scale(0.1 -0.1)">
       <use xlink:href="#DejaVuSans-31"/>
       <use x="63.623047" xlink:href="#DejaVuSans-32"/>
       <use x="127.246094" xlink:href="#DejaVuSans-30"/>
       <use x="190.869141" xlink:href="#DejaVuSans-30"/>
       <use x="254.492188" xlink:href="#DejaVuSans-30"/>
      </g>
     </g>
    </g>
    <g id="xtick_7">
     <g id="line2d_13">
      <path clip-path="url(#pba02287036)" d="M 394.946533 305.0208 
L 394.946533 41.1264 
" style="fill:none;stroke:#ffffff;stroke-linecap:square;stroke-width:0.8;"/>
     </g>
     <g id="line2d_14">
      <g>
       <use style="fill:#555555;stroke:#555555;stroke-width:0.8;" x="394.946533" xlink:href="#mf42147699b" y="305.0208"/>
      </g>
     </g>
     <g id="text_7">
      <!-- 14000 -->
      <g style="fill:#555555;" transform="translate(379.040283 319.619237)scale(0.1 -0.1)">
       <use xlink:href="#DejaVuSans-31"/>
       <use x="63.623047" xlink:href="#DejaVuSans-34"/>
       <use x="127.246094" xlink:href="#DejaVuSans-30"/>
       <use x="190.869141" xlink:href="#DejaVuSans-30"/>
       <use x="254.492188" xlink:href="#DejaVuSans-30"/>
      </g>
     </g>
    </g>
   </g>
   <g id="matplotlib.axis_2">
    <g id="ytick_1">
     <g id="line2d_15">
      <path clip-path="url(#pba02287036)" d="M 57.6 271.109273 
L 414.72 271.109273 
" style="fill:none;stroke:#ffffff;stroke-linecap:square;stroke-width:0.8;"/>
     </g>
     <g id="line2d_16">
      <defs>
       <path d="M 0 0 
L -3.5 0 
" id="m98ece502dd" style="stroke:#555555;stroke-width:0.8;"/>
      </defs>
      <g>
       <use style="fill:#555555;stroke:#555555;stroke-width:0.8;" x="57.6" xlink:href="#m98ece502dd" y="271.109273"/>
      </g>
     </g>
     <g id="text_8">
      <!-- 2000 -->
      <g style="fill:#555555;" transform="translate(25.15 274.908492)scale(0.1 -0.1)">
       <use xlink:href="#DejaVuSans-32"/>
       <use x="63.623047" xlink:href="#DejaVuSans-30"/>
       <use x="127.246094" xlink:href="#DejaVuSans-30"/>
       <use x="190.869141" xlink:href="#DejaVuSans-30"/>
      </g>
     </g>
    </g>
    <g id="ytick_2">
     <g id="line2d_17">
      <path clip-path="url(#pba02287036)" d="M 57.6 234.943757 
L 414.72 234.943757 
" style="fill:none;stroke:#ffffff;stroke-linecap:square;stroke-width:0.8;"/>
     </g>
     <g id="line2d_18">
      <g>
       <use style="fill:#555555;stroke:#555555;stroke-width:0.8;" x="57.6" xlink:href="#m98ece502dd" y="234.943757"/>
      </g>
     </g>
     <g id="text_9">
      <!-- 4000 -->
      <g style="fill:#555555;" transform="translate(25.15 238.742975)scale(0.1 -0.1)">
       <use xlink:href="#DejaVuSans-34"/>
       <use x="63.623047" xlink:href="#DejaVuSans-30"/>
       <use x="127.246094" xlink:href="#DejaVuSans-30"/>
       <use x="190.869141" xlink:href="#DejaVuSans-30"/>
      </g>
     </g>
    </g>
    <g id="ytick_3">
     <g id="line2d_19">
      <path clip-path="url(#pba02287036)" d="M 57.6 198.778241 
L 414.72 198.778241 
" style="fill:none;stroke:#ffffff;stroke-linecap:square;stroke-width:0.8;"/>
     </g>
     <g id="line2d_20">
      <g>
       <use style="fill:#555555;stroke:#555555;stroke-width:0.8;" x="57.6" xlink:href="#m98ece502dd" y="198.778241"/>
      </g>
     </g>
     <g id="text_10">
      <!-- 6000 -->
      <g style="fill:#555555;" transform="translate(25.15 202.577459)scale(0.1 -0.1)">
       <use xlink:href="#DejaVuSans-36"/>
       <use x="63.623047" xlink:href="#DejaVuSans-30"/>
       <use x="127.246094" xlink:href="#DejaVuSans-30"/>
       <use x="190.869141" xlink:href="#DejaVuSans-30"/>
      </g>
     </g>
    </g>
    <g id="ytick_4">
     <g id="line2d_21">
      <path clip-path="url(#pba02287036)" d="M 57.6 162.612724 
L 414.72 162.612724 
" style="fill:none;stroke:#ffffff;stroke-linecap:square;stroke-width:0.8;"/>
     </g>
     <g id="line2d_22">
      <g>
       <use style="fill:#555555;stroke:#555555;stroke-width:0.8;" x="57.6" xlink:href="#m98ece502dd" y="162.612724"/>
      </g>
     </g>
     <g id="text_11">
      <!-- 8000 -->
      <g style="fill:#555555;" transform="translate(25.15 166.411943)scale(0.1 -0.1)">
       <use xlink:href="#DejaVuSans-38"/>
       <use x="63.623047" xlink:href="#DejaVuSans-30"/>
       <use x="127.246094" xlink:href="#DejaVuSans-30"/>
       <use x="190.869141" xlink:href="#DejaVuSans-30"/>
      </g>
     </g>
    </g>
    <g id="ytick_5">
     <g id="line2d_23">
      <path clip-path="url(#pba02287036)" d="M 57.6 126.447208 
L 414.72 126.447208 
" style="fill:none;stroke:#ffffff;stroke-linecap:square;stroke-width:0.8;"/>
     </g>
     <g id="line2d_24">
      <g>
       <use style="fill:#555555;stroke:#555555;stroke-width:0.8;" x="57.6" xlink:href="#m98ece502dd" y="126.447208"/>
      </g>
     </g>
     <g id="text_12">
      <!-- 10000 -->
      <g style="fill:#555555;" transform="translate(18.7875 130.246427)scale(0.1 -0.1)">
       <use xlink:href="#DejaVuSans-31"/>
       <use x="63.623047" xlink:href="#DejaVuSans-30"/>
       <use x="127.246094" xlink:href="#DejaVuSans-30"/>
       <use x="190.869141" xlink:href="#DejaVuSans-30"/>
       <use x="254.492188" xlink:href="#DejaVuSans-30"/>
      </g>
     </g>
    </g>
    <g id="ytick_6">
     <g id="line2d_25">
      <path clip-path="url(#pba02287036)" d="M 57.6 90.281692 
L 414.72 90.281692 
" style="fill:none;stroke:#ffffff;stroke-linecap:square;stroke-width:0.8;"/>
     </g>
     <g id="line2d_26">
      <g>
       <use style="fill:#555555;stroke:#555555;stroke-width:0.8;" x="57.6" xlink:href="#m98ece502dd" y="90.281692"/>
      </g>
     </g>
     <g id="text_13">
      <!-- 12000 -->
      <g style="fill:#555555;" transform="translate(18.7875 94.080911)scale(0.1 -0.1)">
       <use xlink:href="#DejaVuSans-31"/>
       <use x="63.623047" xlink:href="#DejaVuSans-32"/>
       <use x="127.246094" xlink:href="#DejaVuSans-30"/>
       <use x="190.869141" xlink:href="#DejaVuSans-30"/>
       <use x="254.492188" xlink:href="#DejaVuSans-30"/>
      </g>
     </g>
    </g>
    <g id="ytick_7">
     <g id="line2d_27">
      <path clip-path="url(#pba02287036)" d="M 57.6 54.116176 
L 414.72 54.116176 
" style="fill:none;stroke:#ffffff;stroke-linecap:square;stroke-width:0.8;"/>
     </g>
     <g id="line2d_28">
      <g>
       <use style="fill:#555555;stroke:#555555;stroke-width:0.8;" x="57.6" xlink:href="#m98ece502dd" y="54.116176"/>
      </g>
     </g>
     <g id="text_14">
      <!-- 14000 -->
      <g style="fill:#555555;" transform="translate(18.7875 57.915395)scale(0.1 -0.1)">
       <use xlink:href="#DejaVuSans-31"/>
       <use x="63.623047" xlink:href="#DejaVuSans-34"/>
       <use x="127.246094" xlink:href="#DejaVuSans-30"/>
       <use x="190.869141" xlink:href="#DejaVuSans-30"/>
       <use x="254.492188" xlink:href="#DejaVuSans-30"/>
      </g>
     </g>
    </g>
   </g>
   <g id="PathCollection_1">
    <defs>
     <path d="M 0 0.5 
C 0.132602 0.5 0.25979 0.447317 0.353553 0.353553 
C 0.447317 0.25979 0.5 0.132602 0.5 0 
C 0.5 -0.132602 0.447317 -0.25979 0.353553 -0.353553 
C 0.25979 -0.447317 0.132602 -0.5 0 -0.5 
C -0.132602 -0.5 -0.25979 -0.447317 -0.353553 -0.353553 
C -0.447317 -0.25979 -0.5 -0.132602 -0.5 0 
C -0.5 0.132602 -0.447317 0.25979 -0.353553 0.353553 
C -0.25979 0.447317 -0.132602 0.5 0 0.5 
z
" id="ma61e1d2042" style="stroke:#000000;stroke-width:0.5;"/>
    </defs>
    <g clip-path="url(#pba02287036)">
     <use style="stroke:#000000;stroke-width:0.5;" x="139.044968" xlink:href="#ma61e1d2042" y="61.313114"/>
     <use style="stroke:#000000;stroke-width:0.5;" x="385.536961" xlink:href="#ma61e1d2042" y="259.445894"/>
     <use style="stroke:#000000;stroke-width:0.5;" x="394.170486" xlink:href="#ma61e1d2042" y="189.953855"/>
     <use style="stroke:#000000;stroke-width:0.5;" x="398.487248" xlink:href="#ma61e1d2042" y="191.147317"/>
     <use style="stroke:#000000;stroke-width:0.5;" x="279.994541" xlink:href="#ma61e1d2042" y="126.736532"/>
     <use style="stroke:#000000;stroke-width:0.5;" x="298.71668" xlink:href="#ma61e1d2042" y="132.920836"/>
     <use style="stroke:#000000;stroke-width:0.5;" x="306.549906" xlink:href="#ma61e1d2042" y="114.313678"/>
     <use style="stroke:#000000;stroke-width:0.5;" x="395.843837" xlink:href="#ma61e1d2042" y="221.056198"/>
     <use style="stroke:#000000;stroke-width:0.5;" x="221.791001" xlink:href="#ma61e1d2042" y="136.682049"/>
     <use style="stroke:#000000;stroke-width:0.5;" x="274.87748" xlink:href="#ma61e1d2042" y="171.545607"/>
     <use style="stroke:#000000;stroke-width:0.5;" x="264.328088" xlink:href="#ma61e1d2042" y="162.739304"/>
     <use style="stroke:#000000;stroke-width:0.5;" x="238.451764" xlink:href="#ma61e1d2042" y="253.496666"/>
     <use style="stroke:#000000;stroke-width:0.5;" x="265.031381" xlink:href="#ma61e1d2042" y="231.16446"/>
     <use style="stroke:#000000;stroke-width:0.5;" x="323.962465" xlink:href="#ma61e1d2042" y="210.676695"/>
     <use style="stroke:#000000;stroke-width:0.5;" x="397.589944" xlink:href="#ma61e1d2042" y="171.834931"/>
     <use style="stroke:#000000;stroke-width:0.5;" x="266.801739" xlink:href="#ma61e1d2042" y="121.510615"/>
     <use style="stroke:#000000;stroke-width:0.5;" x="168.777277" xlink:href="#ma61e1d2042" y="53.121624"/>
     <use style="stroke:#000000;stroke-width:0.5;" x="267.092756" xlink:href="#ma61e1d2042" y="103.861844"/>
     <use style="stroke:#000000;stroke-width:0.5;" x="152.310525" xlink:href="#ma61e1d2042" y="55.815955"/>
     <use style="stroke:#000000;stroke-width:0.5;" x="292.581057" xlink:href="#ma61e1d2042" y="201.327909"/>
     <use style="stroke:#000000;stroke-width:0.5;" x="130.775215" xlink:href="#ma61e1d2042" y="66.79219"/>
     <use style="stroke:#000000;stroke-width:0.5;" x="302.305898" xlink:href="#ma61e1d2042" y="200.930089"/>
     <use style="stroke:#000000;stroke-width:0.5;" x="260.205338" xlink:href="#ma61e1d2042" y="169.357593"/>
     <use style="stroke:#000000;stroke-width:0.5;" x="287.391241" xlink:href="#ma61e1d2042" y="229.301936"/>
     <use style="stroke:#000000;stroke-width:0.5;" x="379.11032" xlink:href="#ma61e1d2042" y="261.398832"/>
     <use style="stroke:#000000;stroke-width:0.5;" x="350.081304" xlink:href="#ma61e1d2042" y="222.104998"/>
     <use style="stroke:#000000;stroke-width:0.5;" x="331.916949" xlink:href="#ma61e1d2042" y="279.915576"/>
     <use style="stroke:#000000;stroke-width:0.5;" x="354.834593" xlink:href="#ma61e1d2042" y="267.239563"/>
     <use style="stroke:#000000;stroke-width:0.5;" x="360.266924" xlink:href="#ma61e1d2042" y="270.223218"/>
     <use style="stroke:#000000;stroke-width:0.5;" x="347.365139" xlink:href="#ma61e1d2042" y="286.226459"/>
     <use style="stroke:#000000;stroke-width:0.5;" x="284.214298" xlink:href="#ma61e1d2042" y="292.410762"/>
     <use style="stroke:#000000;stroke-width:0.5;" x="377.679483" xlink:href="#ma61e1d2042" y="260.621273"/>
     <use style="stroke:#000000;stroke-width:0.5;" x="372.53817" xlink:href="#ma61e1d2042" y="249.337632"/>
     <use style="stroke:#000000;stroke-width:0.5;" x="224.652675" xlink:href="#ma61e1d2042" y="193.606572"/>
     <use style="stroke:#000000;stroke-width:0.5;" x="305.62835" xlink:href="#ma61e1d2042" y="263.568763"/>
     <use style="stroke:#000000;stroke-width:0.5;" x="238.839788" xlink:href="#ma61e1d2042" y="170.966959"/>
     <use style="stroke:#000000;stroke-width:0.5;" x="273.131374" xlink:href="#ma61e1d2042" y="147.405125"/>
     <use style="stroke:#000000;stroke-width:0.5;" x="207.579637" xlink:href="#ma61e1d2042" y="197.874103"/>
     <use style="stroke:#000000;stroke-width:0.5;" x="205.372752" xlink:href="#ma61e1d2042" y="202.557537"/>
     <use style="stroke:#000000;stroke-width:0.5;" x="269.396647" xlink:href="#ma61e1d2042" y="290.060003"/>
     <use style="stroke:#000000;stroke-width:0.5;" x="274.246942" xlink:href="#ma61e1d2042" y="284.870252"/>
     <use style="stroke:#000000;stroke-width:0.5;" x="207.991912" xlink:href="#ma61e1d2042" y="265.467452"/>
     <use style="stroke:#000000;stroke-width:0.5;" x="156.603036" xlink:href="#ma61e1d2042" y="53.175873"/>
     <use style="stroke:#000000;stroke-width:0.5;" x="238.233501" xlink:href="#ma61e1d2042" y="172.449745"/>
     <use style="stroke:#000000;stroke-width:0.5;" x="247.158044" xlink:href="#ma61e1d2042" y="57.425321"/>
     <use style="stroke:#000000;stroke-width:0.5;" x="304.100507" xlink:href="#ma61e1d2042" y="62.868231"/>
     <use style="stroke:#000000;stroke-width:0.5;" x="154.468906" xlink:href="#ma61e1d2042" y="58.456038"/>
     <use style="stroke:#000000;stroke-width:0.5;" x="178.089843" xlink:href="#ma61e1d2042" y="115.416726"/>
     <use style="stroke:#000000;stroke-width:0.5;" x="222.227528" xlink:href="#ma61e1d2042" y="206.535744"/>
     <use style="stroke:#000000;stroke-width:0.5;" x="249.122413" xlink:href="#ma61e1d2042" y="169.827745"/>
     <use style="stroke:#000000;stroke-width:0.5;" x="231.831112" xlink:href="#ma61e1d2042" y="188.073248"/>
     <use style="stroke:#000000;stroke-width:0.5;" x="391.599829" xlink:href="#ma61e1d2042" y="240.694074"/>
     <use style="stroke:#000000;stroke-width:0.5;" x="377.655231" xlink:href="#ma61e1d2042" y="261.850901"/>
     <use style="stroke:#000000;stroke-width:0.5;" x="371.398351" xlink:href="#ma61e1d2042" y="241.580129"/>
     <use style="stroke:#000000;stroke-width:0.5;" x="177.241041" xlink:href="#ma61e1d2042" y="109.847236"/>
     <use style="stroke:#000000;stroke-width:0.5;" x="385.076183" xlink:href="#ma61e1d2042" y="252.755273"/>
     <use style="stroke:#000000;stroke-width:0.5;" x="392.327374" xlink:href="#ma61e1d2042" y="238.451812"/>
     <use style="stroke:#000000;stroke-width:0.5;" x="226.132015" xlink:href="#ma61e1d2042" y="78.979968"/>
     <use style="stroke:#000000;stroke-width:0.5;" x="370.282783" xlink:href="#ma61e1d2042" y="272.429314"/>
     <use style="stroke:#000000;stroke-width:0.5;" x="197.854795" xlink:href="#ma61e1d2042" y="179.682848"/>
     <use style="stroke:#000000;stroke-width:0.5;" x="340.889995" xlink:href="#ma61e1d2042" y="263.02628"/>
     <use style="stroke:#000000;stroke-width:0.5;" x="86.29801" xlink:href="#ma61e1d2042" y="100.408037"/>
     <use style="stroke:#000000;stroke-width:0.5;" x="236.123623" xlink:href="#ma61e1d2042" y="219.591495"/>
     <use style="stroke:#000000;stroke-width:0.5;" x="230.618538" xlink:href="#ma61e1d2042" y="221.237026"/>
     <use style="stroke:#000000;stroke-width:0.5;" x="94.398003" xlink:href="#ma61e1d2042" y="116.483609"/>
     <use style="stroke:#000000;stroke-width:0.5;" x="122.117439" xlink:href="#ma61e1d2042" y="168.381124"/>
     <use style="stroke:#000000;stroke-width:0.5;" x="267.505032" xlink:href="#ma61e1d2042" y="145.868091"/>
     <use style="stroke:#000000;stroke-width:0.5;" x="135.868025" xlink:href="#ma61e1d2042" y="61.059955"/>
     <use style="stroke:#000000;stroke-width:0.5;" x="213.399991" xlink:href="#ma61e1d2042" y="128.797967"/>
     <use style="stroke:#000000;stroke-width:0.5;" x="324.544501" xlink:href="#ma61e1d2042" y="223.171881"/>
     <use style="stroke:#000000;stroke-width:0.5;" x="221.693995" xlink:href="#ma61e1d2042" y="175.324903"/>
     <use style="stroke:#000000;stroke-width:0.5;" x="247.182295" xlink:href="#ma61e1d2042" y="272.573976"/>
     <use style="stroke:#000000;stroke-width:0.5;" x="184.856005" xlink:href="#ma61e1d2042" y="164.909235"/>
     <use style="stroke:#000000;stroke-width:0.5;" x="198.800603" xlink:href="#ma61e1d2042" y="208.163192"/>
     <use style="stroke:#000000;stroke-width:0.5;" x="206.31856" xlink:href="#ma61e1d2042" y="160.497042"/>
     <use style="stroke:#000000;stroke-width:0.5;" x="217.32873" xlink:href="#ma61e1d2042" y="172.033841"/>
     <use style="stroke:#000000;stroke-width:0.5;" x="247.570319" xlink:href="#ma61e1d2042" y="152.215139"/>
     <use style="stroke:#000000;stroke-width:0.5;" x="266.00144" xlink:href="#ma61e1d2042" y="208.127026"/>
     <use style="stroke:#000000;stroke-width:0.5;" x="391.260309" xlink:href="#ma61e1d2042" y="219.55533"/>
     <use style="stroke:#000000;stroke-width:0.5;" x="278.49095" xlink:href="#ma61e1d2042" y="140.443263"/>
     <use style="stroke:#000000;stroke-width:0.5;" x="261.175397" xlink:href="#ma61e1d2042" y="162.757387"/>
     <use style="stroke:#000000;stroke-width:0.5;" x="311.618465" xlink:href="#ma61e1d2042" y="285.358486"/>
     <use style="stroke:#000000;stroke-width:0.5;" x="319.863966" xlink:href="#ma61e1d2042" y="287.691162"/>
     <use style="stroke:#000000;stroke-width:0.5;" x="277.957417" xlink:href="#ma61e1d2042" y="292.302265"/>
     <use style="stroke:#000000;stroke-width:0.5;" x="269.808922" xlink:href="#ma61e1d2042" y="208.904585"/>
     <use style="stroke:#000000;stroke-width:0.5;" x="252.226602" xlink:href="#ma61e1d2042" y="193.787399"/>
     <use style="stroke:#000000;stroke-width:0.5;" x="272.209818" xlink:href="#ma61e1d2042" y="233.26206"/>
     <use style="stroke:#000000;stroke-width:0.5;" x="217.158969" xlink:href="#ma61e1d2042" y="194.492627"/>
     <use style="stroke:#000000;stroke-width:0.5;" x="200.813475" xlink:href="#ma61e1d2042" y="203.769082"/>
     <use style="stroke:#000000;stroke-width:0.5;" x="239.276315" xlink:href="#ma61e1d2042" y="174.854752"/>
     <use style="stroke:#000000;stroke-width:0.5;" x="227.344589" xlink:href="#ma61e1d2042" y="171.907262"/>
     <use style="stroke:#000000;stroke-width:0.5;" x="251.256543" xlink:href="#ma61e1d2042" y="173.426214"/>
     <use style="stroke:#000000;stroke-width:0.5;" x="127.380009" xlink:href="#ma61e1d2042" y="176.988517"/>
     <use style="stroke:#000000;stroke-width:0.5;" x="154.905433" xlink:href="#ma61e1d2042" y="103.409775"/>
     <use style="stroke:#000000;stroke-width:0.5;" x="177.653316" xlink:href="#ma61e1d2042" y="199.42922"/>
     <use style="stroke:#000000;stroke-width:0.5;" x="190.094323" xlink:href="#ma61e1d2042" y="217.747054"/>
     <use style="stroke:#000000;stroke-width:0.5;" x="169.407815" xlink:href="#ma61e1d2042" y="190.604834"/>
     <use style="stroke:#000000;stroke-width:0.5;" x="177.338047" xlink:href="#ma61e1d2042" y="154.620145"/>
     <use style="stroke:#000000;stroke-width:0.5;" x="299.735242" xlink:href="#ma61e1d2042" y="159.068504"/>
     <use style="stroke:#000000;stroke-width:0.5;" x="303.251706" xlink:href="#ma61e1d2042" y="162.3234"/>
     <use style="stroke:#000000;stroke-width:0.5;" x="188.129954" xlink:href="#ma61e1d2042" y="193.13642"/>
     <use style="stroke:#000000;stroke-width:0.5;" x="324.374741" xlink:href="#ma61e1d2042" y="284.056528"/>
     <use style="stroke:#000000;stroke-width:0.5;" x="313.534331" xlink:href="#ma61e1d2042" y="283.297052"/>
     <use style="stroke:#000000;stroke-width:0.5;" x="189.342527" xlink:href="#ma61e1d2042" y="196.28282"/>
     <use style="stroke:#000000;stroke-width:0.5;" x="200.837727" xlink:href="#ma61e1d2042" y="193.570406"/>
     <use style="stroke:#000000;stroke-width:0.5;" x="237.627214" xlink:href="#ma61e1d2042" y="167.621648"/>
     <use style="stroke:#000000;stroke-width:0.5;" x="246.77002" xlink:href="#ma61e1d2042" y="187.349937"/>
     <use style="stroke:#000000;stroke-width:0.5;" x="183.279659" xlink:href="#ma61e1d2042" y="201.056668"/>
     <use style="stroke:#000000;stroke-width:0.5;" x="146.587177" xlink:href="#ma61e1d2042" y="201.327909"/>
     <use style="stroke:#000000;stroke-width:0.5;" x="267.868804" xlink:href="#ma61e1d2042" y="167.097248"/>
     <use style="stroke:#000000;stroke-width:0.5;" x="168.292247" xlink:href="#ma61e1d2042" y="210.170378"/>
     <use style="stroke:#000000;stroke-width:0.5;" x="146.9752" xlink:href="#ma61e1d2042" y="174.565428"/>
     <use style="stroke:#000000;stroke-width:0.5;" x="166.497638" xlink:href="#ma61e1d2042" y="179.773262"/>
     <use style="stroke:#000000;stroke-width:0.5;" x="294.593929" xlink:href="#ma61e1d2042" y="174.312269"/>
     <use style="stroke:#000000;stroke-width:0.5;" x="296.800813" xlink:href="#ma61e1d2042" y="165.216642"/>
     <use style="stroke:#000000;stroke-width:0.5;" x="279.024482" xlink:href="#ma61e1d2042" y="172.160421"/>
     <use style="stroke:#000000;stroke-width:0.5;" x="304.221765" xlink:href="#ma61e1d2042" y="183.480227"/>
     <use style="stroke:#000000;stroke-width:0.5;" x="95.853091" xlink:href="#ma61e1d2042" y="84.404796"/>
     <use style="stroke:#000000;stroke-width:0.5;" x="218.711064" xlink:href="#ma61e1d2042" y="190.387841"/>
     <use style="stroke:#000000;stroke-width:0.5;" x="245.217926" xlink:href="#ma61e1d2042" y="220.47755"/>
     <use style="stroke:#000000;stroke-width:0.5;" x="292.023273" xlink:href="#ma61e1d2042" y="194.402213"/>
     <use style="stroke:#000000;stroke-width:0.5;" x="388.738155" xlink:href="#ma61e1d2042" y="223.660116"/>
     <use style="stroke:#000000;stroke-width:0.5;" x="308.41727" xlink:href="#ma61e1d2042" y="202.430958"/>
     <use style="stroke:#000000;stroke-width:0.5;" x="324.107974" xlink:href="#ma61e1d2042" y="202.919192"/>
     <use style="stroke:#000000;stroke-width:0.5;" x="384.518399" xlink:href="#ma61e1d2042" y="249.409963"/>
     <use style="stroke:#000000;stroke-width:0.5;" x="380.007624" xlink:href="#ma61e1d2042" y="216.101523"/>
     <use style="stroke:#000000;stroke-width:0.5;" x="228.799677" xlink:href="#ma61e1d2042" y="176.229041"/>
     <use style="stroke:#000000;stroke-width:0.5;" x="129.70815" xlink:href="#ma61e1d2042" y="68.871707"/>
     <use style="stroke:#000000;stroke-width:0.5;" x="183.279659" xlink:href="#ma61e1d2042" y="88.509582"/>
     <use style="stroke:#000000;stroke-width:0.5;" x="268.887366" xlink:href="#ma61e1d2042" y="157.40489"/>
     <use style="stroke:#000000;stroke-width:0.5;" x="199.043117" xlink:href="#ma61e1d2042" y="138.815815"/>
     <use style="stroke:#000000;stroke-width:0.5;" x="178.574872" xlink:href="#ma61e1d2042" y="99.684726"/>
     <use style="stroke:#000000;stroke-width:0.5;" x="305.337333" xlink:href="#ma61e1d2042" y="208.34402"/>
     <use style="stroke:#000000;stroke-width:0.5;" x="270.584969" xlink:href="#ma61e1d2042" y="157.422973"/>
     <use style="stroke:#000000;stroke-width:0.5;" x="374.381282" xlink:href="#ma61e1d2042" y="244.111715"/>
     <use style="stroke:#000000;stroke-width:0.5;" x="163.90273" xlink:href="#ma61e1d2042" y="181.020972"/>
     <use style="stroke:#000000;stroke-width:0.5;" x="199.74641" xlink:href="#ma61e1d2042" y="213.606102"/>
     <use style="stroke:#000000;stroke-width:0.5;" x="251.280795" xlink:href="#ma61e1d2042" y="151.003594"/>
     <use style="stroke:#000000;stroke-width:0.5;" x="89.014175" xlink:href="#ma61e1d2042" y="103.301278"/>
     <use style="stroke:#000000;stroke-width:0.5;" x="384.397141" xlink:href="#ma61e1d2042" y="255.250694"/>
     <use style="stroke:#000000;stroke-width:0.5;" x="339.580415" xlink:href="#ma61e1d2042" y="271.380514"/>
     <use style="stroke:#000000;stroke-width:0.5;" x="242.210743" xlink:href="#ma61e1d2042" y="214.83573"/>
     <use style="stroke:#000000;stroke-width:0.5;" x="153.571602" xlink:href="#ma61e1d2042" y="53.374783"/>
     <use style="stroke:#000000;stroke-width:0.5;" x="358.254051" xlink:href="#ma61e1d2042" y="192.28653"/>
     <use style="stroke:#000000;stroke-width:0.5;" x="376.224394" xlink:href="#ma61e1d2042" y="200.170613"/>
     <use style="stroke:#000000;stroke-width:0.5;" x="266.316709" xlink:href="#ma61e1d2042" y="203.805247"/>
     <use style="stroke:#000000;stroke-width:0.5;" x="219.996392" xlink:href="#ma61e1d2042" y="168.127966"/>
     <use style="stroke:#000000;stroke-width:0.5;" x="257.974202" xlink:href="#ma61e1d2042" y="244.925439"/>
     <use style="stroke:#000000;stroke-width:0.5;" x="107.566554" xlink:href="#ma61e1d2042" y="89.576465"/>
     <use style="stroke:#000000;stroke-width:0.5;" x="141.567122" xlink:href="#ma61e1d2042" y="67.642079"/>
     <use style="stroke:#000000;stroke-width:0.5;" x="389.732466" xlink:href="#ma61e1d2042" y="212.720047"/>
     <use style="stroke:#000000;stroke-width:0.5;" x="82.975558" xlink:href="#ma61e1d2042" y="100.10063"/>
     <use style="stroke:#000000;stroke-width:0.5;" x="129.295875" xlink:href="#ma61e1d2042" y="104.096919"/>
     <use style="stroke:#000000;stroke-width:0.5;" x="324.835519" xlink:href="#ma61e1d2042" y="286.027548"/>
     <use style="stroke:#000000;stroke-width:0.5;" x="330.728627" xlink:href="#ma61e1d2042" y="289.372858"/>
     <use style="stroke:#000000;stroke-width:0.5;" x="320.955283" xlink:href="#ma61e1d2042" y="246.806046"/>
     <use style="stroke:#000000;stroke-width:0.5;" x="309.629844" xlink:href="#ma61e1d2042" y="250.96508"/>
     <use style="stroke:#000000;stroke-width:0.5;" x="285.790644" xlink:href="#ma61e1d2042" y="259.409728"/>
     <use style="stroke:#000000;stroke-width:0.5;" x="293.696625" xlink:href="#ma61e1d2042" y="288.125148"/>
     <use style="stroke:#000000;stroke-width:0.5;" x="280.649331" xlink:href="#ma61e1d2042" y="287.926238"/>
     <use style="stroke:#000000;stroke-width:0.5;" x="310.502897" xlink:href="#ma61e1d2042" y="249.084473"/>
     <use style="stroke:#000000;stroke-width:0.5;" x="330.025334" xlink:href="#ma61e1d2042" y="250.097108"/>
     <use style="stroke:#000000;stroke-width:0.5;" x="203.917664" xlink:href="#ma61e1d2042" y="148.652835"/>
     <use style="stroke:#000000;stroke-width:0.5;" x="230.448778" xlink:href="#ma61e1d2042" y="283.839534"/>
     <use style="stroke:#000000;stroke-width:0.5;" x="196.13294" xlink:href="#ma61e1d2042" y="155.397704"/>
     <use style="stroke:#000000;stroke-width:0.5;" x="241.33769" xlink:href="#ma61e1d2042" y="262.972032"/>
     <use style="stroke:#000000;stroke-width:0.5;" x="346.249571" xlink:href="#ma61e1d2042" y="272.718638"/>
     <use style="stroke:#000000;stroke-width:0.5;" x="247.934091" xlink:href="#ma61e1d2042" y="219.663826"/>
     <use style="stroke:#000000;stroke-width:0.5;" x="219.414356" xlink:href="#ma61e1d2042" y="190.496337"/>
     <use style="stroke:#000000;stroke-width:0.5;" x="235.444581" xlink:href="#ma61e1d2042" y="162.486145"/>
     <use style="stroke:#000000;stroke-width:0.5;" x="188.323965" xlink:href="#ma61e1d2042" y="169.122517"/>
     <use style="stroke:#000000;stroke-width:0.5;" x="163.24794" xlink:href="#ma61e1d2042" y="54.387418"/>
     <use style="stroke:#000000;stroke-width:0.5;" x="145.447358" xlink:href="#ma61e1d2042" y="117.351581"/>
     <use style="stroke:#000000;stroke-width:0.5;" x="156.724293" xlink:href="#ma61e1d2042" y="121.438284"/>
     <use style="stroke:#000000;stroke-width:0.5;" x="174.209607" xlink:href="#ma61e1d2042" y="117.839816"/>
     <use style="stroke:#000000;stroke-width:0.5;" x="162.617402" xlink:href="#ma61e1d2042" y="98.274271"/>
     <use style="stroke:#000000;stroke-width:0.5;" x="249.025408" xlink:href="#ma61e1d2042" y="122.053098"/>
     <use style="stroke:#000000;stroke-width:0.5;" x="360.266924" xlink:href="#ma61e1d2042" y="207.783454"/>
     <use style="stroke:#000000;stroke-width:0.5;" x="234.668534" xlink:href="#ma61e1d2042" y="64.712672"/>
     <use style="stroke:#000000;stroke-width:0.5;" x="319.330434" xlink:href="#ma61e1d2042" y="261.45308"/>
     <use style="stroke:#000000;stroke-width:0.5;" x="153.159327" xlink:href="#ma61e1d2042" y="122.071181"/>
     <use style="stroke:#000000;stroke-width:0.5;" x="171.663202" xlink:href="#ma61e1d2042" y="120.10016"/>
     <use style="stroke:#000000;stroke-width:0.5;" x="263.067012" xlink:href="#ma61e1d2042" y="149.177235"/>
     <use style="stroke:#000000;stroke-width:0.5;" x="276.647838" xlink:href="#ma61e1d2042" y="169.737331"/>
     <use style="stroke:#000000;stroke-width:0.5;" x="352.385194" xlink:href="#ma61e1d2042" y="210.658613"/>
     <use style="stroke:#000000;stroke-width:0.5;" x="258.725998" xlink:href="#ma61e1d2042" y="129.21387"/>
     <use style="stroke:#000000;stroke-width:0.5;" x="116.006067" xlink:href="#ma61e1d2042" y="77.931169"/>
     <use style="stroke:#000000;stroke-width:0.5;" x="250.165227" xlink:href="#ma61e1d2042" y="163.155207"/>
     <use style="stroke:#000000;stroke-width:0.5;" x="176.004216" xlink:href="#ma61e1d2042" y="95.218285"/>
     <use style="stroke:#000000;stroke-width:0.5;" x="168.680271" xlink:href="#ma61e1d2042" y="160.280049"/>
     <use style="stroke:#000000;stroke-width:0.5;" x="165.673088" xlink:href="#ma61e1d2042" y="164.854986"/>
     <use style="stroke:#000000;stroke-width:0.5;" x="87.171063" xlink:href="#ma61e1d2042" y="103.355526"/>
     <use style="stroke:#000000;stroke-width:0.5;" x="372.247152" xlink:href="#ma61e1d2042" y="270.132804"/>
     <use style="stroke:#000000;stroke-width:0.5;" x="166.20662" xlink:href="#ma61e1d2042" y="164.74649"/>
     <use style="stroke:#000000;stroke-width:0.5;" x="164.412011" xlink:href="#ma61e1d2042" y="199.845123"/>
     <use style="stroke:#000000;stroke-width:0.5;" x="204.742214" xlink:href="#ma61e1d2042" y="132.68576"/>
     <use style="stroke:#000000;stroke-width:0.5;" x="344.91574" xlink:href="#ma61e1d2042" y="245.269012"/>
     <use style="stroke:#000000;stroke-width:0.5;" x="304.052004" xlink:href="#ma61e1d2042" y="293.025576"/>
     <use style="stroke:#000000;stroke-width:0.5;" x="268.475091" xlink:href="#ma61e1d2042" y="224.491923"/>
     <use style="stroke:#000000;stroke-width:0.5;" x="278.587956" xlink:href="#ma61e1d2042" y="238.777301"/>
     <use style="stroke:#000000;stroke-width:0.5;" x="282.395437" xlink:href="#ma61e1d2042" y="243.406487"/>
     <use style="stroke:#000000;stroke-width:0.5;" x="292.120279" xlink:href="#ma61e1d2042" y="246.227398"/>
     <use style="stroke:#000000;stroke-width:0.5;" x="361.673509" xlink:href="#ma61e1d2042" y="255.974004"/>
     <use style="stroke:#000000;stroke-width:0.5;" x="276.381071" xlink:href="#ma61e1d2042" y="197.765606"/>
     <use style="stroke:#000000;stroke-width:0.5;" x="74.778559" xlink:href="#ma61e1d2042" y="165.777207"/>
     <use style="stroke:#000000;stroke-width:0.5;" x="319.645703" xlink:href="#ma61e1d2042" y="282.194003"/>
     <use style="stroke:#000000;stroke-width:0.5;" x="312.734032" xlink:href="#ma61e1d2042" y="283.333217"/>
     <use style="stroke:#000000;stroke-width:0.5;" x="299.54123" xlink:href="#ma61e1d2042" y="292.736251"/>
     <use style="stroke:#000000;stroke-width:0.5;" x="273.204128" xlink:href="#ma61e1d2042" y="225.016323"/>
     <use style="stroke:#000000;stroke-width:0.5;" x="247.061038" xlink:href="#ma61e1d2042" y="213.642268"/>
     <use style="stroke:#000000;stroke-width:0.5;" x="290.180161" xlink:href="#ma61e1d2042" y="203.82333"/>
     <use style="stroke:#000000;stroke-width:0.5;" x="242.64727" xlink:href="#ma61e1d2042" y="163.191373"/>
     <use style="stroke:#000000;stroke-width:0.5;" x="365.723505" xlink:href="#ma61e1d2042" y="212.340309"/>
     <use style="stroke:#000000;stroke-width:0.5;" x="347.025618" xlink:href="#ma61e1d2042" y="281.506859"/>
     <use style="stroke:#000000;stroke-width:0.5;" x="164.460514" xlink:href="#ma61e1d2042" y="59.179348"/>
     <use style="stroke:#000000;stroke-width:0.5;" x="135.261738" xlink:href="#ma61e1d2042" y="65.291321"/>
     <use style="stroke:#000000;stroke-width:0.5;" x="346.128314" xlink:href="#ma61e1d2042" y="211.616999"/>
     <use style="stroke:#000000;stroke-width:0.5;" x="331.262159" xlink:href="#ma61e1d2042" y="215.070806"/>
     <use style="stroke:#000000;stroke-width:0.5;" x="142.537181" xlink:href="#ma61e1d2042" y="69.739679"/>
     <use style="stroke:#000000;stroke-width:0.5;" x="379.231577" xlink:href="#ma61e1d2042" y="227.168171"/>
     <use style="stroke:#000000;stroke-width:0.5;" x="262.873" xlink:href="#ma61e1d2042" y="260.368114"/>
     <use style="stroke:#000000;stroke-width:0.5;" x="153.935374" xlink:href="#ma61e1d2042" y="56.485017"/>
     <use style="stroke:#000000;stroke-width:0.5;" x="257.998453" xlink:href="#ma61e1d2042" y="182.341014"/>
     <use style="stroke:#000000;stroke-width:0.5;" x="212.502686" xlink:href="#ma61e1d2042" y="141.401649"/>
     <use style="stroke:#000000;stroke-width:0.5;" x="244.684393" xlink:href="#ma61e1d2042" y="148.942159"/>
     <use style="stroke:#000000;stroke-width:0.5;" x="333.978325" xlink:href="#ma61e1d2042" y="192.702434"/>
     <use style="stroke:#000000;stroke-width:0.5;" x="237.263442" xlink:href="#ma61e1d2042" y="185.59591"/>
     <use style="stroke:#000000;stroke-width:0.5;" x="227.975127" xlink:href="#ma61e1d2042" y="239.157039"/>
     <use style="stroke:#000000;stroke-width:0.5;" x="73.832752" xlink:href="#ma61e1d2042" y="150.153704"/>
     <use style="stroke:#000000;stroke-width:0.5;" x="345.279512" xlink:href="#ma61e1d2042" y="269.644569"/>
     <use style="stroke:#000000;stroke-width:0.5;" x="348.69897" xlink:href="#ma61e1d2042" y="256.426073"/>
     <use style="stroke:#000000;stroke-width:0.5;" x="77.979754" xlink:href="#ma61e1d2042" y="128.562891"/>
     <use style="stroke:#000000;stroke-width:0.5;" x="74.996823" xlink:href="#ma61e1d2042" y="137.369194"/>
     <use style="stroke:#000000;stroke-width:0.5;" x="342.369335" xlink:href="#ma61e1d2042" y="260.621273"/>
     <use style="stroke:#000000;stroke-width:0.5;" x="332.790002" xlink:href="#ma61e1d2042" y="280.150652"/>
     <use style="stroke:#000000;stroke-width:0.5;" x="85.061185" xlink:href="#ma61e1d2042" y="120.895802"/>
     <use style="stroke:#000000;stroke-width:0.5;" x="154.784175" xlink:href="#ma61e1d2042" y="53.465197"/>
     <use style="stroke:#000000;stroke-width:0.5;" x="154.177889" xlink:href="#ma61e1d2042" y="71.58412"/>
     <use style="stroke:#000000;stroke-width:0.5;" x="115.739301" xlink:href="#ma61e1d2042" y="74.314617"/>
     <use style="stroke:#000000;stroke-width:0.5;" x="121.826421" xlink:href="#ma61e1d2042" y="72.542507"/>
     <use style="stroke:#000000;stroke-width:0.5;" x="289.864892" xlink:href="#ma61e1d2042" y="128.978794"/>
     <use style="stroke:#000000;stroke-width:0.5;" x="124.833604" xlink:href="#ma61e1d2042" y="63.012893"/>
     <use style="stroke:#000000;stroke-width:0.5;" x="120.613847" xlink:href="#ma61e1d2042" y="85.037692"/>
     <use style="stroke:#000000;stroke-width:0.5;" x="100.485123" xlink:href="#ma61e1d2042" y="71.132051"/>
     <use style="stroke:#000000;stroke-width:0.5;" x="300.074763" xlink:href="#ma61e1d2042" y="155.506201"/>
     <use style="stroke:#000000;stroke-width:0.5;" x="149.982383" xlink:href="#ma61e1d2042" y="97.930699"/>
     <use style="stroke:#000000;stroke-width:0.5;" x="317.511573" xlink:href="#ma61e1d2042" y="220.929619"/>
     <use style="stroke:#000000;stroke-width:0.5;" x="344.236699" xlink:href="#ma61e1d2042" y="236.625453"/>
     <use style="stroke:#000000;stroke-width:0.5;" x="310.260382" xlink:href="#ma61e1d2042" y="220.586047"/>
     <use style="stroke:#000000;stroke-width:0.5;" x="309.217569" xlink:href="#ma61e1d2042" y="246.661384"/>
     <use style="stroke:#000000;stroke-width:0.5;" x="331.456171" xlink:href="#ma61e1d2042" y="188.977386"/>
     <use style="stroke:#000000;stroke-width:0.5;" x="301.044822" xlink:href="#ma61e1d2042" y="232.701495"/>
     <use style="stroke:#000000;stroke-width:0.5;" x="151.025197" xlink:href="#ma61e1d2042" y="60.354728"/>
     <use style="stroke:#000000;stroke-width:0.5;" x="208.525444" xlink:href="#ma61e1d2042" y="82.216782"/>
     <use style="stroke:#000000;stroke-width:0.5;" x="195.453899" xlink:href="#ma61e1d2042" y="166.916421"/>
     <use style="stroke:#000000;stroke-width:0.5;" x="336.306466" xlink:href="#ma61e1d2042" y="201.345992"/>
     <use style="stroke:#000000;stroke-width:0.5;" x="251.935585" xlink:href="#ma61e1d2042" y="181.020972"/>
     <use style="stroke:#000000;stroke-width:0.5;" x="290.931956" xlink:href="#ma61e1d2042" y="145.506435"/>
     <use style="stroke:#000000;stroke-width:0.5;" x="377.727986" xlink:href="#ma61e1d2042" y="242.755508"/>
     <use style="stroke:#000000;stroke-width:0.5;" x="397.85671" xlink:href="#ma61e1d2042" y="186.608544"/>
     <use style="stroke:#000000;stroke-width:0.5;" x="209.592509" xlink:href="#ma61e1d2042" y="194.619206"/>
     <use style="stroke:#000000;stroke-width:0.5;" x="273.301134" xlink:href="#ma61e1d2042" y="206.897399"/>
    </g>
   </g>
   <g id="patch_3">
    <path d="M 57.6 305.0208 
L 57.6 41.1264 
" style="fill:none;stroke:#ffffff;stroke-linecap:square;stroke-linejoin:miter;"/>
   </g>
   <g id="patch_4">
    <path d="M 414.72 305.0208 
L 414.72 41.1264 
" style="fill:none;stroke:#ffffff;stroke-linecap:square;stroke-linejoin:miter;"/>
   </g>
   <g id="patch_5">
    <path d="M 57.6 305.0208 
L 414.72 305.0208 
" style="fill:none;stroke:#ffffff;stroke-linecap:square;stroke-linejoin:miter;"/>
   </g>
   <g id="patch_6">
    <path d="M 57.6 41.1264 
L 414.72 41.1264 
" style="fill:none;stroke:#ffffff;stroke-linecap:square;stroke-linejoin:miter;"/>
   </g>
   <g id="text_15">
    <!-- League-of-Legends-Death-Point NALCS2018 before 20 minutes -->
    <defs>
     <path d="M 9.8125 72.90625 
L 19.671875 72.90625 
L 19.671875 8.296875 
L 55.171875 8.296875 
L 55.171875 0 
L 9.8125 0 
z
" id="DejaVuSans-4c"/>
     <path d="M 56.203125 29.59375 
L 56.203125 25.203125 
L 14.890625 25.203125 
Q 15.484375 15.921875 20.484375 11.0625 
Q 25.484375 6.203125 34.421875 6.203125 
Q 39.59375 6.203125 44.453125 7.46875 
Q 49.3125 8.734375 54.109375 11.28125 
L 54.109375 2.78125 
Q 49.265625 0.734375 44.1875 -0.34375 
Q 39.109375 -1.421875 33.890625 -1.421875 
Q 20.796875 -1.421875 13.15625 6.1875 
Q 5.515625 13.8125 5.515625 26.8125 
Q 5.515625 40.234375 12.765625 48.109375 
Q 20.015625 56 32.328125 56 
Q 43.359375 56 49.78125 48.890625 
Q 56.203125 41.796875 56.203125 29.59375 
z
M 47.21875 32.234375 
Q 47.125 39.59375 43.09375 43.984375 
Q 39.0625 48.390625 32.421875 48.390625 
Q 24.90625 48.390625 20.390625 44.140625 
Q 15.875 39.890625 15.1875 32.171875 
z
" id="DejaVuSans-65"/>
     <path d="M 34.28125 27.484375 
Q 23.390625 27.484375 19.1875 25 
Q 14.984375 22.515625 14.984375 16.5 
Q 14.984375 11.71875 18.140625 8.90625 
Q 21.296875 6.109375 26.703125 6.109375 
Q 34.1875 6.109375 38.703125 11.40625 
Q 43.21875 16.703125 43.21875 25.484375 
L 43.21875 27.484375 
z
M 52.203125 31.203125 
L 52.203125 0 
L 43.21875 0 
L 43.21875 8.296875 
Q 40.140625 3.328125 35.546875 0.953125 
Q 30.953125 -1.421875 24.3125 -1.421875 
Q 15.921875 -1.421875 10.953125 3.296875 
Q 6 8.015625 6 15.921875 
Q 6 25.140625 12.171875 29.828125 
Q 18.359375 34.515625 30.609375 34.515625 
L 43.21875 34.515625 
L 43.21875 35.40625 
Q 43.21875 41.609375 39.140625 45 
Q 35.0625 48.390625 27.6875 48.390625 
Q 23 48.390625 18.546875 47.265625 
Q 14.109375 46.140625 10.015625 43.890625 
L 10.015625 52.203125 
Q 14.9375 54.109375 19.578125 55.046875 
Q 24.21875 56 28.609375 56 
Q 40.484375 56 46.34375 49.84375 
Q 52.203125 43.703125 52.203125 31.203125 
z
" id="DejaVuSans-61"/>
     <path d="M 45.40625 27.984375 
Q 45.40625 37.75 41.375 43.109375 
Q 37.359375 48.484375 30.078125 48.484375 
Q 22.859375 48.484375 18.828125 43.109375 
Q 14.796875 37.75 14.796875 27.984375 
Q 14.796875 18.265625 18.828125 12.890625 
Q 22.859375 7.515625 30.078125 7.515625 
Q 37.359375 7.515625 41.375 12.890625 
Q 45.40625 18.265625 45.40625 27.984375 
z
M 54.390625 6.78125 
Q 54.390625 -7.171875 48.1875 -13.984375 
Q 42 -20.796875 29.203125 -20.796875 
Q 24.46875 -20.796875 20.265625 -20.09375 
Q 16.0625 -19.390625 12.109375 -17.921875 
L 12.109375 -9.1875 
Q 16.0625 -11.328125 19.921875 -12.34375 
Q 23.78125 -13.375 27.78125 -13.375 
Q 36.625 -13.375 41.015625 -8.765625 
Q 45.40625 -4.15625 45.40625 5.171875 
L 45.40625 9.625 
Q 42.625 4.78125 38.28125 2.390625 
Q 33.9375 0 27.875 0 
Q 17.828125 0 11.671875 7.65625 
Q 5.515625 15.328125 5.515625 27.984375 
Q 5.515625 40.671875 11.671875 48.328125 
Q 17.828125 56 27.875 56 
Q 33.9375 56 38.28125 53.609375 
Q 42.625 51.21875 45.40625 46.390625 
L 45.40625 54.6875 
L 54.390625 54.6875 
z
" id="DejaVuSans-67"/>
     <path d="M 8.5 21.578125 
L 8.5 54.6875 
L 17.484375 54.6875 
L 17.484375 21.921875 
Q 17.484375 14.15625 20.5 10.265625 
Q 23.53125 6.390625 29.59375 6.390625 
Q 36.859375 6.390625 41.078125 11.03125 
Q 45.3125 15.671875 45.3125 23.6875 
L 45.3125 54.6875 
L 54.296875 54.6875 
L 54.296875 0 
L 45.3125 0 
L 45.3125 8.40625 
Q 42.046875 3.421875 37.71875 1 
Q 33.40625 -1.421875 27.6875 -1.421875 
Q 18.265625 -1.421875 13.375 4.4375 
Q 8.5 10.296875 8.5 21.578125 
z
M 31.109375 56 
z
" id="DejaVuSans-75"/>
     <path d="M 4.890625 31.390625 
L 31.203125 31.390625 
L 31.203125 23.390625 
L 4.890625 23.390625 
z
" id="DejaVuSans-2d"/>
     <path d="M 30.609375 48.390625 
Q 23.390625 48.390625 19.1875 42.75 
Q 14.984375 37.109375 14.984375 27.296875 
Q 14.984375 17.484375 19.15625 11.84375 
Q 23.34375 6.203125 30.609375 6.203125 
Q 37.796875 6.203125 41.984375 11.859375 
Q 46.1875 17.53125 46.1875 27.296875 
Q 46.1875 37.015625 41.984375 42.703125 
Q 37.796875 48.390625 30.609375 48.390625 
z
M 30.609375 56 
Q 42.328125 56 49.015625 48.375 
Q 55.71875 40.765625 55.71875 27.296875 
Q 55.71875 13.875 49.015625 6.21875 
Q 42.328125 -1.421875 30.609375 -1.421875 
Q 18.84375 -1.421875 12.171875 6.21875 
Q 5.515625 13.875 5.515625 27.296875 
Q 5.515625 40.765625 12.171875 48.375 
Q 18.84375 56 30.609375 56 
z
" id="DejaVuSans-6f"/>
     <path d="M 37.109375 75.984375 
L 37.109375 68.5 
L 28.515625 68.5 
Q 23.6875 68.5 21.796875 66.546875 
Q 19.921875 64.59375 19.921875 59.515625 
L 19.921875 54.6875 
L 34.71875 54.6875 
L 34.71875 47.703125 
L 19.921875 47.703125 
L 19.921875 0 
L 10.890625 0 
L 10.890625 47.703125 
L 2.296875 47.703125 
L 2.296875 54.6875 
L 10.890625 54.6875 
L 10.890625 58.5 
Q 10.890625 67.625 15.140625 71.796875 
Q 19.390625 75.984375 28.609375 75.984375 
z
" id="DejaVuSans-66"/>
     <path d="M 54.890625 33.015625 
L 54.890625 0 
L 45.90625 0 
L 45.90625 32.71875 
Q 45.90625 40.484375 42.875 44.328125 
Q 39.84375 48.1875 33.796875 48.1875 
Q 26.515625 48.1875 22.3125 43.546875 
Q 18.109375 38.921875 18.109375 30.90625 
L 18.109375 0 
L 9.078125 0 
L 9.078125 54.6875 
L 18.109375 54.6875 
L 18.109375 46.1875 
Q 21.34375 51.125 25.703125 53.5625 
Q 30.078125 56 35.796875 56 
Q 45.21875 56 50.046875 50.171875 
Q 54.890625 44.34375 54.890625 33.015625 
z
" id="DejaVuSans-6e"/>
     <path d="M 45.40625 46.390625 
L 45.40625 75.984375 
L 54.390625 75.984375 
L 54.390625 0 
L 45.40625 0 
L 45.40625 8.203125 
Q 42.578125 3.328125 38.25 0.953125 
Q 33.9375 -1.421875 27.875 -1.421875 
Q 17.96875 -1.421875 11.734375 6.484375 
Q 5.515625 14.40625 5.515625 27.296875 
Q 5.515625 40.1875 11.734375 48.09375 
Q 17.96875 56 27.875 56 
Q 33.9375 56 38.25 53.625 
Q 42.578125 51.265625 45.40625 46.390625 
z
M 14.796875 27.296875 
Q 14.796875 17.390625 18.875 11.75 
Q 22.953125 6.109375 30.078125 6.109375 
Q 37.203125 6.109375 41.296875 11.75 
Q 45.40625 17.390625 45.40625 27.296875 
Q 45.40625 37.203125 41.296875 42.84375 
Q 37.203125 48.484375 30.078125 48.484375 
Q 22.953125 48.484375 18.875 42.84375 
Q 14.796875 37.203125 14.796875 27.296875 
z
" id="DejaVuSans-64"/>
     <path d="M 44.28125 53.078125 
L 44.28125 44.578125 
Q 40.484375 46.53125 36.375 47.5 
Q 32.28125 48.484375 27.875 48.484375 
Q 21.1875 48.484375 17.84375 46.4375 
Q 14.5 44.390625 14.5 40.28125 
Q 14.5 37.15625 16.890625 35.375 
Q 19.28125 33.59375 26.515625 31.984375 
L 29.59375 31.296875 
Q 39.15625 29.25 43.1875 25.515625 
Q 47.21875 21.78125 47.21875 15.09375 
Q 47.21875 7.46875 41.1875 3.015625 
Q 35.15625 -1.421875 24.609375 -1.421875 
Q 20.21875 -1.421875 15.453125 -0.5625 
Q 10.6875 0.296875 5.421875 2 
L 5.421875 11.28125 
Q 10.40625 8.6875 15.234375 7.390625 
Q 20.0625 6.109375 24.8125 6.109375 
Q 31.15625 6.109375 34.5625 8.28125 
Q 37.984375 10.453125 37.984375 14.40625 
Q 37.984375 18.0625 35.515625 20.015625 
Q 33.0625 21.96875 24.703125 23.78125 
L 21.578125 24.515625 
Q 13.234375 26.265625 9.515625 29.90625 
Q 5.8125 33.546875 5.8125 39.890625 
Q 5.8125 47.609375 11.28125 51.796875 
Q 16.75 56 26.8125 56 
Q 31.78125 56 36.171875 55.265625 
Q 40.578125 54.546875 44.28125 53.078125 
z
" id="DejaVuSans-73"/>
     <path d="M 19.671875 64.796875 
L 19.671875 8.109375 
L 31.59375 8.109375 
Q 46.6875 8.109375 53.6875 14.9375 
Q 60.6875 21.78125 60.6875 36.53125 
Q 60.6875 51.171875 53.6875 57.984375 
Q 46.6875 64.796875 31.59375 64.796875 
z
M 9.8125 72.90625 
L 30.078125 72.90625 
Q 51.265625 72.90625 61.171875 64.09375 
Q 71.09375 55.28125 71.09375 36.53125 
Q 71.09375 17.671875 61.125 8.828125 
Q 51.171875 0 30.078125 0 
L 9.8125 0 
z
" id="DejaVuSans-44"/>
     <path d="M 18.3125 70.21875 
L 18.3125 54.6875 
L 36.8125 54.6875 
L 36.8125 47.703125 
L 18.3125 47.703125 
L 18.3125 18.015625 
Q 18.3125 11.328125 20.140625 9.421875 
Q 21.96875 7.515625 27.59375 7.515625 
L 36.8125 7.515625 
L 36.8125 0 
L 27.59375 0 
Q 17.1875 0 13.234375 3.875 
Q 9.28125 7.765625 9.28125 18.015625 
L 9.28125 47.703125 
L 2.6875 47.703125 
L 2.6875 54.6875 
L 9.28125 54.6875 
L 9.28125 70.21875 
z
" id="DejaVuSans-74"/>
     <path d="M 54.890625 33.015625 
L 54.890625 0 
L 45.90625 0 
L 45.90625 32.71875 
Q 45.90625 40.484375 42.875 44.328125 
Q 39.84375 48.1875 33.796875 48.1875 
Q 26.515625 48.1875 22.3125 43.546875 
Q 18.109375 38.921875 18.109375 30.90625 
L 18.109375 0 
L 9.078125 0 
L 9.078125 75.984375 
L 18.109375 75.984375 
L 18.109375 46.1875 
Q 21.34375 51.125 25.703125 53.5625 
Q 30.078125 56 35.796875 56 
Q 45.21875 56 50.046875 50.171875 
Q 54.890625 44.34375 54.890625 33.015625 
z
" id="DejaVuSans-68"/>
     <path d="M 19.671875 64.796875 
L 19.671875 37.40625 
L 32.078125 37.40625 
Q 38.96875 37.40625 42.71875 40.96875 
Q 46.484375 44.53125 46.484375 51.125 
Q 46.484375 57.671875 42.71875 61.234375 
Q 38.96875 64.796875 32.078125 64.796875 
z
M 9.8125 72.90625 
L 32.078125 72.90625 
Q 44.34375 72.90625 50.609375 67.359375 
Q 56.890625 61.8125 56.890625 51.125 
Q 56.890625 40.328125 50.609375 34.8125 
Q 44.34375 29.296875 32.078125 29.296875 
L 19.671875 29.296875 
L 19.671875 0 
L 9.8125 0 
z
" id="DejaVuSans-50"/>
     <path d="M 9.421875 54.6875 
L 18.40625 54.6875 
L 18.40625 0 
L 9.421875 0 
z
M 9.421875 75.984375 
L 18.40625 75.984375 
L 18.40625 64.59375 
L 9.421875 64.59375 
z
" id="DejaVuSans-69"/>
     <path id="DejaVuSans-20"/>
     <path d="M 9.8125 72.90625 
L 23.09375 72.90625 
L 55.421875 11.921875 
L 55.421875 72.90625 
L 64.984375 72.90625 
L 64.984375 0 
L 51.703125 0 
L 19.390625 60.984375 
L 19.390625 0 
L 9.8125 0 
z
" id="DejaVuSans-4e"/>
     <path d="M 34.1875 63.1875 
L 20.796875 26.90625 
L 47.609375 26.90625 
z
M 28.609375 72.90625 
L 39.796875 72.90625 
L 67.578125 0 
L 57.328125 0 
L 50.6875 18.703125 
L 17.828125 18.703125 
L 11.1875 0 
L 0.78125 0 
z
" id="DejaVuSans-41"/>
     <path d="M 64.40625 67.28125 
L 64.40625 56.890625 
Q 59.421875 61.53125 53.78125 63.8125 
Q 48.140625 66.109375 41.796875 66.109375 
Q 29.296875 66.109375 22.65625 58.46875 
Q 16.015625 50.828125 16.015625 36.375 
Q 16.015625 21.96875 22.65625 14.328125 
Q 29.296875 6.6875 41.796875 6.6875 
Q 48.140625 6.6875 53.78125 8.984375 
Q 59.421875 11.28125 64.40625 15.921875 
L 64.40625 5.609375 
Q 59.234375 2.09375 53.4375 0.328125 
Q 47.65625 -1.421875 41.21875 -1.421875 
Q 24.65625 -1.421875 15.125 8.703125 
Q 5.609375 18.84375 5.609375 36.375 
Q 5.609375 53.953125 15.125 64.078125 
Q 24.65625 74.21875 41.21875 74.21875 
Q 47.75 74.21875 53.53125 72.484375 
Q 59.328125 70.75 64.40625 67.28125 
z
" id="DejaVuSans-43"/>
     <path d="M 53.515625 70.515625 
L 53.515625 60.890625 
Q 47.90625 63.578125 42.921875 64.890625 
Q 37.9375 66.21875 33.296875 66.21875 
Q 25.25 66.21875 20.875 63.09375 
Q 16.5 59.96875 16.5 54.203125 
Q 16.5 49.359375 19.40625 46.890625 
Q 22.3125 44.4375 30.421875 42.921875 
L 36.375 41.703125 
Q 47.40625 39.59375 52.65625 34.296875 
Q 57.90625 29 57.90625 20.125 
Q 57.90625 9.515625 50.796875 4.046875 
Q 43.703125 -1.421875 29.984375 -1.421875 
Q 24.8125 -1.421875 18.96875 -0.25 
Q 13.140625 0.921875 6.890625 3.21875 
L 6.890625 13.375 
Q 12.890625 10.015625 18.65625 8.296875 
Q 24.421875 6.59375 29.984375 6.59375 
Q 38.421875 6.59375 43.015625 9.90625 
Q 47.609375 13.234375 47.609375 19.390625 
Q 47.609375 24.75 44.3125 27.78125 
Q 41.015625 30.8125 33.5 32.328125 
L 27.484375 33.5 
Q 16.453125 35.6875 11.515625 40.375 
Q 6.59375 45.0625 6.59375 53.421875 
Q 6.59375 63.09375 13.40625 68.65625 
Q 20.21875 74.21875 32.171875 74.21875 
Q 37.3125 74.21875 42.625 73.28125 
Q 47.953125 72.359375 53.515625 70.515625 
z
" id="DejaVuSans-53"/>
     <path d="M 48.6875 27.296875 
Q 48.6875 37.203125 44.609375 42.84375 
Q 40.53125 48.484375 33.40625 48.484375 
Q 26.265625 48.484375 22.1875 42.84375 
Q 18.109375 37.203125 18.109375 27.296875 
Q 18.109375 17.390625 22.1875 11.75 
Q 26.265625 6.109375 33.40625 6.109375 
Q 40.53125 6.109375 44.609375 11.75 
Q 48.6875 17.390625 48.6875 27.296875 
z
M 18.109375 46.390625 
Q 20.953125 51.265625 25.265625 53.625 
Q 29.59375 56 35.59375 56 
Q 45.5625 56 51.78125 48.09375 
Q 58.015625 40.1875 58.015625 27.296875 
Q 58.015625 14.40625 51.78125 6.484375 
Q 45.5625 -1.421875 35.59375 -1.421875 
Q 29.59375 -1.421875 25.265625 0.953125 
Q 20.953125 3.328125 18.109375 8.203125 
L 18.109375 0 
L 9.078125 0 
L 9.078125 75.984375 
L 18.109375 75.984375 
z
" id="DejaVuSans-62"/>
     <path d="M 41.109375 46.296875 
Q 39.59375 47.171875 37.8125 47.578125 
Q 36.03125 48 33.890625 48 
Q 26.265625 48 22.1875 43.046875 
Q 18.109375 38.09375 18.109375 28.8125 
L 18.109375 0 
L 9.078125 0 
L 9.078125 54.6875 
L 18.109375 54.6875 
L 18.109375 46.1875 
Q 20.953125 51.171875 25.484375 53.578125 
Q 30.03125 56 36.53125 56 
Q 37.453125 56 38.578125 55.875 
Q 39.703125 55.765625 41.0625 55.515625 
z
" id="DejaVuSans-72"/>
     <path d="M 52 44.1875 
Q 55.375 50.25 60.0625 53.125 
Q 64.75 56 71.09375 56 
Q 79.640625 56 84.28125 50.015625 
Q 88.921875 44.046875 88.921875 33.015625 
L 88.921875 0 
L 79.890625 0 
L 79.890625 32.71875 
Q 79.890625 40.578125 77.09375 44.375 
Q 74.3125 48.1875 68.609375 48.1875 
Q 61.625 48.1875 57.5625 43.546875 
Q 53.515625 38.921875 53.515625 30.90625 
L 53.515625 0 
L 44.484375 0 
L 44.484375 32.71875 
Q 44.484375 40.625 41.703125 44.40625 
Q 38.921875 48.1875 33.109375 48.1875 
Q 26.21875 48.1875 22.15625 43.53125 
Q 18.109375 38.875 18.109375 30.90625 
L 18.109375 0 
L 9.078125 0 
L 9.078125 54.6875 
L 18.109375 54.6875 
L 18.109375 46.1875 
Q 21.1875 51.21875 25.484375 53.609375 
Q 29.78125 56 35.6875 56 
Q 41.65625 56 45.828125 52.96875 
Q 50 49.953125 52 44.1875 
z
" id="DejaVuSans-6d"/>
    </defs>
    <g transform="translate(9.15525 19.00155)scale(0.144 -0.144)">
     <use xlink:href="#DejaVuSans-4c"/>
     <use x="55.697266" xlink:href="#DejaVuSans-65"/>
     <use x="117.220703" xlink:href="#DejaVuSans-61"/>
     <use x="178.5" xlink:href="#DejaVuSans-67"/>
     <use x="241.976562" xlink:href="#DejaVuSans-75"/>
     <use x="305.355469" xlink:href="#DejaVuSans-65"/>
     <use x="366.878906" xlink:href="#DejaVuSans-2d"/>
     <use x="402.978516" xlink:href="#DejaVuSans-6f"/>
     <use x="464.160156" xlink:href="#DejaVuSans-66"/>
     <use x="499.287109" xlink:href="#DejaVuSans-2d"/>
     <use x="535.371094" xlink:href="#DejaVuSans-4c"/>
     <use x="591.068359" xlink:href="#DejaVuSans-65"/>
     <use x="652.591797" xlink:href="#DejaVuSans-67"/>
     <use x="716.068359" xlink:href="#DejaVuSans-65"/>
     <use x="777.591797" xlink:href="#DejaVuSans-6e"/>
     <use x="840.970703" xlink:href="#DejaVuSans-64"/>
     <use x="904.447266" xlink:href="#DejaVuSans-73"/>
     <use x="956.546875" xlink:href="#DejaVuSans-2d"/>
     <use x="992.630859" xlink:href="#DejaVuSans-44"/>
     <use x="1069.632812" xlink:href="#DejaVuSans-65"/>
     <use x="1131.15625" xlink:href="#DejaVuSans-61"/>
     <use x="1192.435547" xlink:href="#DejaVuSans-74"/>
     <use x="1231.644531" xlink:href="#DejaVuSans-68"/>
     <use x="1295.023438" xlink:href="#DejaVuSans-2d"/>
     <use x="1331.107422" xlink:href="#DejaVuSans-50"/>
     <use x="1391.363281" xlink:href="#DejaVuSans-6f"/>
     <use x="1452.544922" xlink:href="#DejaVuSans-69"/>
     <use x="1480.328125" xlink:href="#DejaVuSans-6e"/>
     <use x="1543.707031" xlink:href="#DejaVuSans-74"/>
     <use x="1582.916016" xlink:href="#DejaVuSans-20"/>
     <use x="1614.703125" xlink:href="#DejaVuSans-4e"/>
     <use x="1689.507812" xlink:href="#DejaVuSans-41"/>
     <use x="1757.916016" xlink:href="#DejaVuSans-4c"/>
     <use x="1813.628906" xlink:href="#DejaVuSans-43"/>
     <use x="1883.453125" xlink:href="#DejaVuSans-53"/>
     <use x="1946.929688" xlink:href="#DejaVuSans-32"/>
     <use x="2010.552734" xlink:href="#DejaVuSans-30"/>
     <use x="2074.175781" xlink:href="#DejaVuSans-31"/>
     <use x="2137.798828" xlink:href="#DejaVuSans-38"/>
     <use x="2201.421875" xlink:href="#DejaVuSans-20"/>
     <use x="2233.208984" xlink:href="#DejaVuSans-62"/>
     <use x="2296.685547" xlink:href="#DejaVuSans-65"/>
     <use x="2358.208984" xlink:href="#DejaVuSans-66"/>
     <use x="2393.414062" xlink:href="#DejaVuSans-6f"/>
     <use x="2454.595703" xlink:href="#DejaVuSans-72"/>
     <use x="2495.677734" xlink:href="#DejaVuSans-65"/>
     <use x="2557.201172" xlink:href="#DejaVuSans-20"/>
     <use x="2588.988281" xlink:href="#DejaVuSans-32"/>
     <use x="2652.611328" xlink:href="#DejaVuSans-30"/>
     <use x="2716.234375" xlink:href="#DejaVuSans-20"/>
     <use x="2748.021484" xlink:href="#DejaVuSans-6d"/>
     <use x="2845.433594" xlink:href="#DejaVuSans-69"/>
     <use x="2873.216797" xlink:href="#DejaVuSans-6e"/>
     <use x="2936.595703" xlink:href="#DejaVuSans-75"/>
     <use x="2999.974609" xlink:href="#DejaVuSans-74"/>
     <use x="3039.183594" xlink:href="#DejaVuSans-65"/>
     <use x="3100.707031" xlink:href="#DejaVuSans-73"/>
    </g>
    <!-- Total Kills = 262 -->
    <defs>
     <path d="M -0.296875 72.90625 
L 61.375 72.90625 
L 61.375 64.59375 
L 35.5 64.59375 
L 35.5 0 
L 25.59375 0 
L 25.59375 64.59375 
L -0.296875 64.59375 
z
" id="DejaVuSans-54"/>
     <path d="M 9.421875 75.984375 
L 18.40625 75.984375 
L 18.40625 0 
L 9.421875 0 
z
" id="DejaVuSans-6c"/>
     <path d="M 9.8125 72.90625 
L 19.671875 72.90625 
L 19.671875 42.09375 
L 52.390625 72.90625 
L 65.09375 72.90625 
L 28.90625 38.921875 
L 67.671875 0 
L 54.6875 0 
L 19.671875 35.109375 
L 19.671875 0 
L 9.8125 0 
z
" id="DejaVuSans-4b"/>
     <path d="M 10.59375 45.40625 
L 73.1875 45.40625 
L 73.1875 37.203125 
L 10.59375 37.203125 
z
M 10.59375 25.484375 
L 73.1875 25.484375 
L 73.1875 17.1875 
L 10.59375 17.1875 
z
" id="DejaVuSans-3d"/>
    </defs>
    <g transform="translate(177.026625 35.1264)scale(0.144 -0.144)">
     <use xlink:href="#DejaVuSans-54"/>
     <use x="60.818359" xlink:href="#DejaVuSans-6f"/>
     <use x="122" xlink:href="#DejaVuSans-74"/>
     <use x="161.208984" xlink:href="#DejaVuSans-61"/>
     <use x="222.488281" xlink:href="#DejaVuSans-6c"/>
     <use x="250.271484" xlink:href="#DejaVuSans-20"/>
     <use x="282.058594" xlink:href="#DejaVuSans-4b"/>
     <use x="347.634766" xlink:href="#DejaVuSans-69"/>
     <use x="375.417969" xlink:href="#DejaVuSans-6c"/>
     <use x="403.201172" xlink:href="#DejaVuSans-6c"/>
     <use x="430.984375" xlink:href="#DejaVuSans-73"/>
     <use x="483.083984" xlink:href="#DejaVuSans-20"/>
     <use x="514.871094" xlink:href="#DejaVuSans-3d"/>
     <use x="598.660156" xlink:href="#DejaVuSans-20"/>
     <use x="630.447266" xlink:href="#DejaVuSans-32"/>
     <use x="694.070312" xlink:href="#DejaVuSans-36"/>
     <use x="757.693359" xlink:href="#DejaVuSans-32"/>
    </g>
   </g>
  </g>
 </g>
 <defs>
  <clipPath id="pba02287036">
   <rect height="263.8944" width="357.12" x="57.6" y="41.1264"/>
  </clipPath>
 </defs>
</svg>
