<?xml version="1.0" encoding="utf-8" standalone="no"?>
<!DOCTYPE svg PUBLIC "-//W3C//DTD SVG 1.1//EN"
  "http://www.w3.org/Graphics/SVG/1.1/DTD/svg11.dtd">
<!-- Created with matplotlib (http://matplotlib.org/) -->
<svg height="342.72pt" version="1.1" viewBox="0 0 460.8 342.72" width="460.8pt" xmlns="http://www.w3.org/2000/svg" xmlns:xlink="http://www.w3.org/1999/xlink">
 <defs>
  <style type="text/css">
*{stroke-linecap:butt;stroke-linejoin:round;}
  </style>
 </defs>
 <g id="figure_1">
  <g id="patch_1">
   <path d="M 0 342.72 
L 460.8 342.72 
L 460.8 0 
L 0 0 
z
" style="fill:#ffffff;"/>
  </g>
  <g id="axes_1">
   <g id="patch_2">
    <path d="M 57.6 305.0208 
L 414.72 305.0208 
L 414.72 41.1264 
L 57.6 41.1264 
z
" style="fill:#e5e5e5;"/>
   </g>
   <g id="matplotlib.axis_1">
    <g id="xtick_1">
     <g id="line2d_1">
      <path clip-path="url(#p361e4df387)" d="M 100.468914 305.0208 
L 100.468914 41.1264 
" style="fill:none;stroke:#ffffff;stroke-linecap:square;stroke-width:0.8;"/>
     </g>
     <g id="line2d_2">
      <defs>
       <path d="M 0 0 
L 0 3.5 
" id="m70480d77b1" style="stroke:#555555;stroke-width:0.8;"/>
      </defs>
      <g>
       <use style="fill:#555555;stroke:#555555;stroke-width:0.8;" x="100.468914" xlink:href="#m70480d77b1" y="305.0208"/>
      </g>
     </g>
     <g id="text_1">
      <!-- 2000 -->
      <defs>
       <path d="M 19.1875 8.296875 
L 53.609375 8.296875 
L 53.609375 0 
L 7.328125 0 
L 7.328125 8.296875 
Q 12.9375 14.109375 22.625 23.890625 
Q 32.328125 33.6875 34.8125 36.53125 
Q 39.546875 41.84375 41.421875 45.53125 
Q 43.3125 49.21875 43.3125 52.78125 
Q 43.3125 58.59375 39.234375 62.25 
Q 35.15625 65.921875 28.609375 65.921875 
Q 23.96875 65.921875 18.8125 64.3125 
Q 13.671875 62.703125 7.8125 59.421875 
L 7.8125 69.390625 
Q 13.765625 71.78125 18.9375 73 
Q 24.125 74.21875 28.421875 74.21875 
Q 39.75 74.21875 46.484375 68.546875 
Q 53.21875 62.890625 53.21875 53.421875 
Q 53.21875 48.921875 51.53125 44.890625 
Q 49.859375 40.875 45.40625 35.40625 
Q 44.1875 33.984375 37.640625 27.21875 
Q 31.109375 20.453125 19.1875 8.296875 
z
" id="DejaVuSans-32"/>
       <path d="M 31.78125 66.40625 
Q 24.171875 66.40625 20.328125 58.90625 
Q 16.5 51.421875 16.5 36.375 
Q 16.5 21.390625 20.328125 13.890625 
Q 24.171875 6.390625 31.78125 6.390625 
Q 39.453125 6.390625 43.28125 13.890625 
Q 47.125 21.390625 47.125 36.375 
Q 47.125 51.421875 43.28125 58.90625 
Q 39.453125 66.40625 31.78125 66.40625 
z
M 31.78125 74.21875 
Q 44.046875 74.21875 50.515625 64.515625 
Q 56.984375 54.828125 56.984375 36.375 
Q 56.984375 17.96875 50.515625 8.265625 
Q 44.046875 -1.421875 31.78125 -1.421875 
Q 19.53125 -1.421875 13.0625 8.265625 
Q 6.59375 17.96875 6.59375 36.375 
Q 6.59375 54.828125 13.0625 64.515625 
Q 19.53125 74.21875 31.78125 74.21875 
z
" id="DejaVuSans-30"/>
      </defs>
      <g style="fill:#555555;" transform="translate(87.743914 319.619237)scale(0.1 -0.1)">
       <use xlink:href="#DejaVuSans-32"/>
       <use x="63.623047" xlink:href="#DejaVuSans-30"/>
       <use x="127.246094" xlink:href="#DejaVuSans-30"/>
       <use x="190.869141" xlink:href="#DejaVuSans-30"/>
      </g>
     </g>
    </g>
    <g id="xtick_2">
     <g id="line2d_3">
      <path clip-path="url(#p361e4df387)" d="M 149.932538 305.0208 
L 149.932538 41.1264 
" style="fill:none;stroke:#ffffff;stroke-linecap:square;stroke-width:0.8;"/>
     </g>
     <g id="line2d_4">
      <g>
       <use style="fill:#555555;stroke:#555555;stroke-width:0.8;" x="149.932538" xlink:href="#m70480d77b1" y="305.0208"/>
      </g>
     </g>
     <g id="text_2">
      <!-- 4000 -->
      <defs>
       <path d="M 37.796875 64.3125 
L 12.890625 25.390625 
L 37.796875 25.390625 
z
M 35.203125 72.90625 
L 47.609375 72.90625 
L 47.609375 25.390625 
L 58.015625 25.390625 
L 58.015625 17.1875 
L 47.609375 17.1875 
L 47.609375 0 
L 37.796875 0 
L 37.796875 17.1875 
L 4.890625 17.1875 
L 4.890625 26.703125 
z
" id="DejaVuSans-34"/>
      </defs>
      <g style="fill:#555555;" transform="translate(137.207538 319.619237)scale(0.1 -0.1)">
       <use xlink:href="#DejaVuSans-34"/>
       <use x="63.623047" xlink:href="#DejaVuSans-30"/>
       <use x="127.246094" xlink:href="#DejaVuSans-30"/>
       <use x="190.869141" xlink:href="#DejaVuSans-30"/>
      </g>
     </g>
    </g>
    <g id="xtick_3">
     <g id="line2d_5">
      <path clip-path="url(#p361e4df387)" d="M 199.396162 305.0208 
L 199.396162 41.1264 
" style="fill:none;stroke:#ffffff;stroke-linecap:square;stroke-width:0.8;"/>
     </g>
     <g id="line2d_6">
      <g>
       <use style="fill:#555555;stroke:#555555;stroke-width:0.8;" x="199.396162" xlink:href="#m70480d77b1" y="305.0208"/>
      </g>
     </g>
     <g id="text_3">
      <!-- 6000 -->
      <defs>
       <path d="M 33.015625 40.375 
Q 26.375 40.375 22.484375 35.828125 
Q 18.609375 31.296875 18.609375 23.390625 
Q 18.609375 15.53125 22.484375 10.953125 
Q 26.375 6.390625 33.015625 6.390625 
Q 39.65625 6.390625 43.53125 10.953125 
Q 47.40625 15.53125 47.40625 23.390625 
Q 47.40625 31.296875 43.53125 35.828125 
Q 39.65625 40.375 33.015625 40.375 
z
M 52.59375 71.296875 
L 52.59375 62.3125 
Q 48.875 64.0625 45.09375 64.984375 
Q 41.3125 65.921875 37.59375 65.921875 
Q 27.828125 65.921875 22.671875 59.328125 
Q 17.53125 52.734375 16.796875 39.40625 
Q 19.671875 43.65625 24.015625 45.921875 
Q 28.375 48.1875 33.59375 48.1875 
Q 44.578125 48.1875 50.953125 41.515625 
Q 57.328125 34.859375 57.328125 23.390625 
Q 57.328125 12.15625 50.6875 5.359375 
Q 44.046875 -1.421875 33.015625 -1.421875 
Q 20.359375 -1.421875 13.671875 8.265625 
Q 6.984375 17.96875 6.984375 36.375 
Q 6.984375 53.65625 15.1875 63.9375 
Q 23.390625 74.21875 37.203125 74.21875 
Q 40.921875 74.21875 44.703125 73.484375 
Q 48.484375 72.75 52.59375 71.296875 
z
" id="DejaVuSans-36"/>
      </defs>
      <g style="fill:#555555;" transform="translate(186.671162 319.619237)scale(0.1 -0.1)">
       <use xlink:href="#DejaVuSans-36"/>
       <use x="63.623047" xlink:href="#DejaVuSans-30"/>
       <use x="127.246094" xlink:href="#DejaVuSans-30"/>
       <use x="190.869141" xlink:href="#DejaVuSans-30"/>
      </g>
     </g>
    </g>
    <g id="xtick_4">
     <g id="line2d_7">
      <path clip-path="url(#p361e4df387)" d="M 248.859785 305.0208 
L 248.859785 41.1264 
" style="fill:none;stroke:#ffffff;stroke-linecap:square;stroke-width:0.8;"/>
     </g>
     <g id="line2d_8">
      <g>
       <use style="fill:#555555;stroke:#555555;stroke-width:0.8;" x="248.859785" xlink:href="#m70480d77b1" y="305.0208"/>
      </g>
     </g>
     <g id="text_4">
      <!-- 8000 -->
      <defs>
       <path d="M 31.78125 34.625 
Q 24.75 34.625 20.71875 30.859375 
Q 16.703125 27.09375 16.703125 20.515625 
Q 16.703125 13.921875 20.71875 10.15625 
Q 24.75 6.390625 31.78125 6.390625 
Q 38.8125 6.390625 42.859375 10.171875 
Q 46.921875 13.96875 46.921875 20.515625 
Q 46.921875 27.09375 42.890625 30.859375 
Q 38.875 34.625 31.78125 34.625 
z
M 21.921875 38.8125 
Q 15.578125 40.375 12.03125 44.71875 
Q 8.5 49.078125 8.5 55.328125 
Q 8.5 64.0625 14.71875 69.140625 
Q 20.953125 74.21875 31.78125 74.21875 
Q 42.671875 74.21875 48.875 69.140625 
Q 55.078125 64.0625 55.078125 55.328125 
Q 55.078125 49.078125 51.53125 44.71875 
Q 48 40.375 41.703125 38.8125 
Q 48.828125 37.15625 52.796875 32.3125 
Q 56.78125 27.484375 56.78125 20.515625 
Q 56.78125 9.90625 50.3125 4.234375 
Q 43.84375 -1.421875 31.78125 -1.421875 
Q 19.734375 -1.421875 13.25 4.234375 
Q 6.78125 9.90625 6.78125 20.515625 
Q 6.78125 27.484375 10.78125 32.3125 
Q 14.796875 37.15625 21.921875 38.8125 
z
M 18.3125 54.390625 
Q 18.3125 48.734375 21.84375 45.5625 
Q 25.390625 42.390625 31.78125 42.390625 
Q 38.140625 42.390625 41.71875 45.5625 
Q 45.3125 48.734375 45.3125 54.390625 
Q 45.3125 60.0625 41.71875 63.234375 
Q 38.140625 66.40625 31.78125 66.40625 
Q 25.390625 66.40625 21.84375 63.234375 
Q 18.3125 60.0625 18.3125 54.390625 
z
" id="DejaVuSans-38"/>
      </defs>
      <g style="fill:#555555;" transform="translate(236.134785 319.619237)scale(0.1 -0.1)">
       <use xlink:href="#DejaVuSans-38"/>
       <use x="63.623047" xlink:href="#DejaVuSans-30"/>
       <use x="127.246094" xlink:href="#DejaVuSans-30"/>
       <use x="190.869141" xlink:href="#DejaVuSans-30"/>
      </g>
     </g>
    </g>
    <g id="xtick_5">
     <g id="line2d_9">
      <path clip-path="url(#p361e4df387)" d="M 298.323409 305.0208 
L 298.323409 41.1264 
" style="fill:none;stroke:#ffffff;stroke-linecap:square;stroke-width:0.8;"/>
     </g>
     <g id="line2d_10">
      <g>
       <use style="fill:#555555;stroke:#555555;stroke-width:0.8;" x="298.323409" xlink:href="#m70480d77b1" y="305.0208"/>
      </g>
     </g>
     <g id="text_5">
      <!-- 10000 -->
      <defs>
       <path d="M 12.40625 8.296875 
L 28.515625 8.296875 
L 28.515625 63.921875 
L 10.984375 60.40625 
L 10.984375 69.390625 
L 28.421875 72.90625 
L 38.28125 72.90625 
L 38.28125 8.296875 
L 54.390625 8.296875 
L 54.390625 0 
L 12.40625 0 
z
" id="DejaVuSans-31"/>
      </defs>
      <g style="fill:#555555;" transform="translate(282.417159 319.619237)scale(0.1 -0.1)">
       <use xlink:href="#DejaVuSans-31"/>
       <use x="63.623047" xlink:href="#DejaVuSans-30"/>
       <use x="127.246094" xlink:href="#DejaVuSans-30"/>
       <use x="190.869141" xlink:href="#DejaVuSans-30"/>
       <use x="254.492188" xlink:href="#DejaVuSans-30"/>
      </g>
     </g>
    </g>
    <g id="xtick_6">
     <g id="line2d_11">
      <path clip-path="url(#p361e4df387)" d="M 347.787033 305.0208 
L 347.787033 41.1264 
" style="fill:none;stroke:#ffffff;stroke-linecap:square;stroke-width:0.8;"/>
     </g>
     <g id="line2d_12">
      <g>
       <use style="fill:#555555;stroke:#555555;stroke-width:0.8;" x="347.787033" xlink:href="#m70480d77b1" y="305.0208"/>
      </g>
     </g>
     <g id="text_6">
      <!-- 12000 -->
      <g style="fill:#555555;" transform="translate(331.880783 319.619237)scale(0.1 -0.1)">
       <use xlink:href="#DejaVuSans-31"/>
       <use x="63.623047" xlink:href="#DejaVuSans-32"/>
       <use x="127.246094" xlink:href="#DejaVuSans-30"/>
       <use x="190.869141" xlink:href="#DejaVuSans-30"/>
       <use x="254.492188" xlink:href="#DejaVuSans-30"/>
      </g>
     </g>
    </g>
    <g id="xtick_7">
     <g id="line2d_13">
      <path clip-path="url(#p361e4df387)" d="M 397.250657 305.0208 
L 397.250657 41.1264 
" style="fill:none;stroke:#ffffff;stroke-linecap:square;stroke-width:0.8;"/>
     </g>
     <g id="line2d_14">
      <g>
       <use style="fill:#555555;stroke:#555555;stroke-width:0.8;" x="397.250657" xlink:href="#m70480d77b1" y="305.0208"/>
      </g>
     </g>
     <g id="text_7">
      <!-- 14000 -->
      <g style="fill:#555555;" transform="translate(381.344407 319.619237)scale(0.1 -0.1)">
       <use xlink:href="#DejaVuSans-31"/>
       <use x="63.623047" xlink:href="#DejaVuSans-34"/>
       <use x="127.246094" xlink:href="#DejaVuSans-30"/>
       <use x="190.869141" xlink:href="#DejaVuSans-30"/>
       <use x="254.492188" xlink:href="#DejaVuSans-30"/>
      </g>
     </g>
    </g>
   </g>
   <g id="matplotlib.axis_2">
    <g id="ytick_1">
     <g id="line2d_15">
      <path clip-path="url(#p361e4df387)" d="M 57.6 273.004918 
L 414.72 273.004918 
" style="fill:none;stroke:#ffffff;stroke-linecap:square;stroke-width:0.8;"/>
     </g>
     <g id="line2d_16">
      <defs>
       <path d="M 0 0 
L -3.5 0 
" id="mad13cc918e" style="stroke:#555555;stroke-width:0.8;"/>
      </defs>
      <g>
       <use style="fill:#555555;stroke:#555555;stroke-width:0.8;" x="57.6" xlink:href="#mad13cc918e" y="273.004918"/>
      </g>
     </g>
     <g id="text_8">
      <!-- 2000 -->
      <g style="fill:#555555;" transform="translate(25.15 276.804137)scale(0.1 -0.1)">
       <use xlink:href="#DejaVuSans-32"/>
       <use x="63.623047" xlink:href="#DejaVuSans-30"/>
       <use x="127.246094" xlink:href="#DejaVuSans-30"/>
       <use x="190.869141" xlink:href="#DejaVuSans-30"/>
      </g>
     </g>
    </g>
    <g id="ytick_2">
     <g id="line2d_17">
      <path clip-path="url(#p361e4df387)" d="M 57.6 236.801198 
L 414.72 236.801198 
" style="fill:none;stroke:#ffffff;stroke-linecap:square;stroke-width:0.8;"/>
     </g>
     <g id="line2d_18">
      <g>
       <use style="fill:#555555;stroke:#555555;stroke-width:0.8;" x="57.6" xlink:href="#mad13cc918e" y="236.801198"/>
      </g>
     </g>
     <g id="text_9">
      <!-- 4000 -->
      <g style="fill:#555555;" transform="translate(25.15 240.600417)scale(0.1 -0.1)">
       <use xlink:href="#DejaVuSans-34"/>
       <use x="63.623047" xlink:href="#DejaVuSans-30"/>
       <use x="127.246094" xlink:href="#DejaVuSans-30"/>
       <use x="190.869141" xlink:href="#DejaVuSans-30"/>
      </g>
     </g>
    </g>
    <g id="ytick_3">
     <g id="line2d_19">
      <path clip-path="url(#p361e4df387)" d="M 57.6 200.597478 
L 414.72 200.597478 
" style="fill:none;stroke:#ffffff;stroke-linecap:square;stroke-width:0.8;"/>
     </g>
     <g id="line2d_20">
      <g>
       <use style="fill:#555555;stroke:#555555;stroke-width:0.8;" x="57.6" xlink:href="#mad13cc918e" y="200.597478"/>
      </g>
     </g>
     <g id="text_10">
      <!-- 6000 -->
      <g style="fill:#555555;" transform="translate(25.15 204.396697)scale(0.1 -0.1)">
       <use xlink:href="#DejaVuSans-36"/>
       <use x="63.623047" xlink:href="#DejaVuSans-30"/>
       <use x="127.246094" xlink:href="#DejaVuSans-30"/>
       <use x="190.869141" xlink:href="#DejaVuSans-30"/>
      </g>
     </g>
    </g>
    <g id="ytick_4">
     <g id="line2d_21">
      <path clip-path="url(#p361e4df387)" d="M 57.6 164.393758 
L 414.72 164.393758 
" style="fill:none;stroke:#ffffff;stroke-linecap:square;stroke-width:0.8;"/>
     </g>
     <g id="line2d_22">
      <g>
       <use style="fill:#555555;stroke:#555555;stroke-width:0.8;" x="57.6" xlink:href="#mad13cc918e" y="164.393758"/>
      </g>
     </g>
     <g id="text_11">
      <!-- 8000 -->
      <g style="fill:#555555;" transform="translate(25.15 168.192977)scale(0.1 -0.1)">
       <use xlink:href="#DejaVuSans-38"/>
       <use x="63.623047" xlink:href="#DejaVuSans-30"/>
       <use x="127.246094" xlink:href="#DejaVuSans-30"/>
       <use x="190.869141" xlink:href="#DejaVuSans-30"/>
      </g>
     </g>
    </g>
    <g id="ytick_5">
     <g id="line2d_23">
      <path clip-path="url(#p361e4df387)" d="M 57.6 128.190038 
L 414.72 128.190038 
" style="fill:none;stroke:#ffffff;stroke-linecap:square;stroke-width:0.8;"/>
     </g>
     <g id="line2d_24">
      <g>
       <use style="fill:#555555;stroke:#555555;stroke-width:0.8;" x="57.6" xlink:href="#mad13cc918e" y="128.190038"/>
      </g>
     </g>
     <g id="text_12">
      <!-- 10000 -->
      <g style="fill:#555555;" transform="translate(18.7875 131.989257)scale(0.1 -0.1)">
       <use xlink:href="#DejaVuSans-31"/>
       <use x="63.623047" xlink:href="#DejaVuSans-30"/>
       <use x="127.246094" xlink:href="#DejaVuSans-30"/>
       <use x="190.869141" xlink:href="#DejaVuSans-30"/>
       <use x="254.492188" xlink:href="#DejaVuSans-30"/>
      </g>
     </g>
    </g>
    <g id="ytick_6">
     <g id="line2d_25">
      <path clip-path="url(#p361e4df387)" d="M 57.6 91.986318 
L 414.72 91.986318 
" style="fill:none;stroke:#ffffff;stroke-linecap:square;stroke-width:0.8;"/>
     </g>
     <g id="line2d_26">
      <g>
       <use style="fill:#555555;stroke:#555555;stroke-width:0.8;" x="57.6" xlink:href="#mad13cc918e" y="91.986318"/>
      </g>
     </g>
     <g id="text_13">
      <!-- 12000 -->
      <g style="fill:#555555;" transform="translate(18.7875 95.785537)scale(0.1 -0.1)">
       <use xlink:href="#DejaVuSans-31"/>
       <use x="63.623047" xlink:href="#DejaVuSans-32"/>
       <use x="127.246094" xlink:href="#DejaVuSans-30"/>
       <use x="190.869141" xlink:href="#DejaVuSans-30"/>
       <use x="254.492188" xlink:href="#DejaVuSans-30"/>
      </g>
     </g>
    </g>
    <g id="ytick_7">
     <g id="line2d_27">
      <path clip-path="url(#p361e4df387)" d="M 57.6 55.782598 
L 414.72 55.782598 
" style="fill:none;stroke:#ffffff;stroke-linecap:square;stroke-width:0.8;"/>
     </g>
     <g id="line2d_28">
      <g>
       <use style="fill:#555555;stroke:#555555;stroke-width:0.8;" x="57.6" xlink:href="#mad13cc918e" y="55.782598"/>
      </g>
     </g>
     <g id="text_14">
      <!-- 14000 -->
      <g style="fill:#555555;" transform="translate(18.7875 59.581817)scale(0.1 -0.1)">
       <use xlink:href="#DejaVuSans-31"/>
       <use x="63.623047" xlink:href="#DejaVuSans-34"/>
       <use x="127.246094" xlink:href="#DejaVuSans-30"/>
       <use x="190.869141" xlink:href="#DejaVuSans-30"/>
       <use x="254.492188" xlink:href="#DejaVuSans-30"/>
      </g>
     </g>
    </g>
   </g>
   <g id="PathCollection_1">
    <defs>
     <path d="M 0 0.5 
C 0.132602 0.5 0.25979 0.447317 0.353553 0.353553 
C 0.447317 0.25979 0.5 0.132602 0.5 0 
C 0.5 -0.132602 0.447317 -0.25979 0.353553 -0.353553 
C 0.25979 -0.447317 0.132602 -0.5 0 -0.5 
C -0.132602 -0.5 -0.25979 -0.447317 -0.353553 -0.353553 
C -0.447317 -0.25979 -0.5 -0.132602 -0.5 0 
C -0.5 0.132602 -0.447317 0.25979 -0.353553 0.353553 
C -0.25979 0.447317 -0.132602 0.5 0 0.5 
z
" id="m1ac144dd7e" style="stroke:#000000;stroke-width:0.5;"/>
    </defs>
    <g clip-path="url(#p361e4df387)">
     <use style="stroke:#000000;stroke-width:0.5;" x="124.607162" xlink:href="#m1ac144dd7e" y="81.342424"/>
     <use style="stroke:#000000;stroke-width:0.5;" x="201.127388" xlink:href="#m1ac144dd7e" y="143.341295"/>
     <use style="stroke:#000000;stroke-width:0.5;" x="183.81512" xlink:href="#m1ac144dd7e" y="139.340784"/>
     <use style="stroke:#000000;stroke-width:0.5;" x="192.2734" xlink:href="#m1ac144dd7e" y="81.016591"/>
     <use style="stroke:#000000;stroke-width:0.5;" x="170.806187" xlink:href="#m1ac144dd7e" y="130.923419"/>
     <use style="stroke:#000000;stroke-width:0.5;" x="156.684322" xlink:href="#m1ac144dd7e" y="139.30458"/>
     <use style="stroke:#000000;stroke-width:0.5;" x="250.961989" xlink:href="#m1ac144dd7e" y="154.238615"/>
     <use style="stroke:#000000;stroke-width:0.5;" x="238.101447" xlink:href="#m1ac144dd7e" y="201.140534"/>
     <use style="stroke:#000000;stroke-width:0.5;" x="398.487248" xlink:href="#m1ac144dd7e" y="147.57713"/>
     <use style="stroke:#000000;stroke-width:0.5;" x="183.914047" xlink:href="#m1ac144dd7e" y="72.382004"/>
     <use style="stroke:#000000;stroke-width:0.5;" x="188.637823" xlink:href="#m1ac144dd7e" y="79.133997"/>
     <use style="stroke:#000000;stroke-width:0.5;" x="168.135151" xlink:href="#m1ac144dd7e" y="132.842216"/>
     <use style="stroke:#000000;stroke-width:0.5;" x="161.16078" xlink:href="#m1ac144dd7e" y="138.671015"/>
     <use style="stroke:#000000;stroke-width:0.5;" x="134.771937" xlink:href="#m1ac144dd7e" y="140.644118"/>
     <use style="stroke:#000000;stroke-width:0.5;" x="127.080343" xlink:href="#m1ac144dd7e" y="161.00871"/>
     <use style="stroke:#000000;stroke-width:0.5;" x="278.439033" xlink:href="#m1ac144dd7e" y="130.289854"/>
     <use style="stroke:#000000;stroke-width:0.5;" x="281.555241" xlink:href="#m1ac144dd7e" y="131.104438"/>
     <use style="stroke:#000000;stroke-width:0.5;" x="262.289159" xlink:href="#m1ac144dd7e" y="127.683186"/>
     <use style="stroke:#000000;stroke-width:0.5;" x="88.152471" xlink:href="#m1ac144dd7e" y="288.536314"/>
     <use style="stroke:#000000;stroke-width:0.5;" x="349.345137" xlink:href="#m1ac144dd7e" y="180.287191"/>
     <use style="stroke:#000000;stroke-width:0.5;" x="259.29661" xlink:href="#m1ac144dd7e" y="149.984678"/>
     <use style="stroke:#000000;stroke-width:0.5;" x="303.269772" xlink:href="#m1ac144dd7e" y="121.311331"/>
     <use style="stroke:#000000;stroke-width:0.5;" x="272.206616" xlink:href="#m1ac144dd7e" y="108.169381"/>
     <use style="stroke:#000000;stroke-width:0.5;" x="267.532303" xlink:href="#m1ac144dd7e" y="153.333522"/>
     <use style="stroke:#000000;stroke-width:0.5;" x="268.99148" xlink:href="#m1ac144dd7e" y="56.470469"/>
     <use style="stroke:#000000;stroke-width:0.5;" x="348.875233" xlink:href="#m1ac144dd7e" y="71.802744"/>
     <use style="stroke:#000000;stroke-width:0.5;" x="350.952705" xlink:href="#m1ac144dd7e" y="65.557602"/>
     <use style="stroke:#000000;stroke-width:0.5;" x="355.602286" xlink:href="#m1ac144dd7e" y="74.934366"/>
     <use style="stroke:#000000;stroke-width:0.5;" x="287.293021" xlink:href="#m1ac144dd7e" y="147.758149"/>
     <use style="stroke:#000000;stroke-width:0.5;" x="90.427798" xlink:href="#m1ac144dd7e" y="122.614665"/>
     <use style="stroke:#000000;stroke-width:0.5;" x="199.989725" xlink:href="#m1ac144dd7e" y="137.603005"/>
     <use style="stroke:#000000;stroke-width:0.5;" x="250.343694" xlink:href="#m1ac144dd7e" y="110.59503"/>
     <use style="stroke:#000000;stroke-width:0.5;" x="122.084517" xlink:href="#m1ac144dd7e" y="104.114564"/>
     <use style="stroke:#000000;stroke-width:0.5;" x="122.282372" xlink:href="#m1ac144dd7e" y="102.485397"/>
     <use style="stroke:#000000;stroke-width:0.5;" x="300.054636" xlink:href="#m1ac144dd7e" y="209.340677"/>
     <use style="stroke:#000000;stroke-width:0.5;" x="180.94623" xlink:href="#m1ac144dd7e" y="135.340273"/>
     <use style="stroke:#000000;stroke-width:0.5;" x="195.018631" xlink:href="#m1ac144dd7e" y="139.539904"/>
     <use style="stroke:#000000;stroke-width:0.5;" x="232.858303" xlink:href="#m1ac144dd7e" y="125.746287"/>
     <use style="stroke:#000000;stroke-width:0.5;" x="135.959064" xlink:href="#m1ac144dd7e" y="117.618552"/>
     <use style="stroke:#000000;stroke-width:0.5;" x="328.149975" xlink:href="#m1ac144dd7e" y="276.009827"/>
     <use style="stroke:#000000;stroke-width:0.5;" x="361.265871" xlink:href="#m1ac144dd7e" y="280.897329"/>
     <use style="stroke:#000000;stroke-width:0.5;" x="356.739949" xlink:href="#m1ac144dd7e" y="255.69954"/>
     <use style="stroke:#000000;stroke-width:0.5;" x="385.305192" xlink:href="#m1ac144dd7e" y="264.497044"/>
     <use style="stroke:#000000;stroke-width:0.5;" x="382.485765" xlink:href="#m1ac144dd7e" y="265.474545"/>
     <use style="stroke:#000000;stroke-width:0.5;" x="171.226628" xlink:href="#m1ac144dd7e" y="158.402042"/>
     <use style="stroke:#000000;stroke-width:0.5;" x="237.260566" xlink:href="#m1ac144dd7e" y="163.850702"/>
     <use style="stroke:#000000;stroke-width:0.5;" x="253.28678" xlink:href="#m1ac144dd7e" y="162.402554"/>
     <use style="stroke:#000000;stroke-width:0.5;" x="397.943148" xlink:href="#m1ac144dd7e" y="128.98652"/>
     <use style="stroke:#000000;stroke-width:0.5;" x="292.907143" xlink:href="#m1ac144dd7e" y="61.267462"/>
     <use style="stroke:#000000;stroke-width:0.5;" x="290.706011" xlink:href="#m1ac144dd7e" y="58.769405"/>
     <use style="stroke:#000000;stroke-width:0.5;" x="305.742953" xlink:href="#m1ac144dd7e" y="64.85163"/>
     <use style="stroke:#000000;stroke-width:0.5;" x="294.217929" xlink:href="#m1ac144dd7e" y="58.678896"/>
     <use style="stroke:#000000;stroke-width:0.5;" x="80.510341" xlink:href="#m1ac144dd7e" y="143.3956"/>
     <use style="stroke:#000000;stroke-width:0.5;" x="377.36628" xlink:href="#m1ac144dd7e" y="140.499303"/>
     <use style="stroke:#000000;stroke-width:0.5;" x="288.579075" xlink:href="#m1ac144dd7e" y="60.706304"/>
     <use style="stroke:#000000;stroke-width:0.5;" x="225.982859" xlink:href="#m1ac144dd7e" y="173.408484"/>
     <use style="stroke:#000000;stroke-width:0.5;" x="204.218865" xlink:href="#m1ac144dd7e" y="123.592166"/>
     <use style="stroke:#000000;stroke-width:0.5;" x="211.638408" xlink:href="#m1ac144dd7e" y="99.69771"/>
     <use style="stroke:#000000;stroke-width:0.5;" x="228.134527" xlink:href="#m1ac144dd7e" y="103.58961"/>
     <use style="stroke:#000000;stroke-width:0.5;" x="226.601155" xlink:href="#m1ac144dd7e" y="103.064656"/>
     <use style="stroke:#000000;stroke-width:0.5;" x="210.080304" xlink:href="#m1ac144dd7e" y="104.892944"/>
     <use style="stroke:#000000;stroke-width:0.5;" x="202.265052" xlink:href="#m1ac144dd7e" y="105.472204"/>
     <use style="stroke:#000000;stroke-width:0.5;" x="191.1852" xlink:href="#m1ac144dd7e" y="103.716323"/>
     <use style="stroke:#000000;stroke-width:0.5;" x="169.594328" xlink:href="#m1ac144dd7e" y="117.727163"/>
     <use style="stroke:#000000;stroke-width:0.5;" x="179.511785" xlink:href="#m1ac144dd7e" y="117.60045"/>
     <use style="stroke:#000000;stroke-width:0.5;" x="183.122629" xlink:href="#m1ac144dd7e" y="122.415545"/>
     <use style="stroke:#000000;stroke-width:0.5;" x="310.689315" xlink:href="#m1ac144dd7e" y="217.341699"/>
     <use style="stroke:#000000;stroke-width:0.5;" x="282.074609" xlink:href="#m1ac144dd7e" y="229.650964"/>
     <use style="stroke:#000000;stroke-width:0.5;" x="321.373458" xlink:href="#m1ac144dd7e" y="85.415343"/>
     <use style="stroke:#000000;stroke-width:0.5;" x="375.931835" xlink:href="#m1ac144dd7e" y="82.681962"/>
     <use style="stroke:#000000;stroke-width:0.5;" x="200.632752" xlink:href="#m1ac144dd7e" y="103.58961"/>
     <use style="stroke:#000000;stroke-width:0.5;" x="227.615159" xlink:href="#m1ac144dd7e" y="106.685028"/>
     <use style="stroke:#000000;stroke-width:0.5;" x="195.587462" xlink:href="#m1ac144dd7e" y="102.412989"/>
     <use style="stroke:#000000;stroke-width:0.5;" x="262.116037" xlink:href="#m1ac144dd7e" y="162.999915"/>
     <use style="stroke:#000000;stroke-width:0.5;" x="276.064779" xlink:href="#m1ac144dd7e" y="151.577641"/>
     <use style="stroke:#000000;stroke-width:0.5;" x="316.995927" xlink:href="#m1ac144dd7e" y="219.405311"/>
     <use style="stroke:#000000;stroke-width:0.5;" x="142.488262" xlink:href="#m1ac144dd7e" y="114.77656"/>
     <use style="stroke:#000000;stroke-width:0.5;" x="124.31038" xlink:href="#m1ac144dd7e" y="274.036724"/>
     <use style="stroke:#000000;stroke-width:0.5;" x="120.452218" xlink:href="#m1ac144dd7e" y="267.302832"/>
     <use style="stroke:#000000;stroke-width:0.5;" x="134.895596" xlink:href="#m1ac144dd7e" y="261.582645"/>
     <use style="stroke:#000000;stroke-width:0.5;" x="198.505816" xlink:href="#m1ac144dd7e" y="186.731453"/>
     <use style="stroke:#000000;stroke-width:0.5;" x="149.066924" xlink:href="#m1ac144dd7e" y="238.846708"/>
     <use style="stroke:#000000;stroke-width:0.5;" x="130.938506" xlink:href="#m1ac144dd7e" y="107.807344"/>
     <use style="stroke:#000000;stroke-width:0.5;" x="140.212936" xlink:href="#m1ac144dd7e" y="104.042157"/>
     <use style="stroke:#000000;stroke-width:0.5;" x="88.00408" xlink:href="#m1ac144dd7e" y="112.369012"/>
     <use style="stroke:#000000;stroke-width:0.5;" x="217.425652" xlink:href="#m1ac144dd7e" y="83.406036"/>
     <use style="stroke:#000000;stroke-width:0.5;" x="243.765032" xlink:href="#m1ac144dd7e" y="160.737182"/>
     <use style="stroke:#000000;stroke-width:0.5;" x="258.356801" xlink:href="#m1ac144dd7e" y="154.492041"/>
     <use style="stroke:#000000;stroke-width:0.5;" x="274.358284" xlink:href="#m1ac144dd7e" y="107.807344"/>
     <use style="stroke:#000000;stroke-width:0.5;" x="180.352666" xlink:href="#m1ac144dd7e" y="116.315218"/>
     <use style="stroke:#000000;stroke-width:0.5;" x="188.242114" xlink:href="#m1ac144dd7e" y="104.838639"/>
     <use style="stroke:#000000;stroke-width:0.5;" x="228.183991" xlink:href="#m1ac144dd7e" y="100.222664"/>
     <use style="stroke:#000000;stroke-width:0.5;" x="221.63006" xlink:href="#m1ac144dd7e" y="112.749151"/>
     <use style="stroke:#000000;stroke-width:0.5;" x="301.291227" xlink:href="#m1ac144dd7e" y="194.406642"/>
     <use style="stroke:#000000;stroke-width:0.5;" x="298.966436" xlink:href="#m1ac144dd7e" y="178.730431"/>
     <use style="stroke:#000000;stroke-width:0.5;" x="219.775175" xlink:href="#m1ac144dd7e" y="100.783822"/>
     <use style="stroke:#000000;stroke-width:0.5;" x="224.721537" xlink:href="#m1ac144dd7e" y="130.108835"/>
     <use style="stroke:#000000;stroke-width:0.5;" x="382.213716" xlink:href="#m1ac144dd7e" y="123.773184"/>
     <use style="stroke:#000000;stroke-width:0.5;" x="371.306986" xlink:href="#m1ac144dd7e" y="113.690448"/>
     <use style="stroke:#000000;stroke-width:0.5;" x="207.087755" xlink:href="#m1ac144dd7e" y="136.136755"/>
     <use style="stroke:#000000;stroke-width:0.5;" x="203.798424" xlink:href="#m1ac144dd7e" y="140.843238"/>
     <use style="stroke:#000000;stroke-width:0.5;" x="268.224794" xlink:href="#m1ac144dd7e" y="96.348866"/>
     <use style="stroke:#000000;stroke-width:0.5;" x="292.437238" xlink:href="#m1ac144dd7e" y="65.014547"/>
     <use style="stroke:#000000;stroke-width:0.5;" x="297.977164" xlink:href="#m1ac144dd7e" y="54.081023"/>
     <use style="stroke:#000000;stroke-width:0.5;" x="212.504022" xlink:href="#m1ac144dd7e" y="55.492968"/>
     <use style="stroke:#000000;stroke-width:0.5;" x="225.067782" xlink:href="#m1ac144dd7e" y="289.803444"/>
     <use style="stroke:#000000;stroke-width:0.5;" x="263.476286" xlink:href="#m1ac144dd7e" y="285.006452"/>
     <use style="stroke:#000000;stroke-width:0.5;" x="146.593743" xlink:href="#m1ac144dd7e" y="139.30458"/>
     <use style="stroke:#000000;stroke-width:0.5;" x="235.628266" xlink:href="#m1ac144dd7e" y="284.825433"/>
     <use style="stroke:#000000;stroke-width:0.5;" x="242.652101" xlink:href="#m1ac144dd7e" y="289.767241"/>
     <use style="stroke:#000000;stroke-width:0.5;" x="279.5025" xlink:href="#m1ac144dd7e" y="289.477611"/>
     <use style="stroke:#000000;stroke-width:0.5;" x="296.196474" xlink:href="#m1ac144dd7e" y="287.884647"/>
     <use style="stroke:#000000;stroke-width:0.5;" x="324.835912" xlink:href="#m1ac144dd7e" y="216.67193"/>
     <use style="stroke:#000000;stroke-width:0.5;" x="336.311473" xlink:href="#m1ac144dd7e" y="180.721636"/>
     <use style="stroke:#000000;stroke-width:0.5;" x="237.557347" xlink:href="#m1ac144dd7e" y="170.801817"/>
     <use style="stroke:#000000;stroke-width:0.5;" x="188.291578" xlink:href="#m1ac144dd7e" y="214.82554"/>
     <use style="stroke:#000000;stroke-width:0.5;" x="203.47691" xlink:href="#m1ac144dd7e" y="182.441313"/>
     <use style="stroke:#000000;stroke-width:0.5;" x="187.821674" xlink:href="#m1ac144dd7e" y="211.132761"/>
     <use style="stroke:#000000;stroke-width:0.5;" x="175.455768" xlink:href="#m1ac144dd7e" y="142.454304"/>
     <use style="stroke:#000000;stroke-width:0.5;" x="179.956957" xlink:href="#m1ac144dd7e" y="141.295785"/>
     <use style="stroke:#000000;stroke-width:0.5;" x="233.328208" xlink:href="#m1ac144dd7e" y="203.167942"/>
     <use style="stroke:#000000;stroke-width:0.5;" x="261.571937" xlink:href="#m1ac144dd7e" y="202.443868"/>
     <use style="stroke:#000000;stroke-width:0.5;" x="234.58953" xlink:href="#m1ac144dd7e" y="174.711818"/>
     <use style="stroke:#000000;stroke-width:0.5;" x="296.072814" xlink:href="#m1ac144dd7e" y="287.902749"/>
     <use style="stroke:#000000;stroke-width:0.5;" x="313.038837" xlink:href="#m1ac144dd7e" y="226.030592"/>
     <use style="stroke:#000000;stroke-width:0.5;" x="383.77182" xlink:href="#m1ac144dd7e" y="82.519045"/>
     <use style="stroke:#000000;stroke-width:0.5;" x="211.910458" xlink:href="#m1ac144dd7e" y="134.525689"/>
     <use style="stroke:#000000;stroke-width:0.5;" x="227.788282" xlink:href="#m1ac144dd7e" y="134.851523"/>
     <use style="stroke:#000000;stroke-width:0.5;" x="153.691773" xlink:href="#m1ac144dd7e" y="142.725832"/>
     <use style="stroke:#000000;stroke-width:0.5;" x="159.281163" xlink:href="#m1ac144dd7e" y="132.353466"/>
     <use style="stroke:#000000;stroke-width:0.5;" x="185.249565" xlink:href="#m1ac144dd7e" y="119.428738"/>
     <use style="stroke:#000000;stroke-width:0.5;" x="73.832752" xlink:href="#m1ac144dd7e" y="174.892837"/>
     <use style="stroke:#000000;stroke-width:0.5;" x="199.09938" xlink:href="#m1ac144dd7e" y="181.662933"/>
     <use style="stroke:#000000;stroke-width:0.5;" x="152.578841" xlink:href="#m1ac144dd7e" y="97.923728"/>
     <use style="stroke:#000000;stroke-width:0.5;" x="91.886975" xlink:href="#m1ac144dd7e" y="111.337206"/>
     <use style="stroke:#000000;stroke-width:0.5;" x="82.018982" xlink:href="#m1ac144dd7e" y="107.372899"/>
     <use style="stroke:#000000;stroke-width:0.5;" x="92.406343" xlink:href="#m1ac144dd7e" y="121.818183"/>
     <use style="stroke:#000000;stroke-width:0.5;" x="129.405134" xlink:href="#m1ac144dd7e" y="102.105258"/>
     <use style="stroke:#000000;stroke-width:0.5;" x="284.226277" xlink:href="#m1ac144dd7e" y="206.172851"/>
     <use style="stroke:#000000;stroke-width:0.5;" x="227.887209" xlink:href="#m1ac144dd7e" y="220.672441"/>
     <use style="stroke:#000000;stroke-width:0.5;" x="320.928285" xlink:href="#m1ac144dd7e" y="86.302334"/>
     <use style="stroke:#000000;stroke-width:0.5;" x="389.163355" xlink:href="#m1ac144dd7e" y="80.853674"/>
     <use style="stroke:#000000;stroke-width:0.5;" x="372.370454" xlink:href="#m1ac144dd7e" y="83.043999"/>
     <use style="stroke:#000000;stroke-width:0.5;" x="393.046249" xlink:href="#m1ac144dd7e" y="68.16427"/>
     <use style="stroke:#000000;stroke-width:0.5;" x="269.832362" xlink:href="#m1ac144dd7e" y="128.389159"/>
     <use style="stroke:#000000;stroke-width:0.5;" x="110.856275" xlink:href="#m1ac144dd7e" y="171.562095"/>
     <use style="stroke:#000000;stroke-width:0.5;" x="89.339598" xlink:href="#m1ac144dd7e" y="180.866451"/>
     <use style="stroke:#000000;stroke-width:0.5;" x="83.032986" xlink:href="#m1ac144dd7e" y="190.225112"/>
     <use style="stroke:#000000;stroke-width:0.5;" x="74.030607" xlink:href="#m1ac144dd7e" y="126.796195"/>
     <use style="stroke:#000000;stroke-width:0.5;" x="226.279641" xlink:href="#m1ac144dd7e" y="209.974242"/>
     <use style="stroke:#000000;stroke-width:0.5;" x="377.613599" xlink:href="#m1ac144dd7e" y="63.312972"/>
     <use style="stroke:#000000;stroke-width:0.5;" x="81.326491" xlink:href="#m1ac144dd7e" y="171.851724"/>
     <use style="stroke:#000000;stroke-width:0.5;" x="263.649409" xlink:href="#m1ac144dd7e" y="244.02384"/>
     <use style="stroke:#000000;stroke-width:0.5;" x="182.627993" xlink:href="#m1ac144dd7e" y="143.576619"/>
     <use style="stroke:#000000;stroke-width:0.5;" x="103.337804" xlink:href="#m1ac144dd7e" y="149.333011"/>
     <use style="stroke:#000000;stroke-width:0.5;" x="166.700706" xlink:href="#m1ac144dd7e" y="220.093181"/>
     <use style="stroke:#000000;stroke-width:0.5;" x="122.381299" xlink:href="#m1ac144dd7e" y="226.50124"/>
     <use style="stroke:#000000;stroke-width:0.5;" x="94.978451" xlink:href="#m1ac144dd7e" y="273.276446"/>
     <use style="stroke:#000000;stroke-width:0.5;" x="103.708781" xlink:href="#m1ac144dd7e" y="279.865523"/>
     <use style="stroke:#000000;stroke-width:0.5;" x="98.985005" xlink:href="#m1ac144dd7e" y="277.313161"/>
     <use style="stroke:#000000;stroke-width:0.5;" x="83.849136" xlink:href="#m1ac144dd7e" y="133.530087"/>
     <use style="stroke:#000000;stroke-width:0.5;" x="100.271059" xlink:href="#m1ac144dd7e" y="284.572007"/>
     <use style="stroke:#000000;stroke-width:0.5;" x="103.337804" xlink:href="#m1ac144dd7e" y="137.476292"/>
     <use style="stroke:#000000;stroke-width:0.5;" x="236.172366" xlink:href="#m1ac144dd7e" y="151.487132"/>
     <use style="stroke:#000000;stroke-width:0.5;" x="90.501993" xlink:href="#m1ac144dd7e" y="112.785355"/>
     <use style="stroke:#000000;stroke-width:0.5;" x="210.476013" xlink:href="#m1ac144dd7e" y="136.643607"/>
     <use style="stroke:#000000;stroke-width:0.5;" x="229.099068" xlink:href="#m1ac144dd7e" y="143.504212"/>
     <use style="stroke:#000000;stroke-width:0.5;" x="265.15805" xlink:href="#m1ac144dd7e" y="109.020168"/>
     <use style="stroke:#000000;stroke-width:0.5;" x="190.492709" xlink:href="#m1ac144dd7e" y="82.700064"/>
     <use style="stroke:#000000;stroke-width:0.5;" x="164.30172" xlink:href="#m1ac144dd7e" y="261.582645"/>
     <use style="stroke:#000000;stroke-width:0.5;" x="136.923605" xlink:href="#m1ac144dd7e" y="257.183893"/>
     <use style="stroke:#000000;stroke-width:0.5;" x="163.732889" xlink:href="#m1ac144dd7e" y="135.322171"/>
     <use style="stroke:#000000;stroke-width:0.5;" x="168.877106" xlink:href="#m1ac144dd7e" y="112.586235"/>
     <use style="stroke:#000000;stroke-width:0.5;" x="92.480538" xlink:href="#m1ac144dd7e" y="205.267758"/>
     <use style="stroke:#000000;stroke-width:0.5;" x="89.760039" xlink:href="#m1ac144dd7e" y="138.616709"/>
     <use style="stroke:#000000;stroke-width:0.5;" x="125.200726" xlink:href="#m1ac144dd7e" y="166.909917"/>
     <use style="stroke:#000000;stroke-width:0.5;" x="114.788633" xlink:href="#m1ac144dd7e" y="242.46708"/>
     <use style="stroke:#000000;stroke-width:0.5;" x="77.962965" xlink:href="#m1ac144dd7e" y="259.826764"/>
     <use style="stroke:#000000;stroke-width:0.5;" x="103.881904" xlink:href="#m1ac144dd7e" y="273.765196"/>
     <use style="stroke:#000000;stroke-width:0.5;" x="96.165578" xlink:href="#m1ac144dd7e" y="246.93824"/>
     <use style="stroke:#000000;stroke-width:0.5;" x="136.231114" xlink:href="#m1ac144dd7e" y="275.394364"/>
     <use style="stroke:#000000;stroke-width:0.5;" x="216.040671" xlink:href="#m1ac144dd7e" y="278.163948"/>
     <use style="stroke:#000000;stroke-width:0.5;" x="268.793626" xlink:href="#m1ac144dd7e" y="204.181646"/>
     <use style="stroke:#000000;stroke-width:0.5;" x="129.405134" xlink:href="#m1ac144dd7e" y="170.602696"/>
     <use style="stroke:#000000;stroke-width:0.5;" x="108.209971" xlink:href="#m1ac144dd7e" y="170.693205"/>
     <use style="stroke:#000000;stroke-width:0.5;" x="346.37732" xlink:href="#m1ac144dd7e" y="104.205074"/>
     <use style="stroke:#000000;stroke-width:0.5;" x="276.312097" xlink:href="#m1ac144dd7e" y="156.700468"/>
     <use style="stroke:#000000;stroke-width:0.5;" x="271.192612" xlink:href="#m1ac144dd7e" y="152.82667"/>
     <use style="stroke:#000000;stroke-width:0.5;" x="276.015315" xlink:href="#m1ac144dd7e" y="156.410838"/>
     <use style="stroke:#000000;stroke-width:0.5;" x="162.619957" xlink:href="#m1ac144dd7e" y="235.787494"/>
     <use style="stroke:#000000;stroke-width:0.5;" x="295.553446" xlink:href="#m1ac144dd7e" y="149.007177"/>
     <use style="stroke:#000000;stroke-width:0.5;" x="207.755514" xlink:href="#m1ac144dd7e" y="102.557804"/>
     <use style="stroke:#000000;stroke-width:0.5;" x="214.80408" xlink:href="#m1ac144dd7e" y="102.992249"/>
     <use style="stroke:#000000;stroke-width:0.5;" x="196.824053" xlink:href="#m1ac144dd7e" y="147.504723"/>
     <use style="stroke:#000000;stroke-width:0.5;" x="112.909015" xlink:href="#m1ac144dd7e" y="293.025576"/>
     <use style="stroke:#000000;stroke-width:0.5;" x="213.740612" xlink:href="#m1ac144dd7e" y="195.673772"/>
     <use style="stroke:#000000;stroke-width:0.5;" x="298.842777" xlink:href="#m1ac144dd7e" y="190.243214"/>
     <use style="stroke:#000000;stroke-width:0.5;" x="397.448512" xlink:href="#m1ac144dd7e" y="195.16692"/>
     <use style="stroke:#000000;stroke-width:0.5;" x="385.626706" xlink:href="#m1ac144dd7e" y="222.392118"/>
     <use style="stroke:#000000;stroke-width:0.5;" x="356.368972" xlink:href="#m1ac144dd7e" y="219.930265"/>
     <use style="stroke:#000000;stroke-width:0.5;" x="322.956294" xlink:href="#m1ac144dd7e" y="291.921362"/>
     <use style="stroke:#000000;stroke-width:0.5;" x="296.814769" xlink:href="#m1ac144dd7e" y="292.989372"/>
     <use style="stroke:#000000;stroke-width:0.5;" x="215.719157" xlink:href="#m1ac144dd7e" y="144.916157"/>
     <use style="stroke:#000000;stroke-width:0.5;" x="208.497468" xlink:href="#m1ac144dd7e" y="138.689117"/>
     <use style="stroke:#000000;stroke-width:0.5;" x="195.933708" xlink:href="#m1ac144dd7e" y="141.259581"/>
     <use style="stroke:#000000;stroke-width:0.5;" x="260.953641" xlink:href="#m1ac144dd7e" y="165.697092"/>
     <use style="stroke:#000000;stroke-width:0.5;" x="282.074609" xlink:href="#m1ac144dd7e" y="193.773077"/>
     <use style="stroke:#000000;stroke-width:0.5;" x="225.760273" xlink:href="#m1ac144dd7e" y="134.887726"/>
     <use style="stroke:#000000;stroke-width:0.5;" x="296.517987" xlink:href="#m1ac144dd7e" y="190.044094"/>
     <use style="stroke:#000000;stroke-width:0.5;" x="232.066885" xlink:href="#m1ac144dd7e" y="143.703332"/>
     <use style="stroke:#000000;stroke-width:0.5;" x="244.902696" xlink:href="#m1ac144dd7e" y="215.11517"/>
     <use style="stroke:#000000;stroke-width:0.5;" x="313.731328" xlink:href="#m1ac144dd7e" y="53.121624"/>
     <use style="stroke:#000000;stroke-width:0.5;" x="296.097546" xlink:href="#m1ac144dd7e" y="58.678896"/>
     <use style="stroke:#000000;stroke-width:0.5;" x="189.973341" xlink:href="#m1ac144dd7e" y="143.522313"/>
     <use style="stroke:#000000;stroke-width:0.5;" x="169.000765" xlink:href="#m1ac144dd7e" y="221.794756"/>
     <use style="stroke:#000000;stroke-width:0.5;" x="173.897663" xlink:href="#m1ac144dd7e" y="227.315824"/>
     <use style="stroke:#000000;stroke-width:0.5;" x="182.677457" xlink:href="#m1ac144dd7e" y="221.776654"/>
     <use style="stroke:#000000;stroke-width:0.5;" x="136.676286" xlink:href="#m1ac144dd7e" y="193.248123"/>
     <use style="stroke:#000000;stroke-width:0.5;" x="162.941471" xlink:href="#m1ac144dd7e" y="192.759373"/>
     <use style="stroke:#000000;stroke-width:0.5;" x="130.691188" xlink:href="#m1ac144dd7e" y="255.518522"/>
     <use style="stroke:#000000;stroke-width:0.5;" x="269.139871" xlink:href="#m1ac144dd7e" y="116.496236"/>
     <use style="stroke:#000000;stroke-width:0.5;" x="265.974199" xlink:href="#m1ac144dd7e" y="150.057085"/>
     <use style="stroke:#000000;stroke-width:0.5;" x="266.444104" xlink:href="#m1ac144dd7e" y="141.567313"/>
     <use style="stroke:#000000;stroke-width:0.5;" x="258.950365" xlink:href="#m1ac144dd7e" y="127.556473"/>
     <use style="stroke:#000000;stroke-width:0.5;" x="387.951496" xlink:href="#m1ac144dd7e" y="151.125095"/>
     <use style="stroke:#000000;stroke-width:0.5;" x="365.420815" xlink:href="#m1ac144dd7e" y="135.829023"/>
     <use style="stroke:#000000;stroke-width:0.5;" x="351.249487" xlink:href="#m1ac144dd7e" y="129.674391"/>
     <use style="stroke:#000000;stroke-width:0.5;" x="167.56632" xlink:href="#m1ac144dd7e" y="153.098197"/>
     <use style="stroke:#000000;stroke-width:0.5;" x="287.41668" xlink:href="#m1ac144dd7e" y="145.477314"/>
     <use style="stroke:#000000;stroke-width:0.5;" x="297.136282" xlink:href="#m1ac144dd7e" y="104.186972"/>
     <use style="stroke:#000000;stroke-width:0.5;" x="215.669694" xlink:href="#m1ac144dd7e" y="102.376786"/>
     <use style="stroke:#000000;stroke-width:0.5;" x="194.59819" xlink:href="#m1ac144dd7e" y="139.539904"/>
     <use style="stroke:#000000;stroke-width:0.5;" x="177.706362" xlink:href="#m1ac144dd7e" y="143.504212"/>
     <use style="stroke:#000000;stroke-width:0.5;" x="387.902032" xlink:href="#m1ac144dd7e" y="165.172138"/>
     <use style="stroke:#000000;stroke-width:0.5;" x="178.819294" xlink:href="#m1ac144dd7e" y="154.329124"/>
     <use style="stroke:#000000;stroke-width:0.5;" x="187.302305" xlink:href="#m1ac144dd7e" y="155.632458"/>
     <use style="stroke:#000000;stroke-width:0.5;" x="189.528169" xlink:href="#m1ac144dd7e" y="155.179911"/>
     <use style="stroke:#000000;stroke-width:0.5;" x="206.568387" xlink:href="#m1ac144dd7e" y="145.477314"/>
     <use style="stroke:#000000;stroke-width:0.5;" x="190.616368" xlink:href="#m1ac144dd7e" y="168.864918"/>
     <use style="stroke:#000000;stroke-width:0.5;" x="391.216095" xlink:href="#m1ac144dd7e" y="164.375656"/>
     <use style="stroke:#000000;stroke-width:0.5;" x="175.554695" xlink:href="#m1ac144dd7e" y="149.278705"/>
     <use style="stroke:#000000;stroke-width:0.5;" x="175.257913" xlink:href="#m1ac144dd7e" y="125.474759"/>
     <use style="stroke:#000000;stroke-width:0.5;" x="170.064233" xlink:href="#m1ac144dd7e" y="130.145039"/>
     <use style="stroke:#000000;stroke-width:0.5;" x="367.968192" xlink:href="#m1ac144dd7e" y="211.096557"/>
     <use style="stroke:#000000;stroke-width:0.5;" x="80.48561" xlink:href="#m1ac144dd7e" y="119.247719"/>
     <use style="stroke:#000000;stroke-width:0.5;" x="81.004978" xlink:href="#m1ac144dd7e" y="89.850298"/>
     <use style="stroke:#000000;stroke-width:0.5;" x="101.705504" xlink:href="#m1ac144dd7e" y="98.665904"/>
     <use style="stroke:#000000;stroke-width:0.5;" x="373.854363" xlink:href="#m1ac144dd7e" y="104.675722"/>
     <use style="stroke:#000000;stroke-width:0.5;" x="376.377008" xlink:href="#m1ac144dd7e" y="88.981409"/>
     <use style="stroke:#000000;stroke-width:0.5;" x="396.038798" xlink:href="#m1ac144dd7e" y="204.181646"/>
     <use style="stroke:#000000;stroke-width:0.5;" x="313.830255" xlink:href="#m1ac144dd7e" y="102.539702"/>
     <use style="stroke:#000000;stroke-width:0.5;" x="315.462555" xlink:href="#m1ac144dd7e" y="103.553407"/>
     <use style="stroke:#000000;stroke-width:0.5;" x="332.255455" xlink:href="#m1ac144dd7e" y="104.277481"/>
     <use style="stroke:#000000;stroke-width:0.5;" x="367.94346" xlink:href="#m1ac144dd7e" y="72.563022"/>
    </g>
   </g>
   <g id="patch_3">
    <path d="M 57.6 305.0208 
L 57.6 41.1264 
" style="fill:none;stroke:#ffffff;stroke-linecap:square;stroke-linejoin:miter;"/>
   </g>
   <g id="patch_4">
    <path d="M 414.72 305.0208 
L 414.72 41.1264 
" style="fill:none;stroke:#ffffff;stroke-linecap:square;stroke-linejoin:miter;"/>
   </g>
   <g id="patch_5">
    <path d="M 57.6 305.0208 
L 414.72 305.0208 
" style="fill:none;stroke:#ffffff;stroke-linecap:square;stroke-linejoin:miter;"/>
   </g>
   <g id="patch_6">
    <path d="M 57.6 41.1264 
L 414.72 41.1264 
" style="fill:none;stroke:#ffffff;stroke-linecap:square;stroke-linejoin:miter;"/>
   </g>
   <g id="text_15">
    <!-- League-of-Legends-Death-Point CBLoL2018 after 20 minute -->
    <defs>
     <path d="M 9.8125 72.90625 
L 19.671875 72.90625 
L 19.671875 8.296875 
L 55.171875 8.296875 
L 55.171875 0 
L 9.8125 0 
z
" id="DejaVuSans-4c"/>
     <path d="M 56.203125 29.59375 
L 56.203125 25.203125 
L 14.890625 25.203125 
Q 15.484375 15.921875 20.484375 11.0625 
Q 25.484375 6.203125 34.421875 6.203125 
Q 39.59375 6.203125 44.453125 7.46875 
Q 49.3125 8.734375 54.109375 11.28125 
L 54.109375 2.78125 
Q 49.265625 0.734375 44.1875 -0.34375 
Q 39.109375 -1.421875 33.890625 -1.421875 
Q 20.796875 -1.421875 13.15625 6.1875 
Q 5.515625 13.8125 5.515625 26.8125 
Q 5.515625 40.234375 12.765625 48.109375 
Q 20.015625 56 32.328125 56 
Q 43.359375 56 49.78125 48.890625 
Q 56.203125 41.796875 56.203125 29.59375 
z
M 47.21875 32.234375 
Q 47.125 39.59375 43.09375 43.984375 
Q 39.0625 48.390625 32.421875 48.390625 
Q 24.90625 48.390625 20.390625 44.140625 
Q 15.875 39.890625 15.1875 32.171875 
z
" id="DejaVuSans-65"/>
     <path d="M 34.28125 27.484375 
Q 23.390625 27.484375 19.1875 25 
Q 14.984375 22.515625 14.984375 16.5 
Q 14.984375 11.71875 18.140625 8.90625 
Q 21.296875 6.109375 26.703125 6.109375 
Q 34.1875 6.109375 38.703125 11.40625 
Q 43.21875 16.703125 43.21875 25.484375 
L 43.21875 27.484375 
z
M 52.203125 31.203125 
L 52.203125 0 
L 43.21875 0 
L 43.21875 8.296875 
Q 40.140625 3.328125 35.546875 0.953125 
Q 30.953125 -1.421875 24.3125 -1.421875 
Q 15.921875 -1.421875 10.953125 3.296875 
Q 6 8.015625 6 15.921875 
Q 6 25.140625 12.171875 29.828125 
Q 18.359375 34.515625 30.609375 34.515625 
L 43.21875 34.515625 
L 43.21875 35.40625 
Q 43.21875 41.609375 39.140625 45 
Q 35.0625 48.390625 27.6875 48.390625 
Q 23 48.390625 18.546875 47.265625 
Q 14.109375 46.140625 10.015625 43.890625 
L 10.015625 52.203125 
Q 14.9375 54.109375 19.578125 55.046875 
Q 24.21875 56 28.609375 56 
Q 40.484375 56 46.34375 49.84375 
Q 52.203125 43.703125 52.203125 31.203125 
z
" id="DejaVuSans-61"/>
     <path d="M 45.40625 27.984375 
Q 45.40625 37.75 41.375 43.109375 
Q 37.359375 48.484375 30.078125 48.484375 
Q 22.859375 48.484375 18.828125 43.109375 
Q 14.796875 37.75 14.796875 27.984375 
Q 14.796875 18.265625 18.828125 12.890625 
Q 22.859375 7.515625 30.078125 7.515625 
Q 37.359375 7.515625 41.375 12.890625 
Q 45.40625 18.265625 45.40625 27.984375 
z
M 54.390625 6.78125 
Q 54.390625 -7.171875 48.1875 -13.984375 
Q 42 -20.796875 29.203125 -20.796875 
Q 24.46875 -20.796875 20.265625 -20.09375 
Q 16.0625 -19.390625 12.109375 -17.921875 
L 12.109375 -9.1875 
Q 16.0625 -11.328125 19.921875 -12.34375 
Q 23.78125 -13.375 27.78125 -13.375 
Q 36.625 -13.375 41.015625 -8.765625 
Q 45.40625 -4.15625 45.40625 5.171875 
L 45.40625 9.625 
Q 42.625 4.78125 38.28125 2.390625 
Q 33.9375 0 27.875 0 
Q 17.828125 0 11.671875 7.65625 
Q 5.515625 15.328125 5.515625 27.984375 
Q 5.515625 40.671875 11.671875 48.328125 
Q 17.828125 56 27.875 56 
Q 33.9375 56 38.28125 53.609375 
Q 42.625 51.21875 45.40625 46.390625 
L 45.40625 54.6875 
L 54.390625 54.6875 
z
" id="DejaVuSans-67"/>
     <path d="M 8.5 21.578125 
L 8.5 54.6875 
L 17.484375 54.6875 
L 17.484375 21.921875 
Q 17.484375 14.15625 20.5 10.265625 
Q 23.53125 6.390625 29.59375 6.390625 
Q 36.859375 6.390625 41.078125 11.03125 
Q 45.3125 15.671875 45.3125 23.6875 
L 45.3125 54.6875 
L 54.296875 54.6875 
L 54.296875 0 
L 45.3125 0 
L 45.3125 8.40625 
Q 42.046875 3.421875 37.71875 1 
Q 33.40625 -1.421875 27.6875 -1.421875 
Q 18.265625 -1.421875 13.375 4.4375 
Q 8.5 10.296875 8.5 21.578125 
z
M 31.109375 56 
z
" id="DejaVuSans-75"/>
     <path d="M 4.890625 31.390625 
L 31.203125 31.390625 
L 31.203125 23.390625 
L 4.890625 23.390625 
z
" id="DejaVuSans-2d"/>
     <path d="M 30.609375 48.390625 
Q 23.390625 48.390625 19.1875 42.75 
Q 14.984375 37.109375 14.984375 27.296875 
Q 14.984375 17.484375 19.15625 11.84375 
Q 23.34375 6.203125 30.609375 6.203125 
Q 37.796875 6.203125 41.984375 11.859375 
Q 46.1875 17.53125 46.1875 27.296875 
Q 46.1875 37.015625 41.984375 42.703125 
Q 37.796875 48.390625 30.609375 48.390625 
z
M 30.609375 56 
Q 42.328125 56 49.015625 48.375 
Q 55.71875 40.765625 55.71875 27.296875 
Q 55.71875 13.875 49.015625 6.21875 
Q 42.328125 -1.421875 30.609375 -1.421875 
Q 18.84375 -1.421875 12.171875 6.21875 
Q 5.515625 13.875 5.515625 27.296875 
Q 5.515625 40.765625 12.171875 48.375 
Q 18.84375 56 30.609375 56 
z
" id="DejaVuSans-6f"/>
     <path d="M 37.109375 75.984375 
L 37.109375 68.5 
L 28.515625 68.5 
Q 23.6875 68.5 21.796875 66.546875 
Q 19.921875 64.59375 19.921875 59.515625 
L 19.921875 54.6875 
L 34.71875 54.6875 
L 34.71875 47.703125 
L 19.921875 47.703125 
L 19.921875 0 
L 10.890625 0 
L 10.890625 47.703125 
L 2.296875 47.703125 
L 2.296875 54.6875 
L 10.890625 54.6875 
L 10.890625 58.5 
Q 10.890625 67.625 15.140625 71.796875 
Q 19.390625 75.984375 28.609375 75.984375 
z
" id="DejaVuSans-66"/>
     <path d="M 54.890625 33.015625 
L 54.890625 0 
L 45.90625 0 
L 45.90625 32.71875 
Q 45.90625 40.484375 42.875 44.328125 
Q 39.84375 48.1875 33.796875 48.1875 
Q 26.515625 48.1875 22.3125 43.546875 
Q 18.109375 38.921875 18.109375 30.90625 
L 18.109375 0 
L 9.078125 0 
L 9.078125 54.6875 
L 18.109375 54.6875 
L 18.109375 46.1875 
Q 21.34375 51.125 25.703125 53.5625 
Q 30.078125 56 35.796875 56 
Q 45.21875 56 50.046875 50.171875 
Q 54.890625 44.34375 54.890625 33.015625 
z
" id="DejaVuSans-6e"/>
     <path d="M 45.40625 46.390625 
L 45.40625 75.984375 
L 54.390625 75.984375 
L 54.390625 0 
L 45.40625 0 
L 45.40625 8.203125 
Q 42.578125 3.328125 38.25 0.953125 
Q 33.9375 -1.421875 27.875 -1.421875 
Q 17.96875 -1.421875 11.734375 6.484375 
Q 5.515625 14.40625 5.515625 27.296875 
Q 5.515625 40.1875 11.734375 48.09375 
Q 17.96875 56 27.875 56 
Q 33.9375 56 38.25 53.625 
Q 42.578125 51.265625 45.40625 46.390625 
z
M 14.796875 27.296875 
Q 14.796875 17.390625 18.875 11.75 
Q 22.953125 6.109375 30.078125 6.109375 
Q 37.203125 6.109375 41.296875 11.75 
Q 45.40625 17.390625 45.40625 27.296875 
Q 45.40625 37.203125 41.296875 42.84375 
Q 37.203125 48.484375 30.078125 48.484375 
Q 22.953125 48.484375 18.875 42.84375 
Q 14.796875 37.203125 14.796875 27.296875 
z
" id="DejaVuSans-64"/>
     <path d="M 44.28125 53.078125 
L 44.28125 44.578125 
Q 40.484375 46.53125 36.375 47.5 
Q 32.28125 48.484375 27.875 48.484375 
Q 21.1875 48.484375 17.84375 46.4375 
Q 14.5 44.390625 14.5 40.28125 
Q 14.5 37.15625 16.890625 35.375 
Q 19.28125 33.59375 26.515625 31.984375 
L 29.59375 31.296875 
Q 39.15625 29.25 43.1875 25.515625 
Q 47.21875 21.78125 47.21875 15.09375 
Q 47.21875 7.46875 41.1875 3.015625 
Q 35.15625 -1.421875 24.609375 -1.421875 
Q 20.21875 -1.421875 15.453125 -0.5625 
Q 10.6875 0.296875 5.421875 2 
L 5.421875 11.28125 
Q 10.40625 8.6875 15.234375 7.390625 
Q 20.0625 6.109375 24.8125 6.109375 
Q 31.15625 6.109375 34.5625 8.28125 
Q 37.984375 10.453125 37.984375 14.40625 
Q 37.984375 18.0625 35.515625 20.015625 
Q 33.0625 21.96875 24.703125 23.78125 
L 21.578125 24.515625 
Q 13.234375 26.265625 9.515625 29.90625 
Q 5.8125 33.546875 5.8125 39.890625 
Q 5.8125 47.609375 11.28125 51.796875 
Q 16.75 56 26.8125 56 
Q 31.78125 56 36.171875 55.265625 
Q 40.578125 54.546875 44.28125 53.078125 
z
" id="DejaVuSans-73"/>
     <path d="M 19.671875 64.796875 
L 19.671875 8.109375 
L 31.59375 8.109375 
Q 46.6875 8.109375 53.6875 14.9375 
Q 60.6875 21.78125 60.6875 36.53125 
Q 60.6875 51.171875 53.6875 57.984375 
Q 46.6875 64.796875 31.59375 64.796875 
z
M 9.8125 72.90625 
L 30.078125 72.90625 
Q 51.265625 72.90625 61.171875 64.09375 
Q 71.09375 55.28125 71.09375 36.53125 
Q 71.09375 17.671875 61.125 8.828125 
Q 51.171875 0 30.078125 0 
L 9.8125 0 
z
" id="DejaVuSans-44"/>
     <path d="M 18.3125 70.21875 
L 18.3125 54.6875 
L 36.8125 54.6875 
L 36.8125 47.703125 
L 18.3125 47.703125 
L 18.3125 18.015625 
Q 18.3125 11.328125 20.140625 9.421875 
Q 21.96875 7.515625 27.59375 7.515625 
L 36.8125 7.515625 
L 36.8125 0 
L 27.59375 0 
Q 17.1875 0 13.234375 3.875 
Q 9.28125 7.765625 9.28125 18.015625 
L 9.28125 47.703125 
L 2.6875 47.703125 
L 2.6875 54.6875 
L 9.28125 54.6875 
L 9.28125 70.21875 
z
" id="DejaVuSans-74"/>
     <path d="M 54.890625 33.015625 
L 54.890625 0 
L 45.90625 0 
L 45.90625 32.71875 
Q 45.90625 40.484375 42.875 44.328125 
Q 39.84375 48.1875 33.796875 48.1875 
Q 26.515625 48.1875 22.3125 43.546875 
Q 18.109375 38.921875 18.109375 30.90625 
L 18.109375 0 
L 9.078125 0 
L 9.078125 75.984375 
L 18.109375 75.984375 
L 18.109375 46.1875 
Q 21.34375 51.125 25.703125 53.5625 
Q 30.078125 56 35.796875 56 
Q 45.21875 56 50.046875 50.171875 
Q 54.890625 44.34375 54.890625 33.015625 
z
" id="DejaVuSans-68"/>
     <path d="M 19.671875 64.796875 
L 19.671875 37.40625 
L 32.078125 37.40625 
Q 38.96875 37.40625 42.71875 40.96875 
Q 46.484375 44.53125 46.484375 51.125 
Q 46.484375 57.671875 42.71875 61.234375 
Q 38.96875 64.796875 32.078125 64.796875 
z
M 9.8125 72.90625 
L 32.078125 72.90625 
Q 44.34375 72.90625 50.609375 67.359375 
Q 56.890625 61.8125 56.890625 51.125 
Q 56.890625 40.328125 50.609375 34.8125 
Q 44.34375 29.296875 32.078125 29.296875 
L 19.671875 29.296875 
L 19.671875 0 
L 9.8125 0 
z
" id="DejaVuSans-50"/>
     <path d="M 9.421875 54.6875 
L 18.40625 54.6875 
L 18.40625 0 
L 9.421875 0 
z
M 9.421875 75.984375 
L 18.40625 75.984375 
L 18.40625 64.59375 
L 9.421875 64.59375 
z
" id="DejaVuSans-69"/>
     <path id="DejaVuSans-20"/>
     <path d="M 64.40625 67.28125 
L 64.40625 56.890625 
Q 59.421875 61.53125 53.78125 63.8125 
Q 48.140625 66.109375 41.796875 66.109375 
Q 29.296875 66.109375 22.65625 58.46875 
Q 16.015625 50.828125 16.015625 36.375 
Q 16.015625 21.96875 22.65625 14.328125 
Q 29.296875 6.6875 41.796875 6.6875 
Q 48.140625 6.6875 53.78125 8.984375 
Q 59.421875 11.28125 64.40625 15.921875 
L 64.40625 5.609375 
Q 59.234375 2.09375 53.4375 0.328125 
Q 47.65625 -1.421875 41.21875 -1.421875 
Q 24.65625 -1.421875 15.125 8.703125 
Q 5.609375 18.84375 5.609375 36.375 
Q 5.609375 53.953125 15.125 64.078125 
Q 24.65625 74.21875 41.21875 74.21875 
Q 47.75 74.21875 53.53125 72.484375 
Q 59.328125 70.75 64.40625 67.28125 
z
" id="DejaVuSans-43"/>
     <path d="M 19.671875 34.8125 
L 19.671875 8.109375 
L 35.5 8.109375 
Q 43.453125 8.109375 47.28125 11.40625 
Q 51.125 14.703125 51.125 21.484375 
Q 51.125 28.328125 47.28125 31.5625 
Q 43.453125 34.8125 35.5 34.8125 
z
M 19.671875 64.796875 
L 19.671875 42.828125 
L 34.28125 42.828125 
Q 41.5 42.828125 45.03125 45.53125 
Q 48.578125 48.25 48.578125 53.8125 
Q 48.578125 59.328125 45.03125 62.0625 
Q 41.5 64.796875 34.28125 64.796875 
z
M 9.8125 72.90625 
L 35.015625 72.90625 
Q 46.296875 72.90625 52.390625 68.21875 
Q 58.5 63.53125 58.5 54.890625 
Q 58.5 48.1875 55.375 44.234375 
Q 52.25 40.28125 46.1875 39.3125 
Q 53.46875 37.75 57.5 32.78125 
Q 61.53125 27.828125 61.53125 20.40625 
Q 61.53125 10.640625 54.890625 5.3125 
Q 48.25 0 35.984375 0 
L 9.8125 0 
z
" id="DejaVuSans-42"/>
     <path d="M 41.109375 46.296875 
Q 39.59375 47.171875 37.8125 47.578125 
Q 36.03125 48 33.890625 48 
Q 26.265625 48 22.1875 43.046875 
Q 18.109375 38.09375 18.109375 28.8125 
L 18.109375 0 
L 9.078125 0 
L 9.078125 54.6875 
L 18.109375 54.6875 
L 18.109375 46.1875 
Q 20.953125 51.171875 25.484375 53.578125 
Q 30.03125 56 36.53125 56 
Q 37.453125 56 38.578125 55.875 
Q 39.703125 55.765625 41.0625 55.515625 
z
" id="DejaVuSans-72"/>
     <path d="M 52 44.1875 
Q 55.375 50.25 60.0625 53.125 
Q 64.75 56 71.09375 56 
Q 79.640625 56 84.28125 50.015625 
Q 88.921875 44.046875 88.921875 33.015625 
L 88.921875 0 
L 79.890625 0 
L 79.890625 32.71875 
Q 79.890625 40.578125 77.09375 44.375 
Q 74.3125 48.1875 68.609375 48.1875 
Q 61.625 48.1875 57.5625 43.546875 
Q 53.515625 38.921875 53.515625 30.90625 
L 53.515625 0 
L 44.484375 0 
L 44.484375 32.71875 
Q 44.484375 40.625 41.703125 44.40625 
Q 38.921875 48.1875 33.109375 48.1875 
Q 26.21875 48.1875 22.15625 43.53125 
Q 18.109375 38.875 18.109375 30.90625 
L 18.109375 0 
L 9.078125 0 
L 9.078125 54.6875 
L 18.109375 54.6875 
L 18.109375 46.1875 
Q 21.1875 51.21875 25.484375 53.609375 
Q 29.78125 56 35.6875 56 
Q 41.65625 56 45.828125 52.96875 
Q 50 49.953125 52 44.1875 
z
" id="DejaVuSans-6d"/>
    </defs>
    <g transform="translate(20.60325 19.00155)scale(0.144 -0.144)">
     <use xlink:href="#DejaVuSans-4c"/>
     <use x="55.697266" xlink:href="#DejaVuSans-65"/>
     <use x="117.220703" xlink:href="#DejaVuSans-61"/>
     <use x="178.5" xlink:href="#DejaVuSans-67"/>
     <use x="241.976562" xlink:href="#DejaVuSans-75"/>
     <use x="305.355469" xlink:href="#DejaVuSans-65"/>
     <use x="366.878906" xlink:href="#DejaVuSans-2d"/>
     <use x="402.978516" xlink:href="#DejaVuSans-6f"/>
     <use x="464.160156" xlink:href="#DejaVuSans-66"/>
     <use x="499.287109" xlink:href="#DejaVuSans-2d"/>
     <use x="535.371094" xlink:href="#DejaVuSans-4c"/>
     <use x="591.068359" xlink:href="#DejaVuSans-65"/>
     <use x="652.591797" xlink:href="#DejaVuSans-67"/>
     <use x="716.068359" xlink:href="#DejaVuSans-65"/>
     <use x="777.591797" xlink:href="#DejaVuSans-6e"/>
     <use x="840.970703" xlink:href="#DejaVuSans-64"/>
     <use x="904.447266" xlink:href="#DejaVuSans-73"/>
     <use x="956.546875" xlink:href="#DejaVuSans-2d"/>
     <use x="992.630859" xlink:href="#DejaVuSans-44"/>
     <use x="1069.632812" xlink:href="#DejaVuSans-65"/>
     <use x="1131.15625" xlink:href="#DejaVuSans-61"/>
     <use x="1192.435547" xlink:href="#DejaVuSans-74"/>
     <use x="1231.644531" xlink:href="#DejaVuSans-68"/>
     <use x="1295.023438" xlink:href="#DejaVuSans-2d"/>
     <use x="1331.107422" xlink:href="#DejaVuSans-50"/>
     <use x="1391.363281" xlink:href="#DejaVuSans-6f"/>
     <use x="1452.544922" xlink:href="#DejaVuSans-69"/>
     <use x="1480.328125" xlink:href="#DejaVuSans-6e"/>
     <use x="1543.707031" xlink:href="#DejaVuSans-74"/>
     <use x="1582.916016" xlink:href="#DejaVuSans-20"/>
     <use x="1614.703125" xlink:href="#DejaVuSans-43"/>
     <use x="1684.527344" xlink:href="#DejaVuSans-42"/>
     <use x="1753.130859" xlink:href="#DejaVuSans-4c"/>
     <use x="1808.828125" xlink:href="#DejaVuSans-6f"/>
     <use x="1870.009766" xlink:href="#DejaVuSans-4c"/>
     <use x="1925.722656" xlink:href="#DejaVuSans-32"/>
     <use x="1989.345703" xlink:href="#DejaVuSans-30"/>
     <use x="2052.96875" xlink:href="#DejaVuSans-31"/>
     <use x="2116.591797" xlink:href="#DejaVuSans-38"/>
     <use x="2180.214844" xlink:href="#DejaVuSans-20"/>
     <use x="2212.001953" xlink:href="#DejaVuSans-61"/>
     <use x="2273.28125" xlink:href="#DejaVuSans-66"/>
     <use x="2308.470703" xlink:href="#DejaVuSans-74"/>
     <use x="2347.679688" xlink:href="#DejaVuSans-65"/>
     <use x="2409.203125" xlink:href="#DejaVuSans-72"/>
     <use x="2450.316406" xlink:href="#DejaVuSans-20"/>
     <use x="2482.103516" xlink:href="#DejaVuSans-32"/>
     <use x="2545.726562" xlink:href="#DejaVuSans-30"/>
     <use x="2609.349609" xlink:href="#DejaVuSans-20"/>
     <use x="2641.136719" xlink:href="#DejaVuSans-6d"/>
     <use x="2738.548828" xlink:href="#DejaVuSans-69"/>
     <use x="2766.332031" xlink:href="#DejaVuSans-6e"/>
     <use x="2829.710938" xlink:href="#DejaVuSans-75"/>
     <use x="2893.089844" xlink:href="#DejaVuSans-74"/>
     <use x="2932.298828" xlink:href="#DejaVuSans-65"/>
    </g>
    <!-- Total Kills = 254 -->
    <defs>
     <path d="M -0.296875 72.90625 
L 61.375 72.90625 
L 61.375 64.59375 
L 35.5 64.59375 
L 35.5 0 
L 25.59375 0 
L 25.59375 64.59375 
L -0.296875 64.59375 
z
" id="DejaVuSans-54"/>
     <path d="M 9.421875 75.984375 
L 18.40625 75.984375 
L 18.40625 0 
L 9.421875 0 
z
" id="DejaVuSans-6c"/>
     <path d="M 9.8125 72.90625 
L 19.671875 72.90625 
L 19.671875 42.09375 
L 52.390625 72.90625 
L 65.09375 72.90625 
L 28.90625 38.921875 
L 67.671875 0 
L 54.6875 0 
L 19.671875 35.109375 
L 19.671875 0 
L 9.8125 0 
z
" id="DejaVuSans-4b"/>
     <path d="M 10.59375 45.40625 
L 73.1875 45.40625 
L 73.1875 37.203125 
L 10.59375 37.203125 
z
M 10.59375 25.484375 
L 73.1875 25.484375 
L 73.1875 17.1875 
L 10.59375 17.1875 
z
" id="DejaVuSans-3d"/>
     <path d="M 10.796875 72.90625 
L 49.515625 72.90625 
L 49.515625 64.59375 
L 19.828125 64.59375 
L 19.828125 46.734375 
Q 21.96875 47.46875 24.109375 47.828125 
Q 26.265625 48.1875 28.421875 48.1875 
Q 40.625 48.1875 47.75 41.5 
Q 54.890625 34.8125 54.890625 23.390625 
Q 54.890625 11.625 47.5625 5.09375 
Q 40.234375 -1.421875 26.90625 -1.421875 
Q 22.3125 -1.421875 17.546875 -0.640625 
Q 12.796875 0.140625 7.71875 1.703125 
L 7.71875 11.625 
Q 12.109375 9.234375 16.796875 8.0625 
Q 21.484375 6.890625 26.703125 6.890625 
Q 35.15625 6.890625 40.078125 11.328125 
Q 45.015625 15.765625 45.015625 23.390625 
Q 45.015625 31 40.078125 35.4375 
Q 35.15625 39.890625 26.703125 39.890625 
Q 22.75 39.890625 18.8125 39.015625 
Q 14.890625 38.140625 10.796875 36.28125 
z
" id="DejaVuSans-35"/>
    </defs>
    <g transform="translate(177.026625 35.1264)scale(0.144 -0.144)">
     <use xlink:href="#DejaVuSans-54"/>
     <use x="60.818359" xlink:href="#DejaVuSans-6f"/>
     <use x="122" xlink:href="#DejaVuSans-74"/>
     <use x="161.208984" xlink:href="#DejaVuSans-61"/>
     <use x="222.488281" xlink:href="#DejaVuSans-6c"/>
     <use x="250.271484" xlink:href="#DejaVuSans-20"/>
     <use x="282.058594" xlink:href="#DejaVuSans-4b"/>
     <use x="347.634766" xlink:href="#DejaVuSans-69"/>
     <use x="375.417969" xlink:href="#DejaVuSans-6c"/>
     <use x="403.201172" xlink:href="#DejaVuSans-6c"/>
     <use x="430.984375" xlink:href="#DejaVuSans-73"/>
     <use x="483.083984" xlink:href="#DejaVuSans-20"/>
     <use x="514.871094" xlink:href="#DejaVuSans-3d"/>
     <use x="598.660156" xlink:href="#DejaVuSans-20"/>
     <use x="630.447266" xlink:href="#DejaVuSans-32"/>
     <use x="694.070312" xlink:href="#DejaVuSans-35"/>
     <use x="757.693359" xlink:href="#DejaVuSans-34"/>
    </g>
   </g>
  </g>
 </g>
 <defs>
  <clipPath id="p361e4df387">
   <rect height="263.8944" width="357.12" x="57.6" y="41.1264"/>
  </clipPath>
 </defs>
</svg>
