<?xml version="1.0" encoding="utf-8" standalone="no"?>
<!DOCTYPE svg PUBLIC "-//W3C//DTD SVG 1.1//EN"
  "http://www.w3.org/Graphics/SVG/1.1/DTD/svg11.dtd">
<!-- Created with matplotlib (http://matplotlib.org/) -->
<svg height="342.72pt" version="1.1" viewBox="0 0 460.8 342.72" width="460.8pt" xmlns="http://www.w3.org/2000/svg" xmlns:xlink="http://www.w3.org/1999/xlink">
 <defs>
  <style type="text/css">
*{stroke-linecap:butt;stroke-linejoin:round;}
  </style>
 </defs>
 <g id="figure_1">
  <g id="patch_1">
   <path d="M 0 342.72 
L 460.8 342.72 
L 460.8 0 
L 0 0 
z
" style="fill:#ffffff;"/>
  </g>
  <g id="axes_1">
   <g id="patch_2">
    <path d="M 57.6 305.0208 
L 414.72 305.0208 
L 414.72 41.1264 
L 57.6 41.1264 
z
" style="fill:#e5e5e5;"/>
   </g>
   <g id="matplotlib.axis_1">
    <g id="xtick_1">
     <g id="line2d_1">
      <path clip-path="url(#p94d4f59920)" d="M 62.631263 305.0208 
L 62.631263 41.1264 
" style="fill:none;stroke:#ffffff;stroke-linecap:square;stroke-width:0.8;"/>
     </g>
     <g id="line2d_2">
      <defs>
       <path d="M 0 0 
L 0 3.5 
" id="m569b6b2a49" style="stroke:#555555;stroke-width:0.8;"/>
      </defs>
      <g>
       <use style="fill:#555555;stroke:#555555;stroke-width:0.8;" x="62.631263" xlink:href="#m569b6b2a49" y="305.0208"/>
      </g>
     </g>
     <g id="text_1">
      <!-- 0 -->
      <defs>
       <path d="M 31.78125 66.40625 
Q 24.171875 66.40625 20.328125 58.90625 
Q 16.5 51.421875 16.5 36.375 
Q 16.5 21.390625 20.328125 13.890625 
Q 24.171875 6.390625 31.78125 6.390625 
Q 39.453125 6.390625 43.28125 13.890625 
Q 47.125 21.390625 47.125 36.375 
Q 47.125 51.421875 43.28125 58.90625 
Q 39.453125 66.40625 31.78125 66.40625 
z
M 31.78125 74.21875 
Q 44.046875 74.21875 50.515625 64.515625 
Q 56.984375 54.828125 56.984375 36.375 
Q 56.984375 17.96875 50.515625 8.265625 
Q 44.046875 -1.421875 31.78125 -1.421875 
Q 19.53125 -1.421875 13.0625 8.265625 
Q 6.59375 17.96875 6.59375 36.375 
Q 6.59375 54.828125 13.0625 64.515625 
Q 19.53125 74.21875 31.78125 74.21875 
z
" id="DejaVuSans-30"/>
      </defs>
      <g style="fill:#555555;" transform="translate(59.450013 319.619237)scale(0.1 -0.1)">
       <use xlink:href="#DejaVuSans-30"/>
      </g>
     </g>
    </g>
    <g id="xtick_2">
     <g id="line2d_3">
      <path clip-path="url(#p94d4f59920)" d="M 109.795423 305.0208 
L 109.795423 41.1264 
" style="fill:none;stroke:#ffffff;stroke-linecap:square;stroke-width:0.8;"/>
     </g>
     <g id="line2d_4">
      <g>
       <use style="fill:#555555;stroke:#555555;stroke-width:0.8;" x="109.795423" xlink:href="#m569b6b2a49" y="305.0208"/>
      </g>
     </g>
     <g id="text_2">
      <!-- 2000 -->
      <defs>
       <path d="M 19.1875 8.296875 
L 53.609375 8.296875 
L 53.609375 0 
L 7.328125 0 
L 7.328125 8.296875 
Q 12.9375 14.109375 22.625 23.890625 
Q 32.328125 33.6875 34.8125 36.53125 
Q 39.546875 41.84375 41.421875 45.53125 
Q 43.3125 49.21875 43.3125 52.78125 
Q 43.3125 58.59375 39.234375 62.25 
Q 35.15625 65.921875 28.609375 65.921875 
Q 23.96875 65.921875 18.8125 64.3125 
Q 13.671875 62.703125 7.8125 59.421875 
L 7.8125 69.390625 
Q 13.765625 71.78125 18.9375 73 
Q 24.125 74.21875 28.421875 74.21875 
Q 39.75 74.21875 46.484375 68.546875 
Q 53.21875 62.890625 53.21875 53.421875 
Q 53.21875 48.921875 51.53125 44.890625 
Q 49.859375 40.875 45.40625 35.40625 
Q 44.1875 33.984375 37.640625 27.21875 
Q 31.109375 20.453125 19.1875 8.296875 
z
" id="DejaVuSans-32"/>
      </defs>
      <g style="fill:#555555;" transform="translate(97.070423 319.619237)scale(0.1 -0.1)">
       <use xlink:href="#DejaVuSans-32"/>
       <use x="63.623047" xlink:href="#DejaVuSans-30"/>
       <use x="127.246094" xlink:href="#DejaVuSans-30"/>
       <use x="190.869141" xlink:href="#DejaVuSans-30"/>
      </g>
     </g>
    </g>
    <g id="xtick_3">
     <g id="line2d_5">
      <path clip-path="url(#p94d4f59920)" d="M 156.959584 305.0208 
L 156.959584 41.1264 
" style="fill:none;stroke:#ffffff;stroke-linecap:square;stroke-width:0.8;"/>
     </g>
     <g id="line2d_6">
      <g>
       <use style="fill:#555555;stroke:#555555;stroke-width:0.8;" x="156.959584" xlink:href="#m569b6b2a49" y="305.0208"/>
      </g>
     </g>
     <g id="text_3">
      <!-- 4000 -->
      <defs>
       <path d="M 37.796875 64.3125 
L 12.890625 25.390625 
L 37.796875 25.390625 
z
M 35.203125 72.90625 
L 47.609375 72.90625 
L 47.609375 25.390625 
L 58.015625 25.390625 
L 58.015625 17.1875 
L 47.609375 17.1875 
L 47.609375 0 
L 37.796875 0 
L 37.796875 17.1875 
L 4.890625 17.1875 
L 4.890625 26.703125 
z
" id="DejaVuSans-34"/>
      </defs>
      <g style="fill:#555555;" transform="translate(144.234584 319.619237)scale(0.1 -0.1)">
       <use xlink:href="#DejaVuSans-34"/>
       <use x="63.623047" xlink:href="#DejaVuSans-30"/>
       <use x="127.246094" xlink:href="#DejaVuSans-30"/>
       <use x="190.869141" xlink:href="#DejaVuSans-30"/>
      </g>
     </g>
    </g>
    <g id="xtick_4">
     <g id="line2d_7">
      <path clip-path="url(#p94d4f59920)" d="M 204.123744 305.0208 
L 204.123744 41.1264 
" style="fill:none;stroke:#ffffff;stroke-linecap:square;stroke-width:0.8;"/>
     </g>
     <g id="line2d_8">
      <g>
       <use style="fill:#555555;stroke:#555555;stroke-width:0.8;" x="204.123744" xlink:href="#m569b6b2a49" y="305.0208"/>
      </g>
     </g>
     <g id="text_4">
      <!-- 6000 -->
      <defs>
       <path d="M 33.015625 40.375 
Q 26.375 40.375 22.484375 35.828125 
Q 18.609375 31.296875 18.609375 23.390625 
Q 18.609375 15.53125 22.484375 10.953125 
Q 26.375 6.390625 33.015625 6.390625 
Q 39.65625 6.390625 43.53125 10.953125 
Q 47.40625 15.53125 47.40625 23.390625 
Q 47.40625 31.296875 43.53125 35.828125 
Q 39.65625 40.375 33.015625 40.375 
z
M 52.59375 71.296875 
L 52.59375 62.3125 
Q 48.875 64.0625 45.09375 64.984375 
Q 41.3125 65.921875 37.59375 65.921875 
Q 27.828125 65.921875 22.671875 59.328125 
Q 17.53125 52.734375 16.796875 39.40625 
Q 19.671875 43.65625 24.015625 45.921875 
Q 28.375 48.1875 33.59375 48.1875 
Q 44.578125 48.1875 50.953125 41.515625 
Q 57.328125 34.859375 57.328125 23.390625 
Q 57.328125 12.15625 50.6875 5.359375 
Q 44.046875 -1.421875 33.015625 -1.421875 
Q 20.359375 -1.421875 13.671875 8.265625 
Q 6.984375 17.96875 6.984375 36.375 
Q 6.984375 53.65625 15.1875 63.9375 
Q 23.390625 74.21875 37.203125 74.21875 
Q 40.921875 74.21875 44.703125 73.484375 
Q 48.484375 72.75 52.59375 71.296875 
z
" id="DejaVuSans-36"/>
      </defs>
      <g style="fill:#555555;" transform="translate(191.398744 319.619237)scale(0.1 -0.1)">
       <use xlink:href="#DejaVuSans-36"/>
       <use x="63.623047" xlink:href="#DejaVuSans-30"/>
       <use x="127.246094" xlink:href="#DejaVuSans-30"/>
       <use x="190.869141" xlink:href="#DejaVuSans-30"/>
      </g>
     </g>
    </g>
    <g id="xtick_5">
     <g id="line2d_9">
      <path clip-path="url(#p94d4f59920)" d="M 251.287904 305.0208 
L 251.287904 41.1264 
" style="fill:none;stroke:#ffffff;stroke-linecap:square;stroke-width:0.8;"/>
     </g>
     <g id="line2d_10">
      <g>
       <use style="fill:#555555;stroke:#555555;stroke-width:0.8;" x="251.287904" xlink:href="#m569b6b2a49" y="305.0208"/>
      </g>
     </g>
     <g id="text_5">
      <!-- 8000 -->
      <defs>
       <path d="M 31.78125 34.625 
Q 24.75 34.625 20.71875 30.859375 
Q 16.703125 27.09375 16.703125 20.515625 
Q 16.703125 13.921875 20.71875 10.15625 
Q 24.75 6.390625 31.78125 6.390625 
Q 38.8125 6.390625 42.859375 10.171875 
Q 46.921875 13.96875 46.921875 20.515625 
Q 46.921875 27.09375 42.890625 30.859375 
Q 38.875 34.625 31.78125 34.625 
z
M 21.921875 38.8125 
Q 15.578125 40.375 12.03125 44.71875 
Q 8.5 49.078125 8.5 55.328125 
Q 8.5 64.0625 14.71875 69.140625 
Q 20.953125 74.21875 31.78125 74.21875 
Q 42.671875 74.21875 48.875 69.140625 
Q 55.078125 64.0625 55.078125 55.328125 
Q 55.078125 49.078125 51.53125 44.71875 
Q 48 40.375 41.703125 38.8125 
Q 48.828125 37.15625 52.796875 32.3125 
Q 56.78125 27.484375 56.78125 20.515625 
Q 56.78125 9.90625 50.3125 4.234375 
Q 43.84375 -1.421875 31.78125 -1.421875 
Q 19.734375 -1.421875 13.25 4.234375 
Q 6.78125 9.90625 6.78125 20.515625 
Q 6.78125 27.484375 10.78125 32.3125 
Q 14.796875 37.15625 21.921875 38.8125 
z
M 18.3125 54.390625 
Q 18.3125 48.734375 21.84375 45.5625 
Q 25.390625 42.390625 31.78125 42.390625 
Q 38.140625 42.390625 41.71875 45.5625 
Q 45.3125 48.734375 45.3125 54.390625 
Q 45.3125 60.0625 41.71875 63.234375 
Q 38.140625 66.40625 31.78125 66.40625 
Q 25.390625 66.40625 21.84375 63.234375 
Q 18.3125 60.0625 18.3125 54.390625 
z
" id="DejaVuSans-38"/>
      </defs>
      <g style="fill:#555555;" transform="translate(238.562904 319.619237)scale(0.1 -0.1)">
       <use xlink:href="#DejaVuSans-38"/>
       <use x="63.623047" xlink:href="#DejaVuSans-30"/>
       <use x="127.246094" xlink:href="#DejaVuSans-30"/>
       <use x="190.869141" xlink:href="#DejaVuSans-30"/>
      </g>
     </g>
    </g>
    <g id="xtick_6">
     <g id="line2d_11">
      <path clip-path="url(#p94d4f59920)" d="M 298.452065 305.0208 
L 298.452065 41.1264 
" style="fill:none;stroke:#ffffff;stroke-linecap:square;stroke-width:0.8;"/>
     </g>
     <g id="line2d_12">
      <g>
       <use style="fill:#555555;stroke:#555555;stroke-width:0.8;" x="298.452065" xlink:href="#m569b6b2a49" y="305.0208"/>
      </g>
     </g>
     <g id="text_6">
      <!-- 10000 -->
      <defs>
       <path d="M 12.40625 8.296875 
L 28.515625 8.296875 
L 28.515625 63.921875 
L 10.984375 60.40625 
L 10.984375 69.390625 
L 28.421875 72.90625 
L 38.28125 72.90625 
L 38.28125 8.296875 
L 54.390625 8.296875 
L 54.390625 0 
L 12.40625 0 
z
" id="DejaVuSans-31"/>
      </defs>
      <g style="fill:#555555;" transform="translate(282.545815 319.619237)scale(0.1 -0.1)">
       <use xlink:href="#DejaVuSans-31"/>
       <use x="63.623047" xlink:href="#DejaVuSans-30"/>
       <use x="127.246094" xlink:href="#DejaVuSans-30"/>
       <use x="190.869141" xlink:href="#DejaVuSans-30"/>
       <use x="254.492188" xlink:href="#DejaVuSans-30"/>
      </g>
     </g>
    </g>
    <g id="xtick_7">
     <g id="line2d_13">
      <path clip-path="url(#p94d4f59920)" d="M 345.616225 305.0208 
L 345.616225 41.1264 
" style="fill:none;stroke:#ffffff;stroke-linecap:square;stroke-width:0.8;"/>
     </g>
     <g id="line2d_14">
      <g>
       <use style="fill:#555555;stroke:#555555;stroke-width:0.8;" x="345.616225" xlink:href="#m569b6b2a49" y="305.0208"/>
      </g>
     </g>
     <g id="text_7">
      <!-- 12000 -->
      <g style="fill:#555555;" transform="translate(329.709975 319.619237)scale(0.1 -0.1)">
       <use xlink:href="#DejaVuSans-31"/>
       <use x="63.623047" xlink:href="#DejaVuSans-32"/>
       <use x="127.246094" xlink:href="#DejaVuSans-30"/>
       <use x="190.869141" xlink:href="#DejaVuSans-30"/>
       <use x="254.492188" xlink:href="#DejaVuSans-30"/>
      </g>
     </g>
    </g>
    <g id="xtick_8">
     <g id="line2d_15">
      <path clip-path="url(#p94d4f59920)" d="M 392.780386 305.0208 
L 392.780386 41.1264 
" style="fill:none;stroke:#ffffff;stroke-linecap:square;stroke-width:0.8;"/>
     </g>
     <g id="line2d_16">
      <g>
       <use style="fill:#555555;stroke:#555555;stroke-width:0.8;" x="392.780386" xlink:href="#m569b6b2a49" y="305.0208"/>
      </g>
     </g>
     <g id="text_8">
      <!-- 14000 -->
      <g style="fill:#555555;" transform="translate(376.874136 319.619237)scale(0.1 -0.1)">
       <use xlink:href="#DejaVuSans-31"/>
       <use x="63.623047" xlink:href="#DejaVuSans-34"/>
       <use x="127.246094" xlink:href="#DejaVuSans-30"/>
       <use x="190.869141" xlink:href="#DejaVuSans-30"/>
       <use x="254.492188" xlink:href="#DejaVuSans-30"/>
      </g>
     </g>
    </g>
   </g>
   <g id="matplotlib.axis_2">
    <g id="ytick_1">
     <g id="line2d_17">
      <path clip-path="url(#p94d4f59920)" d="M 57.6 302.395598 
L 414.72 302.395598 
" style="fill:none;stroke:#ffffff;stroke-linecap:square;stroke-width:0.8;"/>
     </g>
     <g id="line2d_18">
      <defs>
       <path d="M 0 0 
L -3.5 0 
" id="mf853eed036" style="stroke:#555555;stroke-width:0.8;"/>
      </defs>
      <g>
       <use style="fill:#555555;stroke:#555555;stroke-width:0.8;" x="57.6" xlink:href="#mf853eed036" y="302.395598"/>
      </g>
     </g>
     <g id="text_9">
      <!-- 0 -->
      <g style="fill:#555555;" transform="translate(44.2375 306.194816)scale(0.1 -0.1)">
       <use xlink:href="#DejaVuSans-30"/>
      </g>
     </g>
    </g>
    <g id="ytick_2">
     <g id="line2d_19">
      <path clip-path="url(#p94d4f59920)" d="M 57.6 267.497939 
L 414.72 267.497939 
" style="fill:none;stroke:#ffffff;stroke-linecap:square;stroke-width:0.8;"/>
     </g>
     <g id="line2d_20">
      <g>
       <use style="fill:#555555;stroke:#555555;stroke-width:0.8;" x="57.6" xlink:href="#mf853eed036" y="267.497939"/>
      </g>
     </g>
     <g id="text_10">
      <!-- 2000 -->
      <g style="fill:#555555;" transform="translate(25.15 271.297158)scale(0.1 -0.1)">
       <use xlink:href="#DejaVuSans-32"/>
       <use x="63.623047" xlink:href="#DejaVuSans-30"/>
       <use x="127.246094" xlink:href="#DejaVuSans-30"/>
       <use x="190.869141" xlink:href="#DejaVuSans-30"/>
      </g>
     </g>
    </g>
    <g id="ytick_3">
     <g id="line2d_21">
      <path clip-path="url(#p94d4f59920)" d="M 57.6 232.600281 
L 414.72 232.600281 
" style="fill:none;stroke:#ffffff;stroke-linecap:square;stroke-width:0.8;"/>
     </g>
     <g id="line2d_22">
      <g>
       <use style="fill:#555555;stroke:#555555;stroke-width:0.8;" x="57.6" xlink:href="#mf853eed036" y="232.600281"/>
      </g>
     </g>
     <g id="text_11">
      <!-- 4000 -->
      <g style="fill:#555555;" transform="translate(25.15 236.3995)scale(0.1 -0.1)">
       <use xlink:href="#DejaVuSans-34"/>
       <use x="63.623047" xlink:href="#DejaVuSans-30"/>
       <use x="127.246094" xlink:href="#DejaVuSans-30"/>
       <use x="190.869141" xlink:href="#DejaVuSans-30"/>
      </g>
     </g>
    </g>
    <g id="ytick_4">
     <g id="line2d_23">
      <path clip-path="url(#p94d4f59920)" d="M 57.6 197.702622 
L 414.72 197.702622 
" style="fill:none;stroke:#ffffff;stroke-linecap:square;stroke-width:0.8;"/>
     </g>
     <g id="line2d_24">
      <g>
       <use style="fill:#555555;stroke:#555555;stroke-width:0.8;" x="57.6" xlink:href="#mf853eed036" y="197.702622"/>
      </g>
     </g>
     <g id="text_12">
      <!-- 6000 -->
      <g style="fill:#555555;" transform="translate(25.15 201.501841)scale(0.1 -0.1)">
       <use xlink:href="#DejaVuSans-36"/>
       <use x="63.623047" xlink:href="#DejaVuSans-30"/>
       <use x="127.246094" xlink:href="#DejaVuSans-30"/>
       <use x="190.869141" xlink:href="#DejaVuSans-30"/>
      </g>
     </g>
    </g>
    <g id="ytick_5">
     <g id="line2d_25">
      <path clip-path="url(#p94d4f59920)" d="M 57.6 162.804964 
L 414.72 162.804964 
" style="fill:none;stroke:#ffffff;stroke-linecap:square;stroke-width:0.8;"/>
     </g>
     <g id="line2d_26">
      <g>
       <use style="fill:#555555;stroke:#555555;stroke-width:0.8;" x="57.6" xlink:href="#mf853eed036" y="162.804964"/>
      </g>
     </g>
     <g id="text_13">
      <!-- 8000 -->
      <g style="fill:#555555;" transform="translate(25.15 166.604183)scale(0.1 -0.1)">
       <use xlink:href="#DejaVuSans-38"/>
       <use x="63.623047" xlink:href="#DejaVuSans-30"/>
       <use x="127.246094" xlink:href="#DejaVuSans-30"/>
       <use x="190.869141" xlink:href="#DejaVuSans-30"/>
      </g>
     </g>
    </g>
    <g id="ytick_6">
     <g id="line2d_27">
      <path clip-path="url(#p94d4f59920)" d="M 57.6 127.907306 
L 414.72 127.907306 
" style="fill:none;stroke:#ffffff;stroke-linecap:square;stroke-width:0.8;"/>
     </g>
     <g id="line2d_28">
      <g>
       <use style="fill:#555555;stroke:#555555;stroke-width:0.8;" x="57.6" xlink:href="#mf853eed036" y="127.907306"/>
      </g>
     </g>
     <g id="text_14">
      <!-- 10000 -->
      <g style="fill:#555555;" transform="translate(18.7875 131.706524)scale(0.1 -0.1)">
       <use xlink:href="#DejaVuSans-31"/>
       <use x="63.623047" xlink:href="#DejaVuSans-30"/>
       <use x="127.246094" xlink:href="#DejaVuSans-30"/>
       <use x="190.869141" xlink:href="#DejaVuSans-30"/>
       <use x="254.492188" xlink:href="#DejaVuSans-30"/>
      </g>
     </g>
    </g>
    <g id="ytick_7">
     <g id="line2d_29">
      <path clip-path="url(#p94d4f59920)" d="M 57.6 93.009647 
L 414.72 93.009647 
" style="fill:none;stroke:#ffffff;stroke-linecap:square;stroke-width:0.8;"/>
     </g>
     <g id="line2d_30">
      <g>
       <use style="fill:#555555;stroke:#555555;stroke-width:0.8;" x="57.6" xlink:href="#mf853eed036" y="93.009647"/>
      </g>
     </g>
     <g id="text_15">
      <!-- 12000 -->
      <g style="fill:#555555;" transform="translate(18.7875 96.808866)scale(0.1 -0.1)">
       <use xlink:href="#DejaVuSans-31"/>
       <use x="63.623047" xlink:href="#DejaVuSans-32"/>
       <use x="127.246094" xlink:href="#DejaVuSans-30"/>
       <use x="190.869141" xlink:href="#DejaVuSans-30"/>
       <use x="254.492188" xlink:href="#DejaVuSans-30"/>
      </g>
     </g>
    </g>
    <g id="ytick_8">
     <g id="line2d_31">
      <path clip-path="url(#p94d4f59920)" d="M 57.6 58.111989 
L 414.72 58.111989 
" style="fill:none;stroke:#ffffff;stroke-linecap:square;stroke-width:0.8;"/>
     </g>
     <g id="line2d_32">
      <g>
       <use style="fill:#555555;stroke:#555555;stroke-width:0.8;" x="57.6" xlink:href="#mf853eed036" y="58.111989"/>
      </g>
     </g>
     <g id="text_16">
      <!-- 14000 -->
      <g style="fill:#555555;" transform="translate(18.7875 61.911208)scale(0.1 -0.1)">
       <use xlink:href="#DejaVuSans-31"/>
       <use x="63.623047" xlink:href="#DejaVuSans-34"/>
       <use x="127.246094" xlink:href="#DejaVuSans-30"/>
       <use x="190.869141" xlink:href="#DejaVuSans-30"/>
       <use x="254.492188" xlink:href="#DejaVuSans-30"/>
      </g>
     </g>
    </g>
   </g>
   <g id="PathCollection_1">
    <defs>
     <path d="M 0 0.5 
C 0.132602 0.5 0.25979 0.447317 0.353553 0.353553 
C 0.447317 0.25979 0.5 0.132602 0.5 0 
C 0.5 -0.132602 0.447317 -0.25979 0.353553 -0.353553 
C 0.25979 -0.447317 0.132602 -0.5 0 -0.5 
C -0.132602 -0.5 -0.25979 -0.447317 -0.353553 -0.353553 
C -0.447317 -0.25979 -0.5 -0.132602 -0.5 0 
C -0.5 0.132602 -0.447317 0.25979 -0.353553 0.353553 
C -0.25979 0.447317 -0.132602 0.5 0 0.5 
z
" id="m2cae93a0f6" style="stroke:#000000;stroke-width:0.5;"/>
    </defs>
    <g clip-path="url(#p94d4f59920)">
     <use style="stroke:#000000;stroke-width:0.5;" x="140.287053" xlink:href="#m2cae93a0f6" y="273.831864"/>
     <use style="stroke:#000000;stroke-width:0.5;" x="133.707653" xlink:href="#m2cae93a0f6" y="256.819256"/>
     <use style="stroke:#000000;stroke-width:0.5;" x="192.827928" xlink:href="#m2cae93a0f6" y="200.197805"/>
     <use style="stroke:#000000;stroke-width:0.5;" x="158.704658" xlink:href="#m2cae93a0f6" y="127.348943"/>
     <use style="stroke:#000000;stroke-width:0.5;" x="214.806426" xlink:href="#m2cae93a0f6" y="282.277098"/>
     <use style="stroke:#000000;stroke-width:0.5;" x="82.487374" xlink:href="#m2cae93a0f6" y="271.790351"/>
     <use style="stroke:#000000;stroke-width:0.5;" x="116.233331" xlink:href="#m2cae93a0f6" y="276.361945"/>
     <use style="stroke:#000000;stroke-width:0.5;" x="162.006149" xlink:href="#m2cae93a0f6" y="136.579374"/>
     <use style="stroke:#000000;stroke-width:0.5;" x="159.41212" xlink:href="#m2cae93a0f6" y="121.416341"/>
     <use style="stroke:#000000;stroke-width:0.5;" x="74.61096" xlink:href="#m2cae93a0f6" y="285.958801"/>
     <use style="stroke:#000000;stroke-width:0.5;" x="140.098396" xlink:href="#m2cae93a0f6" y="256.121303"/>
     <use style="stroke:#000000;stroke-width:0.5;" x="139.225859" xlink:href="#m2cae93a0f6" y="256.784358"/>
     <use style="stroke:#000000;stroke-width:0.5;" x="166.651819" xlink:href="#m2cae93a0f6" y="223.736276"/>
     <use style="stroke:#000000;stroke-width:0.5;" x="170.259877" xlink:href="#m2cae93a0f6" y="235.322298"/>
     <use style="stroke:#000000;stroke-width:0.5;" x="164.906745" xlink:href="#m2cae93a0f6" y="283.201886"/>
     <use style="stroke:#000000;stroke-width:0.5;" x="166.486744" xlink:href="#m2cae93a0f6" y="254.498562"/>
     <use style="stroke:#000000;stroke-width:0.5;" x="164.718088" xlink:href="#m2cae93a0f6" y="274.931141"/>
     <use style="stroke:#000000;stroke-width:0.5;" x="168.656295" xlink:href="#m2cae93a0f6" y="272.383611"/>
     <use style="stroke:#000000;stroke-width:0.5;" x="98.476025" xlink:href="#m2cae93a0f6" y="149.997523"/>
     <use style="stroke:#000000;stroke-width:0.5;" x="158.822568" xlink:href="#m2cae93a0f6" y="225.812686"/>
     <use style="stroke:#000000;stroke-width:0.5;" x="172.735995" xlink:href="#m2cae93a0f6" y="221.747109"/>
     <use style="stroke:#000000;stroke-width:0.5;" x="176.344054" xlink:href="#m2cae93a0f6" y="130.611874"/>
     <use style="stroke:#000000;stroke-width:0.5;" x="258.904916" xlink:href="#m2cae93a0f6" y="285.801761"/>
     <use style="stroke:#000000;stroke-width:0.5;" x="182.263156" xlink:href="#m2cae93a0f6" y="267.096616"/>
     <use style="stroke:#000000;stroke-width:0.5;" x="142.055709" xlink:href="#m2cae93a0f6" y="285.644722"/>
     <use style="stroke:#000000;stroke-width:0.5;" x="102.720799" xlink:href="#m2cae93a0f6" y="96.761145"/>
     <use style="stroke:#000000;stroke-width:0.5;" x="155.568241" xlink:href="#m2cae93a0f6" y="135.392853"/>
     <use style="stroke:#000000;stroke-width:0.5;" x="123.425866" xlink:href="#m2cae93a0f6" y="217.524492"/>
     <use style="stroke:#000000;stroke-width:0.5;" x="119.133927" xlink:href="#m2cae93a0f6" y="210.248331"/>
     <use style="stroke:#000000;stroke-width:0.5;" x="98.853338" xlink:href="#m2cae93a0f6" y="264.758473"/>
     <use style="stroke:#000000;stroke-width:0.5;" x="84.609762" xlink:href="#m2cae93a0f6" y="274.931141"/>
     <use style="stroke:#000000;stroke-width:0.5;" x="79.657525" xlink:href="#m2cae93a0f6" y="282.102609"/>
     <use style="stroke:#000000;stroke-width:0.5;" x="83.407076" xlink:href="#m2cae93a0f6" y="284.911871"/>
     <use style="stroke:#000000;stroke-width:0.5;" x="231.691196" xlink:href="#m2cae93a0f6" y="217.768776"/>
     <use style="stroke:#000000;stroke-width:0.5;" x="280.152371" xlink:href="#m2cae93a0f6" y="243.819878"/>
     <use style="stroke:#000000;stroke-width:0.5;" x="309.700717" xlink:href="#m2cae93a0f6" y="172.157536"/>
     <use style="stroke:#000000;stroke-width:0.5;" x="191.861062" xlink:href="#m2cae93a0f6" y="144.954812"/>
     <use style="stroke:#000000;stroke-width:0.5;" x="190.375391" xlink:href="#m2cae93a0f6" y="139.231596"/>
     <use style="stroke:#000000;stroke-width:0.5;" x="191.200764" xlink:href="#m2cae93a0f6" y="141.25566"/>
     <use style="stroke:#000000;stroke-width:0.5;" x="225.984332" xlink:href="#m2cae93a0f6" y="128.605259"/>
     <use style="stroke:#000000;stroke-width:0.5;" x="233.318359" xlink:href="#m2cae93a0f6" y="92.276796"/>
     <use style="stroke:#000000;stroke-width:0.5;" x="321.421011" xlink:href="#m2cae93a0f6" y="101.280392"/>
     <use style="stroke:#000000;stroke-width:0.5;" x="331.561305" xlink:href="#m2cae93a0f6" y="116.67026"/>
     <use style="stroke:#000000;stroke-width:0.5;" x="378.607555" xlink:href="#m2cae93a0f6" y="96.359822"/>
     <use style="stroke:#000000;stroke-width:0.5;" x="378.843376" xlink:href="#m2cae93a0f6" y="99.238879"/>
     <use style="stroke:#000000;stroke-width:0.5;" x="188.253004" xlink:href="#m2cae93a0f6" y="145.373584"/>
     <use style="stroke:#000000;stroke-width:0.5;" x="185.989124" xlink:href="#m2cae93a0f6" y="140.784542"/>
     <use style="stroke:#000000;stroke-width:0.5;" x="214.523441" xlink:href="#m2cae93a0f6" y="132.618489"/>
     <use style="stroke:#000000;stroke-width:0.5;" x="387.922477" xlink:href="#m2cae93a0f6" y="175.786893"/>
     <use style="stroke:#000000;stroke-width:0.5;" x="208.580757" xlink:href="#m2cae93a0f6" y="121.957255"/>
     <use style="stroke:#000000;stroke-width:0.5;" x="321.491757" xlink:href="#m2cae93a0f6" y="119.531868"/>
     <use style="stroke:#000000;stroke-width:0.5;" x="304.229674" xlink:href="#m2cae93a0f6" y="88.281014"/>
     <use style="stroke:#000000;stroke-width:0.5;" x="319.817429" xlink:href="#m2cae93a0f6" y="91.735883"/>
     <use style="stroke:#000000;stroke-width:0.5;" x="373.301587" xlink:href="#m2cae93a0f6" y="60.48503"/>
     <use style="stroke:#000000;stroke-width:0.5;" x="388.771432" xlink:href="#m2cae93a0f6" y="120.404309"/>
     <use style="stroke:#000000;stroke-width:0.5;" x="386.413224" xlink:href="#m2cae93a0f6" y="127.732817"/>
     <use style="stroke:#000000;stroke-width:0.5;" x="320.029668" xlink:href="#m2cae93a0f6" y="280.14834"/>
     <use style="stroke:#000000;stroke-width:0.5;" x="100.551248" xlink:href="#m2cae93a0f6" y="89.118558"/>
     <use style="stroke:#000000;stroke-width:0.5;" x="90.316625" xlink:href="#m2cae93a0f6" y="211.958316"/>
     <use style="stroke:#000000;stroke-width:0.5;" x="81.237524" xlink:href="#m2cae93a0f6" y="225.533505"/>
     <use style="stroke:#000000;stroke-width:0.5;" x="76.190959" xlink:href="#m2cae93a0f6" y="274.477471"/>
     <use style="stroke:#000000;stroke-width:0.5;" x="74.658124" xlink:href="#m2cae93a0f6" y="252.87582"/>
     <use style="stroke:#000000;stroke-width:0.5;" x="96.848861" xlink:href="#m2cae93a0f6" y="238.829513"/>
     <use style="stroke:#000000;stroke-width:0.5;" x="257.985215" xlink:href="#m2cae93a0f6" y="194.806117"/>
     <use style="stroke:#000000;stroke-width:0.5;" x="107.555126" xlink:href="#m2cae93a0f6" y="268.789153"/>
     <use style="stroke:#000000;stroke-width:0.5;" x="302.036541" xlink:href="#m2cae93a0f6" y="285.400438"/>
     <use style="stroke:#000000;stroke-width:0.5;" x="242.043729" xlink:href="#m2cae93a0f6" y="286.203084"/>
     <use style="stroke:#000000;stroke-width:0.5;" x="278.713864" xlink:href="#m2cae93a0f6" y="287.250014"/>
     <use style="stroke:#000000;stroke-width:0.5;" x="314.487879" xlink:href="#m2cae93a0f6" y="246.524447"/>
     <use style="stroke:#000000;stroke-width:0.5;" x="90.906177" xlink:href="#m2cae93a0f6" y="131.833292"/>
     <use style="stroke:#000000;stroke-width:0.5;" x="81.048868" xlink:href="#m2cae93a0f6" y="162.700271"/>
     <use style="stroke:#000000;stroke-width:0.5;" x="141.560485" xlink:href="#m2cae93a0f6" y="157.50052"/>
     <use style="stroke:#000000;stroke-width:0.5;" x="208.557175" xlink:href="#m2cae93a0f6" y="265.822852"/>
     <use style="stroke:#000000;stroke-width:0.5;" x="75.931556" xlink:href="#m2cae93a0f6" y="230.733256"/>
     <use style="stroke:#000000;stroke-width:0.5;" x="100.291845" xlink:href="#m2cae93a0f6" y="283.568311"/>
     <use style="stroke:#000000;stroke-width:0.5;" x="81.662002" xlink:href="#m2cae93a0f6" y="266.067135"/>
     <use style="stroke:#000000;stroke-width:0.5;" x="254.400739" xlink:href="#m2cae93a0f6" y="179.992061"/>
     <use style="stroke:#000000;stroke-width:0.5;" x="259.470886" xlink:href="#m2cae93a0f6" y="196.132228"/>
     <use style="stroke:#000000;stroke-width:0.5;" x="223.861945" xlink:href="#m2cae93a0f6" y="233.001604"/>
     <use style="stroke:#000000;stroke-width:0.5;" x="113.804377" xlink:href="#m2cae93a0f6" y="260.570754"/>
     <use style="stroke:#000000;stroke-width:0.5;" x="244.21328" xlink:href="#m2cae93a0f6" y="175.315775"/>
     <use style="stroke:#000000;stroke-width:0.5;" x="330.47653" xlink:href="#m2cae93a0f6" y="269.57435"/>
     <use style="stroke:#000000;stroke-width:0.5;" x="175.943158" xlink:href="#m2cae93a0f6" y="160.833246"/>
     <use style="stroke:#000000;stroke-width:0.5;" x="247.703428" xlink:href="#m2cae93a0f6" y="169.784496"/>
     <use style="stroke:#000000;stroke-width:0.5;" x="248.033577" xlink:href="#m2cae93a0f6" y="175.054042"/>
     <use style="stroke:#000000;stroke-width:0.5;" x="246.500742" xlink:href="#m2cae93a0f6" y="200.948105"/>
     <use style="stroke:#000000;stroke-width:0.5;" x="183.583752" xlink:href="#m2cae93a0f6" y="114.995172"/>
     <use style="stroke:#000000;stroke-width:0.5;" x="221.19717" xlink:href="#m2cae93a0f6" y="175.804342"/>
     <use style="stroke:#000000;stroke-width:0.5;" x="342.975032" xlink:href="#m2cae93a0f6" y="246.419754"/>
     <use style="stroke:#000000;stroke-width:0.5;" x="366.41562" xlink:href="#m2cae93a0f6" y="252.14297"/>
     <use style="stroke:#000000;stroke-width:0.5;" x="165.024655" xlink:href="#m2cae93a0f6" y="235.095463"/>
     <use style="stroke:#000000;stroke-width:0.5;" x="169.458086" xlink:href="#m2cae93a0f6" y="233.228439"/>
     <use style="stroke:#000000;stroke-width:0.5;" x="166.816893" xlink:href="#m2cae93a0f6" y="272.10443"/>
     <use style="stroke:#000000;stroke-width:0.5;" x="176.579874" xlink:href="#m2cae93a0f6" y="281.526798"/>
     <use style="stroke:#000000;stroke-width:0.5;" x="202.755983" xlink:href="#m2cae93a0f6" y="281.980468"/>
     <use style="stroke:#000000;stroke-width:0.5;" x="184.786438" xlink:href="#m2cae93a0f6" y="151.567918"/>
     <use style="stroke:#000000;stroke-width:0.5;" x="194.926733" xlink:href="#m2cae93a0f6" y="146.298372"/>
     <use style="stroke:#000000;stroke-width:0.5;" x="114.511839" xlink:href="#m2cae93a0f6" y="279.659773"/>
     <use style="stroke:#000000;stroke-width:0.5;" x="73.832751" xlink:href="#m2cae93a0f6" y="289.291527"/>
     <use style="stroke:#000000;stroke-width:0.5;" x="207.000758" xlink:href="#m2cae93a0f6" y="143.960228"/>
     <use style="stroke:#000000;stroke-width:0.5;" x="198.228224" xlink:href="#m2cae93a0f6" y="155.197274"/>
     <use style="stroke:#000000;stroke-width:0.5;" x="191.672406" xlink:href="#m2cae93a0f6" y="138.062524"/>
     <use style="stroke:#000000;stroke-width:0.5;" x="169.882564" xlink:href="#m2cae93a0f6" y="96.970531"/>
     <use style="stroke:#000000;stroke-width:0.5;" x="362.430248" xlink:href="#m2cae93a0f6" y="136.63172"/>
     <use style="stroke:#000000;stroke-width:0.5;" x="365.73174" xlink:href="#m2cae93a0f6" y="132.601041"/>
     <use style="stroke:#000000;stroke-width:0.5;" x="310.974149" xlink:href="#m2cae93a0f6" y="125.970486"/>
     <use style="stroke:#000000;stroke-width:0.5;" x="350.66279" xlink:href="#m2cae93a0f6" y="90.217835"/>
     <use style="stroke:#000000;stroke-width:0.5;" x="236.619851" xlink:href="#m2cae93a0f6" y="133.386238"/>
     <use style="stroke:#000000;stroke-width:0.5;" x="208.462847" xlink:href="#m2cae93a0f6" y="135.58479"/>
     <use style="stroke:#000000;stroke-width:0.5;" x="227.564332" xlink:href="#m2cae93a0f6" y="129.006582"/>
     <use style="stroke:#000000;stroke-width:0.5;" x="265.29566" xlink:href="#m2cae93a0f6" y="118.380245"/>
     <use style="stroke:#000000;stroke-width:0.5;" x="272.20521" xlink:href="#m2cae93a0f6" y="139.214147"/>
     <use style="stroke:#000000;stroke-width:0.5;" x="269.115957" xlink:href="#m2cae93a0f6" y="130.280346"/>
     <use style="stroke:#000000;stroke-width:0.5;" x="250.155965" xlink:href="#m2cae93a0f6" y="127.261699"/>
     <use style="stroke:#000000;stroke-width:0.5;" x="238.600745" xlink:href="#m2cae93a0f6" y="164.724335"/>
     <use style="stroke:#000000;stroke-width:0.5;" x="245.368802" xlink:href="#m2cae93a0f6" y="166.556462"/>
     <use style="stroke:#000000;stroke-width:0.5;" x="328.990859" xlink:href="#m2cae93a0f6" y="95.330341"/>
     <use style="stroke:#000000;stroke-width:0.5;" x="342.078913" xlink:href="#m2cae93a0f6" y="97.685933"/>
     <use style="stroke:#000000;stroke-width:0.5;" x="208.816578" xlink:href="#m2cae93a0f6" y="151.445776"/>
     <use style="stroke:#000000;stroke-width:0.5;" x="208.368519" xlink:href="#m2cae93a0f6" y="129.33811"/>
     <use style="stroke:#000000;stroke-width:0.5;" x="198.039567" xlink:href="#m2cae93a0f6" y="285.993698"/>
     <use style="stroke:#000000;stroke-width:0.5;" x="167.618684" xlink:href="#m2cae93a0f6" y="224.643615"/>
     <use style="stroke:#000000;stroke-width:0.5;" x="164.553014" xlink:href="#m2cae93a0f6" y="226.824718"/>
     <use style="stroke:#000000;stroke-width:0.5;" x="184.409125" xlink:href="#m2cae93a0f6" y="208.643038"/>
     <use style="stroke:#000000;stroke-width:0.5;" x="189.738675" xlink:href="#m2cae93a0f6" y="211.818725"/>
     <use style="stroke:#000000;stroke-width:0.5;" x="87.416029" xlink:href="#m2cae93a0f6" y="216.006444"/>
     <use style="stroke:#000000;stroke-width:0.5;" x="173.938681" xlink:href="#m2cae93a0f6" y="285.81921"/>
     <use style="stroke:#000000;stroke-width:0.5;" x="185.163752" xlink:href="#m2cae93a0f6" y="284.074327"/>
     <use style="stroke:#000000;stroke-width:0.5;" x="116.610645" xlink:href="#m2cae93a0f6" y="279.363143"/>
     <use style="stroke:#000000;stroke-width:0.5;" x="276.143417" xlink:href="#m2cae93a0f6" y="148.165396"/>
     <use style="stroke:#000000;stroke-width:0.5;" x="258.409693" xlink:href="#m2cae93a0f6" y="171.267646"/>
     <use style="stroke:#000000;stroke-width:0.5;" x="274.539836" xlink:href="#m2cae93a0f6" y="159.001119"/>
     <use style="stroke:#000000;stroke-width:0.5;" x="267.795361" xlink:href="#m2cae93a0f6" y="154.22014"/>
     <use style="stroke:#000000;stroke-width:0.5;" x="298.994453" xlink:href="#m2cae93a0f6" y="119.130545"/>
     <use style="stroke:#000000;stroke-width:0.5;" x="288.995651" xlink:href="#m2cae93a0f6" y="146.036639"/>
     <use style="stroke:#000000;stroke-width:0.5;" x="341.347869" xlink:href="#m2cae93a0f6" y="138.219564"/>
     <use style="stroke:#000000;stroke-width:0.5;" x="219.782245" xlink:href="#m2cae93a0f6" y="104.246693"/>
     <use style="stroke:#000000;stroke-width:0.5;" x="222.2112" xlink:href="#m2cae93a0f6" y="103.269559"/>
     <use style="stroke:#000000;stroke-width:0.5;" x="277.817745" xlink:href="#m2cae93a0f6" y="103.287008"/>
     <use style="stroke:#000000;stroke-width:0.5;" x="303.592958" xlink:href="#m2cae93a0f6" y="64.009693"/>
     <use style="stroke:#000000;stroke-width:0.5;" x="372.971438" xlink:href="#m2cae93a0f6" y="78.352631"/>
     <use style="stroke:#000000;stroke-width:0.5;" x="269.25745" xlink:href="#m2cae93a0f6" y="159.594379"/>
     <use style="stroke:#000000;stroke-width:0.5;" x="169.080773" xlink:href="#m2cae93a0f6" y="140.383218"/>
     <use style="stroke:#000000;stroke-width:0.5;" x="157.195404" xlink:href="#m2cae93a0f6" y="138.585989"/>
     <use style="stroke:#000000;stroke-width:0.5;" x="158.421673" xlink:href="#m2cae93a0f6" y="105.625151"/>
     <use style="stroke:#000000;stroke-width:0.5;" x="152.761973" xlink:href="#m2cae93a0f6" y="138.237012"/>
     <use style="stroke:#000000;stroke-width:0.5;" x="145.027051" xlink:href="#m2cae93a0f6" y="142.826055"/>
     <use style="stroke:#000000;stroke-width:0.5;" x="152.620481" xlink:href="#m2cae93a0f6" y="139.388635"/>
     <use style="stroke:#000000;stroke-width:0.5;" x="273.738045" xlink:href="#m2cae93a0f6" y="205.816328"/>
     <use style="stroke:#000000;stroke-width:0.5;" x="219.452096" xlink:href="#m2cae93a0f6" y="136.701516"/>
     <use style="stroke:#000000;stroke-width:0.5;" x="141.466157" xlink:href="#m2cae93a0f6" y="154.691258"/>
     <use style="stroke:#000000;stroke-width:0.5;" x="173.136891" xlink:href="#m2cae93a0f6" y="265.229591"/>
     <use style="stroke:#000000;stroke-width:0.5;" x="177.994799" xlink:href="#m2cae93a0f6" y="286.86614"/>
     <use style="stroke:#000000;stroke-width:0.5;" x="89.043193" xlink:href="#m2cae93a0f6" y="286.360124"/>
     <use style="stroke:#000000;stroke-width:0.5;" x="109.465274" xlink:href="#m2cae93a0f6" y="279.241001"/>
     <use style="stroke:#000000;stroke-width:0.5;" x="244.66134" xlink:href="#m2cae93a0f6" y="167.202069"/>
     <use style="stroke:#000000;stroke-width:0.5;" x="230.441346" xlink:href="#m2cae93a0f6" y="106.305655"/>
     <use style="stroke:#000000;stroke-width:0.5;" x="270.648792" xlink:href="#m2cae93a0f6" y="127.802613"/>
     <use style="stroke:#000000;stroke-width:0.5;" x="382.262778" xlink:href="#m2cae93a0f6" y="220.874668"/>
     <use style="stroke:#000000;stroke-width:0.5;" x="202.472998" xlink:href="#m2cae93a0f6" y="204.908989"/>
     <use style="stroke:#000000;stroke-width:0.5;" x="243.906713" xlink:href="#m2cae93a0f6" y="200.895758"/>
     <use style="stroke:#000000;stroke-width:0.5;" x="191.978973" xlink:href="#m2cae93a0f6" y="65.231111"/>
     <use style="stroke:#000000;stroke-width:0.5;" x="238.742238" xlink:href="#m2cae93a0f6" y="230.366831"/>
     <use style="stroke:#000000;stroke-width:0.5;" x="249.071189" xlink:href="#m2cae93a0f6" y="229.267554"/>
     <use style="stroke:#000000;stroke-width:0.5;" x="271.403419" xlink:href="#m2cae93a0f6" y="237.136976"/>
     <use style="stroke:#000000;stroke-width:0.5;" x="241.902237" xlink:href="#m2cae93a0f6" y="233.368029"/>
     <use style="stroke:#000000;stroke-width:0.5;" x="365.000695" xlink:href="#m2cae93a0f6" y="68.162514"/>
     <use style="stroke:#000000;stroke-width:0.5;" x="394.218892" xlink:href="#m2cae93a0f6" y="139.9121"/>
     <use style="stroke:#000000;stroke-width:0.5;" x="297.013558" xlink:href="#m2cae93a0f6" y="107.893498"/>
     <use style="stroke:#000000;stroke-width:0.5;" x="350.851447" xlink:href="#m2cae93a0f6" y="115.902511"/>
     <use style="stroke:#000000;stroke-width:0.5;" x="385.281284" xlink:href="#m2cae93a0f6" y="108.6089"/>
     <use style="stroke:#000000;stroke-width:0.5;" x="396.718593" xlink:href="#m2cae93a0f6" y="107.439829"/>
     <use style="stroke:#000000;stroke-width:0.5;" x="397.237399" xlink:href="#m2cae93a0f6" y="104.054756"/>
     <use style="stroke:#000000;stroke-width:0.5;" x="398.487249" xlink:href="#m2cae93a0f6" y="61.863487"/>
     <use style="stroke:#000000;stroke-width:0.5;" x="245.203728" xlink:href="#m2cae93a0f6" y="111.714792"/>
     <use style="stroke:#000000;stroke-width:0.5;" x="169.811817" xlink:href="#m2cae93a0f6" y="119.462072"/>
     <use style="stroke:#000000;stroke-width:0.5;" x="201.977775" xlink:href="#m2cae93a0f6" y="123.231019"/>
     <use style="stroke:#000000;stroke-width:0.5;" x="205.915982" xlink:href="#m2cae93a0f6" y="203.338594"/>
     <use style="stroke:#000000;stroke-width:0.5;" x="234.426717" xlink:href="#m2cae93a0f6" y="197.720071"/>
     <use style="stroke:#000000;stroke-width:0.5;" x="246.878055" xlink:href="#m2cae93a0f6" y="237.206772"/>
     <use style="stroke:#000000;stroke-width:0.5;" x="388.86576" xlink:href="#m2cae93a0f6" y="154.045652"/>
     <use style="stroke:#000000;stroke-width:0.5;" x="297.084304" xlink:href="#m2cae93a0f6" y="106.654632"/>
     <use style="stroke:#000000;stroke-width:0.5;" x="308.639523" xlink:href="#m2cae93a0f6" y="82.767184"/>
     <use style="stroke:#000000;stroke-width:0.5;" x="146.206155" xlink:href="#m2cae93a0f6" y="117.542701"/>
     <use style="stroke:#000000;stroke-width:0.5;" x="101.022889" xlink:href="#m2cae93a0f6" y="80.097514"/>
     <use style="stroke:#000000;stroke-width:0.5;" x="210.443742" xlink:href="#m2cae93a0f6" y="200.337396"/>
     <use style="stroke:#000000;stroke-width:0.5;" x="207.543146" xlink:href="#m2cae93a0f6" y="200.668923"/>
     <use style="stroke:#000000;stroke-width:0.5;" x="154.907943" xlink:href="#m2cae93a0f6" y="292.275277"/>
     <use style="stroke:#000000;stroke-width:0.5;" x="158.610329" xlink:href="#m2cae93a0f6" y="286.011147"/>
     <use style="stroke:#000000;stroke-width:0.5;" x="144.390335" xlink:href="#m2cae93a0f6" y="293.025576"/>
     <use style="stroke:#000000;stroke-width:0.5;" x="122.718403" xlink:href="#m2cae93a0f6" y="290.704882"/>
     <use style="stroke:#000000;stroke-width:0.5;" x="242.538953" xlink:href="#m2cae93a0f6" y="168.563078"/>
     <use style="stroke:#000000;stroke-width:0.5;" x="244.260445" xlink:href="#m2cae93a0f6" y="169.662354"/>
     <use style="stroke:#000000;stroke-width:0.5;" x="302.720421" xlink:href="#m2cae93a0f6" y="123.614894"/>
     <use style="stroke:#000000;stroke-width:0.5;" x="301.965795" xlink:href="#m2cae93a0f6" y="282.172405"/>
     <use style="stroke:#000000;stroke-width:0.5;" x="315.784894" xlink:href="#m2cae93a0f6" y="267.131514"/>
     <use style="stroke:#000000;stroke-width:0.5;" x="363.963084" xlink:href="#m2cae93a0f6" y="274.477471"/>
     <use style="stroke:#000000;stroke-width:0.5;" x="354.648162" xlink:href="#m2cae93a0f6" y="196.585897"/>
     <use style="stroke:#000000;stroke-width:0.5;" x="352.3607" xlink:href="#m2cae93a0f6" y="207.055195"/>
     <use style="stroke:#000000;stroke-width:0.5;" x="342.220406" xlink:href="#m2cae93a0f6" y="116.774953"/>
     <use style="stroke:#000000;stroke-width:0.5;" x="356.511146" xlink:href="#m2cae93a0f6" y="104.874851"/>
     <use style="stroke:#000000;stroke-width:0.5;" x="388.205462" xlink:href="#m2cae93a0f6" y="75.264188"/>
     <use style="stroke:#000000;stroke-width:0.5;" x="393.983072" xlink:href="#m2cae93a0f6" y="53.121624"/>
     <use style="stroke:#000000;stroke-width:0.5;" x="316.468774" xlink:href="#m2cae93a0f6" y="130.559528"/>
     <use style="stroke:#000000;stroke-width:0.5;" x="303.569376" xlink:href="#m2cae93a0f6" y="110.807453"/>
     <use style="stroke:#000000;stroke-width:0.5;" x="313.992656" xlink:href="#m2cae93a0f6" y="128.622708"/>
     <use style="stroke:#000000;stroke-width:0.5;" x="388.724268" xlink:href="#m2cae93a0f6" y="63.887551"/>
     <use style="stroke:#000000;stroke-width:0.5;" x="388.040387" xlink:href="#m2cae93a0f6" y="184.633449"/>
     <use style="stroke:#000000;stroke-width:0.5;" x="369.339798" xlink:href="#m2cae93a0f6" y="115.483739"/>
     <use style="stroke:#000000;stroke-width:0.5;" x="382.144867" xlink:href="#m2cae93a0f6" y="111.959076"/>
     <use style="stroke:#000000;stroke-width:0.5;" x="373.419498" xlink:href="#m2cae93a0f6" y="134.380821"/>
     <use style="stroke:#000000;stroke-width:0.5;" x="180.447336" xlink:href="#m2cae93a0f6" y="115.797818"/>
     <use style="stroke:#000000;stroke-width:0.5;" x="156.34645" xlink:href="#m2cae93a0f6" y="133.700317"/>
     <use style="stroke:#000000;stroke-width:0.5;" x="151.936601" xlink:href="#m2cae93a0f6" y="137.870587"/>
     <use style="stroke:#000000;stroke-width:0.5;" x="169.410922" xlink:href="#m2cae93a0f6" y="126.860376"/>
     <use style="stroke:#000000;stroke-width:0.5;" x="166.840475" xlink:href="#m2cae93a0f6" y="132.16482"/>
     <use style="stroke:#000000;stroke-width:0.5;" x="383.394718" xlink:href="#m2cae93a0f6" y="203.233901"/>
     <use style="stroke:#000000;stroke-width:0.5;" x="394.949937" xlink:href="#m2cae93a0f6" y="125.272532"/>
     <use style="stroke:#000000;stroke-width:0.5;" x="394.19531" xlink:href="#m2cae93a0f6" y="115.658227"/>
     <use style="stroke:#000000;stroke-width:0.5;" x="378.77263" xlink:href="#m2cae93a0f6" y="151.288737"/>
     <use style="stroke:#000000;stroke-width:0.5;" x="145.192126" xlink:href="#m2cae93a0f6" y="129.512598"/>
     <use style="stroke:#000000;stroke-width:0.5;" x="154.341973" xlink:href="#m2cae93a0f6" y="133.107057"/>
     <use style="stroke:#000000;stroke-width:0.5;" x="101.329457" xlink:href="#m2cae93a0f6" y="265.072552"/>
     <use style="stroke:#000000;stroke-width:0.5;" x="105.314828" xlink:href="#m2cae93a0f6" y="265.212143"/>
     <use style="stroke:#000000;stroke-width:0.5;" x="185.423154" xlink:href="#m2cae93a0f6" y="215.936649"/>
     <use style="stroke:#000000;stroke-width:0.5;" x="124.652134" xlink:href="#m2cae93a0f6" y="242.30183"/>
     <use style="stroke:#000000;stroke-width:0.5;" x="201.789118" xlink:href="#m2cae93a0f6" y="207.386723"/>
     <use style="stroke:#000000;stroke-width:0.5;" x="124.628552" xlink:href="#m2cae93a0f6" y="282.957602"/>
     <use style="stroke:#000000;stroke-width:0.5;" x="83.242001" xlink:href="#m2cae93a0f6" y="241.272349"/>
     <use style="stroke:#000000;stroke-width:0.5;" x="231.313883" xlink:href="#m2cae93a0f6" y="85.768383"/>
     <use style="stroke:#000000;stroke-width:0.5;" x="197.332105" xlink:href="#m2cae93a0f6" y="73.833384"/>
     <use style="stroke:#000000;stroke-width:0.5;" x="134.273623" xlink:href="#m2cae93a0f6" y="92.06741"/>
     <use style="stroke:#000000;stroke-width:0.5;" x="183.347931" xlink:href="#m2cae93a0f6" y="70.587902"/>
     <use style="stroke:#000000;stroke-width:0.5;" x="176.721367" xlink:href="#m2cae93a0f6" y="116.530669"/>
     <use style="stroke:#000000;stroke-width:0.5;" x="243.364325" xlink:href="#m2cae93a0f6" y="239.893891"/>
     <use style="stroke:#000000;stroke-width:0.5;" x="174.080174" xlink:href="#m2cae93a0f6" y="117.089031"/>
     <use style="stroke:#000000;stroke-width:0.5;" x="355.497117" xlink:href="#m2cae93a0f6" y="116.984339"/>
     <use style="stroke:#000000;stroke-width:0.5;" x="355.19055" xlink:href="#m2cae93a0f6" y="88.787031"/>
     <use style="stroke:#000000;stroke-width:0.5;" x="344.979509" xlink:href="#m2cae93a0f6" y="125.447021"/>
     <use style="stroke:#000000;stroke-width:0.5;" x="378.513227" xlink:href="#m2cae93a0f6" y="63.172149"/>
     <use style="stroke:#000000;stroke-width:0.5;" x="389.478894" xlink:href="#m2cae93a0f6" y="66.103553"/>
     <use style="stroke:#000000;stroke-width:0.5;" x="250.533278" xlink:href="#m2cae93a0f6" y="166.032997"/>
     <use style="stroke:#000000;stroke-width:0.5;" x="281.803116" xlink:href="#m2cae93a0f6" y="103.54874"/>
     <use style="stroke:#000000;stroke-width:0.5;" x="186.555094" xlink:href="#m2cae93a0f6" y="289.518362"/>
     <use style="stroke:#000000;stroke-width:0.5;" x="193.346733" xlink:href="#m2cae93a0f6" y="288.959999"/>
     <use style="stroke:#000000;stroke-width:0.5;" x="307.106688" xlink:href="#m2cae93a0f6" y="261.82707"/>
     <use style="stroke:#000000;stroke-width:0.5;" x="112.318706" xlink:href="#m2cae93a0f6" y="235.304849"/>
     <use style="stroke:#000000;stroke-width:0.5;" x="80.082002" xlink:href="#m2cae93a0f6" y="242.668255"/>
     <use style="stroke:#000000;stroke-width:0.5;" x="186.531512" xlink:href="#m2cae93a0f6" y="165.84106"/>
     <use style="stroke:#000000;stroke-width:0.5;" x="146.512722" xlink:href="#m2cae93a0f6" y="149.526405"/>
     <use style="stroke:#000000;stroke-width:0.5;" x="169.693907" xlink:href="#m2cae93a0f6" y="135.794176"/>
     <use style="stroke:#000000;stroke-width:0.5;" x="104.937515" xlink:href="#m2cae93a0f6" y="110.039704"/>
     <use style="stroke:#000000;stroke-width:0.5;" x="271.403419" xlink:href="#m2cae93a0f6" y="257.6568"/>
     <use style="stroke:#000000;stroke-width:0.5;" x="305.055047" xlink:href="#m2cae93a0f6" y="276.815614"/>
     <use style="stroke:#000000;stroke-width:0.5;" x="382.946658" xlink:href="#m2cae93a0f6" y="251.322875"/>
     <use style="stroke:#000000;stroke-width:0.5;" x="352.172043" xlink:href="#m2cae93a0f6" y="276.867961"/>
     <use style="stroke:#000000;stroke-width:0.5;" x="233.742837" xlink:href="#m2cae93a0f6" y="282.311995"/>
     <use style="stroke:#000000;stroke-width:0.5;" x="160.308239" xlink:href="#m2cae93a0f6" y="122.969287"/>
     <use style="stroke:#000000;stroke-width:0.5;" x="214.122546" xlink:href="#m2cae93a0f6" y="140.889235"/>
     <use style="stroke:#000000;stroke-width:0.5;" x="97.155428" xlink:href="#m2cae93a0f6" y="250.50278"/>
     <use style="stroke:#000000;stroke-width:0.5;" x="86.543492" xlink:href="#m2cae93a0f6" y="218.15265"/>
     <use style="stroke:#000000;stroke-width:0.5;" x="78.973645" xlink:href="#m2cae93a0f6" y="251.375221"/>
     <use style="stroke:#000000;stroke-width:0.5;" x="78.643495" xlink:href="#m2cae93a0f6" y="256.993744"/>
    </g>
   </g>
   <g id="patch_3">
    <path d="M 57.6 305.0208 
L 57.6 41.1264 
" style="fill:none;stroke:#ffffff;stroke-linecap:square;stroke-linejoin:miter;"/>
   </g>
   <g id="patch_4">
    <path d="M 414.72 305.0208 
L 414.72 41.1264 
" style="fill:none;stroke:#ffffff;stroke-linecap:square;stroke-linejoin:miter;"/>
   </g>
   <g id="patch_5">
    <path d="M 57.6 305.0208 
L 414.72 305.0208 
" style="fill:none;stroke:#ffffff;stroke-linecap:square;stroke-linejoin:miter;"/>
   </g>
   <g id="patch_6">
    <path d="M 57.6 41.1264 
L 414.72 41.1264 
" style="fill:none;stroke:#ffffff;stroke-linecap:square;stroke-linejoin:miter;"/>
   </g>
   <g id="text_17">
    <!-- League-of-Legends-Death-Point OPL2018 after 20 minute -->
    <defs>
     <path d="M 9.8125 72.90625 
L 19.671875 72.90625 
L 19.671875 8.296875 
L 55.171875 8.296875 
L 55.171875 0 
L 9.8125 0 
z
" id="DejaVuSans-4c"/>
     <path d="M 56.203125 29.59375 
L 56.203125 25.203125 
L 14.890625 25.203125 
Q 15.484375 15.921875 20.484375 11.0625 
Q 25.484375 6.203125 34.421875 6.203125 
Q 39.59375 6.203125 44.453125 7.46875 
Q 49.3125 8.734375 54.109375 11.28125 
L 54.109375 2.78125 
Q 49.265625 0.734375 44.1875 -0.34375 
Q 39.109375 -1.421875 33.890625 -1.421875 
Q 20.796875 -1.421875 13.15625 6.1875 
Q 5.515625 13.8125 5.515625 26.8125 
Q 5.515625 40.234375 12.765625 48.109375 
Q 20.015625 56 32.328125 56 
Q 43.359375 56 49.78125 48.890625 
Q 56.203125 41.796875 56.203125 29.59375 
z
M 47.21875 32.234375 
Q 47.125 39.59375 43.09375 43.984375 
Q 39.0625 48.390625 32.421875 48.390625 
Q 24.90625 48.390625 20.390625 44.140625 
Q 15.875 39.890625 15.1875 32.171875 
z
" id="DejaVuSans-65"/>
     <path d="M 34.28125 27.484375 
Q 23.390625 27.484375 19.1875 25 
Q 14.984375 22.515625 14.984375 16.5 
Q 14.984375 11.71875 18.140625 8.90625 
Q 21.296875 6.109375 26.703125 6.109375 
Q 34.1875 6.109375 38.703125 11.40625 
Q 43.21875 16.703125 43.21875 25.484375 
L 43.21875 27.484375 
z
M 52.203125 31.203125 
L 52.203125 0 
L 43.21875 0 
L 43.21875 8.296875 
Q 40.140625 3.328125 35.546875 0.953125 
Q 30.953125 -1.421875 24.3125 -1.421875 
Q 15.921875 -1.421875 10.953125 3.296875 
Q 6 8.015625 6 15.921875 
Q 6 25.140625 12.171875 29.828125 
Q 18.359375 34.515625 30.609375 34.515625 
L 43.21875 34.515625 
L 43.21875 35.40625 
Q 43.21875 41.609375 39.140625 45 
Q 35.0625 48.390625 27.6875 48.390625 
Q 23 48.390625 18.546875 47.265625 
Q 14.109375 46.140625 10.015625 43.890625 
L 10.015625 52.203125 
Q 14.9375 54.109375 19.578125 55.046875 
Q 24.21875 56 28.609375 56 
Q 40.484375 56 46.34375 49.84375 
Q 52.203125 43.703125 52.203125 31.203125 
z
" id="DejaVuSans-61"/>
     <path d="M 45.40625 27.984375 
Q 45.40625 37.75 41.375 43.109375 
Q 37.359375 48.484375 30.078125 48.484375 
Q 22.859375 48.484375 18.828125 43.109375 
Q 14.796875 37.75 14.796875 27.984375 
Q 14.796875 18.265625 18.828125 12.890625 
Q 22.859375 7.515625 30.078125 7.515625 
Q 37.359375 7.515625 41.375 12.890625 
Q 45.40625 18.265625 45.40625 27.984375 
z
M 54.390625 6.78125 
Q 54.390625 -7.171875 48.1875 -13.984375 
Q 42 -20.796875 29.203125 -20.796875 
Q 24.46875 -20.796875 20.265625 -20.09375 
Q 16.0625 -19.390625 12.109375 -17.921875 
L 12.109375 -9.1875 
Q 16.0625 -11.328125 19.921875 -12.34375 
Q 23.78125 -13.375 27.78125 -13.375 
Q 36.625 -13.375 41.015625 -8.765625 
Q 45.40625 -4.15625 45.40625 5.171875 
L 45.40625 9.625 
Q 42.625 4.78125 38.28125 2.390625 
Q 33.9375 0 27.875 0 
Q 17.828125 0 11.671875 7.65625 
Q 5.515625 15.328125 5.515625 27.984375 
Q 5.515625 40.671875 11.671875 48.328125 
Q 17.828125 56 27.875 56 
Q 33.9375 56 38.28125 53.609375 
Q 42.625 51.21875 45.40625 46.390625 
L 45.40625 54.6875 
L 54.390625 54.6875 
z
" id="DejaVuSans-67"/>
     <path d="M 8.5 21.578125 
L 8.5 54.6875 
L 17.484375 54.6875 
L 17.484375 21.921875 
Q 17.484375 14.15625 20.5 10.265625 
Q 23.53125 6.390625 29.59375 6.390625 
Q 36.859375 6.390625 41.078125 11.03125 
Q 45.3125 15.671875 45.3125 23.6875 
L 45.3125 54.6875 
L 54.296875 54.6875 
L 54.296875 0 
L 45.3125 0 
L 45.3125 8.40625 
Q 42.046875 3.421875 37.71875 1 
Q 33.40625 -1.421875 27.6875 -1.421875 
Q 18.265625 -1.421875 13.375 4.4375 
Q 8.5 10.296875 8.5 21.578125 
z
M 31.109375 56 
z
" id="DejaVuSans-75"/>
     <path d="M 4.890625 31.390625 
L 31.203125 31.390625 
L 31.203125 23.390625 
L 4.890625 23.390625 
z
" id="DejaVuSans-2d"/>
     <path d="M 30.609375 48.390625 
Q 23.390625 48.390625 19.1875 42.75 
Q 14.984375 37.109375 14.984375 27.296875 
Q 14.984375 17.484375 19.15625 11.84375 
Q 23.34375 6.203125 30.609375 6.203125 
Q 37.796875 6.203125 41.984375 11.859375 
Q 46.1875 17.53125 46.1875 27.296875 
Q 46.1875 37.015625 41.984375 42.703125 
Q 37.796875 48.390625 30.609375 48.390625 
z
M 30.609375 56 
Q 42.328125 56 49.015625 48.375 
Q 55.71875 40.765625 55.71875 27.296875 
Q 55.71875 13.875 49.015625 6.21875 
Q 42.328125 -1.421875 30.609375 -1.421875 
Q 18.84375 -1.421875 12.171875 6.21875 
Q 5.515625 13.875 5.515625 27.296875 
Q 5.515625 40.765625 12.171875 48.375 
Q 18.84375 56 30.609375 56 
z
" id="DejaVuSans-6f"/>
     <path d="M 37.109375 75.984375 
L 37.109375 68.5 
L 28.515625 68.5 
Q 23.6875 68.5 21.796875 66.546875 
Q 19.921875 64.59375 19.921875 59.515625 
L 19.921875 54.6875 
L 34.71875 54.6875 
L 34.71875 47.703125 
L 19.921875 47.703125 
L 19.921875 0 
L 10.890625 0 
L 10.890625 47.703125 
L 2.296875 47.703125 
L 2.296875 54.6875 
L 10.890625 54.6875 
L 10.890625 58.5 
Q 10.890625 67.625 15.140625 71.796875 
Q 19.390625 75.984375 28.609375 75.984375 
z
" id="DejaVuSans-66"/>
     <path d="M 54.890625 33.015625 
L 54.890625 0 
L 45.90625 0 
L 45.90625 32.71875 
Q 45.90625 40.484375 42.875 44.328125 
Q 39.84375 48.1875 33.796875 48.1875 
Q 26.515625 48.1875 22.3125 43.546875 
Q 18.109375 38.921875 18.109375 30.90625 
L 18.109375 0 
L 9.078125 0 
L 9.078125 54.6875 
L 18.109375 54.6875 
L 18.109375 46.1875 
Q 21.34375 51.125 25.703125 53.5625 
Q 30.078125 56 35.796875 56 
Q 45.21875 56 50.046875 50.171875 
Q 54.890625 44.34375 54.890625 33.015625 
z
" id="DejaVuSans-6e"/>
     <path d="M 45.40625 46.390625 
L 45.40625 75.984375 
L 54.390625 75.984375 
L 54.390625 0 
L 45.40625 0 
L 45.40625 8.203125 
Q 42.578125 3.328125 38.25 0.953125 
Q 33.9375 -1.421875 27.875 -1.421875 
Q 17.96875 -1.421875 11.734375 6.484375 
Q 5.515625 14.40625 5.515625 27.296875 
Q 5.515625 40.1875 11.734375 48.09375 
Q 17.96875 56 27.875 56 
Q 33.9375 56 38.25 53.625 
Q 42.578125 51.265625 45.40625 46.390625 
z
M 14.796875 27.296875 
Q 14.796875 17.390625 18.875 11.75 
Q 22.953125 6.109375 30.078125 6.109375 
Q 37.203125 6.109375 41.296875 11.75 
Q 45.40625 17.390625 45.40625 27.296875 
Q 45.40625 37.203125 41.296875 42.84375 
Q 37.203125 48.484375 30.078125 48.484375 
Q 22.953125 48.484375 18.875 42.84375 
Q 14.796875 37.203125 14.796875 27.296875 
z
" id="DejaVuSans-64"/>
     <path d="M 44.28125 53.078125 
L 44.28125 44.578125 
Q 40.484375 46.53125 36.375 47.5 
Q 32.28125 48.484375 27.875 48.484375 
Q 21.1875 48.484375 17.84375 46.4375 
Q 14.5 44.390625 14.5 40.28125 
Q 14.5 37.15625 16.890625 35.375 
Q 19.28125 33.59375 26.515625 31.984375 
L 29.59375 31.296875 
Q 39.15625 29.25 43.1875 25.515625 
Q 47.21875 21.78125 47.21875 15.09375 
Q 47.21875 7.46875 41.1875 3.015625 
Q 35.15625 -1.421875 24.609375 -1.421875 
Q 20.21875 -1.421875 15.453125 -0.5625 
Q 10.6875 0.296875 5.421875 2 
L 5.421875 11.28125 
Q 10.40625 8.6875 15.234375 7.390625 
Q 20.0625 6.109375 24.8125 6.109375 
Q 31.15625 6.109375 34.5625 8.28125 
Q 37.984375 10.453125 37.984375 14.40625 
Q 37.984375 18.0625 35.515625 20.015625 
Q 33.0625 21.96875 24.703125 23.78125 
L 21.578125 24.515625 
Q 13.234375 26.265625 9.515625 29.90625 
Q 5.8125 33.546875 5.8125 39.890625 
Q 5.8125 47.609375 11.28125 51.796875 
Q 16.75 56 26.8125 56 
Q 31.78125 56 36.171875 55.265625 
Q 40.578125 54.546875 44.28125 53.078125 
z
" id="DejaVuSans-73"/>
     <path d="M 19.671875 64.796875 
L 19.671875 8.109375 
L 31.59375 8.109375 
Q 46.6875 8.109375 53.6875 14.9375 
Q 60.6875 21.78125 60.6875 36.53125 
Q 60.6875 51.171875 53.6875 57.984375 
Q 46.6875 64.796875 31.59375 64.796875 
z
M 9.8125 72.90625 
L 30.078125 72.90625 
Q 51.265625 72.90625 61.171875 64.09375 
Q 71.09375 55.28125 71.09375 36.53125 
Q 71.09375 17.671875 61.125 8.828125 
Q 51.171875 0 30.078125 0 
L 9.8125 0 
z
" id="DejaVuSans-44"/>
     <path d="M 18.3125 70.21875 
L 18.3125 54.6875 
L 36.8125 54.6875 
L 36.8125 47.703125 
L 18.3125 47.703125 
L 18.3125 18.015625 
Q 18.3125 11.328125 20.140625 9.421875 
Q 21.96875 7.515625 27.59375 7.515625 
L 36.8125 7.515625 
L 36.8125 0 
L 27.59375 0 
Q 17.1875 0 13.234375 3.875 
Q 9.28125 7.765625 9.28125 18.015625 
L 9.28125 47.703125 
L 2.6875 47.703125 
L 2.6875 54.6875 
L 9.28125 54.6875 
L 9.28125 70.21875 
z
" id="DejaVuSans-74"/>
     <path d="M 54.890625 33.015625 
L 54.890625 0 
L 45.90625 0 
L 45.90625 32.71875 
Q 45.90625 40.484375 42.875 44.328125 
Q 39.84375 48.1875 33.796875 48.1875 
Q 26.515625 48.1875 22.3125 43.546875 
Q 18.109375 38.921875 18.109375 30.90625 
L 18.109375 0 
L 9.078125 0 
L 9.078125 75.984375 
L 18.109375 75.984375 
L 18.109375 46.1875 
Q 21.34375 51.125 25.703125 53.5625 
Q 30.078125 56 35.796875 56 
Q 45.21875 56 50.046875 50.171875 
Q 54.890625 44.34375 54.890625 33.015625 
z
" id="DejaVuSans-68"/>
     <path d="M 19.671875 64.796875 
L 19.671875 37.40625 
L 32.078125 37.40625 
Q 38.96875 37.40625 42.71875 40.96875 
Q 46.484375 44.53125 46.484375 51.125 
Q 46.484375 57.671875 42.71875 61.234375 
Q 38.96875 64.796875 32.078125 64.796875 
z
M 9.8125 72.90625 
L 32.078125 72.90625 
Q 44.34375 72.90625 50.609375 67.359375 
Q 56.890625 61.8125 56.890625 51.125 
Q 56.890625 40.328125 50.609375 34.8125 
Q 44.34375 29.296875 32.078125 29.296875 
L 19.671875 29.296875 
L 19.671875 0 
L 9.8125 0 
z
" id="DejaVuSans-50"/>
     <path d="M 9.421875 54.6875 
L 18.40625 54.6875 
L 18.40625 0 
L 9.421875 0 
z
M 9.421875 75.984375 
L 18.40625 75.984375 
L 18.40625 64.59375 
L 9.421875 64.59375 
z
" id="DejaVuSans-69"/>
     <path id="DejaVuSans-20"/>
     <path d="M 39.40625 66.21875 
Q 28.65625 66.21875 22.328125 58.203125 
Q 16.015625 50.203125 16.015625 36.375 
Q 16.015625 22.609375 22.328125 14.59375 
Q 28.65625 6.59375 39.40625 6.59375 
Q 50.140625 6.59375 56.421875 14.59375 
Q 62.703125 22.609375 62.703125 36.375 
Q 62.703125 50.203125 56.421875 58.203125 
Q 50.140625 66.21875 39.40625 66.21875 
z
M 39.40625 74.21875 
Q 54.734375 74.21875 63.90625 63.9375 
Q 73.09375 53.65625 73.09375 36.375 
Q 73.09375 19.140625 63.90625 8.859375 
Q 54.734375 -1.421875 39.40625 -1.421875 
Q 24.03125 -1.421875 14.8125 8.828125 
Q 5.609375 19.09375 5.609375 36.375 
Q 5.609375 53.65625 14.8125 63.9375 
Q 24.03125 74.21875 39.40625 74.21875 
z
" id="DejaVuSans-4f"/>
     <path d="M 41.109375 46.296875 
Q 39.59375 47.171875 37.8125 47.578125 
Q 36.03125 48 33.890625 48 
Q 26.265625 48 22.1875 43.046875 
Q 18.109375 38.09375 18.109375 28.8125 
L 18.109375 0 
L 9.078125 0 
L 9.078125 54.6875 
L 18.109375 54.6875 
L 18.109375 46.1875 
Q 20.953125 51.171875 25.484375 53.578125 
Q 30.03125 56 36.53125 56 
Q 37.453125 56 38.578125 55.875 
Q 39.703125 55.765625 41.0625 55.515625 
z
" id="DejaVuSans-72"/>
     <path d="M 52 44.1875 
Q 55.375 50.25 60.0625 53.125 
Q 64.75 56 71.09375 56 
Q 79.640625 56 84.28125 50.015625 
Q 88.921875 44.046875 88.921875 33.015625 
L 88.921875 0 
L 79.890625 0 
L 79.890625 32.71875 
Q 79.890625 40.578125 77.09375 44.375 
Q 74.3125 48.1875 68.609375 48.1875 
Q 61.625 48.1875 57.5625 43.546875 
Q 53.515625 38.921875 53.515625 30.90625 
L 53.515625 0 
L 44.484375 0 
L 44.484375 32.71875 
Q 44.484375 40.625 41.703125 44.40625 
Q 38.921875 48.1875 33.109375 48.1875 
Q 26.21875 48.1875 22.15625 43.53125 
Q 18.109375 38.875 18.109375 30.90625 
L 18.109375 0 
L 9.078125 0 
L 9.078125 54.6875 
L 18.109375 54.6875 
L 18.109375 46.1875 
Q 21.1875 51.21875 25.484375 53.609375 
Q 29.78125 56 35.6875 56 
Q 41.65625 56 45.828125 52.96875 
Q 50 49.953125 52 44.1875 
z
" id="DejaVuSans-6d"/>
    </defs>
    <g transform="translate(28.97775 19.00155)scale(0.144 -0.144)">
     <use xlink:href="#DejaVuSans-4c"/>
     <use x="55.697266" xlink:href="#DejaVuSans-65"/>
     <use x="117.220703" xlink:href="#DejaVuSans-61"/>
     <use x="178.5" xlink:href="#DejaVuSans-67"/>
     <use x="241.976562" xlink:href="#DejaVuSans-75"/>
     <use x="305.355469" xlink:href="#DejaVuSans-65"/>
     <use x="366.878906" xlink:href="#DejaVuSans-2d"/>
     <use x="402.978516" xlink:href="#DejaVuSans-6f"/>
     <use x="464.160156" xlink:href="#DejaVuSans-66"/>
     <use x="499.287109" xlink:href="#DejaVuSans-2d"/>
     <use x="535.371094" xlink:href="#DejaVuSans-4c"/>
     <use x="591.068359" xlink:href="#DejaVuSans-65"/>
     <use x="652.591797" xlink:href="#DejaVuSans-67"/>
     <use x="716.068359" xlink:href="#DejaVuSans-65"/>
     <use x="777.591797" xlink:href="#DejaVuSans-6e"/>
     <use x="840.970703" xlink:href="#DejaVuSans-64"/>
     <use x="904.447266" xlink:href="#DejaVuSans-73"/>
     <use x="956.546875" xlink:href="#DejaVuSans-2d"/>
     <use x="992.630859" xlink:href="#DejaVuSans-44"/>
     <use x="1069.632812" xlink:href="#DejaVuSans-65"/>
     <use x="1131.15625" xlink:href="#DejaVuSans-61"/>
     <use x="1192.435547" xlink:href="#DejaVuSans-74"/>
     <use x="1231.644531" xlink:href="#DejaVuSans-68"/>
     <use x="1295.023438" xlink:href="#DejaVuSans-2d"/>
     <use x="1331.107422" xlink:href="#DejaVuSans-50"/>
     <use x="1391.363281" xlink:href="#DejaVuSans-6f"/>
     <use x="1452.544922" xlink:href="#DejaVuSans-69"/>
     <use x="1480.328125" xlink:href="#DejaVuSans-6e"/>
     <use x="1543.707031" xlink:href="#DejaVuSans-74"/>
     <use x="1582.916016" xlink:href="#DejaVuSans-20"/>
     <use x="1614.703125" xlink:href="#DejaVuSans-4f"/>
     <use x="1693.414062" xlink:href="#DejaVuSans-50"/>
     <use x="1753.716797" xlink:href="#DejaVuSans-4c"/>
     <use x="1809.429688" xlink:href="#DejaVuSans-32"/>
     <use x="1873.052734" xlink:href="#DejaVuSans-30"/>
     <use x="1936.675781" xlink:href="#DejaVuSans-31"/>
     <use x="2000.298828" xlink:href="#DejaVuSans-38"/>
     <use x="2063.921875" xlink:href="#DejaVuSans-20"/>
     <use x="2095.708984" xlink:href="#DejaVuSans-61"/>
     <use x="2156.988281" xlink:href="#DejaVuSans-66"/>
     <use x="2192.177734" xlink:href="#DejaVuSans-74"/>
     <use x="2231.386719" xlink:href="#DejaVuSans-65"/>
     <use x="2292.910156" xlink:href="#DejaVuSans-72"/>
     <use x="2334.023438" xlink:href="#DejaVuSans-20"/>
     <use x="2365.810547" xlink:href="#DejaVuSans-32"/>
     <use x="2429.433594" xlink:href="#DejaVuSans-30"/>
     <use x="2493.056641" xlink:href="#DejaVuSans-20"/>
     <use x="2524.84375" xlink:href="#DejaVuSans-6d"/>
     <use x="2622.255859" xlink:href="#DejaVuSans-69"/>
     <use x="2650.039062" xlink:href="#DejaVuSans-6e"/>
     <use x="2713.417969" xlink:href="#DejaVuSans-75"/>
     <use x="2776.796875" xlink:href="#DejaVuSans-74"/>
     <use x="2816.005859" xlink:href="#DejaVuSans-65"/>
    </g>
    <!-- Total Kills = 263 -->
    <defs>
     <path d="M -0.296875 72.90625 
L 61.375 72.90625 
L 61.375 64.59375 
L 35.5 64.59375 
L 35.5 0 
L 25.59375 0 
L 25.59375 64.59375 
L -0.296875 64.59375 
z
" id="DejaVuSans-54"/>
     <path d="M 9.421875 75.984375 
L 18.40625 75.984375 
L 18.40625 0 
L 9.421875 0 
z
" id="DejaVuSans-6c"/>
     <path d="M 9.8125 72.90625 
L 19.671875 72.90625 
L 19.671875 42.09375 
L 52.390625 72.90625 
L 65.09375 72.90625 
L 28.90625 38.921875 
L 67.671875 0 
L 54.6875 0 
L 19.671875 35.109375 
L 19.671875 0 
L 9.8125 0 
z
" id="DejaVuSans-4b"/>
     <path d="M 10.59375 45.40625 
L 73.1875 45.40625 
L 73.1875 37.203125 
L 10.59375 37.203125 
z
M 10.59375 25.484375 
L 73.1875 25.484375 
L 73.1875 17.1875 
L 10.59375 17.1875 
z
" id="DejaVuSans-3d"/>
     <path d="M 40.578125 39.3125 
Q 47.65625 37.796875 51.625 33 
Q 55.609375 28.21875 55.609375 21.1875 
Q 55.609375 10.40625 48.1875 4.484375 
Q 40.765625 -1.421875 27.09375 -1.421875 
Q 22.515625 -1.421875 17.65625 -0.515625 
Q 12.796875 0.390625 7.625 2.203125 
L 7.625 11.71875 
Q 11.71875 9.328125 16.59375 8.109375 
Q 21.484375 6.890625 26.8125 6.890625 
Q 36.078125 6.890625 40.9375 10.546875 
Q 45.796875 14.203125 45.796875 21.1875 
Q 45.796875 27.640625 41.28125 31.265625 
Q 36.765625 34.90625 28.71875 34.90625 
L 20.21875 34.90625 
L 20.21875 43.015625 
L 29.109375 43.015625 
Q 36.375 43.015625 40.234375 45.921875 
Q 44.09375 48.828125 44.09375 54.296875 
Q 44.09375 59.90625 40.109375 62.90625 
Q 36.140625 65.921875 28.71875 65.921875 
Q 24.65625 65.921875 20.015625 65.03125 
Q 15.375 64.15625 9.8125 62.3125 
L 9.8125 71.09375 
Q 15.4375 72.65625 20.34375 73.4375 
Q 25.25 74.21875 29.59375 74.21875 
Q 40.828125 74.21875 47.359375 69.109375 
Q 53.90625 64.015625 53.90625 55.328125 
Q 53.90625 49.265625 50.4375 45.09375 
Q 46.96875 40.921875 40.578125 39.3125 
z
" id="DejaVuSans-33"/>
    </defs>
    <g transform="translate(177.026625 35.1264)scale(0.144 -0.144)">
     <use xlink:href="#DejaVuSans-54"/>
     <use x="60.818359" xlink:href="#DejaVuSans-6f"/>
     <use x="122" xlink:href="#DejaVuSans-74"/>
     <use x="161.208984" xlink:href="#DejaVuSans-61"/>
     <use x="222.488281" xlink:href="#DejaVuSans-6c"/>
     <use x="250.271484" xlink:href="#DejaVuSans-20"/>
     <use x="282.058594" xlink:href="#DejaVuSans-4b"/>
     <use x="347.634766" xlink:href="#DejaVuSans-69"/>
     <use x="375.417969" xlink:href="#DejaVuSans-6c"/>
     <use x="403.201172" xlink:href="#DejaVuSans-6c"/>
     <use x="430.984375" xlink:href="#DejaVuSans-73"/>
     <use x="483.083984" xlink:href="#DejaVuSans-20"/>
     <use x="514.871094" xlink:href="#DejaVuSans-3d"/>
     <use x="598.660156" xlink:href="#DejaVuSans-20"/>
     <use x="630.447266" xlink:href="#DejaVuSans-32"/>
     <use x="694.070312" xlink:href="#DejaVuSans-36"/>
     <use x="757.693359" xlink:href="#DejaVuSans-33"/>
    </g>
   </g>
  </g>
 </g>
 <defs>
  <clipPath id="p94d4f59920">
   <rect height="263.8944" width="357.12" x="57.6" y="41.1264"/>
  </clipPath>
 </defs>
</svg>
